<mxfile host="app.diagrams.net" modified="2022-04-14T08:33:51.570Z" agent="5.0 (Windows NT 10.0; Win64; x64) AppleWebKit/537.36 (KHTML, like Gecko) Chrome/100.0.4896.88 Safari/537.36" etag="uAf-Aw3MNRm06KPvH50w" version="17.2.1" type="github">
  <diagram id="5x__FjPOGDlVyBmvWdMc" name="Page-1">
    <mxGraphModel dx="1038" dy="547" grid="1" gridSize="10" guides="1" tooltips="1" connect="1" arrows="1" fold="1" page="1" pageScale="1" pageWidth="827" pageHeight="1169" math="0" shadow="0">
      <root>
        <mxCell id="0" />
        <mxCell id="1" parent="0" />
        <mxCell id="SPn83IJFLfhqAifAaKUE-2" value="" style="shape=image;verticalLabelPosition=bottom;verticalAlign=top;imageAspect=0;aspect=fixed;image=data:image/jpeg,/9j/4AAQSkZJRgABAQAAAQABAAD/2wCEAAoHCBISEhERERISEhISERASEhESERIREhESFxMYGBgUFRcbICwkGx0pHhcXJTYlKS4wMzMzGyQ5PjkxPSwyMzIBCwsLEA4QHRISHTMpJCo4MDAzMjAyMjMyMDIyMjIyMzIwMjIyMjIyMjAyMjIyMzQwMjIyMjIyMDIyMjIyMjIyMv/AABEIAOEA4QMBIgACEQEDEQH/xAAcAAEAAQUBAQAAAAAAAAAAAAAABAECAwUHBgj/xABDEAACAQIBCQMICAQFBQAAAAAAAQIDEQQFBhIhMUFRYXETIoEyQpGhorHB0QcUI1JygpLhQ1Ni8BYzssLSJDRUY/H/xAAaAQEAAwEBAQAAAAAAAAAAAAAAAgMEBQEG/8QALxEAAgECBAIJBQEBAQAAAAAAAAECAxEEEjFRIUETImFxgaGxwfAFFDKR4dHxQv/aAAwDAQACEQMRAD8A7MAAAAAAAAAAAAAAAAafKOX8PQvGU9KS8yn3peO5eLIznGCvJ2R7GLk7JXNwDxGKzzqP/KpRiuM25v0K1vWa6ec+Meyoo8lTh8UzFL6lQjpd9y/2xpWDqPWyOkA5qs5Mav4z8adP/iTMPnhiF5cadRdHGXpTt6jyP1Oi9brw/wAbPXgqi2/f+nvgedwGdlCpZVFKjJ7pd6N/xL4pG+hNSSlFpxaummmmuKZsp1YVFeDuZ505QdpKxkABYQAAAAAAAAAAAAAAAAAAAAAAAAAAABHxWJhSg51JKMYrW37lxZdiK0acZTm1GMU3Jvckc6yxlWpjKiSTUE2qdPh/VL+r3GXFYqNCPa9F8+MvoUHVfYSssZy1a7dOlpU6b1WXlz/E1s6L1kHDZIlLXN6C4LXL9jY4DJ8aau7Oe+XDkiVKfD0nElmqPPVd2dFWgssERqeT6cPNT5y73vMt4rZbwRXQKOme2tohqWuUePqZhqYenPbGL8LMyygYZwK5PdEkiHXyYtsHblLWvSWYDKdfCy7raV7ypy1wl4buqJmm1zRWcIVI2auvWmRi8rvB2ZJ8VZ8UeuyPlmniY3j3ZxXfpt96PNcVz9xtTlMlUw9RTg2mneMl7n8UdByHlWOJp6SspxsqkPuy4rk937HaweM6XqT/AC9f7ujm4jD5OtHT0NqADoGUAAAAAAAAAAAAAAAAAAAAAAEbG4hUqc6j2Qi5W42Wzx2HjduLB5DPTKmlJYaL7sbSqW86e1R6Ja+rXAi5KwfZx05LvyX6Y8DW4KDrVnOetuUpzfFt397N/N7uPuPnJVHVm6svD5843OuoKEVBCUr9C+ECkESKcSyKueN2MagHAkxgUlAscCvMQ5wME4kycSPNFM4lsWQqkTDdp3RKmiNURkmi6JmnCM4NPY/SmQcl42WFrqWuyejOK8+D2/NdCRQnZ8nqMOVaWpTW7uvpu/vmSjN8Jx1QcV+L0Z0qnNSipRacZJOLWxpq6aMh5zM3G9ph3TbvKjK35Hrj8V4Hoz6elUVSCmuZxakHCTiwACwgAAAAAAAAAAAAAAAAAADz2elfRwuiv4lSEfBXl/tR6E8hn7LuYdcZTfoS+ZmxkrUJ91v3w9y7Dq9WJpsiU7RlLjK3gl+5Pbu36CLkn/Lj1l72Z4yOBF2SOo9WSqZKpkOEiRCRqgymSJkS2oYlMSmX5lYrsY5kaZmnIjzZmmy2JHqEaoSJsjTZjqGiJjJNWOnCS4xfp/8ApGJVDyV4+8jT1seyL8yK2jiJQ3VKctX9UWmvVpHvzmma7tjaP4qi9iR0s7v0yV6Ntm/Z+5zMarVL9gAB0TIAAAAAAAAAAAAAAAAAADyefkPs6M+E5R/VG/8AtPWGkzrw3aYWpbW4ONRdIvvey5GfFRcqMkti2g7VIs8pkmf2a5SkvXf4maLs/EgZIqeVHpJe5/Am1NUuus+cv1UddriyTGRmhMhQmZYzLYzIOJLVQORGUw5lnSEcplnIwykWymYZTKpSJRiJyI0mXykWGaTuXJFCVR1RT6sjJX1GbGT0KcumivHUSp82eSMeacNLGUnw7ST/AES+LR0k8PmLhr1KtXdGCiusnf3R9Z7g7302OWjfdt+3sczGSvUtskAAdAyAAAAAAAAAAAAAAAAAAAx1IKUZRkrqSaa4pqzRkAByvEUZYavKLv3JtX+9F7H4qzNlNaUU1r3rmM+cdhVVp03NfWG9FxjrtB61pvzXfYtveIGTsVb7OWzzXwfA+bxOHdCpkej4ru/mnnzOxRq9LDMtVr3/ADiSYyMqmUrUt6270YLmVtx1LlZkntA6hG0hpDOMpnlMxSkWXBFyuSsVKAyUqel0IpXDdi/Dw870EHKte8lBbI631JmMxKpxsvKa7q4cyzNnBwr4i05ReglUlTclpz16u7tcb7X4bzTCk5yVOOr+X8CqU1FOcj2WbWA7DDwi1ac/tJ8U5bF4KyNwURU+mhBQiorRHGlJybb5gAEyIAAAAAAAAAAAAAAAAAAOc56Z9dm5YbBSTqK8amIVmqb3wp8ZcZbF12W/SDng4OWCwsrT8nEVYvXD/wBcH97i92zbe3iclZMvapNavMg/e18DbQoK2efgjNVq/wDmJGw2TZVL1Kjloybk223Obettt8eL2m9oYhXUG+9bVru2lx5mLFYm14x273w6Gvoapxb3uz8dXxJYzBwxVPLPwfNP5quZDD4mVCd4/wDfnl+0/XYPH2tGps3S4dSfKEZa1v3rWmeYVVx1PWvWiXh8U464S6r5o+OxODq4Z2qK63Wn8fY/C59FQxFOt+D47c/74G2lRkufQxtPgyynlP78fGL+DM8co03va6xfwMeSO5ou9iwrGnJ7vTqL3j6f3n+mRhnlOPmxk+tkhkjzYzPYlQoLfr5bjDisbGGqNpS4bl1+Rr6+OnK93ox4bPSyE6u6OvnuNGHoVKzy0Y33fJd7+PsKqtWFJXqPw/hkxFd65Sd5P+/QeYqzr0ayrqpJTUtKNWLs4vguVtVuBuMfUcIxttct+9Ja/ei6k4VINNdYvcfW/T/p8cJG+rer9l2evM4GLxcsQ9ktF7vt9D32ZeeMMYlRrWhiorZshWSWuUOD3uPitV7exPnfF4WdCcZwlJWkpQnFtShJO61rY1xOsZjZ2LGw7Gs0sVTj3tiVaK1dpHnxXjseqzEUMvWjp6EaVW/Vep7AAGQ0AAAAAAAAAAAAAAAA8pn3nH9SoaNN/wDUVtKNP+iPnVH0ukubW5M9PVqxhGU5NKMU5Sk9SSSu2/A4NlrKE8oYydXWoylo00/Moxvor0Xb5yZow9LPK70RVWnlXDVmLJOC7STqTu4pt69bnPa229vxZtMZibdyO3e+HIuqyVOCjHVZaMV8TXXOmlfizA3yKopKJVFxYQNnFacFLitfXea/HycF3dUnsa1NLiScBXUXoy8mWx8JEbKMb1JcrJeC+dyjo+NizNwPR5JoxxNCFS3fXcqaLt31tdtmtWfiZpZJ4S9KTNfmTiNGvKjLyasW4/jgm16Y6XoR7iWG5HExOAoKbTgt9vRo6tDF1HH8n87zy0ckv73s/uSIZKgruV2kru7sklteo9CsNyNTnZPscHO2qVRqjH83leypFVPAULpKC478fW5OeKqJNuXp7HPPrrnWlN3UJzejF7Ixv3bLpa5uqVI8/Gkb1YpQowltnKNormtWk/Qd/o1FJR0OQ5tttkDKc9KpZbILR8d/y8CLCbi007NFZMtZbaysQNnGUasGmtuqUeBp71MJWhUpycZwkp05r48dV01vTZmpVXCSkvFcVwJ+KoqrT1bdsXwZB8O4knc6zmzluGOw8a0LRl5NWne/Z1Ftj02NPg0bk4dmPlt4LFxU3ajWcaVZPZF37k/ytu/KUjuJzK9Lo5cNORvpTzxAAKSwAAAAAAAAAAAA8b9JmU+xwTpxdp4mSpatvZrvT8Gko/nObZCoWUqj2vux6Lb6/cb/AOlnF6WLo0t1KhpfmnJ39UImrors6MVvjBfqf7s6VCOWmu3iYqrvN9hHxdTSm+C1L4mFFqZVM1ozMvRVMxpl1yR4XlW+JZcXPQZsLXdOpCpHyoTjNc3F3t47DsdJwqRjOLvGcYzi+MZK695xa50zM3G9phIRb10pSpPotcfZkl4GHGwvFS8P388zVhZcXE9AqaPB/SJiU6lGgtkISqy/FN6K9Ci/1HudM5RnNi+1xeIne6VR049KaUNX6W/Ez4ON6l9kW4mVoW3NYUbKNlGzqGEoyjDLWeAMmYCrrcHv1rrvRCKxnotNbU0yL4okmUyzh7SU0tU9v4jr+YeVnisFTlN3qUr0aje1yhbRk+bi4vq2cwyhTU6UmtyU1/fQ3v0TY/RxFfDt92rSVSK3acJWdubU/ZM2IjmpdxfRladtzrAAOabQAAAAAAAAAUbKmGrIA4pn/PSyniU9zowXTsofNl2Of2b6pesx5+Q0cpYiX3uxmua7KC96ZfjtdNv8L9Z1ofhG2yOfPWRrUxKVi25YndlxVYzQL7mO5W56eF9xctuLgF1z1mYWKtUrUm/KhGpFc4vRf+peg8jc2ebeJ0MXRd9UpOm+emml67FVeOam0TpO00zpeJxKpwqTeynCc3+WLfwORSk3retvW3xb2nQs6cToYSpxnoU1+aSv6kznVyjBrqt7v0L8U+skXXLWwW3NhlAZQo2eHpbpa7FWY6ztZ+BWE7kSRt8I9Kmk+DiY8yK7p5Swrva9WcHzU4Sjb0tF2T/I/MyJm/8A9/hbf+XS9HaIreku5k1qjv6dypgoyM5yToAAAAAAAAAAi4hkojYhAHJ/pOwujiKNa2qpTdNvdpU5X9016DW4SfaUo846L6rV+577PTJTxOFqRir1Kb7Wmt7lFO8V1i5Lq0cwyPibScHsnrj+L917jo0JZqfcYqytPvLKra1b72+YgSMo0u9prZqT5PiR0aE78SlovuLltytyZEuuC24uDwuuXU6jhKM1tjKMl1TuvcY7i4B7HPXEJ06EU9VSUqnhGKS/1nj7myy1i9OGEW3Qw0U/xaUov/QjV3KcPHLBLv8AUuqvNNsrcXLbi5bcrsVuWti5a2eApWV4v0+gjQmSmYMNRvK72RfpfAhN24k4q/A3lHuU03ui5PrtLMy6DqY/D8ISnUlyUYSaf6tEiY3E9xQ3yd30PW/Rnk1/a4qS2/ZU+aTUptcrqK8GVzllpt7k4RvNI6Vh2TCHh0TDmG4AAAAAAAAAGOrG6MgANXXgcoz3yC8PVeIpp9lUld2/hVG725JvWud1wOx1aRrMbhI1IShOKnCacZRkrqSe5ltKq6crohUhnVjj+BxSqd2VtO2tPzlxRSvgmtcNa4b18zZZw5nVaEnUwylUpXvoq7q0/DbJc1r48TSYfKko6prTS1X2S8eJ0YNSWaBikmnaRbKLW1NdVYpc2EMpU3tbjylF/C5d9Yovzqfil8SWZ7EbGtuVubHtaHGn7I7Whxp+yM3YMprrlLmy7Whxp+yO1ocafsjN2CxrnL1FLmy7Wjxp+yO1o8afsjN2DKay5S5s+1o8afsjtaPGn7IzdgymsuXQpyl5Kb6I2X1mivOh4JfAxzylTWxuXRfMXewsWUcA9s3ZfdW3xZhxM4wckuLsvEsr5Um9UVoLjtfpJWRM3cTi5KUU4U3trVE9G39C2zfTVzRGSVrzfAktokbJWTamMrRp09r1zna8acN8n8FvZ2fJWBhRpwpU1aEIqMVv6vm3dvmyLkHIdLCU1ClHbZzqS1zqS4yfw2I31GkYK9bpHw0NdKnk11MlKJmKJFSgtAAAAAAAAAAAABhqUrmYAGsq4c0OVc28NiG3UpRc3/EjeFTxlHb43PXuKZinh0z1Np3R40nqcvxWYNPX2dacOU4xml6NE1tTMaqtlam+sJR+Z1ipheRGnheRcsTUXMrdGD5HKZZm11/Eo+38ix5oV/5lL2/kdRlhORglhOR791U38jzoIHM3mnW/mUvb+RT/AArW+/S9v5HSZYPkWvB8h91U38h0EDnH+Fa336Xt/Iqs1K38yl7fyOjfU+RcsHyH3VTfyHQQOcrNGv8AzKXt/IujmbXf8Sj7f/E6PHCcjPDCch91U38j3oIHN4Zj13tq0l0U38ET8LmAn/mV5PlCmo+uTfuOgQwvIlU8KePE1Xz9B0MNjy+TM0MJSakqWnJW71Z6etb1F91Poj0tHDkyGHsZ1FIplJyd2yxJLQxU6NjMkVB4egAAAAAAAAAAAAAAAAAAAAAscE9xeADC6CLJYZEkAEN4Qt+qE4AEH6oXLCEwAEaOGRdGgjOACxQSLioAAAAAAAAAAAAAAAAAAAAAAAAAAAAAAAAAAAAAAAAAAAAAAAAAAAAAAAAAAAAAP//Z" vertex="1" parent="1">
          <mxGeometry x="60" y="290" width="70" height="70" as="geometry" />
        </mxCell>
        <mxCell id="SPn83IJFLfhqAifAaKUE-3" value="" style="shape=image;verticalLabelPosition=bottom;verticalAlign=top;imageAspect=0;aspect=fixed;image=data:image/jpeg,/9j/4AAQSkZJRgABAQAAAQABAAD/2wCEAAoHCBISEhERERISEhISERASEhESERIREhESFxMYGBgUFRcbICwkGx0pHhcXJTYlKS4wMzMzGyQ5PjkxPSwyMzIBCwsLEA4QHRISHTMpJCo4MDAzMjAyMjMyMDIyMjIyMzIwMjIyMjIyMjAyMjIyMzQwMjIyMjIyMDIyMjIyMjIyMv/AABEIAOEA4QMBIgACEQEDEQH/xAAcAAEAAQUBAQAAAAAAAAAAAAAABAECAwUHBgj/xABDEAACAQIBCQMICAQFBQAAAAAAAQIDEQQFBhIhMUFRYXETIoEyQpGhorHB0QcUI1JygpLhQ1Ni8BYzssLSJDRUY/H/xAAaAQEAAwEBAQAAAAAAAAAAAAAAAgMEBQEG/8QALxEAAgECBAIJBQEBAQAAAAAAAAECAxEEEjFRIUETImFxgaGxwfAFFDKR4dHxQv/aAAwDAQACEQMRAD8A7MAAAAAAAAAAAAAAAAafKOX8PQvGU9KS8yn3peO5eLIznGCvJ2R7GLk7JXNwDxGKzzqP/KpRiuM25v0K1vWa6ec+Meyoo8lTh8UzFL6lQjpd9y/2xpWDqPWyOkA5qs5Mav4z8adP/iTMPnhiF5cadRdHGXpTt6jyP1Oi9brw/wAbPXgqi2/f+nvgedwGdlCpZVFKjJ7pd6N/xL4pG+hNSSlFpxaummmmuKZsp1YVFeDuZ505QdpKxkABYQAAAAAAAAAAAAAAAAAAAAAAAAAAABHxWJhSg51JKMYrW37lxZdiK0acZTm1GMU3Jvckc6yxlWpjKiSTUE2qdPh/VL+r3GXFYqNCPa9F8+MvoUHVfYSssZy1a7dOlpU6b1WXlz/E1s6L1kHDZIlLXN6C4LXL9jY4DJ8aau7Oe+XDkiVKfD0nElmqPPVd2dFWgssERqeT6cPNT5y73vMt4rZbwRXQKOme2tohqWuUePqZhqYenPbGL8LMyygYZwK5PdEkiHXyYtsHblLWvSWYDKdfCy7raV7ypy1wl4buqJmm1zRWcIVI2auvWmRi8rvB2ZJ8VZ8UeuyPlmniY3j3ZxXfpt96PNcVz9xtTlMlUw9RTg2mneMl7n8UdByHlWOJp6SspxsqkPuy4rk937HaweM6XqT/AC9f7ujm4jD5OtHT0NqADoGUAAAAAAAAAAAAAAAAAAAAAAEbG4hUqc6j2Qi5W42Wzx2HjduLB5DPTKmlJYaL7sbSqW86e1R6Ja+rXAi5KwfZx05LvyX6Y8DW4KDrVnOetuUpzfFt397N/N7uPuPnJVHVm6svD5843OuoKEVBCUr9C+ECkESKcSyKueN2MagHAkxgUlAscCvMQ5wME4kycSPNFM4lsWQqkTDdp3RKmiNURkmi6JmnCM4NPY/SmQcl42WFrqWuyejOK8+D2/NdCRQnZ8nqMOVaWpTW7uvpu/vmSjN8Jx1QcV+L0Z0qnNSipRacZJOLWxpq6aMh5zM3G9ph3TbvKjK35Hrj8V4Hoz6elUVSCmuZxakHCTiwACwgAAAAAAAAAAAAAAAAAADz2elfRwuiv4lSEfBXl/tR6E8hn7LuYdcZTfoS+ZmxkrUJ91v3w9y7Dq9WJpsiU7RlLjK3gl+5Pbu36CLkn/Lj1l72Z4yOBF2SOo9WSqZKpkOEiRCRqgymSJkS2oYlMSmX5lYrsY5kaZmnIjzZmmy2JHqEaoSJsjTZjqGiJjJNWOnCS4xfp/8ApGJVDyV4+8jT1seyL8yK2jiJQ3VKctX9UWmvVpHvzmma7tjaP4qi9iR0s7v0yV6Ntm/Z+5zMarVL9gAB0TIAAAAAAAAAAAAAAAAAADyefkPs6M+E5R/VG/8AtPWGkzrw3aYWpbW4ONRdIvvey5GfFRcqMkti2g7VIs8pkmf2a5SkvXf4maLs/EgZIqeVHpJe5/Am1NUuus+cv1UddriyTGRmhMhQmZYzLYzIOJLVQORGUw5lnSEcplnIwykWymYZTKpSJRiJyI0mXykWGaTuXJFCVR1RT6sjJX1GbGT0KcumivHUSp82eSMeacNLGUnw7ST/AES+LR0k8PmLhr1KtXdGCiusnf3R9Z7g7302OWjfdt+3sczGSvUtskAAdAyAAAAAAAAAAAAAAAAAAAx1IKUZRkrqSaa4pqzRkAByvEUZYavKLv3JtX+9F7H4qzNlNaUU1r3rmM+cdhVVp03NfWG9FxjrtB61pvzXfYtveIGTsVb7OWzzXwfA+bxOHdCpkej4ru/mnnzOxRq9LDMtVr3/ADiSYyMqmUrUt6270YLmVtx1LlZkntA6hG0hpDOMpnlMxSkWXBFyuSsVKAyUqel0IpXDdi/Dw870EHKte8lBbI631JmMxKpxsvKa7q4cyzNnBwr4i05ReglUlTclpz16u7tcb7X4bzTCk5yVOOr+X8CqU1FOcj2WbWA7DDwi1ac/tJ8U5bF4KyNwURU+mhBQiorRHGlJybb5gAEyIAAAAAAAAAAAAAAAAAAOc56Z9dm5YbBSTqK8amIVmqb3wp8ZcZbF12W/SDng4OWCwsrT8nEVYvXD/wBcH97i92zbe3iclZMvapNavMg/e18DbQoK2efgjNVq/wDmJGw2TZVL1Kjloybk223Obettt8eL2m9oYhXUG+9bVru2lx5mLFYm14x273w6Gvoapxb3uz8dXxJYzBwxVPLPwfNP5quZDD4mVCd4/wDfnl+0/XYPH2tGps3S4dSfKEZa1v3rWmeYVVx1PWvWiXh8U464S6r5o+OxODq4Z2qK63Wn8fY/C59FQxFOt+D47c/74G2lRkufQxtPgyynlP78fGL+DM8co03va6xfwMeSO5ou9iwrGnJ7vTqL3j6f3n+mRhnlOPmxk+tkhkjzYzPYlQoLfr5bjDisbGGqNpS4bl1+Rr6+OnK93ox4bPSyE6u6OvnuNGHoVKzy0Y33fJd7+PsKqtWFJXqPw/hkxFd65Sd5P+/QeYqzr0ayrqpJTUtKNWLs4vguVtVuBuMfUcIxttct+9Ja/ei6k4VINNdYvcfW/T/p8cJG+rer9l2evM4GLxcsQ9ktF7vt9D32ZeeMMYlRrWhiorZshWSWuUOD3uPitV7exPnfF4WdCcZwlJWkpQnFtShJO61rY1xOsZjZ2LGw7Gs0sVTj3tiVaK1dpHnxXjseqzEUMvWjp6EaVW/Vep7AAGQ0AAAAAAAAAAAAAAAA8pn3nH9SoaNN/wDUVtKNP+iPnVH0ukubW5M9PVqxhGU5NKMU5Sk9SSSu2/A4NlrKE8oYydXWoylo00/Moxvor0Xb5yZow9LPK70RVWnlXDVmLJOC7STqTu4pt69bnPa229vxZtMZibdyO3e+HIuqyVOCjHVZaMV8TXXOmlfizA3yKopKJVFxYQNnFacFLitfXea/HycF3dUnsa1NLiScBXUXoy8mWx8JEbKMb1JcrJeC+dyjo+NizNwPR5JoxxNCFS3fXcqaLt31tdtmtWfiZpZJ4S9KTNfmTiNGvKjLyasW4/jgm16Y6XoR7iWG5HExOAoKbTgt9vRo6tDF1HH8n87zy0ckv73s/uSIZKgruV2kru7sklteo9CsNyNTnZPscHO2qVRqjH83leypFVPAULpKC478fW5OeKqJNuXp7HPPrrnWlN3UJzejF7Ixv3bLpa5uqVI8/Gkb1YpQowltnKNormtWk/Qd/o1FJR0OQ5tttkDKc9KpZbILR8d/y8CLCbi007NFZMtZbaysQNnGUasGmtuqUeBp71MJWhUpycZwkp05r48dV01vTZmpVXCSkvFcVwJ+KoqrT1bdsXwZB8O4knc6zmzluGOw8a0LRl5NWne/Z1Ftj02NPg0bk4dmPlt4LFxU3ajWcaVZPZF37k/ytu/KUjuJzK9Lo5cNORvpTzxAAKSwAAAAAAAAAAAA8b9JmU+xwTpxdp4mSpatvZrvT8Gko/nObZCoWUqj2vux6Lb6/cb/AOlnF6WLo0t1KhpfmnJ39UImrors6MVvjBfqf7s6VCOWmu3iYqrvN9hHxdTSm+C1L4mFFqZVM1ozMvRVMxpl1yR4XlW+JZcXPQZsLXdOpCpHyoTjNc3F3t47DsdJwqRjOLvGcYzi+MZK695xa50zM3G9phIRb10pSpPotcfZkl4GHGwvFS8P388zVhZcXE9AqaPB/SJiU6lGgtkISqy/FN6K9Ci/1HudM5RnNi+1xeIne6VR049KaUNX6W/Ez4ON6l9kW4mVoW3NYUbKNlGzqGEoyjDLWeAMmYCrrcHv1rrvRCKxnotNbU0yL4okmUyzh7SU0tU9v4jr+YeVnisFTlN3qUr0aje1yhbRk+bi4vq2cwyhTU6UmtyU1/fQ3v0TY/RxFfDt92rSVSK3acJWdubU/ZM2IjmpdxfRladtzrAAOabQAAAAAAAAAUbKmGrIA4pn/PSyniU9zowXTsofNl2Of2b6pesx5+Q0cpYiX3uxmua7KC96ZfjtdNv8L9Z1ofhG2yOfPWRrUxKVi25YndlxVYzQL7mO5W56eF9xctuLgF1z1mYWKtUrUm/KhGpFc4vRf+peg8jc2ebeJ0MXRd9UpOm+emml67FVeOam0TpO00zpeJxKpwqTeynCc3+WLfwORSk3retvW3xb2nQs6cToYSpxnoU1+aSv6kznVyjBrqt7v0L8U+skXXLWwW3NhlAZQo2eHpbpa7FWY6ztZ+BWE7kSRt8I9Kmk+DiY8yK7p5Swrva9WcHzU4Sjb0tF2T/I/MyJm/8A9/hbf+XS9HaIreku5k1qjv6dypgoyM5yToAAAAAAAAAAi4hkojYhAHJ/pOwujiKNa2qpTdNvdpU5X9016DW4SfaUo846L6rV+577PTJTxOFqRir1Kb7Wmt7lFO8V1i5Lq0cwyPibScHsnrj+L917jo0JZqfcYqytPvLKra1b72+YgSMo0u9prZqT5PiR0aE78SlovuLltytyZEuuC24uDwuuXU6jhKM1tjKMl1TuvcY7i4B7HPXEJ06EU9VSUqnhGKS/1nj7myy1i9OGEW3Qw0U/xaUov/QjV3KcPHLBLv8AUuqvNNsrcXLbi5bcrsVuWti5a2eApWV4v0+gjQmSmYMNRvK72RfpfAhN24k4q/A3lHuU03ui5PrtLMy6DqY/D8ISnUlyUYSaf6tEiY3E9xQ3yd30PW/Rnk1/a4qS2/ZU+aTUptcrqK8GVzllpt7k4RvNI6Vh2TCHh0TDmG4AAAAAAAAAGOrG6MgANXXgcoz3yC8PVeIpp9lUld2/hVG725JvWud1wOx1aRrMbhI1IShOKnCacZRkrqSe5ltKq6crohUhnVjj+BxSqd2VtO2tPzlxRSvgmtcNa4b18zZZw5nVaEnUwylUpXvoq7q0/DbJc1r48TSYfKko6prTS1X2S8eJ0YNSWaBikmnaRbKLW1NdVYpc2EMpU3tbjylF/C5d9Yovzqfil8SWZ7EbGtuVubHtaHGn7I7Whxp+yM3YMprrlLmy7Whxp+yO1ocafsjN2CxrnL1FLmy7Wjxp+yO1o8afsjN2DKay5S5s+1o8afsjtaPGn7IzdgymsuXQpyl5Kb6I2X1mivOh4JfAxzylTWxuXRfMXewsWUcA9s3ZfdW3xZhxM4wckuLsvEsr5Um9UVoLjtfpJWRM3cTi5KUU4U3trVE9G39C2zfTVzRGSVrzfAktokbJWTamMrRp09r1zna8acN8n8FvZ2fJWBhRpwpU1aEIqMVv6vm3dvmyLkHIdLCU1ClHbZzqS1zqS4yfw2I31GkYK9bpHw0NdKnk11MlKJmKJFSgtAAAAAAAAAAAABhqUrmYAGsq4c0OVc28NiG3UpRc3/EjeFTxlHb43PXuKZinh0z1Np3R40nqcvxWYNPX2dacOU4xml6NE1tTMaqtlam+sJR+Z1ipheRGnheRcsTUXMrdGD5HKZZm11/Eo+38ix5oV/5lL2/kdRlhORglhOR791U38jzoIHM3mnW/mUvb+RT/AArW+/S9v5HSZYPkWvB8h91U38h0EDnH+Fa336Xt/Iqs1K38yl7fyOjfU+RcsHyH3VTfyHQQOcrNGv8AzKXt/IujmbXf8Sj7f/E6PHCcjPDCch91U38j3oIHN4Zj13tq0l0U38ET8LmAn/mV5PlCmo+uTfuOgQwvIlU8KePE1Xz9B0MNjy+TM0MJSakqWnJW71Z6etb1F91Poj0tHDkyGHsZ1FIplJyd2yxJLQxU6NjMkVB4egAAAAAAAAAAAAAAAAAAAAAscE9xeADC6CLJYZEkAEN4Qt+qE4AEH6oXLCEwAEaOGRdGgjOACxQSLioAAAAAAAAAAAAAAAAAAAAAAAAAAAAAAAAAAAAAAAAAAAAAAAAAAAAAAAAAAAAAP//Z" vertex="1" parent="1">
          <mxGeometry y="260" width="70" height="70" as="geometry" />
        </mxCell>
        <mxCell id="SPn83IJFLfhqAifAaKUE-4" value="TechOps" style="text;html=1;align=center;verticalAlign=middle;resizable=0;points=[];autosize=1;strokeColor=none;fillColor=none;" vertex="1" parent="1">
          <mxGeometry x="50" y="360" width="60" height="20" as="geometry" />
        </mxCell>
        <mxCell id="SPn83IJFLfhqAifAaKUE-53" value="" style="edgeStyle=orthogonalEdgeStyle;rounded=0;jumpSize=6;orthogonalLoop=1;jettySize=auto;html=1;dashed=1;targetPerimeterSpacing=0;strokeWidth=2;" edge="1" parent="1" target="SPn83IJFLfhqAifAaKUE-12">
          <mxGeometry relative="1" as="geometry">
            <mxPoint x="485" y="350" as="sourcePoint" />
          </mxGeometry>
        </mxCell>
        <mxCell id="SPn83IJFLfhqAifAaKUE-5" value="Build Checker Image" style="shape=image;verticalLabelPosition=bottom;verticalAlign=top;imageAspect=0;aspect=fixed;image=data:image/jpeg,/9j/4AAQSkZJRgABAQAAAQABAAD/2wCEAAoHCBYIFRUWFhYZGBUYGhocHBwcGhoeGB8jHBgcIxkZGRYcIy4oHB4sIRkcJzgsLC8xNTY2HCQ7QDszPy40NTEBDAwMEA8QHxISHzYsJCg2ND8xNDQ0NDQ0MTY0MTg0ND80NDQ0NDQ0NDQ2NDU0NDU0NDQ1MTQ0NDE0NDo0NDQ0Nf/AABEIAOEA4QMBIgACEQEDEQH/xAAcAAEAAwEBAQEBAAAAAAAAAAAABAUHBgIDCAH/xABEEAACAQMCAwQHBQUGBAcAAAABAgADBBEFEiExQQYiUWEHExQycYGRQlKCobEVI3KSwSRiotHh8BZDssIzNGNzg6Oz/8QAGgEBAAMBAQEAAAAAAAAAAAAAAAIDBAEFBv/EACcRAQACAgEDBAICAwAAAAAAAAABAgMRIQQSMQUiQVFhsXGhEyOB/9oADAMBAAIRAxEAPwDZoiICIiAiIgIiICIiAiIgIiICIiAiIgIiICIiAiIgIiICIiAiIgIiICIiAiIgIiICIiAiJGvLxLFC9R1RFGSzMFUfEmBIiZprfpbt7Ylbam1dh9pu5T+WRub+UDznM0O2WsdpXK23dAPH1VNAq+TVKu4A/MGHdNxiY8ND16rxN4AfA1mB+iJifx17Q6X3hUNZRzCmi4+jKHPy4yO4+3e2WxxMh070rVrJhTvrbBHMoGSoOPM0ah4jzDDymm6PrFHWqYq0HDofDmD4Mp4qfIySKxiIgIiICIiAiIgIiICIiAiIgIiICIiAiIgIic5207Qr2ctqj7lFYqRSViMsx4AhebBcgnyECv7V9tl0hxbW6G5vG4CmvupkZBqEeXHHhxJUcZxOtWwH7/Vbhq9QcVtqZ20kzyHDqc44cTniWHGVvZ3W10+k4tqVa5vqvGrVCFtu45Kg8ST1JxgnJ6AS+7C2P7WuKtSuhVrZlApvxYO4J9Y4PUD3fMk+E5M6jaURuUjSuyR1sI9zSS2t1O6na01CseHvV6gG7J+6CPPHKdxb00skVKaKiKMKqgKo+AE91H3fCV2qarQ0hQ1eqlMN7oY95sc9qDifkJmtabStisQsTUJnnefGQdM1Ojqyb6NRXTOCRngcZwynipwRwI6yZIztPhH1GwpaomysiVE8GUHHmp5qfMYMzjVNJuOwFUXdmxa3JAdGJIAzwR/vJk8G5qT58dPlH2p7R22goFro1Q1QwFNQCWUcGLbiAF444yVLWieEbVjXLoOzOv0u0lBa1I+TKfeRhzVvrwPUEGXU/PHY/tJT7P3++kXW0qsFdXxuVSe6WIJBKEk557d3Uz9DzUzkREBERAREQEREBERAREQEREBERAREQP5MEx/xvfXFxXZha0fA8dm4ilTTwLbSSeeSeWQRqvbTtRR7N0SXO6q6sKdMe8xxjcfBRnifkMnAmQ9lX9XZsg+1ccfMJSTH5uYdh0dTWHRdlBRQoj3UQAH4s3Mmff0dFnub9yScigpJOSTh85J64lJOp9G9DbQr1OtS4f6JhQPqrfWQyTqqVI3Z0+oXq6dSq1mGVpo7keO1ScflON0Hsl+1/wC2ahmpXq4YISQiKfcUqOPI+6eA8CcmdyyhwQQCDwIPI+RE/szRaYjhdNdzyh6bpVHSgwo01phyCwUYBIGAfpJkj6qtRKFR6XGqqF0X7xXvbPxY2/OLC8TUaaVUO5HUMp8iOR8xyPwiYnzLsTHhInnYN27A3YxnHHGc4z4cZB1HUxYVLZGHdruybs42tsLIMddxUj44lio3Rocd277KU9Vo1KqIFuEUtlQBvCjLK4HvZGcHmDjpkHr+xN+dUsbWoxyxpqGPiy91j9VMq2uzRvGtnPcq0g9PPUr3a1MfLa34mkT0P3ANh6rcC9GrUVhnioLFhkdAcnHz8JfimdalTfXmHfRES1WREQEREBERAREQEREBERAREQP5KXtV2gp9m7dqz8TyRc8XY+6o8upPQAmXJOJgfabVz2yvWIJ9lo5VB0Izxf4uRn+EDwnLWisblZix2yXilfMq6pVfV3qXt0dxPEL0IHuqq9EHIDrzOeJP27K6Bd6zSbY60bYOWaoxwC20KdhAy2MAHiB554T12gOKDBeQ2/kw4Ts9Z01LjR7ZVGQKNHYMnbvqbF9Y6j3iC7HjwyxlNLzMb+5betwVwzXFX4jcz9zLldb0i57KbHqOte3c43rngeeDniDgEjiQcHlOy9HVcGjWp9adZyPNagDqfqzD5SEnY5rYVbEVHa0rUw6OwDerq06ibsAYADBgccOR8CTedluzKdm1qbXd2qFdxbAHdBwAo5czzJi9omNMlazE7X8REpWuR1fXNS06s6pZitQyNjIWzjA97BODnP2RHYOxubX2l66epSq+9KOfcJLGowXJ2A5XhnoeAnXRJd3GtI9vO1R2p0j9t2z01O2oCHpty2upyhz08M+BlToWtVe0VtVpK/qL6mNj5UHawOA+0g91sEHgcHPkT1xXbOK7Z6Q9m37Rtjsr0hmov2aiAd7cOpCjj4gDqqxXniXLfbzpXZS8q16Ne9u95otuREzzPPL7VwDyIC8RwzOB07Uq/Z25e5oHgtWojr9l13nuv5HoehwfjsPZ/WF1m2S4ClAwbKnjgoSGweoypwfDwmSaQPaKOWGQ7OxH8TGS75rzK/p+njNbt/Ey3jQdYp69QSvSPdYcQfeUj3kYdCDwlnMK7Aa2ey956h2/s9wVGTyVjwR/Lj3G8sE8Fm6TRExMbhivSaWms+YeoiJ1EiIgIiICIiAiIgIiICIiBxHpU1s6RZMqHFS4Pq18QpGajeXdBGehYTM9JtfYqSj7bd4/PkPkMCW/pRuv2nqdKhzSiigj+83ff6oEEh1GyZl6i3ir2/ScUc5Z/iHwuKXtCMn3gR/kZfej7XkuaXsFwQroSqbjgOuc7AfvqeQ8MY5GUsg6hpiXvH3W8fH4jrKsdoj2z4aut6WcsRavmP7hr+o6pR03Z611QuwVAfeZiQAFUcTxI48hJh4TIvR3aJU1HZW77pTZkLEkblKlTg9QrMR4c5r7jBMstWI8PD53MT8PMTwKilimRuADEdcEkA/DKn6T3IpEr9erVLe2rtRGaq03ZQBk5CkjC9T5Txr96lrtSop9nqEo9VX2+rLDuFiOKgtwDA904nM32l6tpxJtrr2in0WoKfrPIbmXDfHcJKtUZlNX0h2ddQVNV3I/8NaTs+ce6OGPzkeu1/2qVk9V7HauCGaoN1w6nmAnDZkZBz9TIGn6hrQq01qUAELoHISn7u4bzuV/DPKeLvQtV1+rUStWNK23uB3kGU3nbhKfFu7j3yJZqI+kdzK51C/oaRptdLdw60KfqQwIPfcbQCyjBfLZOOWek4ewp+ppovgo/TjLTtstOyW102gMIhFRx1PPbvPUnLsfw+UhynJPER9vW9MpzNv+K3XLX2imW6px+X2h/X5TZfR9rZ16ypOxzVT93U8dyY4nzZSrfimVkbuEuvQ3em0ubq1J4Mu9R5o21j8SrL/LLentuJhT6rh1aMkfPEtiiImh5BERAREQEREBERAREQERED8+XVf23U76r4PUUfhcIPySSJWaYc17s9TUb86j5lnMOaffL6b06NdPH52REiXl+ln7xy33Rz/0+criJmdQ2XyVx13adQ8NcHRrm3u15I67x4qch+HXKFh8cTbmcVQrKcqwBBHIgjII+UwCoK+r8l2pzGeAPhx5t+k7XsF2zSwQWl22zZwR290L0pufs46HljA4YGdk47RSNvmc+bHfNM08T+3V9o7WqNlzbjdXoZ7ucCojY30vidoZT4qPGWGk6lT1aktWmcq3MHgyke8jr0YHgRJFGslwMo6uvQqwYfUTi+0zpoFdq9tcUadw2DWt3cBKo+9t+w/g3DPjzzXEb4Qmdcu0uKCXSOjqGRwVZTyIIwQZwdXsvqWkHbZXmaOe6lRssg6KAyspHmMfCWmjdv7TUQA7eofqrnuZ/u1R3SPjg+UvKmuW1NdzXNEL4+sT/OI7q8acnVnL21lrbkB7mgi9W2IzfICmAfqJ0WraovZ22NSsxdkULkhVao+OACqABk+AwBk9JQaz6R7ayBFENXfpjK0x8XYcR/CD8pnWoa4+v1g9y52D3UUYRfIDp5scn+k60m08xpG1orHHKVpdY6g9a4dt1V3JbyzjgB0HIDyUCWcoL20bTW9ZSPc69ceR8VlpYX63o4cGHNf6jxErz4rVncvZ9N6vHakY44mP7S5/Oylb2LWLYg4DkqfMNTZQP5gp+U/siWR26lYn/wBWiP8A7f8AWRwT7lnqld4d/Uv0NERNr5wiIgIiICIiAiIgIiICIiB+c6KG2u71DzFWoP5arAfkRJ9SoKQLMcAczPfbG2/Zur1x0q4Zfg6DP+NGEg6xTNSi+OmG+hyfymPLX/ZG/l9B0OWY6WZrzMbQK+qPdnZRU5P2uvxH3R5mSrHSFod9zvfnx90fXmfMz+6CVal3QAwJDeZ6E/IzxUqM/M/7+E9DFirSu4fPdT1WXNee6U6pdqnLify+sqb2n7UwfgHGMcAQcHgGB5ifWJbbnyy19s7he2WqaXW/85Yeoc86lBnFI+YRGBT4AH4yl02ypXau7KWD1H27mYkKD3RuJySBwyePCeCMyRo5CoydUqN9GwRMfU1mtdw9j0ua3zatETxPlHudAR+NNip+63Efzcx+c9aeKFuypcWDPU6MlZ0DY6lMlT0yQwHHlLWV9O1qXtx/ZabVaiKd4D90A8Bl2bA454A9PIzPjva3Hl6PWdLgpEX8c86+v4eKvq9XqECnTtaSNgU0A9Y3m9Q95j+X6mTc2aGm6KijgcHHHIHA555n1u9Gu9AZqtWiXWpjLUe+EwDwfhkcOvLhzkR9UXYX2VApHBih2nw7/LnO3i/dwj02Tpa45iZjc73vz+EfS7oqi54rjGPyketRW3r0jTOAxHDw494fDGZ7s12Ig8v1nuwT11dm6IuPmf8AZm3NOsfLxekpNupiK/a6kfR09o1WyXwdD/IWc/kskSX6NbX9oaq1TGVoJUbPTJUU1HzDMflMGCPdt7/qltYYj7luERE2PniIiAiIgIiICIiAiIgIiIGU+mjSyot7xBxpn1bnyJ3UyT4Btw+LzlqNQXCBhyYZ+vSbZrulJrVCrbv7tRSM9QeasPNWAI+EwPTg+nVKltVG2pTZhjpke8B5H3h4g5lGeu43Hw9P03NFbzjt4lH0gm0rvTPI5x8uKn+UmSbhdjsPP9Z8dXX2erSqeYB+R/yJ+kl364b4ia8Fu6m3mdbi/wAWeYRp4qOKYJPIT3PjdLvQj4f9Qlk+GWPL7sNvAz4rXNk5cKWVlwQOeQe6fpkSdfjD/ISHVBZSBwOOE5esWiaysw5bY7RevmFhpNtW18t/yqKnDMOLk9VUnr4nHDzlnd2v/CdSjdW4IRMJWTJO5GPFjnr/AF2+cruz/aZdMRaNZCqrnDqM8ySSy9efMZ+E69XpavTYKyujqVO055jB+BkKY6RXUeU83UZsl+687h0949JEu63tJf19qaiUWddqolIgvSTmAcjJ8ZxdpWTTrGk1Qd1aKAg9SUA24PMknHznx0W6RNPv6FVEN1a0qlujkDfsrZVFVuYG58AeGPGU2v3vtLrRQ/u6OAfBnAx8wo4fEnwinG0cnOlPSX1KkkAc2IHIZ47R5DlJmiU9qFzzdi3y6f785AviXCovvOQJdF0tFALBQAAMnHKZ+qtxFYet6RjjunLbxD+Xtf2ZGfwHD49B9Z3PoZ0k21tUuGHervhT12U8gH5uX+WJmlc/tuvQtkZVV3VSxOFBY4zk+AycdTgDjP0VYWa6fTSkgwlNVVR5KMD9JHDTtrufk9RzxkydtZ4j9pUREuecREQEREBERAREQEREBERA/kzL0rdlWugL6gD62mB60LzZF5OB1Zeviv8ACBNNiHYnXMPzPfXS6hb7vtIylh8eGR5HMn1n9alNvFR+YE6D0jdhDphe6th+4OTUpj/l9SyjrTzxI+z8Pd5q2bfb0z4cPpkf0ksMa3EHWZpyzW0+fE/l4kG4u9m5SOORgjljI5+BxJ3A8xkdQZ87mjTKOBTCttbBBPA44H6y20TrhmrMb5er7UabNkNkY8DIqaitU4QM58FGT9AZuvZns/ZG3t6qWtAF6VN93q0Ld5Ac7iCes6WnTFMYAAHgAAPoJXN5lbGOsPzY1KrVGPZa7D/2nP6LIvstezbelG4pEddlRfz2jhP1BE5NpdisR4fletqdS4cuz5chVZhgE7GBXcBwJBVT+ET7W90zbURCzHgFAZmJ8gBknmZoXpHC0by2cj3kqgnHE7WXH/WZy1peihf2VUcAKtME+RcAn6OZ2N9u9kzEzqYV1jp11qdwtJKbCvjgrAoUHVmDe6O9z8xjpO4tfRrRsCr6jeKGYgLTRsFz90O/ec+SqDOn7T0RYarptwBj1oqUHPjhd1PPzJ+glpfaV7HXNeibZK1T3qlwKlSof7lM712L/dU48pD52nuddvwqe0Ho7s7+2It6K0qwQmmwDKSQOC1A3Fg3IlgSM5kr0W622tWKhyTVoMabFs7iAAUY54k7SASeZVp1Njv2A1HR2PVFKr8gWb9ZmvYNjpesahbD3KgaoB0GHVkwP4axHyEONViIgIiICIiAiIgIiICIiAiIgIiIFL2wT1tjeL429X/82mC2DZt0/ib9T/nP0ZeW63lN6be66sh8cMpBx8jMO1r0b3ui5aj/AGimPucKmPFqR978JY+Qkq27ZRtXujSmn8YZEhU7/BKuCrA4PA8D4FTxBkxKgfkQfgZbFolR2zXy2r0a3XtWm2p6ohpn/wCN2T9FB+c6qZ56HbnfbV6XWlXbH8LqrD/FumhyhpIiIGQ+lRP3lo3nXX6hD/2zPNVY0wjL7ykkfEYI/MTTfSrQeqttsUu/tDKqjmSyPwH8sz5tFuru5pWj0wleoNyqxAGMMdzMpbAwjefDlJRaO3SM1nuiWj9v9ep50196Arc06jDcC4QodzFRxCjcOnhJt32x026YF3o1W5DNBnY+Q7plloPYGy0qkivb0qlUKu93TfubA3sofO0E5wBifLUfR/Qr1fXUKtW0qFQpFAoiHHXbt4H4EDhIppelX9AI70aa0kwdzepaiOXFjvVcgePKc16PwNa1K/vlH7oKtFG6NwTJH4aan4OJNrejT23hcX93VT7pcAH4ggj8p2GkaVS0WktGioSmvTiSSebMTxJJ6mBYxEQ4REQEREBERAREQEREBERAREQERECh17spadoONeiC/IOuVqD8a4JHkcjynE3fodpsSaV06jwdFcj5qUmqRAyb0b0D2d1O9sXYtlFKtjAbZgqQuTgla2fwmazMy7dL+w9U06+5I59U56dVyfwVGP4JpsBERA4XtqNlSyPhe0v8SuP6yn7VsNO1LS7k8BvNJj/HhR9BUYy09J9T2OilbGfVXFvUxyztfGM+ecTkbu4u+3z2yU7R6VFKiv61t23HVt5VQRjjhcknEOtsiIhwiIgIiICIiAiIgIiICIiAiIgIiICIiAiIgIiIHJ+kbQW7QWVSmg3VUIdBwySvBlBPUqWHxInDUfSNqOiALdWe4LgbmWpSJx4uQysfMCbLEDKaPpooY79s4bqFdGH1bb+kVvTNQPuW9TPm9P8AoTNQa2RuaqfwiEoKnJVHwAgYlq3am77Z02t6VkxWoV7wLue6wZTv2qicVHPhNf7OWTadaW1FyC9KjTQ45ZRApweo4S0iAiIgIiICIiAiIgIiICIiAiIgIiICIiAiIgIiICIiAiIgIiICIiAiIgIiICIiAiIgIiICIiAiIgIiICIiAiIgIiICIiAiIgIiICIiAiIgIiICIiAiIgIiICIiB//Z;fontStyle=1" vertex="1" parent="1">
          <mxGeometry x="430" y="220.86" width="110" height="110" as="geometry" />
        </mxCell>
        <mxCell id="SPn83IJFLfhqAifAaKUE-50" value="" style="edgeStyle=orthogonalEdgeStyle;rounded=0;jumpSize=6;orthogonalLoop=1;jettySize=auto;html=1;dashed=1;targetPerimeterSpacing=0;strokeWidth=2;" edge="1" parent="1" target="SPn83IJFLfhqAifAaKUE-5">
          <mxGeometry relative="1" as="geometry">
            <mxPoint x="330" y="275" as="sourcePoint" />
          </mxGeometry>
        </mxCell>
        <mxCell id="SPn83IJFLfhqAifAaKUE-6" value="Commit Code Changes &#xa;To Github repository&#xa;techops/drp-pdr-tracker-service" style="shape=image;verticalLabelPosition=bottom;verticalAlign=top;imageAspect=0;aspect=fixed;image=data:image/png,iVBORw0KGgoAAAANSUhEUgAAAPYAAADNCAMAAAC8cX2UAAABSlBMVEX///8gHx/0yrGc2vB8uuYAAACsXFEbGhqe3fPzx6weHR30ybCa2fARAAAaGRn70Lai4/rZ2dmkpKQvLi4SEBAXDAc4ODhnjZvGnIfi4uKIvM8nKy0NExZ5eHguNjgODQ2T0e309PRYWFgAAAtCQUEaFBKJx+rIyMjv7++0tLSqVkrS0tKnT0JTR0GGhoYADBHasZplZWVPaXKZmZmSdWb659z2077O7PdOTU28vLyvr69zc3OOjo5dXV2tinj88uz43c235PTm9ftMQTt/Z1vQp5HjuaK2cmnHlpDo1NK/hn7ZubXTrKi+noucgnOJc2Y5R0x5p7dqkJ7F6fZ0rdVnVUvr29mjRTe0bmW7f3few8DcqJPIiXjSmYbisJpKYWkYJSpBU1m1zNVNZm9beoZdhJw9UmNJZ31mlrlTeJJFYHR8sMmkz+262vG2lajvAAASD0lEQVR4nO2d/UPayLrHiXRMCCGAvFQURAQEAUFKqyBoVZR22yq0Xbeu2929nrq9u+e0//+vdyYJZCbvUMzEc/n+sGshCfOZ55nnmZlMJj7fQgsttJCR6gAAsV0/jD7or6QO620W/lL3QX/FuXKAZRhezEL2TOmBfqOUYQDIijz8IVB+oN+YUh3AKOLjkHz+Nk/VGRDnxz8CVub+AzOpGWdU8VnQ7sz18p02yPLYL4jtuV5+ZgGGlAiYw7ldvBMDoub63vDykhabYVjA7Mzl2hCa1V0dzNebZlQvqysYAk/+eHSrFgygGSaemUOpf1gFrROOXf0oZXNmLpez+Lbc1Lm3UqWxeRZ/Vul9fGwV0NMdnKp2WvVuO8mDibJM4SjTWylFyTpogbjZhYFVbbmklCk2LF+sqh7X6TVjEmY2LrJYaOZ5UYxnpW/amZWSjFRNWl22alYY99SxKB9s4qgdlju9dhxSxY1aKiZehEeBZPcw1TPxbwV7foliZrWssBkmG+sllf6VQ7GohqyvqW88rqtuXUSGzdrYeHrFPdAtb5pGngeTWKAN7fO1rVrhw8gLGcwkbT+keJY2NB3sOG1oOtgibWgqbZtnaEP7fFsUQlqSNrTP16WQwI5oQ8Nemk135QGUrdOG9vkOrTunDyEvzKZFKWA/1PzsFMpRwPbCZJrridsLfVMKMc0LEY1C4/bIRHly7gNqG2W9wJ1yv78CmrShfWXRbWMj7hZt7IL7xmbop+6M+2kbifLtXsvp4odUnGZYy2WdTwTPWTQny5vuD7/G4rPUbglVabk4UpbajU8K82iYgN0d1QcStXgmK06p05Kkamxa5jZYveGu6AzFKEwVawQoUFvdz3cLez4Lg6YShSlTrcQt97FjFEZeWrnfM/eAj9NYorbiBWz3l6hRWMWgl/t3w9apjb1wud24PdG03Z9lod5Fk+X27TAnEY0XxTQmUWRZi5bBsyJ5fNrB5KTbMc1uORqfTudju9fD52MNz693d/uxdAMqrZH0Way/u3t9Lh17dXUF/3t+3YcfW4cQ0eVRmHUgZxux86tVMx3LWMPz8+FQYjw2P/S837Dq+rsdyq3GIXxjVwa5uNhTdHFxYYpG6EI9Z08+5fg6bf5bbi9asrgDlE4i6L1BcEmjYDAwGAx0dSCRwi8CQd0ZSwHEfrzbMP0xlwdh5j3yxjUkGegAZlZwb3V12DBr4i5jm/ZW8s9XLwLzg5Z0sXpsFtpcxmZMitF4vro3Z2iogSm3y08SxIxLAann6N8Et3H79kTbbpxrqIOBQEAfqBxIe2Jg9bkht8vYhpE8vUtSB4InL16c7E8PHgzsozODWJAIrJ6n6WMb3RngY0S7DgZfyMe+PJkyxgVOlF95geW0wWrf4DddxjbqrjSOL3DqffXoF1NxB16oZ+6r3HvHBuZ2GftIjy1em1FDg0/BHXiJn7mkcl8YuLnL2AZ98vQx3rAD5PHO7Y3bGkk9MbiqS5tur7HWj8DE6z2jwueU+Y99h3Ft7CXlcULGKmygM7fbQxH941+N46C+8D+9qtUqrxGBUzeXXPzlm1qt9usvugpb5TXmdnuN2o4Wm03uaQvv872rLUNVKr/4nJo7eIIqq1ZBp9XeShfBKmxwrQkpbt/11E0qpc8xcwaXpIPefkLFRwQ5p+ZG9fVLrSKf9+lWugx23StNn8Xt2RXdFGLjOIwV/gQd8/LTu7evJIDKG6L0VoIH3lRuXqvV5fNhaf9C00ty+7nHXFzTyhpEGJd8/A1yUrn8NejmJw68HPn4be0VvL5cXe+k6lOxA5qxgOsLdzS9U7aP+7CUvXKfUJN+I5f/tbMchhLArzUE+0quL+m3sBymadyu3w3SJG5xF/NxOY7fflKtjcrvpHFDN8nVlifWlrwEbx5hTQpz/VFuzYyxeK3Dfl2pvXt7owS12kvcaObYKIwvw7Y9joVSMFeTQPi5BtvtVVqaxVnpcxz7BB0B3VuJyAj7J5/PSQaDTiIlL+U01DjwqBAmQ7n7D8LlLLDlQP5qGVPt1lkoh7m+gp2mxyasTeG+PrlOKX39MNhvLLEpLNoh91shQ5qE/StefudO/tbS2kMCm8LiFbJxs0mDkIZj/zJFSMOwpcSNhTQyktNYmQaInkMax5b6pqTZHCewMo6NnIRIYETediWi5crl1FjlXM5XJzI3ICb80PF4+VEbddpducFrS0pQ6onhPt5LkvamwIpVLlvu2+MQM1XtrPTq3aN2jM+COJMsFNpbktrtQjLGMkRMy+NTK3Ln9FWFsJqTIRiKCm/V6pKbNu4mxEQDL0rFahPFAiAeK2x1M72VTik6xWKHcnWn1d1KxpJbmdbKTimaKptUITFp3LjShXKsld74nEU0aSiC+bhUfVhnfkCkbbMlHDlo/2rnsFVvFmLJdrN+WEpZeUGqtNJNJtvd1k7VDBUX0VEjEveSPPB8MzY3CmjOB5634+qSOudE077M49nDyUYksAo6Kxloxa3eTtQAKpXMtuuH1SkaRw4QWyOFNaX3TdxcGjc7nGZASeDdJ5laStp4TCDT9nQrOFKdVpNhdKfkpk8GROrOG82bvq5BLaNwPNWk0m2lVqkptsbnTslAPkOHfAZI6bRytLSz0st0j7Zg/EjisTw9JMytTCHmbm/lKTEjYwfDBp/JFfbT7U8KFJ4AgvgNQJ5JonB21ITR67BTTc0himtUjsKY3oScha1mvXXYQXEOJYsewEuht5oqgxsjvy0vfzaoi8ktEVm4l5BNG0R9OZi9ylEYvVZ6MOGg4mVgXLKMX854qzu95jpbQNHQKCDgO2M1LnHjKdNpigxy9gC2+8pnA3uTE+WYi0Mfx5p23GBjilyqhLJQTGzXV0qz+XN0p94GyW6rY7VxKf64CBsL48YLLqn2Nuqp/C6FO/3nBPfLJeKSeOoAVuWCOUkq/UrJeebORQ+7hfVmy0l9dbGolj8mbBccu+vLfaNw9gfCvjGwNuTeV2qMbBpEHM862D2sHD2sJ2NHLXv2cqlXSDZXHOexHKP2Wfi0pqkGAvsnJydLJjd6P1cqyyZrAIKBJXjifoCsLjygTfGQZ2qnXkBb7pkilOrryXpnutWr+ECMGHTLJQ0arT8a2/s381RucCIx6JxyyjRXbW2JTUP0LTFTmiEG4huv5K8MnXYuCu9hYTw7y92QaKtgMFKddY0ynsXyl864w4Z/WgsbAoizbsYxz9ReV7l5h9yff1P/dLTGJ4gnLzZL6TlHUgT3sRPuyjhzhX+v/WZ55Pi4oerivGXuclEtbFAChvbcEFbuqIQHFcPUrTvhXKVmvbC9q6wOth9ro79nD35TewWdO/h7pfKHA+jgtTrOjosesTVSCtt9V8wPjQYZpD7XKss3ldryHw5844JR2zUoeGFHJVUZbFftBnNlBx7+4/PN8qvf7Qfh4cF5fnJlHnhil25c1ZjawvlGejgIW5PDr20tHQ4Phg3V1Nm4B/YM06mFvSWAT4P+FST/gf4LPPfyGqjQceCJTaT0ytUBFtPZRr4/vAzOhA5PGlyeM3kcuumJbG2ocg/gm2yz6Xy6f351gczuCF8+brB3POzDU1XfyYKmhwK4kQ6TgNilmk038g0xeT28urzcGwTDpgoO9i4uj4fnuww8IY1dIg5Anbqlc51ept6yGrVE6wzIkqsteFZMQ/x8HgDouLFkv7+rqN/vJ2MxJg2/Afk8elqKeFqMh8xHHni3RBTto482zd+yKky1VwDAZPt5nudZKFEW+hN+YrgsXwSA7U45En4gjQdcfAjELK1Q3snEptuIniBGNXvU8kw/tKyErIQgbIAjm5FcudQ7QuXPxp3S88r7F9r1HW/FMNgPRQiJp8KfRZB1ULZy9bDVLSQdccdihW7vsOoJv9aqJb0TIREqss82HD9K3JPfrmEpAAoeeGeIiQ5QtwR5OjuKcBsOh4FbwKGoZyoznR5ATy+gyJZYi9wnHBW0IL9IJQ4jt0HQZsdvVPEyt/8U/VeaUgmtF5m4g4mtLeAgpKE3iiB5smH7zgRB+r90e5tniiP7EYLjbTuktOWJzXp1OhCEM+kPCaZ4H1mzm9sqT7GjAeyheHOgdSoIH+W/0LaXEDtyZ2OfqTYrgaMOTzZvwS+cKn+ilYih99zI4BVYmKbdOzALKOyVZCsMW3qGIJRgrTcCmXpnGuCVGWFck7btm3TQi1brAadp2bI8OGOmkXTDE4W1hGnamWH3pTiNDeCm0Y4SzSMfTB3T/M0j5rncO3cATCQ92gt7ax9CZvdeTY0tHpnu8EB/S2obSWGaT4xYhgVbBg28ZLo/Juj4cmab1tDazNO55DjNMvz6/Qh0SeeM9oqAMDaPmRe1CrMNYr3wfhxrjdciJt5HIvcA8PUdtMA1hxZyZkH6/VMcm2faKrcWG98G2gvvvrKRslqp+CUS2QwxiY2RPKD4H5DlEx8iBDaoYmsfSGw2STxI6PVQ7ptszZ4YPb0rineRiLDB8hubEWHEsqO1ZwmsxXbxbKbBjhFrOT3ZP9VI2YifTRQZdsRFIn9K9JFn8J8h/GYBBLXCxh82egzYuZja/Swy93dF+L+7p39Kdsbmy9HrX6yw8V6sF7unOuWSqn/yRQlFhKaXsNUYhh5fssTeIb98BDoy65Rg2OjxJUvs1KPD9rVMXquLY1dtsH2PD9uXahuC49gpO2y1s/posGE/tK294YfKr36CVvtrsNWnwCVsdTeXR4QNLY5u+IG4dD9PmQNOYjXgs8NW35f4qLB96K5XK3NUiMWS6B3qO9UcRmaPnXm02DotsH0L7AX2AnuBTbvcP6gFtm+BvcBeYC+waZf7B2WO/a+Dg/8X2Kenkafq/HFoTeA21Mch1iMCmmv978MOCQJHYHMkth/H/teZ/aU9qrODUy6ygWH7HWNDVxC404NHx372kROg/DNjc34/ugBk9+56TFIysl/Sj2BLQlf66H2rn536x8hzwVbQ0YpPz0rDPC9shdyjNj/QMs8RWyL3oLefneqZEba659VU2O/12BK5t0xuAu33c6EJWNFvh30/wS7eRwwv5y3wjybQfm5tgs1ucDbY3IfJtzxjgi2BeyOlnZlB+wkDfonYYat1ZOblCrgXwvqpKbSf20wQINbYfn9xEgiQb5hL4GhD+zhzaj93NzE2z/jt2jb0DfXrhFnrVgxOt4VbOLif475glB84Pbb6xiUJGzqHukor9N6K20+X28LSkc2RClkccQbWXsecGkFGPqitmwk9jVg6OkVucw+PrN2Hiir1ut8IW9u2oZvj3BsWcQ1yU6P+aErNPQMqNB+6EyQAAnuT40YqNqPU1lOsstjQnQX3ZDW/6zKnxryVTbAfOLn43H0C54z8qSImNjnFS0YYeOipFTclNz8wd/FnIR49sswWE6GNv/yR8TD0y4RIvNOlcaXGIv/5GkoUi+gxOT7xxSKu0TK3ecbmYDgrFovro//96+cnT55sjpHUxpyAkR3vn0wSlrANT/j7n68bfLGY+LppTg1FB9sqY0c2n+CSDsUw+QT6hBupeX1dbv3kaZtWMY1WULPARtrWcmNtGWYnsh5gYkeZe9s5NDVsm1KRlhM4LDsVlb4n9hGfWItwupryIrZ5/jLg3l7bmASwIiMoVRb5onKHPgg4tR00tZ75mZ09COsxEw9PrKvuC+2tTkT8hXu4PTatgZjF4EspmYrx99jWxdC/MVNuPvl7fdwTZ0eYc9i0ICRK1FOZ+6+E3HcJfUUpbXt8BPrqn/WQNORMfJ2iYdPslJt3WCbGnGg9FEokNv75mWi5SrX8/W8+EQpt/KwebWvs8XPFVGQX1fxYa117j2Fta7/++T9r27qvLaip9cgl2dibw7A5IsJxGmd4QgRAu4BGmdp6ooHEFghKqZdG1oNzbC/MplnFcxybCOwyGPbvbb9jbIHzxKTxgbnBSWyOxNRWgzNsgWowI2Q+UU5iaxq3xumdYAvUWzUhE3ASmxid+GfA9tRNEVlGd/5ssM3/aYQteMi9caE7YcIDYXv4Ti/UgYbcAltwjo1Wc3h9MYd0b1+YG7bg9bUMqs4kows/jC0t2vHevXwroeVZkHxmbFRtj3CJlqSzg2/bJmDW2MJjJVaVOzv4juih/SywlW+/ffv+6IE1yp2dff/+/du3b9sI0D8ZkW1/k2DP/stwF1poIff1f/96fiFYd7JbAAAAAElFTkSuQmCC;fontStyle=1" vertex="1" parent="1">
          <mxGeometry x="230" y="227.65" width="97.79" height="81.5" as="geometry" />
        </mxCell>
        <mxCell id="SPn83IJFLfhqAifAaKUE-7" value="Argo CD" style="shape=image;verticalLabelPosition=bottom;verticalAlign=top;imageAspect=0;aspect=fixed;image=data:image/png,iVBORw0KGgoAAAANSUhEUgAAAOEAAADhCAMAAAAJbSJIAAABR1BMVEX///8AAAD/cz7j9v3N7ff/azz/bz+z0fP/X0Kvz/Ll+P0EBwfm7/v/cTv/cj7h4eHs7OzK8//AwMD/bjX/ay3/Wzv/qXj5+fn/9/X/bzff8/z/Y0H/WThNTU1ra2vU8Pm82PX/UCr/glS1tbXD3fb/VTFaWlrz8/Otra3Y2Nj/aSjPz8///Pr/sJb/vaejo6OOjo43Nzd1dXXT6vmWlpb/lnL/ybgaGhovLy9ZWVnK4vff7Pvu9Pz/7+z/mokpKSn/z8f/hnH/oYH/hln/5Nv/2s6EhITtppDzlHjosaH/bFDR4+r/dlz/r6H/pZb/jXreysXiv7b1i2v/k2H/nm3wnoT6fVXprJzroJbmr6nfwsHyinv/aUz3eWT/vbLluq2wiX/bYTCCMAO3TSEpGRReIwQ2GhCrTyxvNR9QJxePQybDw9n/XAA1R4+fAAASPklEQVR4nO2d6V8aSRrHGwxyKGDbzXAIhqtVDk8EEwQvwEzUqElmJ3MYs7Ozu5mdzf//euvoOrsbTVbo7vnwe7Ej3QWpbz9PPU89VQWrKDPNNNNMM80000wzzTTTTDPNNEWle4uH3WoRqlptHS723O7Qk6p3WC2Go5LCxe5i2u2ePYXSi90w4ql2W60cVqvVNZHDXb/bsgfxwtVWbi6GNAdl/plrdYsAsuhnyMMitFJrjqBJApdzLQhZ9SnjITBfteVAxyhz0MzFRbd7+/UCfOFubjyeCTkHDVn0mR17oM+A72E805AtaG8/RdYu6O/cY/koY/jQ7X4/Vr1wtPho+zFfrfrGjIfAQR8z/iyM0Ix+GI3VaJgzYExReFic8Z0QY8CMnvfUdDFa5EcgvAZf5p4/f8br+XM7zlgL2N9thPECQ7ArOCi6mBPpGKUlGkHEqtsQ49SLSoBzMHTY82HJlozlQJhyG8NZwIItDjCdhgMvNg4QWtJHiGkBEMQYpTcezpYxNhf2rKMKgCizzT2KUPJVaEVvIha5MRhDV3KPBJTMCBG9mDS60SoFRHk7ZoeiAtmbkRvAMKJ6r9g4jBZpH5GHWgyoqpe127efPv1yW3tmg8mbESJ6bQKX5mYyqG9SBFWf3b4aZHWoel2ff/fp0gIpIFY9F1CLLMpAwLTM97pc1+KJIFQISq+/ux2HOOe1oXjIBiEE7El8HwBekGoeMYbqP8qMHGIsF416aRaeDoed06B6W9aDgkKm6t8/Ux0Rq55KGV3qoxBQdFH1Qz0eDNojavM1R0Tgp96Jpz0WR+FL0fXauswXDCZC1IxvJUSWUlseCjbVKImj8JUYRd9pECluRhlpKNogsulNrOiZYMNMCH1UyIPq99CCicTgfTlrb8RQXYo3cx40omBCYSajvkKAwe+A3sftjRiq1xyGomeMyEwIE4UAeIvGYPwHSPhdOWFvxNC8OHBznjMiDaQWH30Wx3ZDgN8NBCNyhPoHBz8F4dQTOTEcZj4qJAr1FYoywTgmLDu5qaOfxrqeWLVZJEUTNKEQRy817JfxAQT8wSlhAH3vYMRcNOw2ngKdNEdHoWjCD5pJAxF/CCacCfVLh5FY9ELWDxeZk4qpMEjdMp7NSglRInxlb0QQa9yfuvV4JxW6eWszmbEPNaFQ3CHte8FNuyQZKtKyjPq37OMJHWONB6JpMepgQjVomXA7E+qvHdy0627S7x0e9sgwjMk1xWV9LKBIKEdT4qYw6S8euragkYaHKcgwTMtrh7WvIvxReC9zUzAQwT/iFuJiNByma6SKFEnVt+MDjUQozdyYm4bhv+FWysCEOYdh+OmrCKWMyAiLrhOayxeWYai+1hKhlZVIJLKyMu9IuIIFgqlESAdi1X1CGmjEFWD1Qz7CtJKwIVzh7ss2JAMRBFO3CYsOgeanVCSSMoxUJG8g1JAEmIB8qbwBlIdNTy9VW8KW64RVGmiEwumjEcmXbk6G/Ux/9OaiBM0kAkK+0sf7k+Hw5P6qlAKwDQHRi4R8KL1IRUpHfdry5CIvIs4DQK5B/wg8g5KwnEEIc24TknSo8ITqaT6SOuGbNo8M3lGBBVMRocEJ8NR8zS+E6s9GxBhJjSEijalgDKaG4v0heCgXqoVwzpOEl6VI6cTS+jRF/RT4aGko3x+WIsbPqi8I1Z/yqRvSZilJ/uqnqBFXIvk3rAGZkl3nI3detKFNpLmL5M0Ysr4WCBw3GMEKMeFd07y4FwgcVPCfmUjE+EWVCN0fhzaxtFFKnZotdgMLC4HAEn7RByMxIZlwNRAADcxncJ1P/WohdD9bFOV8qP6cN+5xgyQABIj7ZvurFHbTlYhhjsI0brCHX42MyIUH86FlTqP+miIADQFAOTIJQSDN4CvmI1jDrzIgnF7KhO7P2syZd5rOS9WblGEOw3QAEgTMcaa8yeOUGIlckI/ADUwjN+8iBkmJZA/KC4S0ekqTdE8Jle0AUIG0NwlBur8il5ZhgxfmC4HQO7WFWQGz+hB6KZ2ONfbWNmj7a2rDO3qttre2TdJFE0xriJfS6sn9+tCSEEE6NE5s25+ySNO3uw+D7TOJMOeBGr8qLyb+YuSv7ZpnUjRb2D+CjpH6SLIFH0rdI+zBlShSAvfoQLzMs4TO68QwM34owuY8vE5T+Z9UaRh20XekXFszXex2013LQg0ciPc2ra9IdQFCjWGZloKJKZivW4dh9LDr8teGFrnFNtNNa6VIPmNpeA9GGS0tUh+tn3SVYlMaMiuNubeSSJUmA5G5qfpr3koASgdWIAIjvpEbXBuREjEhzYae2AUuksNCCpua3qXyp+JQBDMyrsiH5ZOECABZ8cRW2rywk39I3DTNDkPV8pH8BT/U3hjiKkYIWPGG8+T+KQC0TLs9ss2djhYte8BqzUgBBLPOz9xfGPKCIqzyU9fmQxiCqgIA0lk3t9BWdAuLV5XbXyNGVC8/GnAx8ero6OaiZFiW2pAVI/nSyunR0WmkBKbcdvW9V46b2G/kgyIKLhgCoRVf67I3WjClDa64A27UhF7YH0UqRlmsYUv7l/V5c1HbYVk/OL9CVr1XtA82i1AgznjhKIYCYw1nxDlGCA2VmLeu5wuUQKCFxu2Q8lvcridDU0WzhEIn2KmfPrB/KEj/RAmfe8+EnBGFw5dfRfjWkiliHjIhHIk5y26+qo33T5Hw1uKjIJB6xoTi+UuyyfbQSQVBdXn1AtVNbmPxqnJfCCJZXzzHNt6ghJA7Be2xw/ppsl7DENV3og0li2aF12QLmH6Gxw6yKzDts6/MYES1zZ8Y0kZljUfS28KJWpOQAba8FGawqvx3KyGieCZKv22+Z2f24/UzRTBxXQLMeemgPlGR/27ec3a61HTKvytKJ6vD83vxbL08UpZ+402qqeKXLcJeiqNEvTD/He4cd/gS6R/A6TJbg7iuBduw5tjgLZwIqgJg0Rs1haxF4WvqOelAze/nqFGm38el8T/5m/GyKn5dxnODEOswGua+nB2TDkUFNvi2a/8SCAcxPwAiRGZFmfDfdA8K7St+5u9l29yT6Xr5lxV4xJh0gvZzILBbQbZJ7gcCAeFe9izGWdALKxeO4hGT0sE2uFkaOCjsws2YwB/CLW2TTPpAkPE0IPrZD5I0ZMLPaCctgDfUfhMJP5gT91zRyy6K1aO/bLKkiYTB/6D9ULQn+lm8o7/GG1itcLTo1SDDBH/7A3nqknw8HwQbE/BP6Yb+KQY9tOvxH8Wg6mIzxqzl0x9oDC58lq/rb2PYQz1VTozRIvqRoVjZWiD+9vnPP3+3XAWz1tgceC4+8FAq6G85G0IH6UnwBt8YEAv+2NePjyf8L3BsHxkQazH8LvS4lZrEvPZff/7s3rvQ/AOrpUjz8/Oa7b6+59UPzZvrvWPtBxWy3fj3vK4x4TjGBGlh2G38e139UogR2EKSu/PBhP3pDY/rNBXiIGTIBHcH7gk7HMHxrponH83TpIwEYSIJl1CwiUTy1zbHMzyq/sn1VclI0U1RAUgSCadwu9TIn96PvB9U+29OV4ySkU+lUvk7DFguJ+whgeOa32Avo/ZGqWTc3dxbD6p4Tc3+8OT+6Obmfoh/b2CAZm8yJfLOeBsRapujo9OjN/cnw76/YmofE7a5nxpAw5DFm+wZWlPUttzu6jcqo2GKgeP8NLuJmugdt7v6jcqgEljbdCbUOv4mbKISWNtChHGJE73UO8hLdfkLNr4RCjFaBxO2ecJEEL3UR2hf0b+E2E4neB/tTNyoQC/1ISKs+yfZS0I7iPoIEiaCmyLhpkmIHoL387yDMOEQ/ide3tQEwi34st7HjuxbwjMNdR8Rvt8SCTswWdYz0JETce9PYxwEzZbIZiBhti0QxoMjRNhE9EF/zWQ4IcIgosieiYRlk/AMebDbHf1mbenQQGg4apsSIZq01tFDiA/c7ug3C441YCBoJ21LIuxjQng123a7o9+sEx0ZCBLqnY5ImMkmICF8CD4mHOHuI8KTjm7GGPS/gybM9Tp6CNkztzv6zRri7sOkoY8wYRwv9QPLQlYdPQRt0+2OfrP6ddR9GE30ISbUttA8DRAC1ISmDOu+JszUUXWLCPuYUB+iyWr2PZy0AkIYcHS/FsCYENR+gDCRxYSJOBqVcHSCHJLIgio54d8SX0ETUlA3QMJgBhEC70RZA8cfwAudNR70ZQWc6bR1OJcpo6kNmJghQu0MxRZECK+aswK9vOWvAqo53BrUdS0ez2r6EBOWUV6APgtdFxIiy4LGAz0LGur1+ObIJxPwTOdsEAyWkQabsC4CMQV4J7IdBIZpAuQQaDxUGHbauDF4U9sXpmxmxEqheQZRNhVzqo2rRkAI8wSYnspvnmJPn0KZ0VZbB96oBTOIEFURaCoKpjFndWDb+mDLByv5dmpmhltnZfgb+pqma+0+noaj+Rmay70Hf2wG4c16vR5sb458ttqtNEedLahNoK0ONFITTtfQwmgffhEDLa8BE6MGSB1/mpKqE4SlbhYNszZaotn025AbI5A8yjpcj6njzN6HtEEtfuaX9DBe/Q4Yjlo8AVMembr00f8VRFzTs/5ID84agkj65QsIJXV4fn2Ls9jorJyFMab+5cuXgW9SvVWZfobKEiqb7J7f4uhMM80000wT0fqS9VKyZr0oaymZfLjRJJXcXsVfoFjdTjq1SS+fH8M2e9y12n4BHWkPHOwtO54Mbuzg754Ejs+Xn7TXj9ey2U2sgm031ncWSIM1+/ct7KzbvbGyyzc62HfhiHRS6AJitDrUNn+/ht9XkN8nfqnN4cMXpm7HfUs/gSpim3TBenfD7n1rkoW27RrtKVPVnl0fAtz374CWjsWb8BcubR9MILC7/ogPLyhTlEMfBIdLH0gUioNxoF5wH77j1GiKiA6WgGrQRtJQKqybv5JoLxqH7P0Ya2qOWmP/5sLexvLyxh4NmIEDMqQ4S+zuVJZhNknz76s0asv73FMg1k+ySwfnlUZjef8FuzKtcMP+SfKjjmlm1R25o7vUrOeW9ykN9lnmUHxpYVaWmb9PhU+p0L5z8SFJzYg7v0pesuBDoQ/46QHFxt/1pv6xy8dX+mnbE+RiKtj1gfUfdWLJCkj9dkHMmzRqoVerth9OL79QpiCKIiV4EkZQxCNB8yXXgPhaQ3wfDUlwkK2TD5dmgTQw156cxyrSeYvDkBEEyQvc36aI/63J7yM3VhX2mHbkRmRo7Ms3JiACYrlBerfMouYqd5s8GdmE9HHAhEk82ToB5D1kwjJnKja5iRmXeDI/jTNDyoF1Dk0CcZo+vmPrh+853nlqrZtB0zpdJlnkHP7MtXXUrDoagRh/iY5Jm8dnusCCbSXypCLmsUm+a9Q1uT5TvXQYhux5JOlDsgxDNhAnXxH/v4Qvre/jCHepG8jamBrhGC89HktoDiSbjLbBCAuOrmzGIJth/ORiHLICYwn3GYekVXaHpH/rh5vW3X06EEc9mC0cCMk1Sx7lszwxZ0VuRAbHNMoLktcs0YDMTRwIKYjsZ3RmmmQgFl8mdragT0B01iZNoGh160BIApHs3yTOYP8lj0mKNXS2P/lkobAZmTiiWHXrREhbCL3nik34efQ5Cc5Mn8J0amD20Ll4ypX9ToSs6n/JLMFX9OiJ0Vd7zJvZ4seU1ofZEtruBvon1ze4OtyZkD2awA6iWRdXRdE16o+Bg33Lh9vkyYloie/Wi0KBxxtHKCxgHRQK8qIo9vo17sqx+OHTSIZYY1aUxhIq1tVgK2H6+IEGU9GY9bCxhOsvxr3RBFhacLhvrbsmqIpDJx4gVNKW5XoroWUp2Q1Au50FMGrwf7jqyWbcnDu+j3NCmxVnm12RSWtbWtN+0WjQZ23W+LYFeU0ajAcVrrYgakgP8MBmoj95pStsbRNvrm2bJiRu6hAZGpyJChWheuIarYqN3FKtsr+zs7/RMN0xubNvzuWS56vj9vxqlZ29vfNt/D5bQthog2vkaznGJf+psfrSbseXLLD531bbDoPTTJLTKG4nq6RDgCVOOuVN3gmITITkNaxjh+v+E50HiaUzTTkudesJxUoSbv6VpqXENHYkJi22LXxOImqFTowW/B9JgbiiobBfWd7mp5/+H4VQXJEva1rV+6TlWHRN9azMROWAaLNd41vZLoD8VVwUa2lV5jv4awQZTjWBcdeV2nbSWtpY3QWJcOG4sD+NsxUuKb20NJU9iJlmmmmmmWaaaaaZZpppppkepf8BMDUllmUtJJYAAAAASUVORK5CYII=" vertex="1" parent="1">
          <mxGeometry x="660" y="420" width="130" height="130" as="geometry" />
        </mxCell>
        <mxCell id="SPn83IJFLfhqAifAaKUE-70" value="" style="edgeStyle=orthogonalEdgeStyle;rounded=0;jumpSize=6;orthogonalLoop=1;jettySize=auto;html=1;dashed=1;targetPerimeterSpacing=0;strokeWidth=2;" edge="1" parent="1" source="SPn83IJFLfhqAifAaKUE-10" target="SPn83IJFLfhqAifAaKUE-7">
          <mxGeometry relative="1" as="geometry" />
        </mxCell>
        <mxCell id="SPn83IJFLfhqAifAaKUE-10" value="" style="shape=image;verticalLabelPosition=bottom;verticalAlign=top;imageAspect=0;aspect=fixed;image=data:image/png,iVBORw0KGgoAAAANSUhEUgAAAOAAAADgCAMAAAAt85rTAAASW3pUWHRSYXcgcHJvZmlsZSB0eXBlIGV4aWYAAHja7ZpZkiS3DYbf8xQ+AkESBHEcrhG+gY/vD9k9i2RpZmwr/OQuq6tcnQuI5V+Y85x//P0+f+OnuqSnqvXmrSV+qlfPgw89ffs5n+8f30mq7+8vP/L5W54//EPmvfBePr60+vnX8vn9l+Pb13cu9Ad/EP3dCeXrbfL3N7bx+X1O+TcRjSM5ff/Tv/137+73no/VjdpIQ/tY1Mctni+X4cBJlsp7WuNl/Kd8tvflvHoaaUlNO600eS1xyVLSlSr7kSFXjmzelyxirPlk4z3nlcv7XS+WPa+SipQaL7nZipddesll5VNKqU/JX2OR977+3m9J585bODQLFxNO+eHr+dkBv/K6dyVyJMLq5TNXxJUj4YQRlYvfHEZB5H7WTd8Ef3l9/Xm+K2yhgvqmubPAkebHJabKt94qbwMUjlPeP/pLbEfV8tsllXsrwUihBKlJUWmSLGcTqSV3CjSIPJeaJxUQ1bwJMtdSGrXp9BH35hyT99is+eN7RoX6aGnFqI2XQbFqVfrHaqeHhhatqtrUtKvreFpptWlrzVrM3LBi1dSamXVzG7302rW3br1378OzF0ZSvbl5d/cxuOeoz9DB2YMjxph5llmnzjZt9ulzLNpn1aWrLVt9+Ro777Lr1t227b59Mw6HVnpOPXrasdOPn3HptVtuvXrbtduv3/G1ap9V/ZfXv1E1+axafisVx9nXqvGtWVzovYQEzmjUjIrlKlTcogI0dI6apS615qhc1Cx5Zio0E6RGbbak8UijhJWx1ytfa/etcr9ct4dc/6xu+Vcq90Tp/oLK5eeU39XtD6q2AwnXW7GPKYycpsL0cczInf+R7M8P/+37/y/0P77QLOdSSp2bVlyMMj+l73mn+5p26JeZjt7ehZ4DyEr1U+UMJuGuM4trG4+lnevqpnDPpreaiq6x5JS75dS2OMmqnrN6jdvlsc+UrXSn5ro3A6BSd3+4rnbJ5YwS4Dxm8gtVEdI6JW93e0MfGzj40eqevyA9Iu76SJ1gB0S8PNtUYyG922o3r3N281Gn134BAPhL273WxmJ2THeREYttWtPtz15AiwhjRsrukn2kc+1p/arM2ZdMtwS4aGeuyM68woyOqZkk2VnD5zRrj5V1NFMdz3JLSbOOm4refbsU8uoTkDmWQJoV9+8KyBBBKtX6NsnmO/vVJ59qN48zQJGdiWZQtsmF6uwbIjvdgFIQ+97qTsG51aYgmu6c17exwGG9PqZ1i8yzWfvZeVRbN04gZ+fqGZReUBwEDaKqX8Bca0637XTooqKntFv2fvK6wGeSdZMDRMnO1L1I+r19l0X6Frk6w2mwriproYB6dNkZu16WPMcefT/dyWy3zXLbeQXpUbfJwQA2hO13ZvJ5q+3lwLBHsryUsd7iT3q+Rx88f8WcfXehai31rrsTlHgODuht1kMQoncOFqIUOZd7rhc0JGU/ucVv83H6TI/DQpcP9E5fo6wOmyBXW+HAuVuba98jrMO35oMgVe29lVvGrX2cuiTfvW95SLh3NKTRd+cINULCN5ld388pbY9ph+v6qZoWMXfIeHZowjeNC2fN1dpDsuzU6pOb1mv1ze8aBJP5ikNurEwAiOPXZqNtlwEQ2jfTQhMRaSl+H3lF0Vk2xiaA4xGQI8He2NIvvz8/PTDwaeV8GlDVZY5KUeo9OUOrFKqsWZYUe3ILHm15n0bXLiR5Q0cfwpYYACKHla2vW1eUCzwwTdMiEWvPHaOMbEGxnTPR8m3IbrfuyqKAuS7dtZCcHclgavre4g0uxn5c1zna2vrZkfXtyOezo9Dym0juBA3aUurLwB10Dfpzhv5bDCML4m2XyvBQx84Ybdas6NP+JHN94WleTI1NJpEbIwaMvql6HYnk0uiOcxqzJAkpoFwqM9HrtDEuTDDS02/NnzFS4P98SJ4fH5DROzpMGf/ZStYBwxwgwKCVwWhLQI1eBv7ZxNYhkFDrgDdTRLkBA2dOwGTyyiA0hA0Rh/JDaWUFMnoeq+QEsFHaNOC1uXwzd6Mh5t2gpVmbkWC87il1TwaDq3FPL4hOQHcCwszpyR4DCORqznM8HjHyqZ9dDcm8Ae2lB2pLi84/yagfaKyQphfUFkBUnHnA1yHbSpeAL11PRWMCVpSqEqV2boX63IU6DcQfsHoLoLjg6gmKpTydHi/LgMxGf8E/G4XoD711uK8EVVH+Fnaq0VaBPLYcjgNlwQkGeCAdiUlQrwxNneRxr5lAGQDpoU8TCWJ0mktHQY5uRRGs9HY/LZpPQIClSlvq3iAHo6Tzmhdqdtakn0rbD2yAdJhA5A1hH0hNDVhHGgZeDGZ3xDvNlvtKVJfm0EI3YJ9EM9emN5o/9TgxjA8c0+kjfUG0P33PMNKo8XF+g4rnp2DzwkgHM1musgxQpKOZKp4VojutFSAFfZQp7aKZAjQY2jTDPF7mBzdyDOYJlix7rYIsqoEmTNOCvQ/mg+XFnEKg6UFy9Q9O76wxPkGVPcCdM2mt4LyWHY0R2On+HpEXiGMX4VK/BPD8NgJokHxdVAJdWWgnRg5pAet+3ufLXei83mesMxTJTfakEqD3u9NbH8nqy6N7fSg2WvHP3umGDPcj6ZL+MlrU/Dr2vjrzIR+wnadd9BGjQsAj4DGxOiTDfTXpvQV8MoTSxN4RIwhChGMhf/71CGTNbd9fK66kAaNHIfD8/VlU59t5vzsNOvrBmd+d53wHsv02yhAsDgummT8R0vsvZvQ3CS3uAQOQ3NAzn0CsMxsIKni9dSotF2mkR9aoOxcFUJidIkgI2q1wtAOO9x1lYL7te9u6D5dD1yNk8JdMKa0gOV60AOOYYnhpG/ASFG2zAKbVch0DSxs936A3ROm4iFEktdBkE5lva1kCjyMcD0mJqI19BowuUQO/O1qxWGxNXWj80gayMP4ToXXMMBnQFYiuZBSZPHNMQy0N07zeDTi4GnwBWQmHwC44BaBg3NuBfJkNfRjGYQd7Qj4urCBWkeOgJVRUJ9y4UWwQ6sjG3Q5mCe+DVsAGQRpAUoYpAPWn9PPyBIZcysXNAFroGzOwxjLrIq1Vd0jvVYBlJz+h07uWiXknTz3Rryd2ayA2FFXABO7M84KqucSKDYVCw8F43CWjV2Dljcmgy4FbgBocrl0RwgXjVwbFBPE3S7zIeCAYaVLialJG7D1kWq4qsjkDqncmtB6B9dKwc3qp9ba81xOMtcseWIljVAllCeQTxFwGuUHB9Dr1HdyOsgv3n9NJw6LXNiuxEEaUfxbr8CE2EKbN1bEwUMCBHImTsTkkowFaBWJfoQBo5bqZNGDKxVPCHpLN8hAgLmVvrdgRVu6K0CdeQqu4BCgQhcz14X2uAQtaySUMBRWKHVSbrAxVGn0UFBROzCkqPQe7uReP7asNHWqFVqtb7MBUeDfu32+LbVbGbaObLtdcj7JGXyeRx8QQku8XCg5hgKQkjEuQMFP4kyPVZMWKBpzLldE5QG7GFjyL+BosTycuvOEsaSWIHREPBW/apE2U7Fspfmi0zEBwPUUbMdygJrHjEB6Y8jbCdkwhjYfnlD5JLYrICb1G5rFf+CIaEZVD4nAJib5FglF8OM75kyFGmbDCtSZwKmCCnTCSFGO/1g3/RRZ6gWwQJ61P2J4GxXF1r9d7orGxBuXRtkN2UBVfO/fYyqoTfyAINQFG6HL6E6ZBA0y0R1QYI0GEs76rRcGQbXtwhxL7dLSzWVxstDYqOmy4r9JK7OIG0A2E+kEykB1UO8Ki1EKjcH8QaN3z3CSYpN0VcFA0fnQRFEursEb0ynSSQpc6lyn0CM53aEdioSk7uCKcoWi9hwztYTG3hXY2/D3DgUfSlcIIku/gCAmFenvNiDqW7iFMgWSpleHDHOf8BBheCSeN1wKK6GrkE0cNVOlGl6EDo1Ep3XoxGQFYJxINt1Hw0pOhybP4I+j220CxvhfrOPgxarsjJgV7gXgQzWpCsiSLhSECegWe9jRELZDSDPehsAgnzys4gsYqmjjIi6NBGVjo8eVIG7JDu+Be8jHUgemNPsgUHhjDxOLqH9HE0AWCZ1xkrTQ1WITtjd4at6EJS2DlRi4jNU4B18F6BUsESO975njOAYvEbiheJlPk1q7gi12bgNGLvgSgSLgjB4iN7p/MCncM4QK2gDI5+shqz483OLSt1hMe3UcYVacN6ILWMuX62A1CXjiKH9lxoI7ZopITTNosg+nDKz0EgfYV5Kxs2ax7xYMhEcZqM5tRqdJ7xaczsVmbCqAYqyE+aBM/jQhUm88mz0zBQL2nIcwsM0evBnRz/MCjH2bykCsQ6O1ORDp1ou1CVoBflwgn059odUN/rHCaBTJEkyvMC4ZcJjfHLScG9FQEXJ5Unao1dN3smCYMM+zGRR/kPnjKabF5jb3tA/p0UA0KSEyC9LD5uMlRgZYVm4IjmByROpHoOiSUhPgT/ZCRvHpwveiWQ3cBPzOWLHiPVlGyPhlNxhH83gdyvOG8lOi45SYLQOGzSAGOsJZAfzgGPmNcyQK69HLMzEQ2Yrceqok1B9NXsJ9Z2tjcGkANVFP+YzgheqYhZyHBDF2RLjwo3IEKgl9TvRmZizRCxAhYGUBN99Ii3JKRo8jI49Niumk6DQv7dm9t6PFV+wR4aGLgfsWEXbCMRBWGDrmE+kdBdNqRlBRMDX/eAxMrlggLCDkpwpxItUJJIAsU3sYgY9yhlwvoOLSJa0OqIOQXmg9zbK3Gcw/QtJ6kRtElIfLGybcRNO4Q34L9XyNaUsKalgHeM0AGOBjJD+nRnqP4jAqgn9sgVjwPnozhR9kg4OoqsVmK8OiS21WYEY1pNRpCw7WR845L2vM5hxCjKlklbHLsEZH7joZSCZXHRJ1u8UCUTCL1Ejgc+8LDNvIyNrxSCJmnNT4C5FIm/QFsIGPebRpIW1hzDB60tOhi6wiZyZI6yaGY1LdJ632A5/1B8Pa7JjBT8bkFEYqGm9jMSpWhpznCUC0UF1Y28zu20PdkYFsU9kV0ApgPap7E7tgpH9D/aTFBeHmaiAZNjgaMTXEGabBijC96tkPK9cDudBtFY1z7enrGXIWo6YsCAB2MD3aiMvXhuYMVXvQBQ+bHti9txc0Fe0NHEGfWWwyhNXNks7aJz+xtap7QLKvnzuA/agr5CWYivw4CEtoIicuE3W7x1DkNKAX58EDd6EGyg4tnKICMejTRNiPEz1m7NzQZCaQvKRON1OGOPVc8lT4reeDI7ucpO7VGVHVSSbKqZlYo/YhN3GBNg8zBXLosTyLBomfI8TgNi9LsuQUzeHl6bM4xjPhnOyk2hEkjnA4LwvPLCRsGzaFO4NF8HA4LUoCPwHx6G6vL3euDL8Hntox4RBPT7IJ+aLQ75eU8QxPGdmx0AEI1EA7umDJxZoXOtcU6ceDnSbEryP/Dvm1g0UJlruVMCwosnl8DBfixNGLfMFMe7kJ1cXzdWzzzSNgzhuYZi7GKjfXYxsEmxrM8f3f1ZoHWaa/qsfVXVhh3ahX+TCC4+bbm8ncO6nyAdfShBZ6R9DHDHWCAMEdNOpz2Tju8DbopA44k58+O74Bu3vy1dFAG5AizjTmNB5EJnQUP3diays68usYOnSwJYI+HI3PSAmEP0BgYAoQOa3M0yATY4ByGlnmGNN6nmMjkBWKjp/N1uGTiINDXDtju2BzeVG3G9qwYitvRYpBleSDXeNJAZQQY3wHmpFscI4YVxIIVaBaVEULJx429QaIxwk7cGo+O2oCRx0P4sV0TnHGoDQYkrqAkmdXTaGDdlIzmLsA5KJ8DF3OOjcGa4gmKBEhofcgF7BQ7glpiS5Y1RjIoHgAZTz1iJxLFGlv+aZHW2IOLzW8d8QQau3zCJbdnBAZNbAjlm6HeYsch8BmnBwOOaDgTmAZuiK0wuB1+RJGSVBsWHFoxefj+psATtyuBjyAHugeZuu9sIAlQaIeB7oCbUdMtwhT17Ei+W9OJzdNruN3xmJbIDno4dmY1Npww1+i2tCHlinv3BKHGdgQCfCNkg4vjgToaZ/ePnYr4Rzqfu2koaRAQYCsTQZfClMq7QR7/4GK92yiob6L/eBwFUNe0DjOZQqrSbrEPSTtUFFQeAi7e0JC6Oq494RYGlgqp+eJPih0UtH4KYzri33bAJITBLHZ9frZX+ON3WYvqIXb3E1qezzFpHgYOH4hy/5gfvDq9c989RO4uHbuMBsDVYrzfPZuxRjxTw1A9+996+vHn74/+/0L/4YUMjt/+/BN+Qh7Ne7Rm3QAAAJBQTFRF////YaY619fX5OTk9/f3WqMvVqEoXKQyX6U3qMyXzuLDVaEmXqU2W6Mw8vfvU6Aij715s9Ok+Pv14+7daKpC0uTKvdiwhLlohbhs6/PnlsKC2OfRUJ4b+vz5xdy6i7xybq1Mzs7OebJbn8eLtdOmrM6b3+zZe7RdSpwLnMWHbKtJx929c69TRZoAw9y2ZahBc1CtYQAAAAlwSFlzAAALEwAACxMBAJqcGAAAAAd0SU1FB+YBBAkKM/QlXssAACAASURBVHgBAFKArX8AAAAAAAAAAAAAAAAAAAAAAAAAAAAAAAAAAAAAAAAAAAAAAAAAAAAAAAAAAAAAAAAAAAAAAAAAAAAAAAAAAAAAAAAAAAAAAAAAAAAAAAAAAAAAAAAAAAAAAAAAAAAAAAAAAAAAAAAAAAAAAAAAAAAAAAAAAAAAAAAAAAAAAAAAAAAAAAAAAAAAAAAAAAAAAAAAAAAAAAAAAAAAAAAAAAAAAAAAAAAAAAAAAAAAAAAAAAAAAAAAAAAAAAAAAAAAAAAAAAAAAAAAAAAAAAAAAAAAAAAAAAAAAAAAAAAAAAAAAAAAAAAAAAAAAAAAAAAAAAAAAAAAAAAAAAAAAAAAAAAAAAAAAAAAAAAAAAAAAAAAAAAAAAAAAAAAAAAAAAAAAAAAAAAAAAAAAAAAAAAAAAAAAAAAAAAAAAAAAAAAAAAAAAAAAAAAAAAAAAAAAAAAAAAAAAAAAAAAAAAAAAAAAAAAAAAAAAAAAAAAAAAAAAAAAAAAAAAAAAAAAAAAAAAAAAAAAAAAAAAAAAAAAAAAAAAAAAAAAAAAAAAAAAAAAAAAAAAAAAAAAAAAAAAAAAAAAAAAAAAAAAAAAAAAAAAAAAAAAAAAAAAAAAAAAAAAAAAAAAAAAAAAAAAAAAAAAAAAAAAAAAAAAAAAAAAAAAAAAAAAAAAAAAAAAAAAAAAAAAAAAAAAAAAAAAAAAAAAAAAAAAAAAAAAAAAAAAAAAAAAAAAAAAAAAAAAAAAAAAAAAAAAAAAAAAAAAAAAAAAAAAAAAAAAAAAAAAAAAAAAAAAAAAAAAAAAAAAAAAAAAAAAAAAAAAAAAAAAAAAAAAAAAAAAAAAAAAAAAAAAAAAAAAAAAAAAAAAAAAAAAAAAAAAAAAAAAAAAAAAAAAAAAAAAAAAAAAAAAAAAAAAAAAAAAAAAAAAAAAAAAAAAAAAAAAAAAAAAAAAAAAAAAAAAAAAAAAAAAAAAAAAAAAAAAAAAAAAAAAAAAAAAAAAAAAAAAAAAAAAAAAAAAAAAAAAAAAAAAAAAAAAAAAAAAAAAAAAAAAAAAAAAAAAAAAAAAAAAAAAAAAAAAAAAAAAAAAAAAAAAAAAAAAAAAAAAAAAAAAAAAAAAAAAAAAAAAAAAAAAAAAAAAAAAAAAAAAAAAAAAAAAAAAAAAAAAAAAAAAAAAAAAAAAAAAAAAAAAAAAAAAAAAAAAAAAAAAAAAAAAAAAAAAAAAAAAAAAAAAAAAAAAAAAAAAAAAAAAAAAAAAAAAAAAAAAAAAAAAAAAAAAAAAAAAAAAAAAAAAAAAAAAAAAAAAAAAAAAAAAAAAAAAAAAAAAAAAAAAAAAAAAAAAAAAAAAAAAAAAAAAAAAAAAAAAAAAAAAAAAAAAAAAAAAAAAAAAAAAAAAAAAAAAAAAAAAAAAAAAAAAAAAAAAAAAAAAAAAAAAAAAAAAAAAAAAAAAAAAAAAAAAAAAAAAAAAAAAAAAAAAAAAAAAAAAAAAAAAAAAAAAAAAAAAAAAAAAAAAAAAAAAAAAAAAAAAAAAAAAAAAAAAAAAAAAAAAAAAAAAAAAAAAAAAAAAAAAAAAAAAAAAAAAAAAAAAAAAAAAAAAAAAAAAAAAAAAAAAAAAAAAAAAAAAAAAAAAAAAAAAAAAAAAAAAAAAAAAAAAAAAAAAAAAAAAAAAAAAAAAAAAAAAAAAAAAAAAAAAAAAAAAAAAAAAAAAAAAAAAAAAAAAAAAAAAAAAAAAAAAAAAAAAAAAAAAAAAAAAAAAAAAAAAAAAAAAAAAAAAAAAAAAAAAAAAAAAAAAAAAAAAAAAAAAAAAAAAAAAAAAAAAAAAAAAAAAAAAAAAAAAAAAAAAAAAAAAAAAAAAAAAAAAAAAAAAAAAAAAAAAAAAAAAAAAAAAAAAAAAAAAAAAAAAAAAAAAAAAAAAAAAAAAAAAAAAAAAAAAAAAAAAAAAAAAAAAAAAAAAAAAAAAAAAAAAAAAAAAAAAAAAAAAAAAAAAAAAAAAAAAAAAAAAAAAAAAAAAAAAAAAAAAAAAAAAAAAAAAAAAAAAAAAAAAAAAAAAAAAAAAAAAAAAAAAAAAAAAAAAAAAAAAAAAAAAAAAAAAAAAAAAAAAAAAAAAAAAAAAAAAAAAAAAAAAAAAAAAAAAAAAAAAAAAAAAAAAAAAAAAAAAAAAAAAAAAAAAAAAAAAAAAAAAAAAAAAAAAAAAAAAAAAAAAAAAAAAAAAAAAAAAAAAAAAAAAAAAAAAAAAAAAAAAAAAAAAAAAAAAAAAAAAAAAAAAAAAAAAAAAAAAAAAAAAAAAAAAAAAAAAAAAAAAAAAAAAAAAAAAAAAAAAAAAAAAAAAAAAAAAAAAAAAAAAAAAAAAAAAAAAAAAAAAAAAAAAAAAAAAAAAAAAAAAAAAAAAAAAAAAAAAAAAAAAAAAAAAAAAAAAAAAAAAAAAAAAAAAAAAAAAAAAAAAAAAAAAAAAAAAAAAAAAAAAAAAAAAAAAAAAAAAAAAAAAAAAAAAAAAAAAAAAAAAAAAAAAAAAAAAAAAAAAAAAAAAAAAAAAAAAAAAAAAAAAAAAAAAAAAAAAAAAAAAAAAAAAAAAAAAAAAAAAAAAAAAAAAAAAAAAAAAAAAAAAAAAAAAAAAAAAAAAAAAAAAAAAAAAAAAAAAAAAAAAAAAAAAAAAAAAAAAAAAAAAAAAAAAAAAAAAAAAAAAAAAAAAAAAAAAAAAAAAAAAAAAAAAAAAAAAAAAAAAAAAAAAAAAAAAAAAAAAAAAAAAAAAAAAAAAAAAAAAAAAAAAAAAAAAAAAAAAAAAAAAAAAAAAAAAAAAAAAAAAAAAAAAAAAAAAAAAAAAAAAAAAAAAAAAAAAAAAAAAAAAAAAAAAAAAAAAAAAAAAAAAAAAAAAAAAAAAAAAAAAAAAAAAAAAAAAAAAAAAAAAAAAAAAAAAAAAAAAAAAAAAAAAAAAAAAAAAAAAAAAAAAAAAAAAAAAAAAAAAAAAAAAAAAAAAAAAAAAAAAAAAAAAAAAAAAAAAAAAAAAAAAAAAAAAAAAAAAAAAAAAAAAAAAAAAAAAAAAAAAAAAAAAAAAAAAAAAAAAAAAAAAAAAAAAAAAAAAAAAAAAAAAAAAAAAAAAAAAAAAAAAAAAAAAAAAAAAAAAAAAAAAAAAAAAAAAAAAAAAAAAAAAAAAAAAAAAAAAAAAAAAAAAAAAAAAAAAAAAAAAAAAAAAAAAAAAAAAAAAAAAAAAAAAAAAAAAAAAAAAAAAAAAAAAAAAAAAAAAAAAAAAAAAAAAAAAAAAAAAAAAAAAAAAAAAAAAAAAAAAAAAAAAAAAAAAAAAAAAAAAAAAAAAAAAAAAAAAAAAAAAAAAAAAAAAAAAAAAAAAAAAAAAAAAAAAAAAAAAAAAAAAAAAAAAAAAAAAAAAAAAAAAAAAAAAAAAAAAAAAAAAAAAAAAAAAAAAAAAAAAAAAAAAAAAAAAAAAAAAAAAAAAAAAAAAAAAAAAAAAAAAAAAAAAAAAAAAAAAAAAAAAAAAAAAAAAAAAAAAAAAAAAAAAAAAAAAAAAAAAAAAAAAAAAAAAAAAAAAAAAAAAAAAAAAAAAAAAAAAAAAAAAAAAAAAAAAAAAAAAAAAAAAAAAAAAAAAAAAAAAAAAAAAAAAAAAAAAAAAAAAAAAAAAAAAAAAAAAAAAAAAAAAAAAAAAAAAAAAAAAAAAAAAAAAAAAAAAAAAAAAAAAAAAAAAAAAAAAAAAAAAAAAAAAAAAAAAAAAAAAAAAAAAAAAAAAAAAAAAAAAAAAAAAAAAAAAAAAAAAAAAAAAAAAAAAAAAAAAAAAAAAAAAAAAAAAAAAAAAAAAAAAAAAAAAAAAAAAAAAAAAAAAAAAAAAAAAAAAAAAAAAAAAAAAAAAAAAAAAAAAAAAAAAAAAAAAAAAAAAAAAAAAAAAAAAAAAAAAAAAAAAAAAAAAAAAAAAAAAAAAAAAAAAAAAAAAAAAAAAAAAAAAAAAAAAAAAAAAAAAAAAAAAAAAAAAAAAAAAAAAAAAAAAAAAAAAAAAAAAAAAAAAAAAAAAAAAAAAAAAAAAAAAAAAAAAAAAAAAAAAAAAAAAAAAAAAAAAAAAAAAAAAAAAAAAAAAAAAAAAAAAAAAAAAAAAAAAAAAAAAAAAAAAAAAAAAAAAAAAAAAAAAAAAAAAAAAAAAAAAAAAAAAAAAAAAAAAAAAAAAAAAAAAAAAAAAAAAAAAAAAAAAAAAAAAAAAAAAAAAAAAAAAAAAAAAAAAAAAAAAAAAAAAAAAAAAAAAAAAAAAAAAAAAAAAAAAAAAAAAAAAAAAAAAAAAAAAAAAAAAAAAAAAAAAAAAAAAAAAAAAAAAAAAAAAAAAAAAAAAAAAAAAAAAAAAAAAAAAAAAAAAAAAAAAAAAAAAAAAAAAAAAAAAAAAAAAAAAAAAAAAAAAAAAAAAAAAAAAAAAAAAAAAAAAAAAAAAAAAAAAAAAAAAAAAAAAAAAAAAAAAAAAAAAAAAAAAAAAAAAAAAAAAAAAAAAAAAAAAAAAAAAAAAAAAAAAAAAAAAAAAAAAAAAAAAAAAAAAAAAAAAAAAAAAAAAAAAAAAAAAAAAAAAAAAAAAAAAAAAAAAAAAAAAAAAAAAAAAAAAAAAAAAAAAAAAAAAAAAAAAAAAAAAAAAAAAAAAAAAAAAAAAAAAAAAAAAAAAAAAAAAAAAAAAAAAAAAAAAAAAAAAAAAAAAAAAAAAAAAAAAAAAAAAAAAAAAAAAAAAAAAAAAAAAAAAAAAAAAAAAAAAAAAAAAAAAAAAAAAAAAAAAAAAAAAAAAAAAAAAAAAAAAAAAAAAAAAAAAAAAAAAAAAAAAAAAAAAAAAAAAAAAAAAAAAAAAAAAAAAAAAAAAAAAAAAAAAAAAAAAAAAAAAAAAAAAAAAAAAAAAAAAAAAAAAAAAAAAAAAAAAAAAAAAAAAAAAAAAAAAAAAAAAAAAAAAAAAAAAAAAAAAAAAAAAAAAAAAAAAAAAAAAAAAAAAAAAAAAAAAAAAAAAAAAAAAAAAAAAAAAAAAAAAAAAAAAAAAAAAAAAAAAAAAAAAAAAAAAAAAAAAAAAAAAAAAAAAAAAAAAAAAAAAAAAAAAAAAAAAAAAAAAAAAAAAAAAAAAAAAAAAAAAAAAAAAAAAAAAAAAAAAAAAAAAAAAAAAAAAAAAAAAAAAAAAAAAAAAAAAAAAAAAAAAAAAAAAAAAAAAAAAAAAAAAAAAAAAAAAAAAAAAAAAAAAAAAAAAAAAAAAAAAAAAAAAAAAAAAAAAAAAAAAAAAAAAAAAAAAAAAAAAAAAAAAAAAAAAAAAAAAAAAAAAAAAAAAAAAAAAAAAAAAAAAAAAAAAAAAAAAAAAAAAAAAAAAAAAAAAAAAAAAAAAAAAAAAAAAAAAAAAAAAAAAAAAAAAAAAAAAAAAAAAAAAAAAAAAAAAAAAAAAAAAAAAAAAAAAAAAAAAAAAAAAAAAAAAAAAAAAAAAAAAAAAAAAAAAAAAAAAAAAAAAAAAAAAAAAAAAAAAAAAAAAAAAAAAAAAAAAAAAAAAAAAAAAAAAAAAAAAAAAAAAAAAAAAAAAAAAAAAAAAAAAAAAAAAAAAAAAAAAAAAAAAAAAAAAAAAAAAAAAAAAAAAAAAAAAAAAAAAAAAAAAAAAAAAAAAAAAAAAAAAAAAAAAAAAAAAAAAAAAAAAAAAAAAAAAAAAAAAAAAAAAAAAAAAAAAAAAAAAAAAAAAAAAAAAAAAAAAAAAAAAAAAAAAAAAAAAAAAAAAAAAAAAAAAAAAAAAAAAAAAAAAAAAAAAAAAAAAAAAAAAAAAAAAAAAAAAAAAAAAAAAAAAAAAAAAAAAAAAAAAAAAAAAAAAAAAAAAAAAAAAAAAAAAAAAAAAAAAAAAAAAAAAAAAAAAAAAAAAAAAAAAAAAAAAAAAAAAAAAAAAAAAAAAAAAAAAAAAAAAAAAAAAAAAAAAAAAAAAAAAAAAAAAAAAAAAAAAAAAAAAAAAAAAAAAAAAAAAAAAAAAAAAAAAAAAAAAAAAAAAAAAAAAAAAAAAAAAAAAAAAAAAAAAAAAAAAAAAAAAAAAAAAAAAAAAAAAAAAAAAAAAAAAAAAAAAAAAAAAAAAAAAAAAAAAAAAAAAAAAAAAAAAAAAAAAAAAAAAAAAAAAAAAAAAAAAAAAAAAAAAAAAAAAAAAAAAAAAAAAAAAAAAAAAAAAAAAAAAAAAAAAAAAAAAAAAAAAAAAAAAAAAAAAAAAAAAAAAAAAAAAAAAAAAAAAAAAAAAAAAAAAAAAAAAAAAAAAAAAAAAAAAAAAAAAAAAAAAAAAAAAAAAAAAAAAAAAAAAAAAAAAAAAAAAAAAAAAAAAAAAAAAAAAAAAAAAAAAAAAAAAAAAAAAAAAAAAAAAAAAAAAAAAAAAAAAAAAAAAAAAAAAAAAAAAAAAAAAAAAAAAAAAAAAAAAAAAAAAAAAAAAAAAAAAAAAAAAAAAAAAAAAAAAAAAAAAAAAAAAAAAAAAAAAAAAAAAAAAAAAAAAAAAAAAAAAAAAAAAAAAAAAAAAAAAAAAAAAAAAAAAAAAAAAAAAAAAAAAAAAAAAAAAAAAAAAAAAAAAAAAAAAAAAAAAAAAAAAAAAAAAAAAAAAAAAAAAAAAAAAAAAAAAAAAAAAAAAAAAAAAAAAAAAAAAAAAAAAAAAAAAAAAAAAAAAAAAAAAAAAAAAAAAAAAAAAAAAAAAAAAAAAAAAAAAAAAAAAAAAAAAAAAAAAAAAAAAAAAAAAAAAAAAAAAAAAAAAAAAAAAAAAAAAAAAAAAAAAAAAAAAAAAAAAAAAAAAAAAAAAAAAAAAAAAAAAAAAAAAAAAAAAAAAAAAAAAAAAAAAAAAAAAAAAAAAAAAAAAAAAAAAAAAAAAAAAAAAAAAAAAAAAAAAAAAAAAAAAAAAAAAAAAAAAAAAAAAAAAAAAAAAAAAAAAAAAAAAAAAAAAAAAAAAAAAAAAAAAAAAAAAAAAAAAAAAAAAAAAAAAAAAAAAAAAAAAAAAAAAAAAAAAAAAAAAAAAAAAAAAAAAAAAAAAAAAAAAAAAAAAAAAAAAAAAAAAAAAAAAAAAAAAAAAAAAAAAAAAAAAAAAAAAAAAAAAAAAAAAAAAAAAAAAAAAAAAAAAAAAAAAAAAAAAAAAAAAAAAAAAAAAAAAAAAAAAAAAAAAAAAAAAAAAAAAAAAAAAAAAAAAAAAAAAAAAAAAAAAAAAAAAAAAAAAAAAAAAAAAAAAAAAAAAAAAAAAAAAAAAAAAAAAAAAAAAAAAAAAAAAAAAAAAAAAAAAAAAAAAAAAAAAAAAAAAAAAAAAAAAAAAAAAAAAAAAAAAAAAAAAAAAAAAAAAAAAAAAAAAAAAAAAAAAAAAAAAAAAAAAAAAAAAAAAAAAAAAAAAAAAAAAAAAAAAAAAAAAAAAAAAAAAAAAAAAAAAAAAAAAAAAAAAAAAAAAAAAAAAAAAAAAAAAAAAAAAAAAAAAAAAAAAAAAAAAAAAAAAAAAAAAAAAAAAAAAAAAAAAAAAAAAAAAAAAAAAAAAAAAAAAAAAAAAAAAAAAAAAAAAAAAAAAAAAAAAAAAAAAAAAAAAAAAAAAAAAAAAAAAAAAAAAAAAAAAAAAAAAAAAAAAAAAAAAAAAAAAAAAAAAAAAAAAAAAAAAAAAAAAAAAAAAAAAAAAAAAAAAAAAAAAAAAAAAAAAAAAAAAAAAAAAAAAAAAAAAAAAAAAAAAAAAAAAAAAAAAAAAAAAAAAAAAAAAAAAAAAAAAAAAAAAAAAAAAAAAAAAAAAAAAAAAAAAAAAAAAAAAAAAAAAAAAAAAAAAAAAAAAAAAAAAAAAAAAAAAAAAAAAAAAAAAAAAAAAAAAAAAAAAAAAAAAAAAAAAAAAAAAAAAAAAAAAAAAAAAAAAAAAAAAAAAAAAAAAAAAAAAAAAAAAAAAAAAAAAAAAAAAAAAAAAAAAAAAAAAAAAAAAAAAAAAAAAAAAAAAAAAAAAAAAAAAAAAAAAAAAAAAAAAAAAAAAAAAAAAAAAAAAAAAAAAAAAAAAAAAAAAAAAAAAAAAAAAAAAAAAAAAAAAAAAAAAAAAAAAAAAAAAAAAAAAAAAAAAAAAAAAAAAAAAAAAAAAAAAAAAAAAAAAAAAAAAAAAAAAAAAAAAAAAAAAAAAAAAAAAAAAAAAAAAAAAAAAAAAAAAAAAAAAAAAAAAAAAAdAAAAAAAAAAAAAAAAAAAAAAAAAAAAAAAAAAAAAAAAAAAAAAAAAAAAAAAAAAAAAAAAAAAAAAAAAAAAAAAAAAAAAAAAAAAAAAAAAAAAAAAAAAAAAAAAAAAAAAAAAAAAAAAAAAAAAAAAAAAAAAAAAAAAAAAAAAAAAAAAAAAAAAAAAAAAAAAAAAAAAAAAAAAAAAAAAAAAAAAAAAAAAAAAAAAAAAAAAAAAAAAAAAAAAAAAAAAAAAAAAAAAAAAAAAAAAAAAAAAAAAAAAAAAAAAAAAAAAAAAAAAAAAAAAAAAAAAAAAAdHQAAAAAAAAAAAAAAAAAAAAAAAAAAAAAAAAAAAAAAAAAAAAAAAAAAAAAAAAAAAAAAAAAAAAAAAAAAAAAAAAAAAAAAAAAAAAAAAAAAAAAAAAAAAAAAAAAAAAAAAAAAAAAAAAAAAAAAAAAAAAAAAAAAAAAAAAAAAAAAAAAAAAAAAAAAAAAAAAAAAAAAAAAAAAAAAAAAAAAAAAAAAAAAAAAAAAAAAAAAAAAAAAAAAAAAAAAAAAAAAAAAAAAAAAAAAAAAAAAAAAAAAAAAAAAAAAAAAAAAAAAAAAAAAAAAAAAAAAAAAAAAAAAAAAAAAAAAAAAAAAAAAAAAAAAAAAAAAAAAAAAAAAAAAAAAAAAAAAAAAAAAAAAAAAAAAAAAAAAAAAAAAAAAAAAAAAAAAAAAAAAAAAAAAAAAAAAAAAAAAAAAAAAAAAAAAAAAAAAAAAAAAAAAAAAAAAAAAAAAAAAAAAAAAAAAAAAAAAAAAAAAAAAAAAAAAAAAAAAAAAAAAAAAAAAAAAAAAAAAAAAAAAAAAAAAAAAAAAAAAAAAAAAAAAAAAAAAAAAAAAAAAAAAAAAAAAAAAAAAAAAAAAAAAAAAAAAAAAAAAAAAAAAAAAAAAAAAAAAAAAAAAAAAAAAAAAAAAAAAAAAAAAAAAAAAAAAAAAAAAAAAAAAAAAAAAAAAAAAAAAAAAAAAAAAAAAAAAAAAAAAAAAAAAAAAAAAAAAAAAAAAAAAAAAAAAAAAAAAAAAAAAAAAAAAAAAAAAAAAAAAAAAAAAAAAAAAAAAAAAAAAAAAAAAAAAAAAAAAAAAAAAAAAAAAAAAAAAAAAAAAAAAAAAAAAAAAAAAAAAAAAAAAAAAAAAAAAAAAAAAAAAAAAAAAAAAAAAAAAAAAAAAAAAAAAAAAAAAAAAAAAAAAAAAAAAAAAAAAAAAAAAAAAAAAAAAAAAAAAAAAAAAAAAAAAAAAAAAAAAAAAAAAAAAAAAAAAAAAAAAAAAAAAAAAAAAAAAAAAAAAAAAAAAAAAAAAAAAAAAAAAAAAAAAAAAAAAAAAAAAAAAAAAAAAAAAAAAAAAAAAAAAAAAAAAAAAAAAAAAAAAAAAAAAAAAAAAAAAAAAAAAAAAAAAAAAAAAAAAAAAAAAAAAAAAAAAAAAAAAAAAAAAAAAAAAAAAAAAAAAAAAAAAAAAAAAAAAAAAAAAAAAAAAAAAAAAAAAAAAAAAAAAAAAAAAAAAAAAAAAAAAAAAAAAAAAAAAAAAAAAAAAAAAAAAAAAAAAAAAAAAAAAAAAAAAAAAAAAAAAAAAAAAAAAAAAAAAAAAAAAAAAAAAAAAAAAAAAAAAAAAAAAAAAAAAAAAAAAAAAAAAAAAAAAAAAAAAAAAAAAAAAAAAAAAAAAAAAAAAAAAAAAAAAAAAAAAAAAAAAAAAAAAAAAAAAAAAAAAAAAAAAAAAAAAAAAAAAAAAAAAAAAAAAAAAAAAAAAAAAAAAAAAAAAAAAAAAAAAAAAAAAAAAAAAAAAAAAAAAAAAAAAAAAAAAAAAAAAAAAAAAAAAAAAAAAAAAAAAAAAAAAAAAAAAAAAAAAAAAAAAAAAAAAAAAAAAAAAAAAAAAAAAAAAAAAAAAAAAAAAAAAAAAAAAAAAAAAAAAAAAAAAAAAAAAAAAAAAAAAAAAAAAAAAAAAAAAAAAAAAAAAAAAAAAAAAAAAAAAAAAAAAAAAAAAAAAAAAAAAAAAAAAAAAAAAAAAAAAAAAAAAAAAAAAAAAAAAAAAAAAAAAAAAAAAAAAAAAAAAAAAAAAAAAAAAAAAAAAAAAAAAAAAAAAAAAAAAAAAAAAAAAAAAAAAAAAAAAAAAAAAAAAAAAAAAAAAAAAAAAAAAAAAAAAAAAAAAAAAAAAAAAAAAAAAAAAAAAAAAAAAAAAAAAAAAAAAAAAAAAAAAAAAAAAAAAAAAAAAAAAAAAAAAAAAAAAAAAAAAAAAAAAAAAAAAAAAAAAAAAAAAAAAAAAAAAAAAAAAAAAAAAAAAAAAAAAAAAAAAAAAAAAAAAAAAAAAAAAAAAAAAAAAAAAAAAAAAAAAAAAAAAAAAAAAAAAAAAAAAAAAAAAAAAAAAAAAAAAAAAAAAAAAAAAAAAAAAAAAAAAAAAAAAAAAAAAAAAAAAAAAAAAAAAAAAAAAAAAAAAAAAAAAAAAAAAAAAAAAAAAAAAAAAAAAAAAAAAAAAAAAAAAAAAAAAAAAAAAAAAAAAAAAAAAAAAAAAAAAAAAAAAAAAAAAAAAAAAAAAAAAAAAAAAAAAAAAAAAAAAAAAAAAAAAAAAAAAAAAAAAAAAAAAAAAAAAAAAAAAAAAAAAAAAAAAAAAAAAAAAAAAAAAAAAAAAAAAAAAAAAAAAAAAAAAAAAAAAAAAAAAAAAAAAAAAAAAAAAAAAAAAAAAAAAAAAAAAAAAAAAAAAAAAAAAAAAAAAAAAAAAAAAAAAAAAAAAAAAAAAAAAAAAAAAAAAAAAAAAAAAAAAAAAAAAAAAAAAAAAAAAAAAAAAAAAAAAAAAAAAALOW7yQAAIABJREFUAAAAAAAAAAAAAAAAAAAAAAAAAAAAAAAAAAAAAAAAAAAAAAAAAAAAAAAAAAAAAAAAAAAAAAAAAAAAAAAAAAAAAAAAAAAAAAAAAAAAAAAAAAAAAAAAAAAAAAAAAAAAAAAAAAAAAAAAAAAAAAAAAAAAAAAAAAAAAAAAAAAAAAAAAAAAAAAAAAAAAAAAAAAAAAAAAAAAAAAAAAAAAAAAAAAAAAAAAAAAAAAAAAAAAAAAAAAAAAAAAAAAAAAAAAAAAAAAAAAAAAAAAAAAAAAAAAAAAAAAAAAAAAAAAAAAAAAAAAAAAAAAAAAAAAAAAAAAAAAAAAAAAAAAAAAAAAAAAAAAAAAAAAAAAAAAAAAAAAAAAAAAAAAAAAAAAAAAAAAAAAAAAAAAAAAAAAAAAAAAAAAAAAAAAAAAAAAAAAAAAAAAAAAAAAAAAAAAAAAAAAAAAAAAAAAAAAAAAAAAAAAAAAAAAAAAAAAAAAAAAAAAAAAAAAAAAAAAAAAAAAAAAAAAAAAAAAAAAAAAAAAAAAAAAAAAAAAAAAAAAAAAAAAAAAAAAAAAAAAAAAAAAAAAAAAAAAAAAAAAAAAAAAAAAAAAAAAAAAAAAAAAAAAAAAAAAAAAAAAAAAAAAAAAAAAAAAAAAAAAAAAAAAAAAAAAAAAAAAAAAAAAAAAAAAAAAAAAAAAAAAAAAAAAAAAAAAAAAAAAAAAAAAAAAAAAAAAAAAAAAAAAAAAAAAAAAAAAAAAAAAAAAAAAAAAAAAAAAAAAAAAAAAAAAAAAAAAAAAAAAAAAAAAAAAAAAAAAAAAAAAAAAAAAAAAAAAAAAAAAAAAAAAAAAAAAAAAAAAAAAAAAAAAAAAAAAAAAAAAAAAAAAAAAAAAAAAAAAAAAAAAAAAAAAAAAAAAAAAAAAAAAAAAAAAAAAAAAAAAAAAAAAAAAAAAAAAAAAAAAAAAAAAAAAAAAAAAAAAAAAAAAAAAAAAAAAAAAAAAAAAAAAAAAAAAAAAAAAAAAAAAAAAAAAAAAAAAAAAAAAAAAAAAAAAAAAAAAAAAAAAAAAAAAAAAAAAAAAAAAAAAAAAAAAAAAAAAAAAAAAAAAAAAAAAAAAAAAAAAAAAAAAAAAAAAAAAAAAAAAAAAAAAAAAAAAAAAAAAAAAAAAAAAAAAAAAAAAAAAAAAAAAAAAAAAAAAAAAAAAAAAAAAAAAAAAAAAAAAAAAAAAAAAAAAAAAAAAAAAAAAAAAAAAAAAAAAAAAAAAAAAAAAAAAAAAAAAAAAAAAAAAAAAAAAAAAAAAAAAAAAAAAAAAAAAAAAAAAAAAAAAAAAAAAAAAAAAAAAAAAAAAAAAAAAAAAAAAAAAAAAAAAAAAAAAAAAAAAAAAAAAAAAAAAAAAAAAAAAAAAAAAAAAAAAAAAAAAAAAAAAAAAAAAAAAAAAAAAAAAAAAAAAAAAAAAAAAAAAAAAAAAAAAAAAAAAAAAAAAAAAAAAAAAAAAAAAAAAAAAAAAAAAAAAAAAAAAAAAAAAAAAAAAAAAAAAAAAAAAAAAAAAAAAAAAAAAAAAAAAAAAAAAAAAAAAAAAAAAAAAAAAAAAAAAAAAAAAAAAAAAAAAAAAAAAAAAAAAAAAAAAAAAAAAAAAAAAAAAAAAAAAAAAAAAAAAAAAAAAAAAAAAAAAAAAAAAAAAAAAAAAAAAAAAAAAAAAAAAAAAAAAAAAAAAAAAAAAAAAAAAAAAAAAAAAAAAAAAAAAAAAAAAAAAAAAAAAAAAAAAAAAAAAAAAAAAAAAAAAAAAAAAAAAAAAAAAAAAAAAAAAAAAAAAAAAAAAAAAAAAAAAAAAAAAAAAAAAAAAAAAAAAAAAAAAAAAAAAAAAAAAAAAAAAAAAAAAAAAAAAAAAAAAAAAAAAAAAAAAAAAAAAAAAAAAAAAAAAAAAAAAAAAAAAAAAAAAAAAAAAAAAAAAAAAAAAAAAAAAAAAAAAAAAAAAAAAAAAAAAAAAAAAAAAAAAAAAAAAAAAAAAAAAAAAAAAAAAAAAAAAAAAAAAAAAAAAAAAAAAAAAAAAAAAAAAAAAAAAAAAAAAAAAAAAAAAAAAAAAAAAAAAAAAAAAAAAAAAAAAAAAAAAAAAAAAAAAAAAAAAAAAAAAAAAAAAAAAAAAAAAAAAAAAAAAAAAAAAAAAAAAAAAAAAAAAAAAAAAAAAAAAAAAAAAAAAAAAAAAAAAAAAAAAAAAAAAAAAAAAAAAAAAAAAAAAAAAAAAAAAAAAAAAAAAAAAAAAAAAAAAAAAAAAAAAAAAAAAAAAAAAAAAAAAAAAAAAAAAAAAAAAAAAAAAAAAAAAAAAAAAAAAAAAAAAAAAAAAAAAAAAAAAAAAAAAAAAAAAAAAAAAAAAAAAAAAAAAAAAAAAAAAAAAAAAAAAAAAAAAAAAAAAAAAAAAAAAAAAAAAAAAAAAAAAAAAAAAAAAAAAAAAAAAAAAAAAAAAAAAAAAAAAAAAAAAAAAAAAAAAAAAAAAAAAAAAAAAAAAAAAAAAAAAAAAAAAAAAAAAAAAAAAAAAAAAAAAAAAAAAAAAAAAAAAAAAAAAAAAAAAAAAAAAAAAAAAAAAAAAAAAAAAAAAAAAAAAAAAAAAAAAAAAAAAAAAAAAAAAAAAAAAAAAAAAAAAAAAAAAAAAAAAAAAAAAAAAAAAAAAAAAAAAAAAAAAAAAAAAAAAAAAAAAAAAAAAAAAAAAAAAAAAAAAAAAAAAAAAAAAAAAAAAAAAAAAAAAAAAAAAAAAAAAAAAAAAAAAAAAAAAAAAAAAAAAAAAAAAAAAAAAAAAAAAAAAAAAAAAAAAAAAAAAAAAAAAAAAAAAAAAAAAAAAAAAAAAAAAAAAAAAAAAAAAAAAAAAAAAAAAAAAAAAAAAAAAAAAAAAAAAAAAAAAAAAAAAAAAAAAAAAAAAAAAAAAAAAAAAAAAAAAAAAAAAAAAAAAAAAAAAAAAAAAAAAAAAAAAAAAAAAAAAAAAAAAAAAAAAAAAAAAAAAAAAAAAAAAAAAAAAAAAAAAAAAAAAAAAAAAAAAAAAAAAAAAAAAAAAAAAAAAAAAAAAAAAAAAAAAAAAAAAAAAAAAAAAAAAAAAAAAAAAAAAAAAAAAAAAAAAAAAAAAAAAAAAAAAAAAAAAAAAAAAAAAAAAAAAAAAAAAAAAAAAAAAAAAAAAAAAAAAAAAAAAAAAAAAAAAAAAAAAAAAAAAAAAAAAAAAAAAAAAAAAAAAAAAAAAAAAAAAAAAAAAAAAAAAAAAAAAAAAAAAAAAAAAAAAAAAAAAAAAAAAAAAAAAAAAAAAAAAAAAAAAAAAAAAAAAAAAAAAAAAAAAAAAAAAAAAAAAAAAAAAAAAAAAAAAAAAAAAAAAAAAAAAAAAAAAAAAAAAAAAAAAAAAAAAAAAAAAAAAAAAAAAAAAAAAAAAAAAAAAAAAAAAAAAAAAAAAAAAAAAAAAAAAAAAAAAAAAAAAAAAAAAAAAAAAAAAAAAAAAAAAAAAAAAAAAAAAAAAAAAAAAAAAAAAAAAAAAAAAAAAAAAAAAAAAAAAAAAAAAAAAAAAAAAAAAAAAAAAAAAAAAAAAAAAAAAAAAAAAAAAAAAAAAAAAAAAAAAAAAAAAAAAAAAAAAAAAAAAAAAAAAAAAAAAAAAAAAAAAAAAAAAAAAAAAAAAAAAAAAAAAAAAAAAAAAAAAAAAAAAAAAAAAAAAAAAAAAAAAAAAAAAAAAAAAAAAAAAAAAAAAAAAAAAAAAAAAAAAAAAAAAAAAAAAAAAAAAAAAAAAAAAAAAAAAAAAAAAAAAAAAAAAAAAAAAAAAAAAAAAAAAAAAAAAAAAAAAAAAAAAAAAAAAAAAAAAAAAAAAAAAAAAAAAAAAAAAAAAAAAAAAAAAAAAAAAAAAAAAAAAAAAAAAAAAAAAAAAAAAAAAAAAAAAAAAAAAAAAAAAAAAAAAAAAAAAAAAAAAAAAAAAAAAAAAAAAAAAAAAAAAAAAAAAAAAAAAAAAAAAAAAAAAAAAAAAAAAAAAAAAAAAAAAAAAAAAAAAAAAAAAAAAAAAAAAAAAAAAAAAAAAAAAAAAAAAAAAAAAAAAAAAAAAAAAAAAAAAAAAAAAAAAAAAAAAAAAAAAAAAAAAAAAAAAAAAAAAAAAAAAAAAAAAAAAAAAAAAAAAAAAAAAAAAAAAAAAAAAAAAAAAAAAAAAAAAAAAAAAAAAAAAAAAAAAAAAAAAAAAAAAAAAAAAAAAAAAAAAAAAAAAAAAAAAAAAAAAAAAAAAAAAAAAAAAAAAAAAAAAAAAAAAAAAAAAAAAAAAAAAAAAAAAAAAAAAAAAAAAAAAAAAAAAAAAAAAAAAAAAAAAAAAAAAAAAAAAAAAAAAAAAAAAAAAAAAAAAAAAAAAAAAAAAAAAAAAAAAAAAAAAAAAAAAAAAAAAAAAAAAAAAAAAAAAAAAAAAAAAAAAAAAAAAAAAAAAAAAAAAAAAAAAAAAAAAAAAAAAAAAAAAAAAAAAAAAAAAAAAAAAAAAAAAAAAAAAAAAAAAAAAAAAAAAAAAAAAAAAAAAAAAAAAAAAAAAAAAAAAAAAAAAAAAAAAAAAAAAAAAAAAAAAAAAAAAAAAAAAAAAAAAAAAAAAAAAAAAAAAAAAAAAAAAAAAAAAAAAAAAAAAAAAAAAAAAAAAAAAAAAAAAAAAAAAAAAAAAAAAAAAAAAAAAAAAAAAAAAAAAAAAAAAAAAAAAAAAAAAAAAAAAAAAAAAAAAAAAAAAAAAAAAAAAAAAAAAAAAAAAAAAAAAAAAAAAAAAAAAAAAAAAAAAAAAAAAAAAAAAAAAAAAAAAAAAAAAAAAAAAAAAAAAAAAAAAAAAAAAAAAAAAAAAAAAAAAAAAAAAAAAAAAAAAAAAAAAAAAAAAAAAAAAAAAAAAAAAAAAAAAAAAAAAAAAAAAAAAAAAAAAAAAAAAAAAAAAAAAAAAAAAAAAAAAAAAAAAAAAAAAAAAAAAAAAAAAAAAAAAAAAAAAAAAAAAAAAAAAAAAAAAAAAAAAAAAAAAAAAAAAAAAAAAAAAAAAAAAAAAAAAAAAAAAAAAAAAAAAAAAAAAAAAAAAAAAAAAAAAAAAAAAAAAAAAAAAAAAAAAAAAAAAAAAAAAAAAAAAAAAAAAAAAAAAAAAAAAAAAAAAAAAAAAAAAAAAAAAAAAAAAAAAAAAAAAAAAAAAAAAGRskKRAYFxcQKREVGQAAAAAAAAAAAAAAAAAAAAAAAAAAAAAAAAAAAAAAAAAAAAAAAAAAAAAAAAAAAAAAAAAAAAAAAAAAAAAAAAAAAAAAAAAAAAAAAAAAAAAAAAAAAAAAAAAAAAAAAAAAAAAAAAAAAAAAAAAAAAAAAAAAAAAAAAAAAAAAAAAAAAAAAAAAAAAAAAAAAAAAAAAAAAAAAAAAAAAAAAAAAAAAAAAAAAAAAAAAAAAAAAAAAAAAAAAAAAAAAAAAAAAAAAAAAAAAAAAAAAAAAAAAAAAAAAAAAAAAGyMsBQsFBwcMDAwHBwULBiAaCgAAAAAAAAAAAAAAAAAAAAAAAAAAAAAAAAAAAAAAAAAAAAAAAAAAAAAAAAAAAAAAAAAAAAAAAAAAAAAAAAAAAAAAAAAAAAAAAAAAAAAAAAAAAAAAAAAAAAAAAAAAAAAAAAAAAAAAAAAAAAAAAAAAAAAAAAAAAAAAAAAAAAAAAAAAAAAAAAAAAAAAAAAAAAAAAAAAAAAAAAAAAAAAAAAAAAAAAAAAAAAAAAAAAAAAAAAAAAAAAAAAAAAAAAAAAAAAAAAAAAAAAAAAAAAAGSUFCw0MAQEBAQEBAQEBAQEBAQgHBgsjGQAAAAAAAAAAAAAAAAAAAAAAAAAAAAAAAAAAAAAAAAAAAAAAAAAAAAAAAAAAAAAAAAAAAAAAAAAAAAAAAAAAAAAAAAAAAAAAAAAAAAAAAAAAAAAAAAAAAAAAAAAAAAAAAAAAAAAAAAAAAAAAAAAAAAAAAAAAAAAAAAAAAAAAAAAAAAAAAAAAAAAAAAAAAAAAAAAAAAAAAAAAAAAAAAAAAAAAAAAAAAAAAAAAAAAAAAAAAAAAAAAAAAAAAAAAAAAAAAAAAAAAABIjBQUBAQEBAQEBAQEBAQEBAQEBAQEBAQEFBhoZAAAAAAAAAAAAAAAAAAAAAAAAAAAAAAAAAAAAAAAAAAAAAAAAAAAAAAAAAAAAAAAAAAAAAAAAAAAAAAAAAAAAAAAAAAAAAAAAAAAAAAAAAAAAAAAAAAAAAAAAAAAAAAAAAAAAAAAAAAAAAAAAAAAAAAAAAAAAAAAAAAAAAAAAAAAAAAAAAAAAAAAAAAAAAAAAAAAAAAAAAAAAAAAAAAAAAAAAAAAAAAAAAAAAAAAAAAAAAAAAAAAAAAAAAAAAAAAAAAAAFg8FAQEBAQEBCAcFBgsGBgYLCwUNCAEBAQEBAQcPJQAAAAAAAAAAAAAAAAAAAAAAAAAAAAAAAAAAAAAAAAAAAAAAAAAAAAAAAAAAAAAAAAAAAAAAAAAAAAAAAAAAAAAAAAAAAAAAAAAAAAAAAAAAAAAAAAAAAAAAAAAAAAAAAAAAAAAAAAAAAAAAAAAAAAAAAAAAAAAAAAAAAAAAAAAAAAAAAAAAAAAAAAAAAAAAAAAAAAAAAAAAAAAAAAAAAAAAAAAAAAAAAAAAAAAAAAAAAAAAAAAAAAAAAAAAAAAAAA4XCwEBAQEBCAUPCBokFRMZGRkTGyQpFA8FCAEBAQEBBiwTAAAAAAAAAAAAAAAAAAAAAAAAAAAAAAAAAAAAAAAAAAAAAAAAAAAAAAAAAAAAAAAAAAAAAAAAAAAAAAAAAAAAAAAAAAAAAAAAAAAAAAAAAAAAAAAAAAAAAAAAAAAAAAAAAAAAAAAAAAAAAAAAAAAAAAAAAAAAAAAAAAAAAAAAAAAAAAAAAAAAAAAAAAAAAAAAAAAAAAAAAAAAAAAAAAAAAAAAAAAAAAAAAAAAAAAAAAAAAAAAAAAAAAAAAAAAFQYHAQEBAQgGLyUTAAAAAAAAAAAAAAAAABkRIAsMAQEBAQwPLgAAAAAAAAAAAAAAAAAAAAAAAAAAAAAAAAAAAAAAAAAAAAAAAAAAAAAAAAAAAAAAAAAAAAAAAAAAAAAAAAAAAAAAAAAAAAAAAAAAAAAAAAAAAAAAAAAAAAAAAAAAAAAAAAAAAAAAAAAAAAAAAAAAAAAAAAAAAAAAAAAAAAAAAAAAAAAAAAAAAAAAAAAAAAAAAAAAAAAAAAAAAAAAAAAAAAAAAAAAAAAAAAAAAAAAAAAAAAAAAAAAAAAAAAAkCwgBAQEBBhQeHQAAAAAAAAAAAAAAAAAAAAAAAAosCwgBAQEBDwkAAAAAAAAAAAAAAAAAAAAAAAAAAAAAAAAAAAAAAAAAAAAAAAAAAAAAAAAAAAAAAAAAAAAAAAAAAAAAAAAAAAAAAAAAAAAAAAAAAAAAAAAAAAAAAAAAAAAAAAAAAAAAAAAAAAAAAAAAAAAAAAAAAAAAAAAAAAAAAAAAAAAAAAAAAAAAAAAAAAAAAAAAAAAAAAAAAAAAAAAAAAAAAAAAAAAAAAAAAAAAAAAAAAAAAAAAAAAAAAAAAAAAABEPAQEBAQcGJAAAAAAAAAAAAAAAAAAAAAAAAAAAAAAALgEHAQEBAQYaAAAAAAAAAAAAAAAAAAAAAAAAAAAAAAAAAAAAAAAAAAAAAAAAAAAAAAAAAAAAAAAAAAAAAAAAAAAAAAAAAAAAAAAAAAAAAAAAAAAAAAAAAAAAAAAAAAAAAAAAAAAAAAAAAAAAAAAAAAAAAAAAAAAAAAAAAAAAAAAAAAAAAAAAAAAAAAAAAAAAAAAAAAAAAAAAAAAAAAAAAAAAAAAAAAAAAAAAAAAAAAAAAAAAAAAAAAAAAAAAAAAAEQ8BAQEBBhcZAAAAAAAAAAAAAAAAAAAAAAAAAAAAAAAAABIfCwEBAQELIwAAAAAAAAAAAAAAAAAAAAAAAAAAAAAAAAAAAAAAAAAAAAAAAAAAAAAAAAAAAAAAAAAAAAAAAAAAAAAAAAAAAAAAAAAAAAAAAAAAAAAAAAAAAAAAAAAAAAAAAAAAAAAAAAAAAAAAAAAAAAAAAAAAAAAAAAAAAAAAAAAAAAAAAAAAAAAAAAAAAAAAAAAAAAAAAAAAAAAAAAAAAAAAAAAAAAAAAAAAAAAAAAAAAAAAAAAAAAAAAAAKDwEBAQELKQAAAAAAAAAAAAAAAAAAAAAAAAAAAAAAAAAAAAAAEQsBAQEBCxYAAAAAAAAAAAAAAAAAAAAAAAAAAAAAAAAAAAAAAAAAAAAAAAAAAAAAAAAAAAAAAAAAAAAAAAAAAAAAAAAAAAAAAAAAAAAAAAAAAAAAAAAAAAAAAAAAAAAAAAAAAAAAAAAAAAAAAAAAAAAAAAAAAAAAAAAAAAAAAAAAAAAAAAAAAAAAAAAAAAAAAAAAAAAAAAAAAAAAAAAAAAAAAAAAAAAAAAAAAAAAAAAAAAAAAAAAAAAAABkFCAEBAQskAAAAAAAAAAAAAAAAAAAAAAAAAAAAAAAAAAAAAAAAAC4GAQEBASgbAAAAAAAAAAAAAAAAAAAAAAAAAAAAAAAAAAAAAAAAAAAAAAAAAAAAAAAAAAAAAAAAAAAAAAAAAAAAAAAAAAAAAAAAAAAAAAAAAAAAAAAAAAAAAAAAAAAAAAAAAAAAAAAAAAAAAAAAAAAAAAAAAAAAAAAAAAAAAAAAAAAAAAAAAAAAAAAAAAAAAAAAAAAAAAAAAAAAAAAAAAAAAAAAAAAAAAAAAAAAAAAAAAAAAAAAAAAAACwMAQEBDxEAAAAAAAAAAAAAAAAAAAAAAAAAAAAAAAAAAAAAAAAAAAAuCwEBAQgUHQAAAAAAAAAAAAAAAAAAAAAAAAAAAAAAAAAAAAAAAAAAAAAAAAAAAAAAAAAAAAAAAAAAAAAAAAAAAAAAAAAAAAAAAAAAAAAAAAAAAAAAAAAAAAAAAAAAAAAAAAAAAAAAAAAAAAAAAAAAAAAAAAAAAAAAAAAAAAAAAAAAAAAAAAAAAAAAAAAAAAAAAAAAAAAAAAAAAAAAAAAAAAAAAAAAAAAAAAAAAAAAAAAAAAAAAAAAJQYBAQEGIwAAAAAAAAAAAAAAAAAAAAAAAAAAAAAAAAAAAAAAAAAAAAAAJA8BAQEFEAAAAAAAAAAAAAAAAAAAAAAAAAAAAAAAAAAAAAAAAAAAAAAAAAAAAAAAAAAAAAAAAAAAAAAAAAAAAAAAAAAAAAAAAAAAAAAAAAAAAAAAAAAAAAAAAAAAAAAAAAAAAAAAAAAAAAAAAAAAAAAAAAAAAAAAAAAAAAAAAAAAAAAAAAAAAAAAAAAAAAAAAAAAAAAAAAAAAAAAAAAAAAAAAAAAAAAAAAAAAAAAAAAAAAAAAAAZBQEBAQcXAAAAAAAAAAAAAAAAAAAAAAAAAAAAAAAAAAAAAAAAAAAAAAAAABAFAQEBHBMAAAAAAAAAAAAAAAAAAAAAAAAAAAAAAAAAAAAAAAAAAAAAAAAAAAAAAAAAAAAAAAAAAAAAAAAAAAAAAAAAAAAAAAAAAAAAAAAAAAAAAAAAAAAAAAAAAAAAAAAAAAAAAAAAAAAAAAAAAAAAAAAAAAAAAAAAAAAAAAAAAAAAAAAAAAAAAAAAAAAAAAAAAAAAAAAAAAAAAAAAAAAAAAAAAAAAAAAAAAAAAAAAAAAAAAAQBwEBAQYOAAAAAAAAAAAAAAAAAAAAAAAAAAAAAAAAAAAAAAAAAAAAAAAAAB0qCAEBDCcAAAAAAAAAAAAAAAAAAAAAAAAAAAAAAAAAAAAAAAAAAAAAAAAAAAAAAAAAAAAAAAAAAAAAAAAAAAAAAAAAAAAAAAAAAAAAAAAAAAAAAAAAAAAAAAAAAAAAAAAAAAAAAAAAAAAAAAAAAAAAAAAAAAAAAAAAAAAAAAAAAAAAAAAAAAAAAAAAAAAAAAAAAAAAAAAAAAAAAAAAAAAAAAAAAAAAAAAAAAAAAAAAAAAAABkcAQEBCxYAAAAAAAAAAAAAAAAAAAAAAAAAAAAAAAAAAAAAAAAAAAAAAAAAAAAVDwEBAQsVAAAAAAAAAAAAAAAAAAAAAAAAAAAAAAAAAAAAAAAAAAAAAAAAAAAAAAAAAAAAAAAAAAAAAAAAAAAAAAAAAAAAAAAAAAAAAAAAAAAAAAAAAAAAAAAAAAAAAAAAAAAAAAAAAAAAAAAAAAAAAAAAAAAAAAAAAAAAAAAAAAAAAAAAAAAAAAAAAAAAAAAAAAAAAAAAAAAAAAAAAAAAAAAAAAAAAAAAAAAAAAAAAAAAACkNAQEMLAAAAAAAAAAAAAAAAAAAAAAAAAAAAAAAAAAAAAAAAAAAAAAAAAAAAAAAGAcBAQcYAAAAAAAAAAAAAAAAAAAAAAAAAAAAAAAAAAAAAAAAAAAAAAAAAAAAAAAAAAAAAAAAAAAAAAAAAAAAAAAAAAAAAAAAAAAAAAAAAAAAAAAAAAAAAAAAAAAAAAAAAAAAAAAAAAAAAAAAAAAAAAAAAAAAAAAAAAAAAAAAAAAAAAAAAAAAAAAAAAAAAAAAAAAAAAAAAAAAAAAAAAAAAAAAAAAAAAAAAAAAAAAAAAAAEggIAQEGCgAAAAAAAAAAAAAAAAAAAAAAAAAAAAAAAAAAAAAAAAAAAAAAAAAAAAAAJgYBAQEcGQAAAAAAAAAAAAAAAAAAAAAAAAAAAAAAAAAAAAAAAAAAAAAAAAAAAAAAAAAAAAAAAAAAAAAAAAAAAAAAAAAAAAAAAAAAAAAAAAAAAAAAAAAAAAAAAAAAAAAAAAAAAAAAAAAAAAAAAAAAAAAAAAAAAAAAAAAAAAAAAAAAAAAAAAAAAAAAAAAAAAAAAAAAAAAAAAAAAAAAAAAAAAAAAAAAAAAAAAAAAAAAAAAAKwYBAQgBAAAAAAAAAAAAAAAAAAAAAAAAAAAAAAAAAAAAAAAAAAAAAAAAAAAAAAAAABcMAQEFEQAAAAAAAAAAAAAAAAAAAAAAAAAAAAAAAAAAAAAAAAAAAAAAAAAT3MmoAAAgAElEQVQAAAAAAAAAAAAAAAAAAAAAAAAAAAAAAAAAAAAAAAAAAAAAAAAAAAAAAAAAAAAAAAAAAAAAAAAAAAAAAAAAAAAAAAAAAAAAAAAAAAAAAAAAAAAAAAAAAAAAAAAAAAAAAAAAAAAAAAAAAAAAAAAAAAAAAAAAAAAAAAAAAAAAAAAAAAAAAAAAEAcBAQUkAAAAAAAAAAAAAAAAAAAAAAAAAAAAAAAAAAAAAAAAAAAAAAAAAAAAAAAAACsGAQEMLAAAAAAAAAAAAAAAAAAAAAAAAAAAAAAAAAAAAAAAAAAAAAAAAAAAAAAAAAAAAAAAAAAAAAAAAAAAAAAAAAAAAAAAAAAAAAAAAAAAAAAAAAAAAAAAAAAAAAAAAAAAAAAAAAAAAAAAAAAAAAAAAAAAAAAAAAAAAAAAAAAAAAAAAAAAAAAAAAAAAAAAAAAAAAAAAAAAAAAAAAAAAAAAAAAAAAAAAAAAAAAAAAAdDAgBAQsZAAAAAAAAAAAAAAAAAAAAAAAAAAAAAAAAAAAAAAAAAAAAAAAAAAAAAAAAAAAcAQEBBxkAAAAAAAAAAAAAAAAAAAAAAAAAAAAAAAAAAAAAAAAAAAAAAAAAAAAAAAAAAAAAAAAAAAAAAAAAAAAAAAAAAAAAAAAAAAAAAAAAAAAAAAAAAAAAAAAAAAAAAAAAAAAAAAAAAAAAAAAAAAAAAAAAAAAAAAAAAAAAAAAAAAAAAAAAAAAAAAAAAAAAAAAAAAAAAAAAAAAAAAAAAAAAAAAAAAAAAAAAAAAAAAATDwEBDCIAAAAAAAAAAAAAAAAAAAAAAAAAAAAAAAAAAAAAAAAAAAAAAAAAAAAAAAAAAAAfBwEBCxUAAAAAAAAAAAAAAAAAAAAAAAAAAAAAAAAAAAAAAAAAAAAAAAAAAAAAAAAAAAAAAAAAAAAAAAAAAAAAAAAAAAAAAAAAAAAAAAAAAAAAAAAAAAAAAAAAAAAAAAAAAAAAAAAAAAAAAAAAAAAAAAAAAAAAAAAAAAAAAAAAAAAAAAAAAAAAAAAAAAAAAAAAAAAAAAAAAAAAAAAAAAAAAAAAAAAAAAAAAAAAAAAuBgEBByMAAAAAAAAAAAAAAAAAAAAAAAAAAAAAAAAAAAAAAAAAAAAAAAAAAAAAAAAAAAAkBQEBBQkAAAAAAAAAAAAAAAAAAAAAAAAAAAAAAAAAAAAAAAAAAAAAAAAAAAAAAAAAAAAAAAAAAAAAAAAAAAAAAAAAAAAAAAAAAAAAAAAAAAAAAAAAAAAAAAAAAAAAAAAAAAAAAAAAAAAAAAAAAAAAAAAAAAAAAAAAAAAAAAAAAAAAAAAAAAAAAAAAAAAAAAAAAAAAAAAAAAAAAAAAAAAAAAAAAAAAAAAAAAAAAAAJBQEBBisAAAAAAAAAAAAAAAAAAAAAAAAAAAAAAAAAAAAAAAAAAAAAAAAAAAAAAAAAAAAmCwEBBxAAAAAAAAAAAAAAAAAAAAAAAAAAAAAAAAAAAAAAAAAAAAAAAAAAAAAAAAAAAAAAAAAAAAAAAAAAAAAAAAAAAAAAAAAAAAAAAAAAAAAAAAAAAAAAAAAAAAAAAAAAAAAAAAAAAAAAAAAAAAAAAAAAAAAAAAAAAAAAAAAAAAAAAAAAAAAAAAAAAAAAAAAAAAAAAAAAAAAAAAAAAAAAAAAAAAAAAAAAAAAAAAAfBwEBBhsAAAAAAAAAAAAAAAAAAAAAAAAAAAAAAAAAAAAAAAAAAAAAAAAAAAAAAAAAAAAZCwEBDBcAAAAAAAAAAAAAAAAAAAAAAAAAAAAAAAAAAAAAAAAAAAAAAAAAAAAAAAAAAAAAAAAAAAAAAAAAAAAAAAAAAAAAAAAAAAAAAAAAAAAAAAAAAAAAAAAAAAAAAAAAAAAAAAAAAAAAAAAAAAAAAAAAAAAAAAAAAAAAAAAAAAAAAAAAAAAAAAAAAAAAAAAAAAAAAAAAAAAAAAAAAAAAAAAAAAAAAAAAAAAAAAAsDAEBBhkAAAAAAAAAAAAAAAAAAAAAAAAAAAAAAAAAAAAAAAAAAAAAAAAAAAAAAAAAAAASFAgBCBQAAAAAAAAAAAAAAAAAAAAAAAAAAAAAAAAAAAAAAAAAAAAAAAAAAAAAAAAAAAAAAAAAAAAAAAAAAAAAAAAAAAAAAAAAAAAAAAAAAAAAAAAAAAAAAAAAAAAAAAAAAAAAAAAAAAAAAAAAAAAAAAAAAAAAAAAAAAAAAAAAAAAAAAAAAAAAAAAAAAAAAAAAAAAAAAAAAAAAAAAAAAAAAAAAAAAAAAAAAAAAAAAvCAEBBhIAAAAAAAAAAAAAAAAAAAAAAAAAAAAAAAAAAAAAAAAAAAAAAAAAAAAAAAAAAAAdLAgBAQcdAAAAAAAAAAAAAAAAAAAAAAAAAAAAAAAAAAAAAAAAAAAAAAAAAAAAAAAAAAAAAAAAAAAAAAAAAAAAAAAAAAAAAAAAAAAAAAAAAAAAAAAAAAAAAAAAAAAAAAAAAAAAAAAAAAAAAAAAAAAAAAAAAAAAAAAAAAAAAAAAAAAAAAAAAAAAAAAAAAAAAAAAAAAAAAAAAAAAAAAAAAAAAAAAAAAAAAAAAAAAAAAvCAEBBgAAAAAAAAAAAAAAAAAAAAAAAAAAAAAAAAAAAAAAAAAAAAAAAAAAAAAAAAAAAAAdLAwBAQsdAAAAAAAAAAAAAAAAAAAAAAAAAAAAAAAAAAAAAAAAAAAAAAAAAAAAAAAAAAAAAAAAAAAAAAAAAAAAAAAAAAAAAAAAAAAAAAAAAAAAAAAAAAAAAAAAAAAAAAAAAAAAAAAAAAAAAAAAAAAAAAAAAAAAAAAAAAAAAAAAAAAAAAAAAAAAAAAAAAAAAAAAAAAAAAAAAAAAAAAAAAAAAAAAAAAAAAAAAAAAAAAvCAEBBh0AAAAAAAAAAAAAAAAAAAAAAAAAAAAAAAAAAAAAAAAAAAAAAAAAAAAAAAAAAAAdLAgBAQUdAAAAAAAAAAAAAAAAAAAAAAAAAAAAAAAAAAAAAAAAAAAAAAAAAAAAAAAAAAAAAAAAAAAAAAAAAAAAAAAAAAAAAAAAAAAAAAAAAAAAAAAAAAAAAAAAAAAAAAAAAAAAAAAAAAAAAAAAAAAAAAAAAAAAAAAAAAAAAAAAAAAAAAAAAAAAAAAAAAAAAAAAAAAAAAAAAAAAAAAAAAAAAAAAAAAAAAAAAAAAAAAgCAEBBg4AAAAAAAAAAAAAAAAAAAAAAAAAAAAAAAAAAAAAAAAAAAAAAAAAAAAAAAAAAAASFAgBCBQdAAAAAAAAAAAAAAAAAAAAAAAAAAAAAAAAAAAAAAAAAAAAAAAAAAAAAAAAAAAAAAAAAAAAAAAAAAAAAAAAAAAAAAAAAAAAAAAAAAAAAAAAAAAAAAAAAAAAAAAAAAAAAAAAAAAAAAAAAAAAAAAAAAAAAAAAAAAAAAAAAAAAAAAAAAAAAAAAAAAAAAAAAAAAAAAAAAAAAAAAAAAAAAAAAAAAAAAAAAAAAAAXDAEBBiYAAAAAAAAAAAAAAAAAAAAAAAAAAAAAAAAAAAAAAAAAAAAAAAAAAAAAAAAAAAAOBgEBDCIAAAAAAAAAAAAAAAAAAAAAAAAAAAAAAAAAAAAAAAAAAAAAAAAAAAAAAAAAAAAAAAAAAAAAAAAAAAAAAAAAAAAAAAAAAAAAAAAAAAAAAAAAAAAAAAAAAAAAAAAAAAAAAAAAAAAAAAAAAAAAAAAAAAAAAAAAAAAAAAAAAAAAAAAAAAAAAAAAAAAAAAAAAAAAAAAAAAAAAAAAAAAAAAAAAAAAAAAAAAAAAAAjDQEBBgoAAAAAAAAAAAAAAAAAAAAAAAAAAAAAAAAAAAAAAAAAAAAAAAAAAAAAAAAAAAATDwEBBx8AAAAAAAAAAAAAAAAAAAAAAAAAAAAAAAAAAAAAAAAAAAAAAAAAAAAAAAAAAAAAAAAAAAAAAAAAAAAAAAAAAAAAAAAAAAAAAAAAAAAAAAAAAAAAAAAAAAAAAAAAAAAAAAAAAAAAAAAAAAAAAAAAAAAAAAAAAAAAAAAAAAAAAAAAAAAAAAAAAAAAAAAAAAAAAAAAAAAAAAAAAAAAAAAAAAAAAAAAAAAAAAAWBQEBBSUAAAAAAAAAAAAAAAAAAAAAAAAAAAAAAAAAAAAAAAAAAAAAAAAAAAAAAAAAAAAuBgEBDSMAAAAAAAAAAAAAAAAAAAAAAAAAAAAAAAAAAAAAAAAAAAAAAAAAAAAAAAAAAAAAAAAAAAAAAAAAAAAAAAAAAAAAAAAAAAAAAAAAAAAAAAAAAAAAAAAAAAAAAAAAAAAAAAAAAAAAAAAAAAAAAAAAAAAAAAAAAAAAAAAAAAAAAAAAAAAAAAAAAAAAAAAAAAAAAAAAAAAAAAAAAAAAAAAAAAAAAAAAAAAAAAAbCwEBDBcAAAAAAAAAAAAAAAAAAAAAAAAAAAAAAAAAAAAAAAAAAAAAAAAAAAAAAAAAAAApDQEBBisAAAAAAAAAAAAAAAAAAAAAAAAAAAAAAAAAAAAAAAAAAAAAAAAAAAAAAAAAAAAAAAAAAAAAAAAAAAAAAAAAAAAAAAAAAAAAAAAAAAAAAAAAAAAAAAAAAAAAAAAAAAAAAAAAAAAAAAAAAAAAAAAAAAAAAAAAAAAAAAAAAAAAAAAAAAAAAAAAAAAAAAAAAAAAAAAAAAAAAAAAAAAAAAAAAAAAAAAAAAAAAAAdCwEBAQ0OAAAAAAAAAAAAAAAAAAAAAAAAAAAAAAAAAAAAAAAAAAAAAAAAAAAAAAAAAAALAQEBBhMAAAAAAAAAAAAAAAAAAAAAAAAAAAAAAAAAAAAAAAAAAAAAAAAAAAAAAAAAAAAAAAAAAAAAAAAAAAAAAAAAAAAAAAAAAAAAAAAAAAAAAAAAAAAAAAAAAAAAAAAAAAAAAAAAAAAAAAAAAAAAAAAAAAAAAAAAAAAAAAAAAAAAAAAAAAAAAAAAAAAAAAAAAAAAAAAAAAAAAAAAAAAAAAAAAAAAAAAAAAAAAAAAGAwBAQYeAAAAAAAAAAAAAAAAAAAAAAAAAAAAAAAAAAAAAAAAAAAAAAAAAAAAAAAAABsLAQEIFAAAAAAAAAAAAAAAAAAAAAAAAAAAAAAAAAAAAAAAAAAAAAAAAAAAAAAAAAAAAAAAAAAAAAAAAAAAAAAAAAAAAAAAAAAAAAAAAAAAAAAAAAAAAAAAAAAAAAAAAAAAAAAAAAAAAAAAAAAAAAAAAAAAAAAAAAAAAAAAAAAAAAAAAAAAAAAAAAAAAAAAAAAAAAAAAAAAAAAAAAAAAAAAAAAAAAAAAAAAAAAAAAAAFgYBAQwsAAAAAAAAAAAAAAAAAAAAAAAAAAAAAAAAAAAAAAAAAAAAAAAAAAAAAAAAABAHAQEFCQAAAAAAAAAAAAAAAAAAAAAAAAAAAAAAAAAAAAAAAAAAAAAAAAAAAAAAAAAAAAAAAAAAAAAAAAAAAAAAAAAAAAAAAAAAAAAAAAAAAAAAAAAAAAAAAAAAAAAAAAAAAAAAAAAAAAAAAAAAAAAAAAAAAAAAAAAAAAAAAAAAAAAAAAAAAAAAAAAAAAAAAAAAAAAAAAAAAAAAAAAAAAAAAAAAAAAAAAAAAAAAAAAAGQUBAQEcEwAAAAAAAAAAAAAAAAAAAAAAAAAAAAAAAAAAAAAAAAAAAAAAAAAAAAAADg0BAQEPJgAAAAAAAAAAAAAAAAAAAAAAAAAAAAAAAAAAAAAAAAAAAAAAAAAAAAAAAAAAAAAAAAAAAAAAAAAAAAAAAAAAAAAAAAAAAAAAAAAAAAAAAAAAAAAAAAAAAAAAAAAAAAAAAAAAAAAAAAAAAAAAAAAAAAAAAAAAAAAAAAAAAAAAAAAAAAAAAAAAAAAAAAAAAAAAAAAAAAAAAAAAAAAAAAAAAAAAAAAAAAAAAAAAABgHAQEHGAAAAAAAAAAAAAAAAAAAAAAAAAAAAAAAAAAAAAAAAAAAAAAAAAAAAAAAIwUBAQwsAAAAAAAAAAAAAAAAAAAAAAAAAAAAAAAAAAAAAAAAAAAAAAAAAAAAAAAAAAAAAAAAAAAAAAAAAAAAAAAAAAAAAAAAAAAAAAAAAAAAAAAAAAAAAAAAAAAAAAAAAAAAAAAAAAAAAAAAAAAAAAAAAAAAAAAAAAAAAAAAAAAAAAAAAAAAAAAAAAAAAAAAAAAAAAAAAAAAAAAAAAAAAAAAAAAAAAAAAAAAAAAAAAAAABsPAQEBBhUAAAAAAAAAAAAAAAAAAAAAAAAAAAAAAAAAAAAAAAAAAAAAAAAAAAAZHAEBAQseAAAAAAAAAAAAAAAAAAAAAAAAAAAAAAAAAAAAAAAAAAAAAAAAAAAAAAAAAAAAAAAAAAAAAAAAAAAAAAAAAAAAAAAAAAAAAAAAAAAAAAAAAAAAAAAAAAAAAAAAAAAAAAAAAAAAAAAAAAAAAAAAAAAAAAAAAAAAAAAAAAAAAAAAAAAAAAAAAAAAAAAAAAAAAAAAAAAAAAAAAAAAAAAAAAAAAAAAAAAAAAAAAAAAAAAXDAEBCBQAAAAAAAAAAAAAAAAAAAAAAAAAAAAAAAAAAAAAAAAAAAAAAAAAAAAXDAEBCCoAAAAAAAAAAAAAAAAAAAAAAAAAAAAAAAAAAAAAAAAAAAAAAAAAAAAAAAAAAAAAAAAAAAAAAAAAAAAAAAAAAAAAAAAAAAAAAAAAAAAAAAAAAAAAAAAAAAAAAAAAAAAAAAAAAAAAAAAAAAAAAAAAAAAAAAAAAAAAAAAAAAAAAAAAAAAAAAAAAAAAAAAAAAAAAAAAAAAAAAAAAAAAAAAAAAAAAAAAAAAAAAAAAAAAAAAbBgEBAQUpAAAAAAAAAAAAAAAAAAAAAAAAAAAAAAAAAAAAAAAAAAAAAAAAABEGAQEBDysAAAAAAAAAAAAAAAAAAAAAAAAAAAAAAAAAAAAAAAAAAAAAAAAAAAAAAAAAAAAAAAAAAAAAAAAAAAAAAAAAAAAAAAAAAAAAAAAAAAAAAAAAAAAAAAAAAAAAAAAAAAAAAAAAAAAAAAAAAAAAAAAAAAAAAAAAAAAAAAAAAAAAAAAAAAAAAAAAAAAAAAAAAAAAAAAAAAAAAAAAAAAAAAAAAAAAAAAAAAAAAAAAAAAAAAAAEA0BAQELHgAAAAAAAAAAAAAAAAAAAAAAAAAAAAAAAAAAAAAAAAAAAAAAGwsBAQEHJwAAAAAAAAAAAAAAAAAAAAAAAAAAAAAAAAAAAAAAAAAAAAAAAAAAAAAAAAAAAAAAAAAAAAAAAAAAAAAAAAAAAAAAAAAAAAAAAAAAAAAAAAAAAAAdAAAAAAAAAAAAAAAAAAAAAAAAAAAAAAAAAAAAAAAAAAAAAAAAAAAAAAAAAAAAAAAAAAAAAAAAAAAAAAAAAAAAAAAAAAAAAAAAAAAAAAAAAAAAAAAAAAAAAAAAAAAAEgcIAQEBDxUAAAAAAAAAAAAAAAAAAAAAAAAAAAAAAAAAAAAAAAAAAAATBggBAQEFGQAAAAAAAAAAAAAAAAAAAAAAAAAAAAAAAAAAAAAAAAAAAAAAAAAAAAAAAAAAAAAAAAAAAAAAAAAAAAAAAAAAAAAAAAAAAAAAAAAAAAAAAAAAAAAdAAAAAAAAAAAAAAAAAAAAAAAAAAAAAAAAAAAAAAAAAAAAAAAAAAAAAAAAAAAAAAAAAAAAAAAAAAAAAAAAAAAAAAAAAAAAAAAAAAAAAAAAAAAAAAAAAAAAAAAAAAAAAAocAQEBCAUbAAAAAAAAAAAAAAAAAAAAAAAAAAAAAAAAAAAAAAAAABMBDAEBAQ8WAAAAAAAAAAAAAAAAAAAAAAAAAAAAAAAAAAAAAAAAAAAAAAAAAAAAAAAAAAAAAAAAAAAAAAAAAAAAAAAAAAAAAAAAAAAAAAAAAAAAAAAAAAAAAAAdAAAAAAAAAAAAAAAAAAAAAAAAAAAAAAAAAAAAAAAAAAAAAAAAAAAAAAAAAAAAAAAAAAAAAAAAAAAAAAAAAAAAAAAAAAAAAAAAAAAAAAAAAAAAAAAAAAAAAAAAAAAAAAARCwEBAQgPHgAAAAAAAAAAAAAAAAAAAAAAAAAAAAAAAAAAAAAAGwsIAQEBBhoAAAAAAAAAAAAAAAAAAAAAAAAAAAAAAAAAAAAAAAAAAAAAAAAAAAAAAAAAAAAAAAAAAAAAAAAAAAAAAAAAAAAAAAAAAAAAAAAAAAAAAAAAAAAAAAAdAAAAAAAAAAAAAAAAAAAAAAAAAAAAAAAAAAAAAAAAAAAAAAAAAAAAAAAAAAAAAAAAAAAAAAAAAAAAAAAAAAAAAAAAAAAAAAAAAAAAAAAAAAAAAAAAAAAAAAAAAAAAAAAAHwYBAQEBDwkAAAAAAAAAAAAAAAAAAAAAAAAAAAAAAAAAAAAkBggBAQEFFwAAAAAAAAAAAAAAAAAAAAAAAAAAAAAAAAAAAAAAAAAAAAAAAAAAAAAAAAAAAAAAAAAAAAAAAAAAAAAAAAAAAAAAAAAAAAAAAAAAAAAAAAAAAAAAAAAdAAAAAAAAAAAAAAAAAAAAAAAAAAAAAAAAAAAAAAAAAAAAAAAAAAAAAAAAAAAAAAAAAAAAAAAAAAAAAAAAAAAAAAAAAAAAAAAAAAAAAAAAAAAAAAAAAAAAAAAAAAAAAAAAAB8GAQEBAQYqJgAAAAAAAAAAAAAAAAAAAAAAAAAAAAAAEycLAQEBAQUnAAAAAAAAAAAAAAAAAAAAAAAAAAAAAAAAAAAAAAAAAAAAAAAAAAAAAAAAAAAAAAAAAAAAAAAAAAAAAAAAAAAAAAAAAAAAAAAAAAAAAAAAAAAAAAAAAAAdAAAAAAAAAAAAAAAAAAAAAAAAAAAAAAAAAAAAAAAAAAAAAAAAAAAAAAAAAAAAAAAAAAAAAAAAAAAAAAAAAAAAAAAAAAAAAAAAAAAAAAAAAAAAAAAAAAAAAAAAAAAAAAAAAAAfCwEBAQEMBhAZAAAAAAAAAAAAAAAAAAAAAAAAAA4jBgwBAQEBBhcdAAAAAAAAAAAAAAAAAAAAAAAAAAAAAAAAAAAAAAAAAAAAAAAAAAAAAAAAAAAAAAAAAAAAAAAAAAAAAAAAAAAAAAAAAAAAAAAAAAAAAAAAAAAAAAAAAAAdAAAAAAAAAAAAAAAAAAAAAAAAAAAAAAAAAAAAAAAAAAAAAAAAAAAAAAAAAAAAAAAAAAAAAAAAAAAAAAAAAAAAAAAAAAAAAAAAAAAAAAAAAAAAAAAAAAAAAAAAAAAAAAAAAAAAJQ8IAQEBAQ0LHxUdAAAAAAAAAAAAAAAAAB0bEA8FAQEBAQELGgAAAAAAAAAAAAAAAAAAAAAAAAAAAAAAAAAAAAAAAAAAAAAAAAAAAAAAAAAAAAAAAAAAAAAAAAAAAAAAAAAAAAAAAAAAAAAAAAAAAAAAAAAAAAAAAAAAAAAdAAAAAAAAAAAAAAAAAAAAAAAAAAAAAAAAAAAAAAAAAAAAAAAAAAAAAAAAAAAAAAAAAAAAAAAAAAAAAAAAAAAAAAAAAAAAAAAAAAAAAAAAAAAAAAAAAAAAAAAAAAAAAAAAAAAAAAoHBwEBAQEBBwsBEC4bDgAAAAAADiYeGioPBwEBAQEBDA8uAAAAAAAAAAAAAAAAAAAAAAAAAAAAAAAAAAAAAAAAAAAAAAAAAAAAAAAAAAAAAAAAAAAAAAAAAAAAAAAAAAAAAAAAAAAAAAAAAAAAAAAAAAAAAAAAAAAAAAAdAAAAAAAAAAAAAAAAAAAAAAAAAAAAAAAAAAAAAAAAAAAAAAAAAAAAAAAAAAAAAAAAAAAAAAAAAAAAAAAAAAAAAAAAAAAAAAAAAAAAAAAAAAAAAAAAAAAAAAAAAAAAAAAAAAAAAAAOHwYMAQEBAQEIBwYGBwEBAQEBDAYGBwgBAQEBAQwGFxkAAAAAAAAAAAAAAAAAAAAAAAAAAAAAAAAAAAAAAAAAAAAAAAAAAAAAAAAAAAAAAAAAAAAAAAAAAAAAAAAAAAAAAAAAAAAAAAAAAAAAAAAAAAAAAAAAAAAAAAAdAAAAAAAAAAAAAAAAAAAAAAAAAAAAAAAAAAAAAAAAAAAAAAAAAAAAAAAAAAAAAAAAAAAAAAAAAAAAAAAAAAAAAAAAAAAAAAAAAAAAAAAAAAAAAAAAAAAAAAAAAAAAAAAAAAAAAAAAABUiDwwBAQEBAQEBAQgICAgIAQEBAQEBAQEMCyorAAAAAAAAAAAAAAAAAAAAAAAAAAAAAAAAAAAAAAAAAAAAAAAAAAAAAAAAAAAAAAAAAAAAAAAAAAAAAAAAAAAAAAAAAAAAAAAAAAAAAAAAAAAAAAAAAAAAAAAAAAAdAAAAAAAAAAAAAAAAAAAAAAAAAAAAAAAAAAAAAAAAAAAAAAAAAAAAAAAAAAAAAAAAAAAAAAAAAAAAAAAAAAAAAAAAAAAAAAAAAAAAAAAAAAAAAAAAAAAAAAAAAAAAAAAAAAAAAAAAAAAACicGBQwBAQEBAQEBAQEBAQEBAQEMBQYgKwAAAAAAAAAAAAAAAAAAAAAAAAAAAAAAAAAAAAAAAAAAAAAAAAAAAAAAAAAAAAAAAAAAAAAAAAAAAAAAAAAAAAAAAAAAAAAAAAAAAAAAAAAAAAAAAAAAAAAAAAAAAAAdAAAAAAAAAAAAAAAAAAAAAAAAAAAAAAAAAAAAAAAAAAAAAAAAAAAAAAAAAAAAAAAAAAAAAAAAAAAAAAAAAAAAAAAAAAAAAAAAAAAAAAAAAAAAAAAAAAAAAAAAAAAAAAAAAAAAAAAAAAAAAAATJSIPBgUHCAEBAQEBCAwFBg8sCSYAAAAAAAAAAAAAAAAAAAAAAAAAAAAAAAAAAAAAAAAAAAAAAAAAAAAAAAAAAAAAAAAAAAAAAAAAAAAAAAAAAAAAAAAAAAAAAAAAAAAAAAAAAAAAAAAAAAAAAAAAAAAAAAAdAAAAAAAAAAAAAAAAAAAAAAAAAAAAAAAAAAAAAAAAAAAAAAAAAAAAAAAAAAAAAAAAAEQ4JfkAACAASURBVAAAAAAAAAAAAAAAAAAAAAAAAAAAAAAAAAAAAAAAAAAAAAAAAAAAAAAAAAAAAAAAAAAAAAAAAAAAAAAAAAAOCiUfFAUFBQUFFBcJHhkAAAAAAAAAAAAAAAAAAAAAAAAAAAAAAAAAAAAAAAAAAAAAAAAAAAAAAAAAAAAAAAAAAAAAAAAAAAAAAAAAAAAAAAAAAAAAAAAAAAAAAAAAAAAAAAAAAAAAAAAAAAAAAAAAAAAdAAAAAAAAAAAAAAAAAAAAAAAAAAAAAAAAAAAAAAAAAAAAAAAAAAAAAAAAAAAAAAAAAAAAAAAAAAAAAAAAAAAAAAAAAAAAAAAAAAAAAAAAAAAAAAAAAAAAAAAAAAAAAAAAAAAAAAAAAAAAAAAAAAAAAAAAAAAAAAAAAAAAAAAAAAAAAAAAAAAAAAAAAAAAAAAAAAAAAAAAAAAAAAAAAAAAAAAAAAAAAAAAAAAAAAAAAAAAAAAAAAAAAAAAAAAAAAAAAAAAAAAAAAAAAAAAAAAAAAAAAAAAAAAAAAAAAAAAAAAdAAAAAAAAAAAAAAAAAAAAAAAAAAAAAAAAAAAAAAAAAAAAAAAAAAAAAAAAAAAAAAAAAAAAAAAAAAAAAAAAAAAAAAAAAAAAAAAAAAAAAAAAAAAAAAAAAAAAAAAAAAAAAAAAAAAAAAAAAAAAAAAAAAAAAAAAAAAAAAAAAAAAAAAAAAAAAAAAAAAAAAAAAAAAAAAAAAAAAAAAAAAAAAAAAAAAAAAAAAAAAAAAAAAAAAAAAAAAAAAAAAAAAAAAAAAAAAAAAAAAAAAAAAAAAAAAAAAAAAAAAAAAAAAAAAAAAAAAAAAdAAAAAAAAAAAAAAAAAAAAAAAAAAAAAAAAAAAAAAAAAAAAAAAAAAAAAAAAAAAAAAAAAAAAAAAAAAAAAAAAAAAAAAAAAAAAAAAAAAAAAAAAAAAAAAAAAAAAAAAAAAAAAAAAAAAAAAAAAAAAAAAAAAAAAAAAAAAAAAAAAAAAAAAAAAAAAAAAAAAAAAAAAAAAAAAAAAAAAAAAAAAAAAAAAAAAAAAAAAAAAAAAAAAAAAAAAAAAAAAAAAAAAAAAAAAAAAAAAAAAAAAAAAAAAAAAAAAAAAAAAAAAAAAAAAAAAAAAAAAdAAAAAAAAAAAAAAAAAAAAAAAAAAAAAAAAAAAAAAAAAAAAAAAAAAAAAAAAAAAAAAAAAAAAAAAAAAAAAAAAAAAAAAAAAAAAAAAAAAAAAAAAAAAAAAAAAAAAAAAAAAAAAAAAAAAAAAAAAAAAAAAAAAAAAAAAAAAAAAAAAAAAAAAAAAAAAAAAAAAAAAAAAAAAAAAAAAAAAAAAAAAAAAAAAAAAAAAAAAAAAAAAAAAAAAAAAAAAAAAAAAAAAAAAAAAAAAAAAAAAAAAAAAAAAAAAAAAAAAAAAAAAAAAAAAAAAAAAAAAdAAAAAAAAAAAAAAAAAAAAAAAAAAAAAAAAAAAAAAAAAAAAAAAAAAAAAAAAAAAAAAAAAAAAAAAAAAAAAAAAAAAAAAAAAAAAAAAAAAAAAAAAAAAAAAAAAAAAAAAAAAAAAAAAAAAAAAAAAAAAAAAAAAAAAAAAAAAAAAAAAAAAAAAAAAAAAAAAAAAAAAAAAAAAAAAAAAAAAAAAAAAAAAAAAAAAAAAAAAAAAAAAAAAAAAAAAAAAAAAAAAAAAAAAAAAAAAAAAAAAAAAAAAAAAAAAAAAAAAAAAAAAAAAAAAAAAAAAAAAdAAAAAAAAAAAAAAAAAAAAAAAAAAAAAAAAAAAAAAAAAAAAAAAAAAAAAAAAAAAAAAAAAAAAAAAAAAAAAAAAAAAAAAAAAAAAAAAAAAAAAAAAAAAAAAAAAAAAAAAAAAAAAAAAAAAAAAAAAAAAAAAAAAAAAAAAAAAAAAAAAAAAAAAAAAAAAAAAAAAAAAAAAAAAAAAAAAAAAAAAAAAAAAAAAAAAAAAAAAAAAAAAAAAAAAAAAAAAAAAAAAAAAAAAAAAAAAAAAAAAAAAAAAAAAAAAAAAAAAAAAAAAAAAAAAAAAAAAAAAdAAAAAAAAAAAAAAAAAAAAAAAAAAAAAAAAAAAAAAAAAAAAAAAAAAAAAAAAAAAAAAAAAAAAAAAAAAAAAAAAAAAAAAAAAAAAAAAAAAAAAAAAAAAAAAAAAAAAAAAAAAAAAAAAAAAAAAAAAAAAAAAAAAAAAAAAAAAAAAAAAAAAAAAAAAAAAAAAAAAAAAAAAAAAAAAAAAAAAAAAAAAAAAAAAAAAAAAAAAAAAAAAAAAAAAAAAAAAAAAAAAAAAAAAAAAAAAAAAAAAAAAAAAAAAAAAAAAAAAAAAAAAAAAAAAAAAAAAAAAdAAAAAAAAAAAAAAAAAAAAAAAAAAAAAAAAAAAAAAAAAAAAAAAAAAAAAAAAAAAAAAAAAAAAAAAAAAAAAAAAAAAAAAAAAAAAAAAAAAAAAAAAAAAAAAAAAAAAAAAAAAAAAAAAAAAAAAAAAAAAAAAAAAAAAAAAAAAAAAAAAAAAAAAAAAAAAAAAAAAAAAAAAAAAAAAAAAAAAAAAAAAAAAAAAAAAAAAAAAAAAAAAAAAAAAAAAAAAAAAAAAAAAAAAAAAAAAAAAAAAAAAAAAAAAAAAAAAAAAAAAAAAAAAAAAAAAAAAAAAdAAAAAAAAAAAAAAAAAAAAAAAAAAAAAAAAAAAAAAAAAAAAAAAAAAAAAAAAAAAAAAAAAAAAAAAAAAAAAAAAAAAAAAAAAAAAAAAAAAAAAAAAAAAAAAAAAAAAAAAAAAAAAAAAAAAAAAAAAAAAAAAAAAAAAAAAAAAAAAAAAAAAAAAAAAAAAAAAAAAAAAAAAAAAAAAAAAAAAAAAAAAAAAAAAAAAAAAAAAAAAAAAAAAAAAAAAAAAAAAAAAAAAAAAAAAAAAAAAAAAAAAAAAAAAAAAAAAAAAAAAAAAAAAAAAAAAAAAAAAdAAAAAAAAAAAAAAAAAAAAAAAAAAAAAAAAAAAAAAAAAAAAAAAAAAAAAAAAAAAAAAAAAAAAAAAAAAAAAAAAAAAAAAAAAAAAAAAAAAAAAAAAAAAAAAAAAAAAAAAAAAAAAAAAAAAAAAAAAAAAAAAAAAAAAAAAAAAAAAAAAAAAAAAAAAAAAAAAAAAAAAAAAAAAAAAAAAAAAAAAAAAAAAAAAAAAAAAAAAAAAAAAAAAAAAAAAAAAAAAAAAAAAAAAAAAAAAAAAAAAAAAAAAAAAAAAAAAAAAAAAAAAAAAAAAAAAAAAAAAdAAAAAAAAAAAAAAAAAAAAAAAAAAAAAAAAAAAAAAAAAAAAAAAAAAAAAAAAAAAAAAAAAAAAAAAAAAAAAAAAAAAAAAAAAAAAAAAAAAAAAAAAAAAAAAAAAAAAAAAAAAAAAAAAAAAAAAAAAAAAAAAAAAAAAAAAAAAAAAAAAAAAAAAAAAAAAAAAAAAAAAAAAAAAAAAAAAAAAAAAAAAAAAAAAAAAAAAAAAAAAAAAAAAAAAAAAAAAAAAAAAAAAAAAAAAAAAAAAAAAAAAAAAAAAAAAAAAAAAAAAAAAAAAAAAAAAAAAAAAdAAAAAAAAAAAAAAAAAAAAAAAAAAAAAAAAAAAAAAAAAAAAAAAAAAAAAAAAAAAAAAAAAAAAAAAAAAAAAAAAAAAAAAAAAAAAAAAAAAAAAAAAAAAAAAAAAAAAAAATCgoKCgoKCgoKCgoKCgoKCgoKCgoKCgoKCgoKCgoKCgoKCgoKCgoKCgoKCgoKCgoKCgoKCgoKCisdAAAAAAAAAAAAAAAAAAAAAAAAAAAAAAAAAAAAAAAAAAAAAAAAAAAAAAAAAAAAAAAAAAAAAAAAAAAAAAAAAAAAAAAAAAAAAAAAAAAAAAAdAAAAAAAAAAAAAAAAAAAAAAAAAAAAAAAAAAAAAAAAAAAAAAAAAAAAAAAAAAAAAAAAAAAAAAAAAAAAAAAAAAAAAAAAAAAAAAAAAAAAAAAAAAAAAAAAAAAAAAAkHAYGBgYGBgYGBgYGBgYGBgYGBgYGBgYGBgYGBgYGBgYGBgYGBgYGBgYGBgYGBgYGBgYGBgYGBi0dAAAAAAAAAAAAAAAAAAAAAAAAAAAAAAAAAAAAAAAAAAAAAAAAAAAAAAAAAAAAAAAAAAAAAAAAAAAAAAAAAAAAAAAAAAAAAAAAAAAAAAAdAAAAAAAAAAAAAAAAAAAAAAAAAAAAAAAAAAAAAAAAAAAAAAAAAAAAAAAAAAAAAAAAAAAAAAAAAAAAAAAAAAAAAAAAAAAAAAAAAAAAAAAAAAAAAAAAAAAAAAAkBQEBAQEBAQEBAQEBAQEBAQEBAQEBAQEBAQEBAQEBAQEBAQEBAQEBAQEBAQEBAQEBAQEBAQEBARwdAAAAAAAAAAAAAAAAAAAAAAAAAAAAAAAAAAAAAAAAAAAAAAAAAAAAAAAAAAAAAAAAAAAAAAAAAAAAAAAAAAAAAAAAAAAAAAAAAAAAAAAdAAAAAAAAAAAAAAAAAAAAAAAAAAAAAAAAAAAAAAAAAAAAAAAAAAAAAAAAAAAAAAAAAAAAAAAAAAAAAAAAAAAAAAAAAAAAAAAAAAAAAAAAAAAAAAAAAAAAAAAkBQEBAQEBAQEBAQEBAQEBAQEBAQEBAQEBAQEBAQEBAQEBAQEBAQEBAQEBAQEBAQEBAQEBAQEBARwdAAAAAAAAAAAAAAAAAAAAAAAAAAAAAAAAAAAAAAAAAAAAAAAAAAAAAAAAAAAAAAAAAAAAAAAAAAAAAAAAAAAAAAAAAAAAAAAAAAAAAAAdAAAAAAAAAAAAAAAAAAAAAAAAAAAAAAAAAAAAAAAAAAAAAAAAAAAAAAAAAAAAAAAAAAAAAAAAAAAAAAAAAAAAAAAAAAAAAAAAAAAAAAAAAAAAAAAAAAAAAAAkDwUFBQUFBQUFBQUFBQUFBQUFBQUFBQUFBQUFBQUFBQUFBQUFBQUFBQUFBQUFBQUFBQUFBQUFBSgdAAAAAAAAAAAAAAAAAAAAAAAAAAAAAAAAAAAAAAAAAAAAAAAAAAAAAAAAAAAAAAAAAAAAAAAAAAAAAAAAAAAAAAAAAAAAAAAAAAAAAAAdAAAAAAAAAAAAAAAAAAAAAAAAAAAAAAAAAAAAAAAAAAAAAAAAAAAAAAAAAAAAAAAAAAAAAAAAAAAAAAAAAAAAAAAAAAAAAAAAAAAAAAAAAAAAAAAAAAAAAAAVCQkJCQkJCQkJCQkJCQkJCQkJCQkJCQkJCQkJCQkJCQkJCQkJCQkJCQkJCQkJCQkJCQkJCQkJCSMdAAAAAAAAAAAAAAAAAAAAAAAAAAAAAAAAAAAAAAAAAAAAAAAAAAAAAAAAAAAAAAAAAAAAAAAAAAAAAAAAAAAAAAAAAAAAAAAAAAAAAAAdAAAAAAAAAAAAAAAAAAAAAAAAAAAAAAAAAAAAAAAAAAAAAAAAAAAAAAAAAAAAAAAAAAAAAAAAAAAAAAAAAAAAAAAAAAAAAAAAAAAAAAAAAAAAAAAAAAAAAAAAAAAAAAAAAAAAAAAAAAAAAAAAAAAAAAAAAAAAAAAAAAAAAAAAAAAAAAAAAAAAAAAAAAAAAAAAAAAAAAAAAAAAAAAAAAAAAAAAAAAAAAAAAAAAAAAAAAAAAAAAAAAAAAAAAAAAAAAAAAAAAAAAAAAAAAAAAAAAAAAAAAAAAAAAAAAAAAAAAAAdAAAAAAAAAAAAAAAAAAAAAAAAAAAAAAAAAAAAAAAAAAAAAAAAAAAAAAAAAAAAAAAAAAAAAAAAAAAAAAAAAAAAAAAAAAAAAAAAAAAAAAAAAAAAAAAAAAAAAAAAAAAAAAAAAAAAAAAAAAAAAAAAAAAAAAAAAAAAAAAAAAAAAAAAAAAAAAAAAAAAAAAAAAAAAAAAAAAAAAAAAAAAAAAAAAAAAAAAAAAAAAAAAAAAAAAAAAAAAAAAAAAAAAAAAAAAAAAAAAAAAAAAAAAAAAAAAAAAAAAAAAAAAAAAAAAAAAAAAAAdAAAAAAAAAAAAAAAAAAAAAAAAAAAAAAAAAAAAAAAAAAAAAAAAAAAAAAAAAAAAAAAAAAAAAAAAAAAAAAAAAAAAAAAAAAAAAAAAAAAAAAAAAAAAAAAAAAAAAAAAAAAAAAAAAAAAAAAAAAAAAAAAAAAAAAAAAAAAAAAAAAAAAAAAAAAAAAAAAAAAAAAAAAAAAAAAAAAAAAAAAAAAAAAAAAAAAAAAAAAAAAAAAAAAAAAAAAAAAAAAAAAAAAAAAAAAAAAAAAAAAAAAAAAAAAAAAAAAAAAAAAAAAAAAAAAAAAAAAAAdAAAAAAAAAAAAAAAAAAAAAAAAAAAAAAAAAAAAAAAAAAAAAAAAAAAAAAAAAAAAAAAAAAAAAAAAAAAAAAAAAAAAAAAAAAAAAAAAAAAAAAAAAAAAAAAAAAAAAAAAAAAAAAAAAAAAAAAAAAAAAAAAAAAAAAAAAAAAAAAAAAAAAAAAAAAAAAAAAAAAAAAAAAAAAAAAAAAAAAAAAAAAAAAAAAAAAAAAAAAAAAAAAAAAAAAAAAAAAAAAAAAAAAAAAAAAAAAAAAAAAAAAAAAAAAAAAAAAAAAAAAAAAAAAAAAAAAAAAAAdAAAAAAAAAAAAAAAAAAAAAAAAAAAAAAAAAAAAAAAAAAAAAAAAAAAAAAAAAAAAAAAAAAAAAAAAAAAAAAAAAAAAAAAAAAAAAAAAAAAAAAAAAAAAAAAAAAAAAAAAAAAAAAAAAAAAAAAAAAAAAAAAAAAAAAAAAAAAAAAAAAAAAAAAAAAAAAAAAAAAAAAAAAAAAAAAAAAAAAAAAAAAAAAAAAAAAAAAAAAAAAAAAAAAAAAAAAAAAAAAAAAAAAAAAAAAAAAAAAAAAAAAAAAAAAAAAAAAAAAAAAAAAAAAAAAAAAAAAAAdAAAAAAAAAAAAAAAAAAAAAAAAAAAAAAAAAAAAAAAAAAAAAAAAAAAAAAAAAAAAAAAAAAAAAAAAAAAAAAAAAAAAAAAAAAAAAAAAAAAAAAAAAAAAAAAAAAAAAAAAAAAAAAAAAAAAAAAAAAAAAAAAAAAAAAAAAAAAAAAAAAAAAAAAAAAAAAAAAAAAAAAAAAAAAAAAAAAAAAAAAAAAAAAAAAAAAAAAAAAAAAAAAAAAAAAAAAAAAAAAAAAAAAAAAAAAAAAAAAAAAAAAAAAAAAAAAAAAAAAAAAAAAAAAAAAAAAAAAAAdAAAAAAAAAAAAAAAAAAAAAAAAAAAAAAAAAAAAAAAAAAAAAAAAAAAAAAAAAAAAAAAAAAAAAAAAAAAAAAAAAAAAAAAAAAAAAAAAAAAAAAAAAAAAAAAAAAAAAAAAAAAAAAAAAAAAAAAAAAAAAAAAAAAAAAAAAAAAAAAAAAAAAAAAAAAAAAAAAAAAAAAAAAAAAAAAAAAAAAAAAAAAAAAAAAAAAAAAAAAAAAAAAAAAAAAAAAAAAAAAAAAAAAAAAAAAAAAAAAAAAAAAAAAAAAAAAAAAAAAAAAAAAAAAAAAAAAAAAAAdAAAAAAAAAAAAAAAAAAAAAAAAAAAAAAAAAAAAAAAAAAAAAAAAAAAAAAAAAAAAAAAAAAAAAAAAAAAAAAAAAAAAAAAAAAAAAAAAAAAAAAAAAAAAAAAAAAAAAAAAAAAAAAAAAAAAAAAAAAAAAAAAAAAAAAAAAAAAAAAAAAAAAAAAAAAAAAAAAAAAAAAAAAAAAAAAAAAAAAAAAAAAAAAAAAAAAAAAAAAAAAAAAAAAAAAAAAAAAAAAAAAAAAAAAAAAAAAAAAAAAAAAAAAAAAAAAAAAAAAAAAAAAAAAAAAAAAAAAAAdAAAAAAAAAAAAAAAAAAAAAAAAAAAAAAAAAAAAAAAAAAAAAAAAAAAAAAAAAAAAAAAAAAAAAAAAAAAAAAAAAAAAAAAAAAAAAAAAAAAAAAAAAAAAAAAAAAAAAAAAAAAAAAAAAAAAAAAAAAAAAAAAAAAAAAAAAAAAAAAAAAAAAAAAAAAAAAAAAAAAAAAAAAAAAAAAAAAAAAAAAAAAAAAAAAAAAAAAAAAAAAAAAAAAAAAAAAAAAAAAAAAAAAAAAAAAAAAAAAAAAAAAAAAAAAAAAAAAAAAAAAAAAAAAAAAAAAAAAAAdAAAAAAAAAAAAAAAAAAAAAAAAAAAAAAAAAAAAAAAAAAAAAAAAAAAAAAAAAAAAAAAAAAAAAAAAAAAAAAAAAAAAAAAAAAAAAAAAAAAAAAAAAAAAAAAAAAAAAAAAAAAAAAAAAAAAAAAAAAAAAAAAAAAAAAAAAAAAAAAAAAAAAAAAAAAAAAAAAAAAAAAAAAAAAAAAAAAAAAAAAAAAAAAAAAAAAAAAAAAAAAAAAAAAAAAAAAAAAAAAAAAAAAAAAAAAAAAAAAAAAAAAAAAAAAAAAAAAAAAAAAAAAAAAAAAAAAAAAAAdAAAAAAAAAAAAAAAAAAAAAAAAAAAAAAAAAAAAAAAAAAAAAAAAAAAAAAAAAAAAAAAAAAAAAAAAAAAAAAAAAAAAAAAAAAAAAAAAAAAAAAAAAAAAAAAAAAAAAAAAAAAAAAAAAAAAAAAAAAAAAAAAAAAAAAAAAAAAAAAAAAAAAAAAAAAAAAAAAAAAAAAAAAAAAAAAAAAAAAAAAAAAAAAAAAAAAAAAAAAAAAAAAAAAAAAAAAAAAAAAAAAAAAAAAAAAAAAAAAAAAAAAAAAAAAAAAAAAAAAAAAAAAAAAAAAAAAAAAAAdAAAAAAAAAAAAAAAAAAAAAAAAAAAAAAAAAAAAAAAAAAAAAAAAAAAAAAAAAAAAAAAAAAAAAAAAAAAAAAAAAAAAAAAAAAAAAAAAAAAAAAAAAAAAAAAAAAAAAAAAAAAAAAAAAAAAAAAAAAAAAAAAAAAAAAAAAAAAAAAAAAAAAAAAAAAAAAAAAAAAAAAAAAAAAAAAAAAAAAAAAAAAAAAAAAAAAAAAAAAAAAAAAAAAAAAAAAAAAAAAAAAAAAAAAAAAAAAAAAAAAAAAAAAAAAAAAAAAAAAAAAAAAAAAAAAAAAAAAAAdAAAAAAAAAAAAAAAAAAAAAAAAAAAAAAAAAAAAAAAAAAAAAAAAAAAAAAAAAAAAAAAAAAAAAAAAAAAAAAAAAAAAAAAAAAAAAAAAAAAAAAAAAAAAAAAAAAAAAAAAAAAAAAAAAAAAAAAAAAAAAAAAAAAAAAAAAAAAAAAAAAAAAAAAAAAAAAAAAAAAAAAAAAAAAAAAAAAAAAAAAAAAAAAAAAAAAAAAAAAAAAAAAAAAAAAAAAAAAAAAAAAAAAAAAAAAAAAAAAAAAAAAAAAAAAAAAAAAAAAAAAAAAAAAAAAAAAAAAAAdAAAAAAAAAAAAAAAAAAAAAAAAAAAAAAAAAAAAAAAAAAAAAAAAAAAAAAAAAAAAAAAAAAAAAAAAAAAAAAAAAAAAAAAAAAAAAAAAAAAAAAAAAAAAAAAAAAAAAAAAAAAAAAAAAAAAAAAAAAAAAAAAAAAAAAAAAAAAAAAAAAAAAAAAAAAAAAAAAAAAAAAAAAAAAAAAAAAAAAAAAAAAAAAAAAAAAAAAAAAAAAAAAAAAAAAAAAAAAAAAAAAAAAAAAAAAAAAAAAAAAAAAAAAAAAAAAAAAAAAAAAAAAAAAAAAAAAAAAAAdAAAAAAAAAAAAAAAAAAAAAAAAAAAAAAAAAAAAAAAAAAAAAAAAAAAAAAAAAAAAAAAAAAAAAAAAAAAAAAAAAAAAAAAAAAAAAAAAAAAAAAAAAAAAAAAAAAAAAAAAAAAAAAAAAAAAAAAAAAAAAAAAAAAAAAAAAAAAAAAAAAAAAAAdAAAAAAAAAAAZExkAAAAAAAAAAAAAAAAAAAAAAAAAAAAAAAAAAAAAAAAAAAAAAAAAAAAAAAAAAAAAAAAAAAAAAAAAAAAAAAAAAAAAAAAAAAAAAAAAAAAAAAAAAAAAAAAAAAAdAAAAAAAAAAAAAAAAAAAAAAAAAAAAAAAAAAAAAAAAAAAAAAAAAAAAAAAAAAAAAAAAAAAAAAAAAAAAAAAAAAAAAAAAAAAAAAAAAAAAAAAAAAAAAAAAAAAAAAAAAAAAAAAAAAAAAAAAAAAAAAAAAAAAAAAAAAAAAAAAAAAALhQvCQAAAAAALiAHBgcqIxIAAAAAAAAAAAAAAAAAAAAAAAAAAAAAAAAAAAAAAAAAAAAAAAAAAAAAAAAAAAAAAAAAAAAAAAAAAAAAAAAAAAAAAAAAAAAAAAAAAAAAAAAAAAAAAAAdAAAAAAAAAAAAAAAAAAAAAAAAAAAAABEQEB8uABIQGhoaGhoaGhoaECsAAAAAAAAAAAAAAAAAAAAAAAAAAAAAAAAAAAAAAAAAAAAAAAAAAAAAAAAAAAAAAAAAJiwnJyIWAAAAAAAAAAAAAAAAAAAAAAAAAAAAAAAAAAATKAgIHCsAAAAJHAwBCAwHLB0AAAAAAAAAAAAAAAAAAAAAAAAAAAAAAAAAAAAAAAAAAAAAAAAAAAAAAAAAAAAAAAAAAAAAAAAAAAAAAAAAAAAAAAAAAAAAAAAAAAAAAAAAAAAAAAAdAAAAAAAAAAAAAAAAAAAAAAAAAAAAABoGBwsRAA4GBwcHBwcHBwcHHAoAAAAAAAAAAAAAAAAAAAAAAAAAAAAAAAAAAAAAAAAAAAAAAAAAAAAAAAAAAAAAAAAAIwYMDAcgAAAAAAAAAAAAAAAAAAAAAAAAABkuFw4AAAAWBgEBBSMAABkcAQEHFBcoCgAAAAAAAAAAAAAAAAAAAAAAAAAAAAAAAAAAAAAAGS4fGQAAAAAAAAAAAAAAAAAAAAAAAAAAAAAAAAAAAAAAAAAAAAAAAAAAAAAAAAAAAAAAAAAAAAAdAAAAAAAAAAAAAAAAAAAAAAAAAAAAABAHAQURAA4HAQEBDAcHBwcHHBMAAAAAAAAAAAAAAAAAAAAAAAAAAAAAAAAAAAAAAAAAAAAAAAAAAAAAAAAAAAAAAAAAFAgBAQEcDgAAAAAAAAAAAAAAAAAAAAAAHA8GKAAAAAATHAgBHAoAAB4GAQwYAAASAAAATR8p/QAAIABJREFUAAAAAAAAAAAAAAAAAAAAAAAAAAAAAAAAAB0BHAYGEgAAAAAAAAAAAAAAAAAAAAAAAAAAAAAAAAAAAAAAAAAAAAAAAAAAAAAAAAAAAAAAAAAAAAAdAAAAAAABjkRxuwAAAAAAAAAAAAAAAAAAAAAAEAcBBREADgcBAQwfGhoaGhoQDgAAAAAAAAAAAAAAAAAAAAAAAAAAAAAAAAAAAAAAAAAAAAAAAAAAAAAAAAAAAAAAABsPAQEBAQYWAAAAAAAAAAAAAAAAAAAAAB0cAQEcAAAAAAAuBg8lAAAAEQUBBi4AAAAAAAAAAAAAAAAAAAAAAAAAAAAAAAAAAAAAAAAAEgUBAQcAAAAAAAAAAAAAAAAAAAAAAAAAAAAAAAAAAAAAAAAAAAAAAAAAAAAAAAAAAAAAAAAAAAAAAB0AAAAAAAAAAAAAAAAAAAAAAAAAAAAAEAcBBREADgcBAQYZAAAAAAAAAAAAAAAAAAAAAAAAAAAAAAAAAAAAAAAAAAAAAAAAAAAAAAAAAAAAAAAAAAAAAAAAACMNAQgIAQwXAAAAAAAAAAAAAAAAAAAAAB0cAQELAAAAAAAAAAAAAAAAJAUBBisAAAAAAAAAAAAAAAAAAAAAAAAAAAAAAAAAAAAAAAAAHQYBAQwAAAAAAAAAAAAAAAAAAAAAAAAAAAAAAAAAAAAAAAAAAAAAAAAAAAAAAAAAAAAAAAAAAAAAAB0AAAAAAAAAAAAAAAAAAAAAAAAAAAAAEAcBBREADgcBAQYTAAAAAAAAAAAmGQAAJh4KHQAAABIbChUTAAAAAAAAAAAAABkVFRUZAAAAABkfEgAAAAAAAAAAAAEIDBgXDAEHDgAAAAAAAA4VAAAdCh4TAA4PAQEGHRIOEgAAHRMKHQASLgUBBS4SEhIdAAAAACYKKxUTAAAAAAAAAAAAGSsRFhUAAAAADgUBAQwSEg4SAAAAAAATFQoVEgAAAAAAAAAAJhMAACYeCgAAEhMOAAAAAAAAAB0dHR0AAAAAAAAAAB0AAAAAAAAAAAAAAAAAAAAAAAAAAAAAEAcBBREADgcBAQYTAAAAAAAZHwcPHwAQDwsGEgAdKQUGBgYGFB4AAAAAAAArIAUGBgYFCBAJFwYGGgAAAAAAAAAAGwYBBRYRBQEGHgAAAAAkLAUoGRsBCxwWKQUBAQEBBwccLgAqBwYcEgAPDAEBAQwHBxwbABMpDQYGBgYGLBMAAAAAABkXBgYFBQYILgAaBQEBAQEHBxwWAAAAFSAGBgYGBRAOAAAADhAMDx8AGg8GCBoNBw8aAAAAAAAACQYHBRAAAAAAAAAAAB0AAAAAAAAAAAAAAAAAAAAAAAAAAAAAEAcBBREADgcBAQYTAAAAAAAOBQgIKhAGAQcQAA4qBQEIDQcBCA8aAAAAACkcDAEMBQcBCAcFBwcFLRMAAAAAAAAACQUBBiYKBgEHEAAAAAAlBgEHCQYIARwOEAsBAQEBBQYMHQAUCAEFEgAFDAEBAQwHBS8SGBwHAQEICAEBDAYZAAAAEwUHAQEHDAEILRIpDwEBAQEFBg0OAAAlHAwBDAUIAQ0IEwAAHRwICCoaBgEHEBMLAQwgHQAAAAAALAwBCxsAAAAAAAAAAB0AAAAAAAAAAAAAAAAAAAAAAAAAAAAAEAcBBREADgcBAQUeEyYmJhkAIgwBCAcFBRwKACAHAQwBCRoFAQELEQAAFg8BAQUYERAFAQEIFxAjJgAAAAAAAAAAIAgBBx0OHAEBHAAAAAAeBgEBBwwGBSoAKyUFAQENJBEuAB0UCAEFEgAfLAgBCCIQHx4dAQgIBgwvLw0BAQUJAAAdFAwBCAwaFwUPHgArJQcBAQgkES4AAB4PAQEFHyUgBwEMDB0AACwMAQgHBQUcKwABCAEPEwAAAAATDwEIAQAAAAAAAAAAAB0AAAAAAAAAAAAAAAAAAAAAAAAAAAAAEAcBBREADgcBAQEGCwsLHBAAFwwBAQURGSYdLgsBCAEOAAAKBQEBBhkAIgwBBSQAAAAKBgEMJwAAAAAAAAAAAAATDwEMFwAAAQgBBgoAAAAbCwEBBycbGRMAAAAcAQELAAAAAB0UCAEFEgAALgYBBi4AAAAAKygqLg4AAAkNAQwYAAARBgEIDBkAACYjAAAAAAYBAQwAAAAAHRQIAQURAAAAIgwBBSMAAB8MAQENJBkmHQApBwEFEQAAAAARBQEFCQAAAAAAAAAAAB0AAAAAAAAAAAAAAAAAAAAAAAAAAAAAEAcBBREADgcBAQEBAQEBBykAGAwBBisAAAAAIgwBBSUAAAAALAwBBSQdCAgBARIAAAAAIgwBDyYAAAAAAAAAAAAJBQEFJAAAKQcBBxoAAAAmCwEIIAAAAAAAABIPAQELAAAAAB0UCAEFEgAAFgUBBhYAAAAAABEdAAAAABkPAQwXAAABCAEFJQAAAAAAAAAAEgYBAQwAAAAACgsBCAEdAAAAFQYBCBQdABAHAQUuAAAAAAAbDwEIIAAAAAAqCAEPEwAAAAAAAAAAAB0AAAAAAAAAAAAAAAAAAAAAAAAAAAAAEAcBBREADgcBAQEGDw8PHBAAGAwBCxsAAAAZBwEBCxsAAAAACQ0BDB8dCAgBDBIAAAAAIgwBCxsAAAAAAAAAAAABCAEPGQAACgYBCC8dAAATDwEMGAAAAAAAABIPAQELAAAAAB0UCAEFEgAAFgUBBhYAAAAAAAAAAAAdEhkLAQwXABkLAQEGGwAAAAAAAAAAEgYBAQwAAAAAIw0BDCIAAAAAGQYBAQsmABAHAQYVAAAAAAAAFAgBCw4AABkGAQwsAAAAAAAAAAAAAB0AAAAAAAAAAAAAAAAAAAAAAAAAAAAAEAcBBREADgcBAQUVGRkZGQ4AGAwBCxsAAAAmDwEBCxMAAAAAJAUBCBQAIgwBBREAAAArBgEBBhkAAAAAAAAAACYLAQgsAAAAEggBAQsbAAATDwEMFwAAAAAAABIPAQELAAAAAB0UCAEFEgAAFgUBBhYAAAAAAAArHywqFC8IAQwXABUGAQEPDgAAAAAAAAAAEgYBAQwAAAAAJwwBBxAAAAAADgEIAQYVABAHAQYVAAAAAAAAIw0BBh4AABYFAQUkAAAAAAAAAAAAAB0AAAAAAAAAAAAAAB0AAAAAAAAAAAAAEAcBBREADgcBAQYTAAAAAAAAGAwBCxsAAAAbCwEBCxMAAAAAFgUBAQYAHhwBAQYsGiILAQEGEAAAAAAAAAAAACUFAQEBBwUFDAEBAQ0jAAATDwEMFwAAAAAAABIPAQELAAAAAB0UCAEFEgAAFgUBBhYAAAAAEwwLBwwMBwwBAQcfAAoGAQEPEgAAAAAAAAAAEgYBAQwAAAAAIAgBDSMAAAAAEhQIAQYKABAHAQYVAAAAAAAAGwYBDB8AABcMAQUZAAAAAAAAAAAAAB0AAAAAAAAAAAAAAB0AAAAAAAAAAAAAEAcBBREADgcBAQYTAAAAAAAAGAwBCxsAAAAbCwEBCxMAAAAAFgUBAQUAABYFCAEIBwcMBw8XHQAAAAAAAAAAACwMAQEBAQEBAQEBAQgUAAATDwEMFwAAAAAAABIPAQELAAAAAB0UCAEFEgAAFgUBBhYAAAASAQwBCA8UHycMAQcfAAoGAQEPEgAAAAAAAAAAEgYBAQwAAAAAIAgBBykAAAAAEhQIAQYKABAHAQYVAAAAAAAAABQICAESDgYBDCcAAAAAAAAAAAAAAB0AAAAAAAAAAAAAAB0AAAAAAAAAAAAAEAcBBREADgcBAQYTAAAAAAAAGAwBCxsAAAATDwEBCxMAAAAAEQUBDCwAAAAbCAEHASwsHxUAAAAAAAAAAAAAEw8BAQgFBQUFBQUBAQEPEwATDwEMFwAAAAAAABIPAQELAAAAAB0UCAEFEgAAFgUBBhYAAAARBgEIASYAABkLAQcaABUGAQEPDgAAAAAAAAAAEgYBAQwAAAAAGAwBBx8AAAAADgcBAQsbABAHAQYVAAAAAAAAAAkNAQsbCgYBBh4AAAAAAAAAAAAAAB0AAAAAAAAAAAAAAB0AAAAAAAAAAAAAEAcBBREADgcBAQYTAAAAAAAAGAwBCxsAAAAOAQgBBhUAAAAAEAcBBykAEiwPAQcQDgAAAAAAAAAAAAAAAAAAEQUBCCIlJSUlJSUBAQEFJQATDwEMFwAAAAAAABIPAQELAAAAAB0UCAEFEgAAFgUBBhYAAAAQBwEHIwAAABsLAQcaAA4LAQELJgAAAAAAAAAAEgYBAQwAAAAACQUBCCAAAAAAEw8BAQUZABAHAQYVAAAAAAAAACYPAQUkJAUBDx0AAAAAAAAAAAAAAB0AAAAAAAAAAAAAAB0dAAAAAAAAAAAAEAcBBREADgcBAQYTAAAAAAAAGAwBCxsAAAAAGAcBByMAAAAdLwgBCwoAJAsBAQUeJhMTGRIAAAAAAAAAAAAAFAgBBh4AAAAAAAAJDQEIIAATDwEMFwAAAAAAABIPAQEPAAAAAB0UCAEFEgAAFgUBBhYAAAAfBwEFJQAAABsLAQcQAAABCAENCQAAAAATEgAAEgYBAQwAAAAAJg8BAQwOAAAAEQUBDCwAABAHAQYVAAAAAAAAAAAUCAwfEAwHEAAAAAAAAAAAAAAAAB0AAAAAAAAAAAAAAB0dAAAAAAAAAAAAEAcBBREADgcBAQYTAAAAAAAAGAwBCxsAAAAAGxwBAQYVAAAjBQEMKgAAJAYBAQEFBgsLDwYYEwAAAAAAAAATDwEBHA4AAAAAAAAbCwEBBhkZDwEMFwAAAAAAAB0cAQEPGQAAAB0UCAEFEgAAFgUBBhYAAAAaDQEIIB0AACMHAQgMAAAWBgEBBi4dEi4GEAAAHQYBAQUmAAAAACcMAQcQEgATBwEBDysAABAHAQYVAAAAAAAAAAAjDQEMDAELFQAAAAAAAAAAAAAAAB0AAAAAAAAAAAAAAAQdAAAAAAAAAAAAHwcBBREADgcBAQYTAAAAAAAAGAwBCxsAAAAAABoGAQEFLy8FAQgcJgAAGQgLBgUFBQ0HAQEHBhsAAAAAAAARBQEMJwAAAAAAAAASAQgBBRYZDwEMFwAAAAAAAAAUCAEIAR8qGwAUCAEFEgAAFgUBBhYAAAAeCwEBDCojKgUMAQEFIwAALAcBAQUBCAYIHCQAACwMAQgBHyAKABMLDAEHASoHCAEGHwAAABAHAQYVAAAAAAAAAAAbCwEBAQgUHQAAAAAAAAAAAAAAAAAAAAAAAAAAAAAAAAQdAAAAAAAAAAAAGAwBBhYADgUHBw8TAAAAAAAAGAUHHBsAAAAAAAAjHAcICAgIBQ0VAAAAAAAbKyQlEQkfDQEBDBQAAAAAAAAsBQcLJQAAAAAAAAAAHwYHBRcZHAcFFwAAAAAAAAAeHAwBCAcLCQABDQcLEgAAFg8HDxYAAAAAFwYBAQgHDAYnCAEFFx0ADiALDAEICAwGFCYAACscDAEIBwsjAAAbCAYMCAwIBxwQAAAAAB8GBxwVAAAAAAAAAAAAFAwBAQcpAAAAAAAAAAAAAAAAAAAAAAAAAAAAAAAAAAQdAAAAAAAAAAAdDAEBBhUADhAQGh8ZAAAAAAAACRAaHxMAAAAAAAAAGxAHBwcqCQ4AAAAdGyYmDgAAAAAAEwYBARwZAAAAABkfGhofGQAAAAAAAAAAFRAaGh8ZHxoQIwAAAAAAAAAAFScFBw0nKwAQEBAfEgAAChAaEAoAAAAAACMFBgYGBiMAFhwsAAAAAAAWLA0HBywWHQAAAAAbFw0NDSceAAAAEhEgDQcNHxUAAAAAABEQGh8mAAAAAAAAAAAAFiIIAQ8bAAAAAAAAAAAAAAAAAAAAAAAAAAAAAAAAAAQdAAAAAAAAAAAkBgEBBgAAAAAAAAAAAAAAAAAAAAAAAAAAAAAAAAAAAAAAHQAAAAAAAAAuKAsoFgAAAAAAACAIAQsbAAAAAAAAAAAAAAAAAAAAAAAAAAAAAAAAAAAAAAAAAAAAAAAAAAAAHQAAAAAAAAAAAAAAAAAAAAAAAAAAAAAAExsmHQAAACYOAAAAAAAAAAAdAAAAAAAAAAAAAAAdAAAAAAAAAAAAAB0AAAAAAAAAAAAAAAAAAAAAAAAAAAAAAB8MCBQAAAAAAAAAAAAAAAAAAAAAAAAAAAAAAAAAAAQdAAAAAAAAABUGAQELEQAAAAAAAAAAAAAAAAAAAAAAAAAAAAAAAAAAAAAAAAAAAAAAAAAkBQEHIwAAAAAAGQYBARwZAAAAAAAAAAAAAAAAAAAAAAAAAAAAAAAAAAAAAAAAAAAAAAAAAAAAAAAAAAAAAAAAAAAAAAAAAAAAAAAAAAAAAAAAAAAAAAAAAAAAAAAAAAAAAAAAAAAAAAAAAAAAAAAAAAAAAAAAAAAAAAAAAAAAAAAAAAAAAAAAAAAAAAAAGw8BBSUAAAAAAAAAAAAAAAAAAAAAAAAAAAAAAAAAAAQdAAAAAAAAHigBAQYQAAAAAAAAAAAAAAAAAAAAAAAAAAAAAAAAAAAAAAAAAAAAAAAAAAAmHAEBBhAVJhslDQgBDCAAAAAAAAAAAAAAAAAAAAAAAAAAAAAAAAAAAAAAAAAAAAAAAAAAAAAAAAAAAAAAAAAAAAAAAAAAAAAAAAAAAAAAAAAAAAAAAAAAAAAAAAAAAAAAAAAAAAAAAAAAAAAAAAAAAAAAAAAAAAAAAAAAAAAAAAAAAAAAAAAAAAAAAAAZBwgBBw4AAAAAAAAAAAAAAAAAAAAAAAAAAAAAAAAAAAQdAAAAAAAAHSIGKAkAAAAAAAAAAAAAAAAAAAAAAAAAAAAAAAAAAAAAAAAAAAAAAAAAAAAAEAsBAQcGCwsFAQEMDyYAAAAAAAAAAAAAAAAAAAAAAAAAAAAAAAAAAAAAAAAAAAAAAAAAAAAAAAAAAAAAAAAAAAAAAAAAAAAAAAAAAAAAAAAAAAAAAAAAAAAAAAAAAAAAAAAAAAAAAAAAAAAAAAAAAAAAAAAAAAAAAAAAAAAAAAAAAAAAAAAAAAAAEyUMCAEGCQAAAAAAAAAAAAAAAAAAAAAAAAAAAAAAAAAAAAQdAAAAAAAAAB0QGQAAAAAAAAAAAAAAAAAAAAAAAAAAAAAAAAAAAAAAAAAAAAAAAAAAAAAAACMNBg0HBwcHBQsiEwAAAAAAAAAAAAAAAAAAAAAAAAAAAAAAAAAAAAAAAAAAAAAAAAAAAAAAAAAAAAAAAAAAAAAAAAAAAAAAAAAAAAAAAAAAAAAAAAAAAAAAAAAAAAAAAAAAAAAAAAAAAAAAAAAAAAAAAAAAAAAAAAAAAAAAAAAAAAAAAAAAAAAAKgYBAQYXAAAAAAAAAAAAAAAAAAAAAAAAAAAAAAAAAAAAAAQdAAAAAAAAAAAAAAAAAAAAAAAAAAAAAAAAAAAAAAAAAAAAAAAAAAAAAAAAAAAAAAAAAAAAAAAOHiMQEBApERMAAAAAAAAAAAAAAAAAAAAAAAAAAAAAAAAAAAAAAAAAAAAAAAAAAAAAAAAAAAAAAAAAAAAAAAAAAAAAAAAAAAAAAAAAAAAAAAAAAAAAAAAAAAAAAAAAAAAAAAAAAAAAAAAAAAAAAAAAAAAAAAAAAAAAAAAAAAAAAAAAAAAAAAAAFRwGDyUAAAAAAAAAAAAAAAAAAAAAAAAAAAAAAAAAAAAAAA4dAAAAAAAAAAAAAAAAAAAAAAAAAAAAAAAAAAAAAAAAAAAAAAAAAAAAAAAAAAAAAAAAAAAAAAAAAAAAAAAAAAAAAAAAAAAAAAAAAAAAAAAAAAAAAAAAAAAAAAAAAAAAAAAAAAAAAAAAAAAAAAAAAAAAAAAAAAAAAAAAAAAAAAAAAAAAAAAAAAAAAAAAAAAAAAAAAAAAAAAAAAAAAAAAAAAAAAAAAAAAAAAAAAAAAAAAAAAAAAAAAAAAAAAAAAAAACUrHQAAAAAAAAAAAAAAAAAAAAAAAAAAAAAAAAAAAAAAAA4dAAAAAAAAAAAAAAAAAAAAAAAAAAAAAAAAAAAAAAAAAAAAAAAAAAAAAAAAAAAAAAAAAAAAAAAAAAAAAAAAAAAAAAAAAAAAAAAAAAAAAAAAAAAAAAAAAAAAAAAAAAAAAAAAAAAAAAAAAAAAAAAAAAAAAAAAAAAAAAAAAAAAAAAAAAAAAAAAAAAAAAAAAAAAAAAAAAAAAAAAAAAAAAAAAAAAAAAAAAAAAAAAAAAAAAAAAAAAAAAAAAAAAAAAAAAAAAAAAAAAAAAAAAAAAAAAAAAAAAAAAAAAAAAAAAAAAAAAAAQdAAAAAAAAAAAAAAAAAAAAAAAAAAAAAAAAAAAAAAAAAAAAAAAAAAAAAAAAAAAAAAAAAAAAAAAAAAAAAAAAAAAAAAAAAAAAAAAAAAAAAAAAAAAAAAAAAAAAAAAAAAAAAAAAAAAAAAAAAAAAAAAAAAAAAAAAAAAAAAAAAAAAAAAAAAAAAAAAAAAAAAAAAAAAAAAAAAAAAAAAAAAAAAAAAAAAAAAAAAAAAAAAAAAAAAAAAAAAAAAAAAAAAAAAAAAAAAAAAAAAAAAAAAAAAAAAAAAAAAAAAAAAAAAAAAAAAAAAAAQdAAAAAAAAAAAAAAAAAAAAAAAAAAAAAAAAAAAAAAAAAAAAAAAAAAAAAAAAAAAAAAAAAAAAAAAAAAAAAAAAAAAAAAAAAAAAAAAAAAAAAAAAAAAAAAAAAAAAAAAAAAAAAAAAAAAAAAAAAAAAAAAAAAAAAAAAAAAAAAAAAAAAAAAAAAAAAAAAAAAAAAAAAAAAAAAAAAAAAAAAAAAAAAAAAAAAAAAAAAAAAAAAAAAAAAAAAAAAAAAAAAAAAAAAAAAAAAAAAAAAAAAAAAAAAAAAAAAAAAAAAAAAAAAAAAAAAAAAAAQdAAAAAAAAAAAAAAAAAAAAAAAAAAAAAAAAAAAAAAAAAAAAAAAAAAAAAAAAAAAAAAAAAAAAAAAAAAAAAAAAAAAAAAAAAAAAAAAAAAAAAAAAAAAAAAAAAAAAAAAAAAAAAAAAAAAAAAAAAAAAAAAAAAAAAAAAAAAAAAAAAAAAAAAAAAAAAAAAAAAAAAAAAAAAAAAAAAAAAAAAAAAAAAAAAAAAAAAAAAAAAAAAAAAAAAAAAAAAAAAAAAAAAAAAAAAAAAAAAAAAAAAAAAAAAAAAAAAAAAAAAAAAAAAAAAAAAAAAAAQdAAAAAAAAAAAAAAAAAAAAAAAAAAAAAAAAAAAAAAAAAAAAAAAAAAAAAAAAAAAAAAAAAAAAAAAAAAAAAAAAAAAAAAAAAAAAAAAAAAAAAAAAAAAAAAAAAAAAAAAAAAAAAAAAAAAAAAAAAAAAAAAAAAAAAAAAAAAAAAAAAAAAAAAAAAAAAAAAAAAAAAAAAAAAAAAAAAAAAAAAAAAAAAAAAAAAAAAAAAAAAAAAAAAAAAAAAAAAAAAAAAAAAAAAAAAAAAAAAAAAAAAAAAAAAAAAAAAAAAAAAAAAAAAAAAAAAAAAAAQdAAAAAAAAAAAAAAAAAAAAAAAAAAAAAAAAAAAAAAAAAAAAAAAAAAAAAAAAAAAAAAAAAAAAAAAAAAAAAAAAAAAAAAAAAAAAAAAAAAAAAAAAAAAAAAAAAAAAAAAAAAAAAAAAAAAAAAAAAAAAAAAAAAAAAAAAAAAAAAAAAAAAAAAAAAAAAAAAAAAAAAAAAAAAAAAAAAAAAAAAAAAAAAAAAAAAAAAAAAAAAAAAAAAAAAAAAAAAAAAAAAAAAAAAAAAAAAAAAAAAAAAAAAAAAAAAAAAAAAAAAAAAAAAAAAAAAAAAAAQdAAAAAAAAAAAAAAAAAAAAAAAAAAAAAAAAAAAAAAAAAAAAAAAAAAAAAAAAAAAAAAAAAAAAAAAAAAAAAAAAAAAAAAAAAAAAAAAAAAAAAAAAAAAAAAAAAAAAAAAAAAAAAAAAAAAAAAAAAAAAAAAAAAAAAAAAAAAAAAAAAAAAAAAAAAAAAAAAAAAAAAAAAAAAAAAAAAAAAAAAAAAAAAAAAAAAAAAAAAAAAAAAAAAAAAAAAAAAAAAAAAAAAAAAAAAAAAAAAAAAAAAAAAAAAAAAAAAAAAAAAAAAAAAAAAAAAAAAAAQdAAAAAAAAAAAAAAAAAAAAAAAAAAAAAAAAAAAAAAAAAAAAAAAAAAAAAAAAAAAAAAAAAAAAAAAAAAAAAAAAAAAAAAAAAAAAAAAAAAAAAAAAAAAAAAAAAAAAAAAAAAAAAAAAAAAAAAAAAAAAAAAAAAAAAAAAAAAAAAAAAAAAAAAAAAAAAAAAAAAAAAAAAAAAAAAAAAAAAAAAAAAAAAAAAAAAAAAAAAAAAAAAAAAAAAAAAAAAAAAAAAAAAAAAAAAAAAAAAAAAAAAAAAAAAAAAAAAAAAAAAAAAAAAAAAAAAAAAAAQdAAAAAAAAAAAAAAAAAAAAAAAAAAAAAAAAAAAAAAAAAAAAAAAAAAAAAAAAAAAAAAAAAAAAAAAAAAAAAAAAAAAAAAAAAAAAAAAAAAAAAAAAAAAAAAAAAAAAAAAAAAAAAAAAAAAAAAAAAAAAAAAAAAAAAAAAAAAAAAAAAAAAAAAAAAAAAAAAAAAAAAAAAAAAAAAAAAAAAAAAAAAAAAAAAAAAAAAAAAAAAAAAAAAAAAAAAAAAAAAAAAAAAAAAAAAAAAAAAAAAAAAAAAAAAAAAAAAAAAAAAAAAAAAAAAAAAAAAAAQdAAAAAAAAAAAAAAAAAAAAAAAAAAAAAAAAAAAAAAAAAAAAAAAAAAAAAAAAAAAAAAAAAAAAAAAAAAAAAAAAAAAAAAAAAAAAAAAAAAAAAAAAAAAAAAAAAAAAAAAAAAAAAAAAAAAAAAAAAAAAAAAAAAAAAAAAAAAAAAAAAAAAAAAAAAAAAAAAAAAAAAAAAAAAAAAAAAAAAAAAAAAAAAAAAAAAAAAAAAAAAAAAAAAAAAAAAAAAAAAAAAAAAAAAAAAAAAAAAAAAAAAAAAAAAAAAAAAAAAAAAAAAAABmVILiAAAgAElEQVQAAAAAAAAAAAQdAAAAAAAAAAAAAAAAAAAAAAAAAAAAAAAAAAAAAAAAAAAAAAAAAAAAAAAAAAAAAAAAAAAAAAAAAAAAAAAAAAAAAAAAAAAAAAAAAAAAAAAAAAAAAAAAAAAAAAAAAAAAAAAAAAAAAAAAAAAAAAAAAAAAAAAAAAAAAAAAAAAAAAAAAAAAAAAAAAAAAAAAAAAAAAAAAAAAAAAAAAAAAAAAAAAAAAAAAAAAAAAAAAAAAAAAAAAAAAAAAAAAAAAAAAAAAAAAAAAAAAAAAAAAAAAAAAAAAAAAAAAAAAAAAAAAAAAAAAQdAAAAAAAAAAAAAAAAAAAAAAAAAAAAAAAAAAAAAAAAAAAAAAAAAAAAAAAAAAAAAAAAAAAAAAAAAAAAAAAAAAAAAAAAAAAAAAAAAAAAAAAAAAAAAAAAAAAAAAAAAAAAAAAAAAAAAAAAAAAAAAAAAAAAAAAAAAAAAAAAAAAAAAAAAAAAAAAAAAAAAAAAAAAAAAAAAAAAAAAAAAAAAAAAAAAAAAAAAAAAAAAAAAAAAAAAAAAAAAAAAAAAAAAAAAAAAAAAAAAAAAAAAAAAAAAAAAAAAAAAAAAAAAAAAAAAAAAAAAQdAAAAAAAAAAAAAAAAAAAAAAAAAAAAAAAAAAAAAAAAAAAAAAAAAAAAAAAAAAAAAAAAAAAAAAAAAAAAAAAAAAAAAAAAAAAAAAAAAAAAAAAAAAAAAAAAAAAAAAAAAAAAAAAAAAAAAAAAAAAAAAAAAAAAAAAAAAAAAAAAAAAAAAAAAAAAAAAAAAAAAAAAAAAAAAAAAAAAAAAAAAAAAAAAAAAAAAAAAAAAAAAAAAAAAAAAAAAAAAAAAAAAAAAAAAAAAAAAAAAAAAAAAAAAAAAAAAAAAAAAAAAAAAAAAAAAAAAAAAQdAAAAAAAAAAAAAAAAAAAAAAAAAAAAAAAAAAAAAAAAAAAAAAAAAAAAAAAAAAAAAAAAAAAAAAAAAAAAAAAAAAAAAAAAAAAAAAAAAAAAAAAAAAAAAAAAAAAAAAAAAAAAAAAAAAAAAAAAAAAAAAAAAAAAAAAAAAAAAAAAAAAAAAAAAAAAAAAAAAAAAAAAAAAAAAAAAAAAAAAAAAAAAAAAAAAAAAAAAAAAAAAAAAAAAAAAAAAAAAAAAAAAAAAAAAAAAAAAAAAAAAAAAAAAAAAAAAAAAAAAAAAAAAAAAAAAAAAAAB0dAAAAAAAAAAAAAAAAAAAAAAAAAAAAAAAAAAAAAAAAAAAAAAAAAAAAAAAAAAAAAAAAAAAAAAAAAAAAAAAAAAAAAAAAAAAAAAAAAAAAAAAAAAAAAAAAAAAAAAAAAAAAAAAAAAAAAAAAAAAAAAAAAAAAAAAAAAAAAAAAAAAAAAAAAAAAAAAAAAAAAAAAAAAAAAAAAAAAAAAAAAAAAAAAAAAAAAAAAAAAAAAAAAAAAAAAAAAAAAAAAAAAAAAAAAAAAAAAAAAAAAAAAAAAAAAAAAAAAAAAAAAAAAAAAAAAAAAAAB0dAAAAAAAAAAAAAAAAAAAAAAAAAAAAAAAAAAAAAAAAAAAAAAAAAAAAAAAAAAAAAAAAAAAAAAAAAAAAAAAAAAAAAAAAAAAAAAAAAAAAAAAAAAAAAAAAAAAAAAAAAAAAAAAAAAAAAAAAAAAAAAAAAAAAAAAAAAAAAAAAAAAAAAAAAAAAAAAAAAAAAAAAAAAAAAAAAAAAAAAAAAAAAAAAAAAAAAAAAAAAAAAAAAAAAAAAAAAAAAAAAAAAAAAAAAAAAAAAAAAAAAAAAAAAAAAAAAAAAAAAAAAAAAAAAAAAAAAAAB0dAAAAAAAAAAAAAAAAAAAAAAAAAAAAAAAAAAAAAAAAAAAAAAAAAAAAAAAAAAAAAAAAAAAAAAAAAAAAAAAAAAAAAAAAAAAAAAAAAAAAAAAAAAAAAAAAAAAAAAAAAAAAAAAAAAAAAAAAAAAAAAAAAAAAAAAAAAAAAAAAAAAAAAAAAAAAAAAAAAAAAAAAAAAAAAAAAAAAAAAAAAAAAAAAAAAAAAAAAAAAAAAAAAAAAAAAAAAAAAAAAAAAAAAAAAAAAAAAAAAAAAAAAAAAAAAAAAAAAAAAAAAAAAAAAAAAAAAAAB0AAAAAAAAAAAAAAAAAAAAAAAAAAAAAAAAAAAAAAAAAAAAAAAAAAAAAAAAAAAAAAAAAAAAAAAAAAAAAAAAAAAAAAAAAAAAAAAAAAAAAAAAAAAAAAAAAAAAAAAAAAAAAAAAAAAAAAAAAAAAAAAAAAAAAAAAAAAAAAAAAAAAAAAAAAAAAAAAAAAAAAAAAAAAAAAAAAAAAAAAAAAAAAAAAAAAAAAAAAAAAAAAAAAAAAAAAAAAAAAAAAAAAAAAAAAAAAAAAAAAAAAAAAAAAAAAAAAAAAAAAAAAAAAAAAAAAAAAAAB0AAAAAAAAAAAAAAAAAAAAAAAAAAAAAAAAAAAAAAAAAAAAAAAAAAAAAAAAAAAAAAAAAAAAAAAAAAAAAAAAAAAAAAAAAAAAAAAAAAAAAAAAAAAAAAAAAAAAAAAAAAAAAAAAAAAAAAAAAAAAAAAAAAAAAAAAAAAAAAAAAAAAAAAAAAAAAAAAAAAAAAAAAAAAAAAAAAAAAAAAAAAAAAAAAAAAAAAAAAAAAAAAAAAAAAAAAAAAAAAAAAAAAAAAAAAAAAAAAAAAAAAAAAAAAAAAAAAAAAAAAAAAAAAAAAAAAAAAAAAAAAAAAAAAAAAAAAAAAAAAAAAAAAAAAAAAAAAAAAAAAAAAAAAAAAAAAAAAAAAAAAAAAAAAAAAAAAAAAAAAAAAAAAAAAAAAAAAAAAAAAAAAAAAAAAAAAAAAAAAAAAAAAAAAAAAAAAAAAAAAAAAAAAAAAAAAAAAAAAAAAAAAAAAAAAAAAAAAAAAAAAAAAAAAAAAAAAAAAAAAAAAAAAAAAAAAAAAAAAAAAAAAAAAAAAAAAAAAAAAAAAAAAAAAAAAAAAAAAAAAAAAAAAAAAAAAAAAAAAAAAAAAAAAAAAAAAAAAAAAAAAAAAAAAAAAAAAAAAAAAAAAAAAAAAAAAAAAAAAAAAAAAAAAAAAAAAAAAAAAAAAAAAAAAAAAAAAAAAAAAAAAAAAAAAAAAAAAAAAAAAAAAAAAAAAAAAAAAAAAAAAAAAAAAAAAAAAAAAAAAAAAAAAAAAAAAAAAAAAAAAAAAAAAAAAAAAAAAAAAAAAAAAAAAAAAAAAAAAAAAAAAAAAAAAAAAAAAAAAAAAAAAAAAAAAAAAAAAAAAAAAAAAAAAAAAAAAAAAAAAAAAAAAAAAAAAAAAAAAAAAAAAAAAAAAAAAAAAAAAAAAAAAAAAAAAAAAAAAAAAAAAAAAAAAAAAAAAAAAAAAAAAAAAAAAAAAAAAAAAAAAAAAAAAAAAAAAAAAAAAAAAAAAAAAAAAAAAAAAAAAAAAAAAAAAAAAAAAAAAAAAAAAAAAAAAAAAAAAAAAAAAAAAAAAAAAAAAAAAAAAAAAAAAAAAAAAAAAAAAAAAAAAAAAAAAAAAAAAAAAAAAAAAAAAAAAAAAAAAAAAAAAAAAAAAAAAAAAAAAAAAAAAAAAAAAAAAAAAAAAAAAAAAAAAAAAAAAAAAAAAAAAAAAAAAAAAAAAAAAAAAAAAAAAAAAAAAAAAAAAAAAAAAAAAAAAAAAAAAAAAAAAAAAAAAAAAAAAAAAAAAAAAAAAAAAAAAAAAAAAAAAAAAAAAAAAAAAAAAAAAAAAAAAAAAAAAAAAAAAAAAAAAAAAAAAAAAAAAAAAAAAAAAAAAAAAAAAAAAAAAAAAAAAAAAAAAAAAAAAAAAAAAAAAAAAAAAAAAAAAAAAAAAAAAAAAAAAAAAAAAAAAAAAAAAAAAAAAAAAAAAAAAAAAAAAAAAAAAAAAAAAAAAAAAAAAAAAAAAAAAAAAAAAAAAAAAAAAAAAAAAAAAAAAAAAAAAAAAAAAAAAAAAAAAAAAAAAAAAAAAAAAAAAAAAAAAAAAAAAAAAAAAAAAAAAAAAAAAAAAAAAAAAAAAAAAAAAAAAAAAAAAAAAAAAAAAAAAAAAAAAAAAAAAAAAAAAAAAAAAAAAAAAAAAAAAAAAAAAAAAAAAAAAAAAAAAAAAAAAAAAAAAAAAAAAAAAAAAAAAAAAAAAAAAAAAAAAAAAAAAAAAAAAAAAAAAAAAAAAAAAAAAAAAAAAAAAAAAAAAAAAAAAAAAAAAAAAAAAAAAAAAAAAAAAAAAAAAAAAAAAAAAAAAAAAAAAAAAAAAAAAAAAAAAAAAAAAAAAAAAAAAAAAAAAAAAAAAAAAAAAAAAAAAAAAAAAAAAAAAAAAAAAAAAAAAAAAAAAAAAAAAAAAAAAAAAAAAAAAAAAAAAAAAAAAAAAAAAAAAAAAAAAAAAAAAAAAAAAAAAAAAAAAAAAAAAAAAAAAAAAAAAAAAAAAAAAAAAAAAAAAAAAAAAAAAAAAAAAAAAAAAAAAAAAAAAAAAAAAAAAAAAAAAAAAAAAAAAAAAAAAAAAAAAAAAAAAAAAAAAAAAAAAAAAAAAAAAAAAAAAAAAAAAAAAAAAAAAAAAAAAAAAAAAAAAAAAAAAAAAAAAAAAAAAAAAAAAAAAAAAAAAAAAAAAAAAAAAAAAAAAAAAAAAAAAAAAAAAAAAAAAAAAAAAAAAAAAAAAAAAAAAAAAAAAAAAAAAAAAAAAAAAAAAAAAAAAAAAAAAAAAAAAAAAAAAAAAAAAAAAAAAAAAAAAAAAAAAAAAAAAAAAAAAAAAAAAAAAAAAAAAAAAAAAAAAAAAAAAAAAAAAAAAAAAAAAAAAAAAAAAAAAAAAAAAAAAAAAAAAAAAAAAAAAAAAAAAAAAAAAAAAAAAAAAAAAAAAAAAAAAAAAAAAAAAAAAAAAAAAAAAAAAAAAAAAAAAAAAAAAAAAAAAAAAAAAAAAAAAAAAAAAAAAAAAAAAAAAAAAAAAAAAAAAAAAAAAAAAAAAAAAAAAAAAAAAAAAAAAAAAAAAAAAAAAAAAAAAAAAAAAAAAAAAAAAAAAAAAAAAAAAAAAAAAAAAAAAAAAAAAAAAAAAAAAAAAAAAAAAAAAAAAAAAAAAAAAAAAAAAAAAAAAAAAAAAAAAAAAAAAAAAAAAAAAAAAAAAAAAAAAAAAAAAAAAAAAAAAAAAAAAAAAAAAAAAAAAAAAAAAAAAAAAAAAAAAAAAAAAAAAAAAAAAAAAAAAAAAAAAAAAAAAAAAAAAAAAAAAAAAAAAAAAAAAAAAAAAAAAAAAAAAAAAAAAAAAAAAAAAAAAAAAAAAAAAAAAAAAAAAAAAAAAAAAAAAAAAAAAAAAAAAAAAAAAAAAAAAAAAAAAAAAAAAAAAAAAAAAAAAAAAAAAAAAAAAAAAAAAAAAAAAAAAAAAAAAAAAAAAAAAAAAAAAAAAAAAAAAAAAAAAAAAAAAAAAAAAAAAAAAAAAAAAAAAAAAAAAAAAAAAAAAAAAAAAAAAAAAAAAAAAAAAAAAAAAAAAAAAAAAAAAAAAAAAAAAAAAAAAAAAAAAAAAAAAAAAAAAAAAAAAAAAAAAAAAAAAAAAAAAAAAAAAAAAAAAAAAAAAAAAAAAAAAAAAAAAAAAAAAAAAAAAAAAAAAAAAAAAAAAAAAAAAAAAAAAAAAAAAAAAAAAAAAAAAAAAAAAAAAAAAAAAAAAAAAAAAAAAAAAAAAAAAAAAAAAAAAAAAAAAAAAAAAAAAAAAAAAAAAAAAAAAAAAAAAAAAAAAAAAAAAAAAAAAAAAAAAAAAAAAAAAAAAAAAAAAAAAAAAAAAAAAAAAAAAAAAAAAAAAAAAAAAAAAAAAAAAAAAAAAAAAAAAAAAAAAAAAAAAAAAAAAAAAAAAAAAAAAAAAAAAAAAAAAAAAAAAAAAAAAAAAAAAAAAAAAAAAAAAAAAAAAAAAAAAAAAAAAAAAAAAAAAAAAAAAAAAAAAAAAAAAAAAAAAAAAAAAAAAAAAAAAAAAAAAAAAAAAAAAAAAAAAAAAAAAAAAAAAAAAAAAAAAAAAAAAAAAAAAAAAAAAAAAAAAAAAAAAAAAAAAAAAAAAAAAAAAAAAAAAAAAAAAAAAAAAAAAAAAAAAAAAAAAAAAAAAAAAAAAAAAAAAAAAAAAAAAAAAAAAAAAAAAAAAAAAAAAAAAAAAAAAAAAAAAAAAAAAAAAAAAAAAAAAAAAAAAAAAAAAAAAAAAAAAAAAAAAAAAAAAAAAAAAAAAAAAAAAAAAAAAAAAAAAAAAAAAAAAAAAAAAAAAAAAAAAAAAAAAAAAAAAAAAAAAAAAAAAAAAAAAAAAAAAAAAAAAAAAAAAAAAAAAAAAAAAAAAAAAAAAAAAAAAAAAAAAAAAAAAAAAAAAAAAAAAAAAAAAAAAAAAAAAAAAAAAAAAAAAAAAAAAAAAAAAAAAAAAAAAAAAAAAAAAAAAAAAAAAAAAAAAAAAAAAAAAAAAAAAAAAAAAAAAAAAAAAAAAAAAAAAAAAAAAAAAAAAAAAAAAAAAAAAAAAAAAAAAAAAAAAAAAAAAAAAAAAAAAAAAAAAAAAAAAAAAAAAAAAAAAAAAAAAAAAAAAAAAAAAAAAAAAAAAAAAAAAAAAAAAAAAAAAAAAAAAAAAAAAAAAAAAAAAAAAAAAAAAAAAAAAAAAAAAAAAAAAAAAAAAAAAAAAAAAAAAAAAAAAAAAAAAAAAAAAAAAAAAAAAAAAAAAAAAAAAAAAAAAAAAAAAAAAAAAAAAAAAAAAAAAAAAAAAAAAAAAAAAAAAAAAAAAAAAAAAAAAAAAAAAAAAAAAAAAAAAAAAAAAAAAAAAAAAAAAAAAAAAAAAAAAAAAAAAAAAAAAAAAAAAAAAAAAAAAAAAAAAAAAAAAAAAAAAAAAAAAAAAAAAAAAAAAAAAAAAAAAAAAAAAAAAAAAAAAAAAAAAAAAAAAAAAAAAAAAAAAAAAAAAAAAAAAAAAAAAAAAAAAAAAAAAAAAAAAAAAAAAAAAAAAAAAAAAAAAAAAAAAAAAAAAAAAAAAAAAAAAAAAAAAAAAAAAAAAAAAAAAAAAAAAAAAAAAAAAAAAAAAAAAAAAAAAAAAAAAAAAAAAAAAAAAAAAAAAAAAAAAAAAAAAAAAAAAAAAAAAAAAAAAAAAAAAAAAAAAAAAAAAAAAAAAAAAAAAAAAAAAAAAAAAAAAAAAAAAAAAAAAAAAAAAAAAAAAAAAAAAAAAAAAAAAAAAAAAAAAAAAAAAAAAAAAAAAAAAAAAAAAAAAAAAAAAAAAAAAAAAAAAAAAAAAAAAAAAAAAAAAAAAAAAAAAAAAAAAAAAAAAAAAAAAAAAAAAAAAAAAAAAAAAAAAAAAAAAAAAAAAAAAAAAAAAAAAAAAAAAAAAAAAAAAAAAAAAAAAAAAAAAAAAAAAAAAAAAAAAAAAAAAAAAAAAAAAAAAAAAAAAAAAAAAAAAAAAAAAAAAAAAAAAAAAAAAAAAAAAAAAAAAAAAAAAAAAAAAAAAAAAAAAAAAAAAAAAAAAAAAAAAAAAAAAAAAAAAAAAAAAAAAAAAAAAAAAAAAAAAAAAAAAAAAAAAAAAAAAAAAAAAAAAAAAAAAAAAAAAAAAAAAAAAAAAAAAAAAAAAAAAAAAAAAAAAAAAAAAAAAAAAAAAAAAAAAAAAAAAAAAAAAAAAAAAAAAAAAAAAAAAAAAAAAAAAAAAAAAAAAAAAAAAAAAAAAAAAAAAAAAAAAAAAAAAAAAAAAAAAAAAAAAAAAAAAAAAAAAAAAAAAAAAAAAAAAAAAAAAAAAAAAAAAAAAAAAAAAAAAAAAAAAAAAAAAAAAAAAAAAAAAAAAAAAAAAAAAAAAAAAAAAAAAAAAAAAAAAAAAAAAAAAAAAAAAAAAAAAAAAAAAAAAAAAAAAAAAAAAAAAAAAAAAAAAAAAAAAAAAAAAAAAAAAAAAAAAAAAAAAAAAAAAAAAAAAAAAAAAAAAAAAAAAAAAAAAAAAAAAAAAAAAAAAAAAAAAAAAAAAAAAAAAAAAAAAAAAAAAAAAAAAAAAAAAAAAAAAAAAAAAAAAAAAAAAAAAAAAAAAAAAAAAAAAAAAAAAAAAAAAAAAAAAAAAAAAAAAAAAAAAAAAAAAAAAAAAAAAAAAAAAAAAAAAAAAAAAAAAAAAAAAAAAAAAAAAAAAAAAAAAAAAAAAAAAAAAAAAAAAAAAAAAAAAAAAAAAAAAAAAAAAAAAAAAAAAAAAAAAAAAAAAAAAAAAAAAAAAAAAAAAAAAAAAAAAAAAAAAAAAAAAAAAAAAAAAAAAAAAAAAAAAAAAAAAAAAAAAAAAAAAAAAAAAAAAAAAAAAAAAAAAAAAAAAAAAAAAAAAAAAAAAAAAAAAAAAAAAAAAAAAAAAAAAAAAAAAAAAAAAAAAAAAAAAAAAAAAAAAAAAAAAAAAAAAAAAAAAAAAAAAAAAAAAAAAAAAAAAAAAAAAAAAAAAAAAAAAAAAAAAAAAAAAAAAAAAAAAAAAAAAAAAAAAAAAAAAAAAAAAAAAAAAAAAAAAAAAAAAAAAAAAAAAAAAAAAAAAAAAAAAAAAAAAAAAAAAAAAAAAAAAAAAAAAAAAAAAAAAAAAAAAAAAAAAAAAAAAAAAAAAAAAAAAAAAAAAAAAAAAAAAAAAAAAAAAAAAAAAAAAAAAAAAAAAAAAAAAAAAAAAAAAAAAAAAAAAAAAAAAAAAAAAAAAAAAAAAAAAAAAAAAAAAAAAAAAAAAAAAAAAAAAAAAAAAAAAAAAAAAAAAAAAAAAAAAAAAAAAAAAAAAAAAAAAAAAAAAAAAAAAAAAAAAAAAAAAAAAAAAAAAAAAAAAAAAAAAAAAAAAAAAAAAAAAAAAAAAAAAAAAAAAAAAAAAAAAAAAAAAAAAAAAAAAAAAAAAAAAAAAAAAAAAAAAAAAAAAAAAAAAAAAAAAAAAAAAAAAAAAAAAAAAAAAAAAAAAAAAAAAAAAAAAAAAAAAAAAAAAAAAAAAAAAAAAAAAAAAAAAAAAAAAAAAAAAAAAAAAAAAAAAAAAAAAAAAAAAAAAAAAAAAAAAAAAAAAAAAAAAAAAAAAAAAAAAAAAAAAAAAAAAAAAAAAAAAAAAAAAAAAAAAAAAAAAAAAAAAAAAAAAAAAAAAAAAAAAAAAAAAAAAAAAAAAAAAAAAAAAAAAAAAAAAAAAAAAAAAAAAAAAAAAAAAAAAAAAAAAAAAAAAAAAAAAAAAAAAAAAAAAAAAAAAAAAAAAAAAAAAAAAAAAAAAAAAAAAAAAAAAAAAAAAAAAAAAAAAAAAAAAAAAAAAAAAAAAAAAAAAAAAAAAAAAAAAAAAAAAAAAAAAAAAAAAAAAAAAAAAAAAAAAAAAAAAAAAAAAAAAAAAAAAAAAAAAAAAAAAAAAAAAAAAAAAAAAAAAAAAAAAAAAAAAAAAAAAAAAAAAAAAAAAAAAAAAAAAAAAAAAAAAAAAAAAAAAAAAAAAAAAAAAAAAAAAAAAAAAAAAAAAAAAAAAAAAAAAAAAAAAAAAAAAAAAAAAAAAAAAAAAAAAAAAAAAAAAAAAAAAAAAAAAAAAAAAAAAAAAAAAAAAAAAAAAAAAAAAAAAAAAAAAAAAAAAAAAAAAAAAAAAAAAAAAAAAAAAAAAAAAAAAAAAAAAAAAAAAAAAAAAAAAAAAAAAAAAAAAAAAAAAAAAAAAAAAAAAAAAAAAAAAAAAAAAAAAAAAAAAAAAAAAAAAAAAAAAAAAAAAAAAAAAAAAAAAAAAAAAAAAAAAAAAAAAAAAAAAAAAAAAAAAAAAAAAAAAAAAAAAAAAAAAAAAAAAAAAAAAAAAAAAAAAAAAAAAAAAAAAAAAAAAAAAAAAAAAAAAAAAAAAAAAAAAAAAAAAAAAAAAAAAAAAAAAAAAAAAAAAAAAAAAAAAAAAAAAAAAAAAAAAAAAAAAAAAAAAAAAAAAAAAAAAAAAAAAAAAAAAAAAAAAAAAAAAAAAAAAAAAAAAAAAAAAAAAAAAAAAAAAAAAAAAAAAAAAAAAAAAAAAAAAAAAAAAAAAAAAAAAAAAAAAAAAAAAAAAAAAAAAAAAAAAAAAAAAAAAAAAAAAAAAAAAAAAAAAAAAAAAAAAAAAAAAAAAAAAAAAAAAAAAAAAAAAAAAAAAAAAAAAAAAAAAAAAAAAAAAAAAAAAAAAAAAAAAAAAAAAAAAAAAAAAAAAAAAAAAAAAAAAAAAAAAAAAAAAAAAAAAAAAAAAAAAAAAAAAAAAAAAAAAAAAAAAAAAAAAAAAAAAAAAAAAAAAAAAAAAAAAAAAAAAAAAAAAAAAAAAAAAAAAAAAAAAAAAAAAAAAAAAAAAAAAAAAAAAAAAAAAAAAAAAAAAAAAAAAAAAAAAAAAAAAAAAAAAAAAAAAAAAAAAAAAAAAAAAAAAAAAAAAAAAAAAAAAAAAAAAAAAAAAAAAAAAAAAAAAAAAAAAAAAAAAAAAAAAAAAAAAAAAAAAAAAAAAAAAAAAAAAAAAAAAAAAAAAAAAAAAAAAAAAAAAAAAAAAAAAAAAAAAAAAAAAAAAAAAAAAAAAAAAAAAAAAAAAAAAAAAAAAAAAAAAAAAAAAAAAAAAAAAAAAAAAAAAAAAAAAAAAAAAAAAAAAAAAAAAAAAAAAAAAAAAAAAAAAAAAAAAAAAAAAAAAAAAAAAAAAAAAAAAAAAAAAAAAAAAAAAAAAAAAAAAAAAAAAAAAAAAAAAAAAAAAAAAAAAAAAAAAAAAAAAAAAAAAAAAAAAAAAAAAAAAAAAAAAAAAAAAAAAAAAAAAAAAAAAAAAAAAAAAAAAAAAAAAAAAAAAAAAAAAAAAAAAAAAAAAAAAAAAAAAAAAAAAAAAAAAAAAAAAAAAAAAAAAAAAAAAAAAAAAAAAAAAAAAAAAAAAAAAAAAAAAAAAAAAAAAAAAAAAAAAAAAAAAAAAAAAAAAAAAAAAAAAAAAAAAAAAAAAAAAAAAAAAAAAAAAAAAAAAAAAAAAAAAAAAAAAAAAAAAAAAAAAAAAAAAAAAAAAAAAAAAAAAAAAAAAAAAAAAAAAAAAAAAAAAAAAAAAAAAAAAAAAHpXTsYAAATwSURBVAAAAAAAAAAAAAAAAAAAAAAAAAAAAAAAAAAAAAAAAAAAAAAAAAAAAAAAAAAAAAAAAAAAAAAAAAAAAAAAAAAAAAAAAAAAAAAAAAAAAAAAAAAAAAAAAAAAAAAAAAAAAAAAAAAAAAAAAAAAAAAAAAAAAAAAAAAAAAAAAAAAAAAAAAAAAAAAAAAAAAAAAAAAAAAAAAAAAAAAAAAAAAAAAAAAAAAAAAAAAAAAAAAAAAAAAAAAAAAAAAAAAAAAAAAAAAAAAAAAAAAAAAAAAAAAAAAAAAAAAAAAAAAAAAAAAAAAAAAAAAAAAAAAAAAAAAAAAAAAAAAAAAAAAAAAAAAAAAAAAAAAAAAAAAAAAAAAAAAAAAAAAAAAAAAAAAAAAAAAAAAAAAAAAAAAAAAAAAAAAAAAAAAAAAAAAAAAAAAAAAAAAAAAAAAAAAAAAAAAAAAAAAAAAAAAAAAAAAAAAAAAAAAAAAAAAAAAAAAAAAAAAAAAAAAAAAAAAAAAAAAAAAAAAAAAAAAAAAAAAAAAAAAAAAAAAAAAAAAAAAAAAAAAAAAAAAAAAAAAAAAAAAAAAAAAAAAAAAAAAAAAAAAAAAAAAAAAAAAAAAAAAAAAAAAAAAAAAAAAAAAAAAAAAAAAAAAAAAAAAAAAAAAAAAAAAAAAAAAAAAAAAAAAAAAAAAAAAAAAAAAAAAAAAAAAAAAAAAAAAAAAAAAAAAAAAAAAAAAAAAAAAAAAAAAAAAAAAAAAAAAAAAAAAAAAAAAAAAAAAAAAAAAAAAAAAAAAAAAAAAAAAAAAAAAAAAAAAAAAAAAAAAAAAAAAAAAAAAAAAAAAAAAAAAAAAAAAAAAAAAAAAAAAAAAAAAAAAAAAAAAAAAAAAAAAAAAAAAAAAAAAAAAAAAAAAAAAAAAAAAAAAAAAAAAAAAAAAAAAAAAAAAAAAAAAAAAAAAAAAAAAAAAAAAAAAAAAAAAAAAAAAAAAAAAAAAAAAAAAAAAAAAAAAAAAAAAAAAAAAAAAAAAAAAAAAAAAAAAAAAAAAAAAAAAAAAAAAAAAAAAAAAAAAAAAAAAAAAAAAAAAAAAAAAAAAAAAAAAAAAAAAAAAAAAAAAAAAAAAAAAAAAAAAAAAAAAAAAAAAAAAAAAAAAAAAAAAAAAAAAAAAAAAAAAAAAAAAAAAAAAAAAAAAAAAAAAAAAAAAAAAAAAAAAAAAAAAAAAAAAAAAAAAAAAAAAAAAAAAAAAAAAAAAAAAAAAAAAAAAAAAAAAAAAAAAAAAAAAAAAAAAAAAAAAAAAAAAAAAAAAAAAAAAAAAAAAAAAAAAAAAAAAAAAAAAAAAAAAAAAAAAAAAAAAAAAAAAAAAAAAAAAAAAAAAAAAAAAAAAAAAAAAAAAAAAAAAAAAAAAAAAAAAAAAAAAAAAAAAAAAAAAAAAAAAAAAAAAAAAAAAAAAAAAAAAAAAAAAAAAAAAAAAAAAAAAAAAAAAAAAAAAAAAAAAAAAAAAAAAAAAAAAAAAAAAAAAAAAAAAAAAAAAAAAAAAAAAAAAAAAAAAAAAAAAAAAAAAAAAAAAAAAAAAAAAAAAAAAAAAAAAAAAAAAAAAAAAAAAAAAAAAAAAAAAAAAAAAAAAAAAAAAAAAAAAAAAAAAAAAAAAAAAAAAAAAAAAAAAAAAAAAAAAAAAAAAAAAAAAAAAAAAAAAAAAAAAAAAAAL3Dz/1CtIkVAAAAAElFTkSuQmCC" vertex="1" parent="1">
          <mxGeometry x="675" y="220" width="100" height="100" as="geometry" />
        </mxCell>
        <mxCell id="SPn83IJFLfhqAifAaKUE-47" value="" style="edgeStyle=orthogonalEdgeStyle;rounded=0;orthogonalLoop=1;jettySize=auto;html=1;dashed=1;targetPerimeterSpacing=0;jumpSize=6;strokeWidth=2;" edge="1" parent="1" source="SPn83IJFLfhqAifAaKUE-11">
          <mxGeometry relative="1" as="geometry">
            <mxPoint x="220" y="270" as="targetPoint" />
            <Array as="points">
              <mxPoint x="172" y="270" />
              <mxPoint x="172" y="269" />
            </Array>
          </mxGeometry>
        </mxCell>
        <mxCell id="SPn83IJFLfhqAifAaKUE-11" value="" style="shape=image;verticalLabelPosition=bottom;verticalAlign=top;imageAspect=0;aspect=fixed;image=data:image/jpeg,/9j/4AAQSkZJRgABAQAAAQABAAD/2wCEAAoHCBISEhERERISEhISERASEhESERIREhESFxMYGBgUFRcbICwkGx0pHhcXJTYlKS4wMzMzGyQ5PjkxPSwyMzIBCwsLEA4QHRISHTMpJCo4MDAzMjAyMjMyMDIyMjIyMzIwMjIyMjIyMjAyMjIyMzQwMjIyMjIyMDIyMjIyMjIyMv/AABEIAOEA4QMBIgACEQEDEQH/xAAcAAEAAQUBAQAAAAAAAAAAAAAABAECAwUHBgj/xABDEAACAQIBCQMICAQFBQAAAAAAAQIDEQQFBhIhMUFRYXETIoEyQpGhorHB0QcUI1JygpLhQ1Ni8BYzssLSJDRUY/H/xAAaAQEAAwEBAQAAAAAAAAAAAAAAAgMEBQEG/8QALxEAAgECBAIJBQEBAQAAAAAAAAECAxEEEjFRIUETImFxgaGxwfAFFDKR4dHxQv/aAAwDAQACEQMRAD8A7MAAAAAAAAAAAAAAAAafKOX8PQvGU9KS8yn3peO5eLIznGCvJ2R7GLk7JXNwDxGKzzqP/KpRiuM25v0K1vWa6ec+Meyoo8lTh8UzFL6lQjpd9y/2xpWDqPWyOkA5qs5Mav4z8adP/iTMPnhiF5cadRdHGXpTt6jyP1Oi9brw/wAbPXgqi2/f+nvgedwGdlCpZVFKjJ7pd6N/xL4pG+hNSSlFpxaummmmuKZsp1YVFeDuZ505QdpKxkABYQAAAAAAAAAAAAAAAAAAAAAAAAAAABHxWJhSg51JKMYrW37lxZdiK0acZTm1GMU3Jvckc6yxlWpjKiSTUE2qdPh/VL+r3GXFYqNCPa9F8+MvoUHVfYSssZy1a7dOlpU6b1WXlz/E1s6L1kHDZIlLXN6C4LXL9jY4DJ8aau7Oe+XDkiVKfD0nElmqPPVd2dFWgssERqeT6cPNT5y73vMt4rZbwRXQKOme2tohqWuUePqZhqYenPbGL8LMyygYZwK5PdEkiHXyYtsHblLWvSWYDKdfCy7raV7ypy1wl4buqJmm1zRWcIVI2auvWmRi8rvB2ZJ8VZ8UeuyPlmniY3j3ZxXfpt96PNcVz9xtTlMlUw9RTg2mneMl7n8UdByHlWOJp6SspxsqkPuy4rk937HaweM6XqT/AC9f7ujm4jD5OtHT0NqADoGUAAAAAAAAAAAAAAAAAAAAAAEbG4hUqc6j2Qi5W42Wzx2HjduLB5DPTKmlJYaL7sbSqW86e1R6Ja+rXAi5KwfZx05LvyX6Y8DW4KDrVnOetuUpzfFt397N/N7uPuPnJVHVm6svD5843OuoKEVBCUr9C+ECkESKcSyKueN2MagHAkxgUlAscCvMQ5wME4kycSPNFM4lsWQqkTDdp3RKmiNURkmi6JmnCM4NPY/SmQcl42WFrqWuyejOK8+D2/NdCRQnZ8nqMOVaWpTW7uvpu/vmSjN8Jx1QcV+L0Z0qnNSipRacZJOLWxpq6aMh5zM3G9ph3TbvKjK35Hrj8V4Hoz6elUVSCmuZxakHCTiwACwgAAAAAAAAAAAAAAAAAADz2elfRwuiv4lSEfBXl/tR6E8hn7LuYdcZTfoS+ZmxkrUJ91v3w9y7Dq9WJpsiU7RlLjK3gl+5Pbu36CLkn/Lj1l72Z4yOBF2SOo9WSqZKpkOEiRCRqgymSJkS2oYlMSmX5lYrsY5kaZmnIjzZmmy2JHqEaoSJsjTZjqGiJjJNWOnCS4xfp/8ApGJVDyV4+8jT1seyL8yK2jiJQ3VKctX9UWmvVpHvzmma7tjaP4qi9iR0s7v0yV6Ntm/Z+5zMarVL9gAB0TIAAAAAAAAAAAAAAAAAADyefkPs6M+E5R/VG/8AtPWGkzrw3aYWpbW4ONRdIvvey5GfFRcqMkti2g7VIs8pkmf2a5SkvXf4maLs/EgZIqeVHpJe5/Am1NUuus+cv1UddriyTGRmhMhQmZYzLYzIOJLVQORGUw5lnSEcplnIwykWymYZTKpSJRiJyI0mXykWGaTuXJFCVR1RT6sjJX1GbGT0KcumivHUSp82eSMeacNLGUnw7ST/AES+LR0k8PmLhr1KtXdGCiusnf3R9Z7g7302OWjfdt+3sczGSvUtskAAdAyAAAAAAAAAAAAAAAAAAAx1IKUZRkrqSaa4pqzRkAByvEUZYavKLv3JtX+9F7H4qzNlNaUU1r3rmM+cdhVVp03NfWG9FxjrtB61pvzXfYtveIGTsVb7OWzzXwfA+bxOHdCpkej4ru/mnnzOxRq9LDMtVr3/ADiSYyMqmUrUt6270YLmVtx1LlZkntA6hG0hpDOMpnlMxSkWXBFyuSsVKAyUqel0IpXDdi/Dw870EHKte8lBbI631JmMxKpxsvKa7q4cyzNnBwr4i05ReglUlTclpz16u7tcb7X4bzTCk5yVOOr+X8CqU1FOcj2WbWA7DDwi1ac/tJ8U5bF4KyNwURU+mhBQiorRHGlJybb5gAEyIAAAAAAAAAAAAAAAAAAOc56Z9dm5YbBSTqK8amIVmqb3wp8ZcZbF12W/SDng4OWCwsrT8nEVYvXD/wBcH97i92zbe3iclZMvapNavMg/e18DbQoK2efgjNVq/wDmJGw2TZVL1Kjloybk223Obettt8eL2m9oYhXUG+9bVru2lx5mLFYm14x273w6Gvoapxb3uz8dXxJYzBwxVPLPwfNP5quZDD4mVCd4/wDfnl+0/XYPH2tGps3S4dSfKEZa1v3rWmeYVVx1PWvWiXh8U464S6r5o+OxODq4Z2qK63Wn8fY/C59FQxFOt+D47c/74G2lRkufQxtPgyynlP78fGL+DM8co03va6xfwMeSO5ou9iwrGnJ7vTqL3j6f3n+mRhnlOPmxk+tkhkjzYzPYlQoLfr5bjDisbGGqNpS4bl1+Rr6+OnK93ox4bPSyE6u6OvnuNGHoVKzy0Y33fJd7+PsKqtWFJXqPw/hkxFd65Sd5P+/QeYqzr0ayrqpJTUtKNWLs4vguVtVuBuMfUcIxttct+9Ja/ei6k4VINNdYvcfW/T/p8cJG+rer9l2evM4GLxcsQ9ktF7vt9D32ZeeMMYlRrWhiorZshWSWuUOD3uPitV7exPnfF4WdCcZwlJWkpQnFtShJO61rY1xOsZjZ2LGw7Gs0sVTj3tiVaK1dpHnxXjseqzEUMvWjp6EaVW/Vep7AAGQ0AAAAAAAAAAAAAAAA8pn3nH9SoaNN/wDUVtKNP+iPnVH0ukubW5M9PVqxhGU5NKMU5Sk9SSSu2/A4NlrKE8oYydXWoylo00/Moxvor0Xb5yZow9LPK70RVWnlXDVmLJOC7STqTu4pt69bnPa229vxZtMZibdyO3e+HIuqyVOCjHVZaMV8TXXOmlfizA3yKopKJVFxYQNnFacFLitfXea/HycF3dUnsa1NLiScBXUXoy8mWx8JEbKMb1JcrJeC+dyjo+NizNwPR5JoxxNCFS3fXcqaLt31tdtmtWfiZpZJ4S9KTNfmTiNGvKjLyasW4/jgm16Y6XoR7iWG5HExOAoKbTgt9vRo6tDF1HH8n87zy0ckv73s/uSIZKgruV2kru7sklteo9CsNyNTnZPscHO2qVRqjH83leypFVPAULpKC478fW5OeKqJNuXp7HPPrrnWlN3UJzejF7Ixv3bLpa5uqVI8/Gkb1YpQowltnKNormtWk/Qd/o1FJR0OQ5tttkDKc9KpZbILR8d/y8CLCbi007NFZMtZbaysQNnGUasGmtuqUeBp71MJWhUpycZwkp05r48dV01vTZmpVXCSkvFcVwJ+KoqrT1bdsXwZB8O4knc6zmzluGOw8a0LRl5NWne/Z1Ftj02NPg0bk4dmPlt4LFxU3ajWcaVZPZF37k/ytu/KUjuJzK9Lo5cNORvpTzxAAKSwAAAAAAAAAAAA8b9JmU+xwTpxdp4mSpatvZrvT8Gko/nObZCoWUqj2vux6Lb6/cb/AOlnF6WLo0t1KhpfmnJ39UImrors6MVvjBfqf7s6VCOWmu3iYqrvN9hHxdTSm+C1L4mFFqZVM1ozMvRVMxpl1yR4XlW+JZcXPQZsLXdOpCpHyoTjNc3F3t47DsdJwqRjOLvGcYzi+MZK695xa50zM3G9phIRb10pSpPotcfZkl4GHGwvFS8P388zVhZcXE9AqaPB/SJiU6lGgtkISqy/FN6K9Ci/1HudM5RnNi+1xeIne6VR049KaUNX6W/Ez4ON6l9kW4mVoW3NYUbKNlGzqGEoyjDLWeAMmYCrrcHv1rrvRCKxnotNbU0yL4okmUyzh7SU0tU9v4jr+YeVnisFTlN3qUr0aje1yhbRk+bi4vq2cwyhTU6UmtyU1/fQ3v0TY/RxFfDt92rSVSK3acJWdubU/ZM2IjmpdxfRladtzrAAOabQAAAAAAAAAUbKmGrIA4pn/PSyniU9zowXTsofNl2Of2b6pesx5+Q0cpYiX3uxmua7KC96ZfjtdNv8L9Z1ofhG2yOfPWRrUxKVi25YndlxVYzQL7mO5W56eF9xctuLgF1z1mYWKtUrUm/KhGpFc4vRf+peg8jc2ebeJ0MXRd9UpOm+emml67FVeOam0TpO00zpeJxKpwqTeynCc3+WLfwORSk3retvW3xb2nQs6cToYSpxnoU1+aSv6kznVyjBrqt7v0L8U+skXXLWwW3NhlAZQo2eHpbpa7FWY6ztZ+BWE7kSRt8I9Kmk+DiY8yK7p5Swrva9WcHzU4Sjb0tF2T/I/MyJm/8A9/hbf+XS9HaIreku5k1qjv6dypgoyM5yToAAAAAAAAAAi4hkojYhAHJ/pOwujiKNa2qpTdNvdpU5X9016DW4SfaUo846L6rV+577PTJTxOFqRir1Kb7Wmt7lFO8V1i5Lq0cwyPibScHsnrj+L917jo0JZqfcYqytPvLKra1b72+YgSMo0u9prZqT5PiR0aE78SlovuLltytyZEuuC24uDwuuXU6jhKM1tjKMl1TuvcY7i4B7HPXEJ06EU9VSUqnhGKS/1nj7myy1i9OGEW3Qw0U/xaUov/QjV3KcPHLBLv8AUuqvNNsrcXLbi5bcrsVuWti5a2eApWV4v0+gjQmSmYMNRvK72RfpfAhN24k4q/A3lHuU03ui5PrtLMy6DqY/D8ISnUlyUYSaf6tEiY3E9xQ3yd30PW/Rnk1/a4qS2/ZU+aTUptcrqK8GVzllpt7k4RvNI6Vh2TCHh0TDmG4AAAAAAAAAGOrG6MgANXXgcoz3yC8PVeIpp9lUld2/hVG725JvWud1wOx1aRrMbhI1IShOKnCacZRkrqSe5ltKq6crohUhnVjj+BxSqd2VtO2tPzlxRSvgmtcNa4b18zZZw5nVaEnUwylUpXvoq7q0/DbJc1r48TSYfKko6prTS1X2S8eJ0YNSWaBikmnaRbKLW1NdVYpc2EMpU3tbjylF/C5d9Yovzqfil8SWZ7EbGtuVubHtaHGn7I7Whxp+yM3YMprrlLmy7Whxp+yO1ocafsjN2CxrnL1FLmy7Wjxp+yO1o8afsjN2DKay5S5s+1o8afsjtaPGn7IzdgymsuXQpyl5Kb6I2X1mivOh4JfAxzylTWxuXRfMXewsWUcA9s3ZfdW3xZhxM4wckuLsvEsr5Um9UVoLjtfpJWRM3cTi5KUU4U3trVE9G39C2zfTVzRGSVrzfAktokbJWTamMrRp09r1zna8acN8n8FvZ2fJWBhRpwpU1aEIqMVv6vm3dvmyLkHIdLCU1ClHbZzqS1zqS4yfw2I31GkYK9bpHw0NdKnk11MlKJmKJFSgtAAAAAAAAAAAABhqUrmYAGsq4c0OVc28NiG3UpRc3/EjeFTxlHb43PXuKZinh0z1Np3R40nqcvxWYNPX2dacOU4xml6NE1tTMaqtlam+sJR+Z1ipheRGnheRcsTUXMrdGD5HKZZm11/Eo+38ix5oV/5lL2/kdRlhORglhOR791U38jzoIHM3mnW/mUvb+RT/AArW+/S9v5HSZYPkWvB8h91U38h0EDnH+Fa336Xt/Iqs1K38yl7fyOjfU+RcsHyH3VTfyHQQOcrNGv8AzKXt/IujmbXf8Sj7f/E6PHCcjPDCch91U38j3oIHN4Zj13tq0l0U38ET8LmAn/mV5PlCmo+uTfuOgQwvIlU8KePE1Xz9B0MNjy+TM0MJSakqWnJW71Z6etb1F91Poj0tHDkyGHsZ1FIplJyd2yxJLQxU6NjMkVB4egAAAAAAAAAAAAAAAAAAAAAscE9xeADC6CLJYZEkAEN4Qt+qE4AEH6oXLCEwAEaOGRdGgjOACxQSLioAAAAAAAAAAAAAAAAAAAAAAAAAAAAAAAAAAAAAAAAAAAAAAAAAAAAAAAAAAAAAP//Z" vertex="1" parent="1">
          <mxGeometry x="53" y="213.5" width="70" height="70" as="geometry" />
        </mxCell>
        <mxCell id="SPn83IJFLfhqAifAaKUE-57" value="" style="edgeStyle=orthogonalEdgeStyle;rounded=0;jumpSize=6;orthogonalLoop=1;jettySize=auto;html=1;dashed=1;targetPerimeterSpacing=0;strokeWidth=2;" edge="1" parent="1" source="SPn83IJFLfhqAifAaKUE-12" target="SPn83IJFLfhqAifAaKUE-7">
          <mxGeometry relative="1" as="geometry">
            <Array as="points">
              <mxPoint x="570" y="460" />
              <mxPoint x="570" y="460" />
            </Array>
          </mxGeometry>
        </mxCell>
        <mxCell id="SPn83IJFLfhqAifAaKUE-12" value="K8s Deployment &#xa;Configuration Repo&#xa;techops/drp-k8sdeployments" style="shape=image;verticalLabelPosition=bottom;verticalAlign=top;imageAspect=0;aspect=fixed;image=data:image/png,iVBORw0KGgoAAAANSUhEUgAAAPYAAADNCAMAAAC8cX2UAAABSlBMVEX///8gHx/0yrGc2vB8uuYAAACsXFEbGhqe3fPzx6weHR30ybCa2fARAAAaGRn70Lai4/rZ2dmkpKQvLi4SEBAXDAc4ODhnjZvGnIfi4uKIvM8nKy0NExZ5eHguNjgODQ2T0e309PRYWFgAAAtCQUEaFBKJx+rIyMjv7++0tLSqVkrS0tKnT0JTR0GGhoYADBHasZplZWVPaXKZmZmSdWb659z2077O7PdOTU28vLyvr69zc3OOjo5dXV2tinj88uz43c235PTm9ftMQTt/Z1vQp5HjuaK2cmnHlpDo1NK/hn7ZubXTrKi+noucgnOJc2Y5R0x5p7dqkJ7F6fZ0rdVnVUvr29mjRTe0bmW7f3few8DcqJPIiXjSmYbisJpKYWkYJSpBU1m1zNVNZm9beoZdhJw9UmNJZ31mlrlTeJJFYHR8sMmkz+262vG2lajvAAASD0lEQVR4nO2d/UPayLrHiXRMCCGAvFQURAQEAUFKqyBoVZR22yq0Xbeu2929nrq9u+e0//+vdyYJZCbvUMzEc/n+sGshCfOZ55nnmZlMJj7fQgsttJCR6gAAsV0/jD7or6QO620W/lL3QX/FuXKAZRhezEL2TOmBfqOUYQDIijz8IVB+oN+YUh3AKOLjkHz+Nk/VGRDnxz8CVub+AzOpGWdU8VnQ7sz18p02yPLYL4jtuV5+ZgGGlAiYw7ldvBMDoub63vDykhabYVjA7Mzl2hCa1V0dzNebZlQvqysYAk/+eHSrFgygGSaemUOpf1gFrROOXf0oZXNmLpez+Lbc1Lm3UqWxeRZ/Vul9fGwV0NMdnKp2WvVuO8mDibJM4SjTWylFyTpogbjZhYFVbbmklCk2LF+sqh7X6TVjEmY2LrJYaOZ5UYxnpW/amZWSjFRNWl22alYY99SxKB9s4qgdlju9dhxSxY1aKiZehEeBZPcw1TPxbwV7foliZrWssBkmG+sllf6VQ7GohqyvqW88rqtuXUSGzdrYeHrFPdAtb5pGngeTWKAN7fO1rVrhw8gLGcwkbT+keJY2NB3sOG1oOtgibWgqbZtnaEP7fFsUQlqSNrTP16WQwI5oQ8Nemk135QGUrdOG9vkOrTunDyEvzKZFKWA/1PzsFMpRwPbCZJrridsLfVMKMc0LEY1C4/bIRHly7gNqG2W9wJ1yv78CmrShfWXRbWMj7hZt7IL7xmbop+6M+2kbifLtXsvp4odUnGZYy2WdTwTPWTQny5vuD7/G4rPUbglVabk4UpbajU8K82iYgN0d1QcStXgmK06p05Kkamxa5jZYveGu6AzFKEwVawQoUFvdz3cLez4Lg6YShSlTrcQt97FjFEZeWrnfM/eAj9NYorbiBWz3l6hRWMWgl/t3w9apjb1wud24PdG03Z9lod5Fk+X27TAnEY0XxTQmUWRZi5bBsyJ5fNrB5KTbMc1uORqfTudju9fD52MNz693d/uxdAMqrZH0Way/u3t9Lh17dXUF/3t+3YcfW4cQ0eVRmHUgZxux86tVMx3LWMPz8+FQYjw2P/S837Dq+rsdyq3GIXxjVwa5uNhTdHFxYYpG6EI9Z08+5fg6bf5bbi9asrgDlE4i6L1BcEmjYDAwGAx0dSCRwi8CQd0ZSwHEfrzbMP0xlwdh5j3yxjUkGegAZlZwb3V12DBr4i5jm/ZW8s9XLwLzg5Z0sXpsFtpcxmZMitF4vro3Z2iogSm3y08SxIxLAann6N8Et3H79kTbbpxrqIOBQEAfqBxIe2Jg9bkht8vYhpE8vUtSB4InL16c7E8PHgzsozODWJAIrJ6n6WMb3RngY0S7DgZfyMe+PJkyxgVOlF95geW0wWrf4DddxjbqrjSOL3DqffXoF1NxB16oZ+6r3HvHBuZ2GftIjy1em1FDg0/BHXiJn7mkcl8YuLnL2AZ98vQx3rAD5PHO7Y3bGkk9MbiqS5tur7HWj8DE6z2jwueU+Y99h3Ft7CXlcULGKmygM7fbQxH941+N46C+8D+9qtUqrxGBUzeXXPzlm1qt9usvugpb5TXmdnuN2o4Wm03uaQvv872rLUNVKr/4nJo7eIIqq1ZBp9XeShfBKmxwrQkpbt/11E0qpc8xcwaXpIPefkLFRwQ5p+ZG9fVLrSKf9+lWugx23StNn8Xt2RXdFGLjOIwV/gQd8/LTu7evJIDKG6L0VoIH3lRuXqvV5fNhaf9C00ty+7nHXFzTyhpEGJd8/A1yUrn8NejmJw68HPn4be0VvL5cXe+k6lOxA5qxgOsLdzS9U7aP+7CUvXKfUJN+I5f/tbMchhLArzUE+0quL+m3sBymadyu3w3SJG5xF/NxOY7fflKtjcrvpHFDN8nVlifWlrwEbx5hTQpz/VFuzYyxeK3Dfl2pvXt7owS12kvcaObYKIwvw7Y9joVSMFeTQPi5BtvtVVqaxVnpcxz7BB0B3VuJyAj7J5/PSQaDTiIlL+U01DjwqBAmQ7n7D8LlLLDlQP5qGVPt1lkoh7m+gp2mxyasTeG+PrlOKX39MNhvLLEpLNoh91shQ5qE/StefudO/tbS2kMCm8LiFbJxs0mDkIZj/zJFSMOwpcSNhTQyktNYmQaInkMax5b6pqTZHCewMo6NnIRIYETediWi5crl1FjlXM5XJzI3ICb80PF4+VEbddpducFrS0pQ6onhPt5LkvamwIpVLlvu2+MQM1XtrPTq3aN2jM+COJMsFNpbktrtQjLGMkRMy+NTK3Ln9FWFsJqTIRiKCm/V6pKbNu4mxEQDL0rFahPFAiAeK2x1M72VTik6xWKHcnWn1d1KxpJbmdbKTimaKptUITFp3LjShXKsld74nEU0aSiC+bhUfVhnfkCkbbMlHDlo/2rnsFVvFmLJdrN+WEpZeUGqtNJNJtvd1k7VDBUX0VEjEveSPPB8MzY3CmjOB5634+qSOudE077M49nDyUYksAo6Kxloxa3eTtQAKpXMtuuH1SkaRw4QWyOFNaX3TdxcGjc7nGZASeDdJ5laStp4TCDT9nQrOFKdVpNhdKfkpk8GROrOG82bvq5BLaNwPNWk0m2lVqkptsbnTslAPkOHfAZI6bRytLSz0st0j7Zg/EjisTw9JMytTCHmbm/lKTEjYwfDBp/JFfbT7U8KFJ4AgvgNQJ5JonB21ITR67BTTc0himtUjsKY3oScha1mvXXYQXEOJYsewEuht5oqgxsjvy0vfzaoi8ktEVm4l5BNG0R9OZi9ylEYvVZ6MOGg4mVgXLKMX854qzu95jpbQNHQKCDgO2M1LnHjKdNpigxy9gC2+8pnA3uTE+WYi0Mfx5p23GBjilyqhLJQTGzXV0qz+XN0p94GyW6rY7VxKf64CBsL48YLLqn2Nuqp/C6FO/3nBPfLJeKSeOoAVuWCOUkq/UrJeebORQ+7hfVmy0l9dbGolj8mbBccu+vLfaNw9gfCvjGwNuTeV2qMbBpEHM862D2sHD2sJ2NHLXv2cqlXSDZXHOexHKP2Wfi0pqkGAvsnJydLJjd6P1cqyyZrAIKBJXjifoCsLjygTfGQZ2qnXkBb7pkilOrryXpnutWr+ECMGHTLJQ0arT8a2/s381RucCIx6JxyyjRXbW2JTUP0LTFTmiEG4huv5K8MnXYuCu9hYTw7y92QaKtgMFKddY0ynsXyl864w4Z/WgsbAoizbsYxz9ReV7l5h9yff1P/dLTGJ4gnLzZL6TlHUgT3sRPuyjhzhX+v/WZ55Pi4oerivGXuclEtbFAChvbcEFbuqIQHFcPUrTvhXKVmvbC9q6wOth9ro79nD35TewWdO/h7pfKHA+jgtTrOjosesTVSCtt9V8wPjQYZpD7XKss3ldryHw5844JR2zUoeGFHJVUZbFftBnNlBx7+4/PN8qvf7Qfh4cF5fnJlHnhil25c1ZjawvlGejgIW5PDr20tHQ4Phg3V1Nm4B/YM06mFvSWAT4P+FST/gf4LPPfyGqjQceCJTaT0ytUBFtPZRr4/vAzOhA5PGlyeM3kcuumJbG2ocg/gm2yz6Xy6f351gczuCF8+brB3POzDU1XfyYKmhwK4kQ6TgNilmk038g0xeT28urzcGwTDpgoO9i4uj4fnuww8IY1dIg5Anbqlc51ept6yGrVE6wzIkqsteFZMQ/x8HgDouLFkv7+rqN/vJ2MxJg2/Afk8elqKeFqMh8xHHni3RBTto482zd+yKky1VwDAZPt5nudZKFEW+hN+YrgsXwSA7U45En4gjQdcfAjELK1Q3snEptuIniBGNXvU8kw/tKyErIQgbIAjm5FcudQ7QuXPxp3S88r7F9r1HW/FMNgPRQiJp8KfRZB1ULZy9bDVLSQdccdihW7vsOoJv9aqJb0TIREqss82HD9K3JPfrmEpAAoeeGeIiQ5QtwR5OjuKcBsOh4FbwKGoZyoznR5ATy+gyJZYi9wnHBW0IL9IJQ4jt0HQZsdvVPEyt/8U/VeaUgmtF5m4g4mtLeAgpKE3iiB5smH7zgRB+r90e5tniiP7EYLjbTuktOWJzXp1OhCEM+kPCaZ4H1mzm9sqT7GjAeyheHOgdSoIH+W/0LaXEDtyZ2OfqTYrgaMOTzZvwS+cKn+ilYih99zI4BVYmKbdOzALKOyVZCsMW3qGIJRgrTcCmXpnGuCVGWFck7btm3TQi1brAadp2bI8OGOmkXTDE4W1hGnamWH3pTiNDeCm0Y4SzSMfTB3T/M0j5rncO3cATCQ92gt7ax9CZvdeTY0tHpnu8EB/S2obSWGaT4xYhgVbBg28ZLo/Juj4cmab1tDazNO55DjNMvz6/Qh0SeeM9oqAMDaPmRe1CrMNYr3wfhxrjdciJt5HIvcA8PUdtMA1hxZyZkH6/VMcm2faKrcWG98G2gvvvrKRslqp+CUS2QwxiY2RPKD4H5DlEx8iBDaoYmsfSGw2STxI6PVQ7ptszZ4YPb0rineRiLDB8hubEWHEsqO1ZwmsxXbxbKbBjhFrOT3ZP9VI2YifTRQZdsRFIn9K9JFn8J8h/GYBBLXCxh82egzYuZja/Swy93dF+L+7p39Kdsbmy9HrX6yw8V6sF7unOuWSqn/yRQlFhKaXsNUYhh5fssTeIb98BDoy65Rg2OjxJUvs1KPD9rVMXquLY1dtsH2PD9uXahuC49gpO2y1s/posGE/tK294YfKr36CVvtrsNWnwCVsdTeXR4QNLY5u+IG4dD9PmQNOYjXgs8NW35f4qLB96K5XK3NUiMWS6B3qO9UcRmaPnXm02DotsH0L7AX2AnuBTbvcP6gFtm+BvcBeYC+waZf7B2WO/a+Dg/8X2Kenkafq/HFoTeA21Mch1iMCmmv978MOCQJHYHMkth/H/teZ/aU9qrODUy6ygWH7HWNDVxC404NHx372kROg/DNjc34/ugBk9+56TFIysl/Sj2BLQlf66H2rn536x8hzwVbQ0YpPz0rDPC9shdyjNj/QMs8RWyL3oLefneqZEba659VU2O/12BK5t0xuAu33c6EJWNFvh30/wS7eRwwv5y3wjybQfm5tgs1ucDbY3IfJtzxjgi2BeyOlnZlB+wkDfonYYat1ZOblCrgXwvqpKbSf20wQINbYfn9xEgiQb5hL4GhD+zhzaj93NzE2z/jt2jb0DfXrhFnrVgxOt4VbOLif475glB84Pbb6xiUJGzqHukor9N6K20+X28LSkc2RClkccQbWXsecGkFGPqitmwk9jVg6OkVucw+PrN2Hiir1ut8IW9u2oZvj3BsWcQ1yU6P+aErNPQMqNB+6EyQAAnuT40YqNqPU1lOsstjQnQX3ZDW/6zKnxryVTbAfOLn43H0C54z8qSImNjnFS0YYeOipFTclNz8wd/FnIR49sswWE6GNv/yR8TD0y4RIvNOlcaXGIv/5GkoUi+gxOT7xxSKu0TK3ecbmYDgrFovro//96+cnT55sjpHUxpyAkR3vn0wSlrANT/j7n68bfLGY+LppTg1FB9sqY0c2n+CSDsUw+QT6hBupeX1dbv3kaZtWMY1WULPARtrWcmNtGWYnsh5gYkeZe9s5NDVsm1KRlhM4LDsVlb4n9hGfWItwupryIrZ5/jLg3l7bmASwIiMoVRb5onKHPgg4tR00tZ75mZ09COsxEw9PrKvuC+2tTkT8hXu4PTatgZjF4EspmYrx99jWxdC/MVNuPvl7fdwTZ0eYc9i0ICRK1FOZ+6+E3HcJfUUpbXt8BPrqn/WQNORMfJ2iYdPslJt3WCbGnGg9FEokNv75mWi5SrX8/W8+EQpt/KwebWvs8XPFVGQX1fxYa117j2Fta7/++T9r27qvLaip9cgl2dibw7A5IsJxGmd4QgRAu4BGmdp6ooHEFghKqZdG1oNzbC/MplnFcxybCOwyGPbvbb9jbIHzxKTxgbnBSWyOxNRWgzNsgWowI2Q+UU5iaxq3xumdYAvUWzUhE3ASmxid+GfA9tRNEVlGd/5ssM3/aYQteMi9caE7YcIDYXv4Ti/UgYbcAltwjo1Wc3h9MYd0b1+YG7bg9bUMqs4kows/jC0t2vHevXwroeVZkHxmbFRtj3CJlqSzg2/bJmDW2MJjJVaVOzv4juih/SywlW+/ffv+6IE1yp2dff/+/du3b9sI0D8ZkW1/k2DP/stwF1poIff1f/96fiFYd7JbAAAAAElFTkSuQmCC;fontStyle=1" vertex="1" parent="1">
          <mxGeometry x="436.11" y="437.93" width="97.79" height="81.5" as="geometry" />
        </mxCell>
        <mxCell id="SPn83IJFLfhqAifAaKUE-19" value="" style="rounded=1;whiteSpace=wrap;html=1;" vertex="1" parent="1">
          <mxGeometry x="827" y="80" width="255" height="455" as="geometry" />
        </mxCell>
        <mxCell id="SPn83IJFLfhqAifAaKUE-20" value="" style="shape=image;verticalLabelPosition=bottom;verticalAlign=top;imageAspect=0;aspect=fixed;image=data:image/png,iVBORw0KGgoAAAANSUhEUgAAAOEAAADhCAMAAAAJbSJIAAAAk1BMVEX///8ybeYhZeXS3vkua+YqaeUkZuUoaOUcY+X8/f/u8/31+P4XYeTx9f3p7/z2+f7c5fo2cefH1fdRgeltk+yguPLg6PvO2vi+zvZ1me2WsPGCou6nvfOxxfRciOrI1vd6nO1GeuhkjeuIp++uwvSQrPBVg+lBd+edtfFIfelpkOuOqvDAz/YFXeQAVOOmu/MAWeO1iXdRAAASkUlEQVR4nO1d65biKBDuIARUjEbteL/bXlrd3vd/ujVqFAiQIontzB6/M7+mFSkoirrz8fHGG2+88cYbb7zxxhtv/K8Q9YejwRmjXe/VU3kKWl3GfErOoD7arquvnk/ZqHxz4j2AmTeuv3pOZaIn03cBC3eNV8+rLLSnKEVfDBQO/xf7eNyn9y+Bj1a1V8+vIKr9Dscm+uLzSP1V9OpJFkB1smc2+q400vlfS+M6RFn03Wgc/I001sde5v7daSSnbuvVE3ZE4zNkQPKuIKz7Nyk69WGInOi70IiWs1dPHIjal+870xeDsk771ZMHIFghCj1/6X3kneMfrrBGI5qfvguNrNN/NREWRIOC9MXAaDF5NSEGtLqcFKbvQiPDf6JxVema1U93oPDnD1PKZ0u9+ZAb+Gxc/UE0zjYl03eBj7/+EBqPnTL5U6IRHYJXU3c2jzZW86gYsE9XL6ZxsmBP2r+ExpcaV9V1CDYfitDIX2Rc1ceO5sNtvjnuzDONlV+nr7HLQ59HSXewzbHxv25c1Yeeu3l0Bpo3Yt8GyPRXaUTT36OxdmA5zaPRdYBjnu2PDY/fMSCjVX71unkbY5pPABO+OT6fvjnJTR8ZJKNMcvG4dzGunmt4RAO/gHlEV8k4x7wUxudx+zwaWwXNh1IovCjl66ZtnnlR6RZVrxNBU4BLb0Db8o2rXgnmEVkmo33RgkNhFO5K3cdZKeYD9pNJLUsYzUfD0qJzvU1J5hFLdK88V34K2Pe/yolcrUozb9nNjdbg5YyHfa8EuVqd5lJAtPB/rmNG5Q2JukV9VtVNUaEggB6ug/YKilJpzEVBTh2VOBmPdK+DFroOVdBOoYujV9KJuYJsrqMWvQ5l+N0iFO5L9VHgxXXUcT7TxAReIA4QlbqFHt5eh92VS6Hn5aewXHby8P467GfJFPL8QblRiYL0DHRTTPvlsoag8DpjUaorDe8TqVeG1iYOvMhLYOCVSiG7O1qaxYNwIrCX1208K+sYYkIR4v/c8y2qmCO/zFBVXgfOsIxjiM/E0elqfWwJpkCrvT5MCWI+LmUz6TAnhcWPC/HpYt43uayD46FDWAlh1Yfl6YZGWPCHfTT9bGVoxtFkQIrHPsJ8pmKrkFAn3NvB4g2NyZQXPA88X0rV2ChoMMladYKmLq7NaEX8bGY1f8If56JwbiID7b+noU0vIejbNZTS2GXkUSEaUuMnHq5YJ2wNa0bjrJ7a0BhgwXyZJ1RU//TMq0a8cdAIfoysE+YhMDAcQ367fI76v2MU5lUTGyuTQ8i/2bkVk2jgee78vt7X8JDMPd2Sk9x3U4xoqmVEOk0+YNKUWR4L6qDnGfr1WIO0z4x1CiaKrnF6G8nm7httG47iw5/ugL3+nAkUfkzUbeZfhZOZgo06KAkfLNgzOLES09MFdYN2TKbCh8bSuSC0lODXl0wFCQVfk9Fi9d0dUkaHGBcF5afAqHRhPO6N1uTQEb7X6u76kdEtfxQXl2zFUTsmAc7clW+jIY634nL93C8N9G1werU+v0OOKBMpPFHEt4O1QempePfDKC/b2uhp9d0F3Lfx7iGhuF6TG6OyuXaYaLj3r4YSFWRQFDMIJoh2xlruCrY3menvRY1zYlZ83JXvpum+j6fG58K8ZjgmAWk9Ce0NTyaFibAZwY0Pz0Syrk49qHdofK6lZWsMbOlXW1flu2X1FlFfKFkKDl/dk05aT/aC1YA9YVVqgo5J+FRzhpodFnanQliiOiZW9Ry5XlOpi0DZRrSV7liNGtNWCoJCQbLIhhlh0/Q+NkaS3OovMoIdaO1IYaabDbOujS9q32rISlQd68oZIGhkDXjWuplpRmTuRmDVKJYfoL5ZVZqkNUyRwmpKnaDEcpeuUbb9iBduykYN5ITic/23G5olT9zBV2zSC8hXhik2uqAET+amfLdhIT601M2qFWqWXNKFtDlDaKOdY7SFOQCQm/INdbPpoiIahTym8Fv8zLdufEI0F0e1A5xKEp0EApqX5X+mvjrW23CyJBhox8c8fRhrUG+RfAwyAXZCheqy7wyHRrZvTKI6zRPwUBx3yT+pgCPtvuohae31Qkq2jPUZNZgv1aM4gTv8mEt6JnzhSFqv/NKeQ9kdpg0hEo3LrAbPTPF3DhR2oT5a9KP5dlvniENSYohuCZHWP2A2J1Q4Kd9Qb7fhmq1107wle1I0liw/aMeqdsAe8RB+50dQF7TRAbRO6TRMUl1T9y3FJg+dyTWTBoUr333goKRjXqSOwoeyHFA8CBhZlNwldL0dlO8V9L63eEarB5lTmbTAFYl+nYgRVgN6Eh2U7w2M9S1bGKNNxYWSfbYt8U9ob2cv4HQ83IEexBpwzeRTmGazxlIQ9Vz6e/RwNmGmsZ6lD8+gdyKFKt/ATCi8FZWIfqgZfkzvy3+S/hDcg7++LghQoZKqZHDdpsCg3kxgRo/k3qqGNNTwWmWRjMWk/2/cJ9XVuKJm1JcskTHwJIreaitg9z2moi9wjM7/oVGbqqMrQ6jX8fbyG+SkE3/986pwcSzosZEtNDOqOYZrhjEjaTPMjoRiTJiywbPzhYlRR+cwvRgnshSbA4U7ginfwGw26fa56iiY6ZS4oEv9Tcqd1luGi6FO9g2vPy86kMG3Pocp38BsNi4eoJtbBzOtGVoLdKQ0tLL9xtUeFY2WJlCN9HUrnAaMJSSD8yF9Da5vMLrJ8mIsymZjxF0GUPkGLpdoqwiLgpYFCiGam4cYR6KeA0wrxj7kV4BuA/GcVMWv0E7uOohgL7CPLMmAl74q0LSAnWpMhK2SLQW6zZlIF20lXpT0POCljyDlCbCSHYnjlVNCcK6y3QqVh5HYFOj8o3PAD8H0XNF3V1UlHc4TDG6rLixpEYF1p5BU0xpMMIvs0EqvL3MuZtFZ/eK0gLoyzj4hFZjUEo+0ZnKYubiFPuJwueY3RGFmiWdK38lO5oGlmUtpudoLlDslX690WyRpTeaYtASA8q33RqcoXAiiVH9ymUOu2Uh7yiSbHeh3yL7zm7Ds9aT8JYYpDzXt41jFLWgH3VRSgSEcK6lNP1AXbtZtHMBkFhXiLIHh5Poqnw45ueCkiqGBYX/EsLEhCS0FnnVTZUS37xTOH18xpdP5infiLvCxGnM3UIixYFxB83kzlW8gu4txFtPqKlwaPE4rWcisZFpWX9iPCOrhzDr+QO1IjLNogxyYcOXMLwR5RKVg4kd1ow/Ti4lOATit305gHcoLwnWXdutggvBG4ZaB9CmmSJvhlmqKcUVnXgCkz+P27HJgdFuiUFEZMeXbeT+lWshXCk3xUmu89JhyRETFCahrZSrf0MI5MfZ7eMzrvHl8M6zoEtxkhV7rgK8dR1suJnaJnwJTmFHnBY1ui+cwoRD7yP+emPRC2SgzyvTWT4exxF2ci0J7qmkVGskSlaOYSzFFdL+aWbzqUv4KppZPNvrz7bUsKheXYqvnuwJVHERW2CHK8Pc4q3xEVJ2zHJvVym7qMyJLGqgstSrfa2isjgjlxZ90dAQ4LsTkBEhmSK0/PwlzBcc07XVeMLXbkzcB6HlqozuD+AhoIQtDQ298O4Ok081MwHv3lPXGrb0wCvP07ABHEa11XgG4tpPnqhaLW0Sz8DOXL84h7QSZlW9oEy7Mjzmdos3xOOc3owOcQnNE+QBzs1GezvX6BVROQClhUb6t9z0mhFLEeLhZ/X6PvwsmHT9+5iSTQrw1CQlTEckZPmfb6Xw1XLejF767UQ2Ou/l0izg76z0WSo11XsbKMBr+RK6ys1mZHL4hHVYn08Xg8+jU3jJo9fq7jjlx2JjmY3KzpbLzrKg2WpNhN+RxQTrlmaUscQdp4p+3ZT//aQcunViCgemKNNZ5GRx28MTNWus4HHQwf7AQ3mbM+VHFiKl/PuTT0bhnrhdS8GUg0ej5NhxDUG1f1N4NOqGPKJFt8axNVBNNyZlOst2M1j1IeMeUb29INQ1Oho+nsyWqyqlccXTmSd3PZS2PzpuMvbgHw0lVL4P0PEwXuME4M3mzFArrs68NpV+RaMabM3D8DBFidhJKDrlg11+eTuFAMT9NlbwG88IkSsVtqLbnIY875VJ+Eu0Dk0Kbmf9hjNCLPuePj/HpUmBEGF1OhAU3uSQMtXpGj+TdMRuswoeIlmxpk9mVfYaHhknKfo67lwcT5g2S3YXVSD5g2nKPhO24Pv3YPcm+FoEVTKVu2UmtkUnNEL8px+/IqTOuNJvBl7HSxHTlGw8TZuF0g1R3n6T+/eiLsFVp0YxSv63PwGKS6qsqzMRnXmhuNYGRYTlt0V+NoJQcItVQt57qWva3iHaVG1KbN4ClLaxrDqvNzjMGoMyNMPSQUvd0QpEordRmJ+xhXzWedQwuZxm6duRipmThmmtzIypuh8YwUa/7a+SOKUFMzcIqDmPHflWYGq0DQ5MBI5B4WNIiQ3V1JFvBlAtWs/tydaVjGxmLT7ihPUy2sUQSdupMlWKMu7xVU0JSeg2XuQwYwn/AovC1HHunyjXiKT6V92p350YlfqiqGlQ+vs6n0OrIc/D3XCAWaH80ZKVb2SrhlMuVeurSECm7+ixI3VZdDWupWLl1T5VFwky6gpmsWIhWhNJ+TN4lIu+wSekxzSizFebUrWWTLC7XAgsoRpqUl6vUMYj3HVYSjSNAeyVx5EWmcekobeSr+WP4YAEljierLlz+o6CzKFLmA172dAXAHdJye39CEc2P1B8sLaaqJMttjx4bzBRH5afbqYG1wXSUNkoMIkn+UYIvqpxFn7o/Y9UT23JTQjiw/8fBSTyrfRlvLbKQxC6aplLSVdK+pa8rLFp1a4KbLWUSgKvFLiAbWXVZx5eqciGkL20l2yb+QLqDz9xJjpIOOGLQcNMi0Fz+etsjSnW8RvWUC1Li3EQ/VeD14/jUp4PTteX2TBVXMkuCDZNM36buS/JVGlA+UHcAXNF1xcmpi5qjssvVDI+hlF76pWW2k6QRzFNJIvYGMimoUjgLJmerAb5NFwwMPbU2lu+cbxC3i9nNMR/DTdp4vsXza2ovYO1kEYROYpTsneOSTUeFFxlPgdGHZwuVOxIIL64UEDmaw8bk9alxqZgxWNtyJDA7AqQDtKL7Boz0R739j4nfsY8M7oaZ50agq5RJ4ChtPKb1HjQmc4/LAU3sYeIzvh8akqjWroZ4vvalH4YuMrZf6hhOQ9D/WoYe9RFD538+9bbfu6OpD2B15PhoZJ7Ul+S3XP02hFrEYyOq9NrH46xXCWxyL+q4thGnBR7x0FTDZEBqVpcHa0AqggxAEYkF7k3+i71uE7k/a6OqjK4YOv+i92/+Hp/Rv86tvf15MQLP0sb1MYr8LxV8WLp3mkDAnSKMaDrevR62q5t2ODe6z6PLqIAndt5wKvCjjm+UYqfeUEa4Pqr5iPu3gPlTjyVx+yVbjp4Thk4X1COkVvPD0SwzByhaL0/3nYB2xrmiuJRJ4GRJ3WPo9bnvURR21+b66lp7taeI4G0ifuGZwPFauvWgs6G6hQuAu7+rf4tCxw91TIf9VlMSetVabz0PzxrcJdaBeaJZOjzeg71yns67IIL/bNKOKhDi4phQxrnXWQ5Go8NqNO9OF+TEpMy7xPyBtjGJLZNSHwgGP5XmJ45gzYm6ZKjGICRVpnUPvUN70ZQmZRKAdZsbLzbcAirCIxzAQEV5UiZBF3RA7s0r9dknFtzjH7DmMRlduPKgCXGwP3ygzpFpjBJJBLmccFiilEkQQRKsk9svxxs1jwSxbNUNo6c8Q56t2zxCuzmeinqk+dQyKTQmzBTELmNjhFBirhfb7spbVuqSvgF8GRjYLalHjhe4Bk6EkMdof+Uqw1leBM2FjX8EwzDXG45CCwVrhdlTpEwCa7mxEDJ0NmQvCO9auk0Bx/SpBS1ty1F85PTDW45KeLjAbW0+1FSGspFK7RJ/OzmHeV+GxLdNrFqi98+TMgks0iZJ6s4QSGYkA1j6qdHnSZkEtr6+tDOrN9pq91kH0MWxUa8szUz+VCmTwCZtCMPU0dWiUHA2qSwvuWP/V8rmZobKk+scCr/XaBsg1fflSXDMUyoPz5cyCdzSXEoDzfkYZw44dBEvEfJDU09G8IJNxJn9kUpFuc/Kg5DK2XkyHBOyikPXE/u5+GVpQ7Uv2jwV4PdfSgHO+eJvIdR+kUIM6rxaOnqOOSEF8NtSJoHhVaDygdweOioRo9+RNr+oy6QAfZehEDJr+p+JWjnv29sJfI2USdDTdMorGa+SMgla2yefxaxCreejPrfY5IWBuWM/4qegN+X0GecxbmuwyJUZWz5ahy31UbnwKQnnfwh9FwSVstH6RXv3jTfeeOONN95444033iiK/wDpWyMpdIpCEgAAAABJRU5ErkJggg==" vertex="1" parent="1">
          <mxGeometry x="877" y="100" width="70" height="70" as="geometry" />
        </mxCell>
        <mxCell id="SPn83IJFLfhqAifAaKUE-21" value="&lt;b&gt;Prod Cluster&lt;/b&gt;" style="text;html=1;align=center;verticalAlign=middle;resizable=0;points=[];autosize=1;strokeColor=none;fillColor=none;" vertex="1" parent="1">
          <mxGeometry x="942" y="125" width="90" height="20" as="geometry" />
        </mxCell>
        <mxCell id="SPn83IJFLfhqAifAaKUE-22" value="" style="shape=image;verticalLabelPosition=bottom;verticalAlign=top;imageAspect=0;aspect=fixed;image=data:image/png,iVBORw0KGgoAAAANSUhEUgAAAQkAAAC+CAMAAAARDgovAAAAwFBMVEX///8klu0oVKEoUZ4kmfEoT5wnZLIlh9wnX60nU6EoW6kkk+okjeMAQZkAQ5r5+/0NR5wna7vBzOLo7fUoWKUmdcclgtUmcsMbTp8mesywvdjd4+46YagWS50li+AAkOxdf7pOb6/Q2Oiks9NYd7OBl8Nwibzn6/TI0uWLnsfDzeJGaqxyi72tutabrdBmgriVx/Xl8v1grvGGmsWfr9B0tvLN5fpLpe81ne6/3fmXx/W22fiq0fdpsvGCvvTE2fAATbrgAAAQNklEQVR4nO1dC3uiOBdWAmqACioqXqLVYqvV6nSn25nZ3Znv//+rj5yAAhKUq2J9n2emk8Gm5G1yrslJpXIJdFZjgQs8Xowu8lYXwKtJ+ETYMJtPl37FYvCi40gi7Gmhv176JQvBzjxBhCCg9aVfsghoJp0SSDDCYT+x8fAVRMWIMoFqqhIOtUWp+BLLA5gQFLHKg0yZaF/6NQsAMCHziRDppLgz8VWZUBQ2ePeL8lWZUA2hTofeF2re5ldkAqGeCEPfN+9M3Jm4M3FnonJn4oA7Ey7uTLi4M+HizoSLOxMu7ky4uDPhwsuE5GdC+rJMyMaEDr1rtLzNL8jEPVJzZ4LhzoQLFuVXeVSIJYtta8nBovxynZPvmNRQeZgY7fSH5HCyokjiAJ6Wg4lh0zyV4k2NUjAx1/OmoSxMWKdT3V+DiQ6BVLchh4Oluk9/AAmc5wYqCxOjJh1HS+EoQQVS3QIa8D6gNuB5TeV10C+L7gAmDK5dVBUNYIprOYkToIpHlI1GciY0LePRRgGYqEWYiNQeQF3+B6qUiJxszA0ZZjzcCFAm0JUy0W5ifTbPesQ8eJhwU90q++qkuj1MuA9U3+cOTAQesGZyJjpUqyF9UdASOTChIuTEE2pVT3PPhDhAMgzRQANvc8+EKiAnOd7wNxMy4WxlI0Yx0+LAxESS6mzowMSh6TLRRQYduuJvepjINno3dE0+XMx+Ti8TyMtEfd+8DBPaGDNDhe7nXOQw8iCulokt3fhrqDVw4fRdDkMP4FqZ0Kjta/dniyMQFlbucvNamVgR573ECayQ/Km4UiY08IbqoIZVGah4zGP4HlwpE09USjQce01pgO+Ss9i8UibW9pwALe6lIl9lep1MLHW/Ca/QBYJJribWdTKxMWkkwOPMqGBijfOUmlfJBMhLn6cv1kFq5ikqrpKJtn4UE2F2xUOO6yOO3yEFmBCCTGSVK4fF0av6AC+Cczw85PFFZZm60WJf7lc9zYNX3pNrMPSaDC9pN6s+JpSGzHLlcsvbTMAEdUKNYBhMhfXxlhMP1xmpCX8nOgnzFJrXyMQbCWgOB3KuRgWLY/LHKdKAbBQTSvZMgJiYHPfUg0mRKxMCP9WtgCvY4I4UXi8qV67Q4Hi8E3EQmQjrDCbFMs1wtZcOD2DNCUZPDUdPZomdWp3zgQHLqXI7qIOhTIbcF+h0jt6Wxz1oUjNFqGI4fmhy4YTIeKluJwUmoJMfiH5O+G/woG9efO9L9yGEZ1gUCGAllpnPzdxT4emATb9DQXPW4ZIJZA5Jmk/bFpELTwlseJcIWJghqsMGtbnNTTIiOvlvjsgAZOV5ZRqbCFqY7qRIYVK8wpRAciMchpPqNqKfJ+9APtUBxOaQ5XllGstF9XAmbOsGk2SH1Ic0+IMGVTEcCmyDQi2F97zv5Mp5HagnOqh2WQc9bgfUYPH9nikT0rE5AUx0kydZaf4kwoYUVbp40ufKIzponOpAOp8JEBRkW+nM20+rzc6yZjPr8Xnx0Z4f6eJwJqJMRGowpLa2+ZYXk/ccAcgQXPsf/NVRVVgmqKnrxDRNhDBGyDSJrjfN3VP0qjmHifz9jigmlCATbzpXYlbBYg2HSZrj7xHxCw8TE5bKVp2Jx5oeJlT2XJkwf5g1vUyEduBhwnmw72ASZML3wG0eMfHK16JsXwoX2NTXbzzNsmdCHEiIDV3yN48iNZIbqQnmyiUnSCUNfE3BE6mBoUuNYKSGZde7EpMnSPI2j5iY09XR5zBRY5rIBV0dDC4ZxOCEMDxMIAlCTgb8FLuJlHAmcsiVMyb6CLOhB5oBJl6otc1ZsPbrIFtjt7q9uj2jmHZS1PqgXzMEhw2sz15OMYECTATnRH5xTHfozpzwNY+YqBhUn3GY6Ld6E9DY/v+225NBDTMuTBzm+paRCYt+B28znxhOETxRBrLElsjHbTABRmYvQl1xIYo9MHrR7DaYmEdbg9FcgEzVQ/bslZGJCj0fcBTbPhMsRhZicpaSiaNk4Plgca3HYyLKyQSEFBtJiGCvE+qjlZIJiOnyXI9I0E5D5WVZmfjwbiSJQ8SEv1++nEx0aKdSPT4V1LM2rTAiSsqEswcxLg/ws3Az1Nj2eWCO3yEBE12nuWeifnauXPI2w3LlhtsMMsHIlyRfM4wJDeMIN4xHBMTH9BD70sdEtd5gSb9WA3x/p3lgQmnAcRWx2+hWPU1PrrzR8nbgNvdMKLUGeK+DRt9pqj4m9t9Ra9Q9HYQy4UQdY60P+3ctcDSonwlqfx3+dv/hiU8Efioz8H2RmrAOPPGJwAPnb2+kJvQNQplYQm3eOOYV22viTxjwmAjDFcas7LUxXLMsjXS+ecWWRkTgG5iIWG9gnEblyqkZfzJXbmTIRKe9ENzjuDHsTHZgLSJ/DGcDjODMP7znyVQ3y5Wf6mDC78Bgk4b7gYGHic5yaxm6c24TydxejzqZNFioNyIBwCRPo1cPB9sfLhi85z0WQeV30GVvbQx4HbjJdm4HMITxfDlcPRqEkH3K2Th7QrhJFUyOIjSjlUU7pXD55UE473neHWBdt0nAeP9hecCdhkc8sJiEYBpBGfGy021mMYNQPiBktOoxeGgwMnUrqDVezSLOR+cEhCSj34uo1OynQVS7bmL2YRtcGe1E2yWQ50+gGfEn+F8pCIB1YtQoC+fQADHteld2dqpgsj7Sni+YnRNv1EqFVn/Qq6tHMWs/Jiqrb66qk96g1RDcDTtYH4fkOJ7hkOWAl7q+ZpyaBz3JqXkvIMkrivXxU0jei22lS+DOXj/A2g0AY9KctUPzfx+cTZ03AFUKsIBMHc8+wl3wSuUxRVT4usH8CipYTdMkRNcN63ubR4MNes1MhDtUZkA4arezds+b1fZt+XJitxU1jhPE/64fbKtyjEMNNCh8m0xQeRmW2opi4iZXBz3dgY0Y+w9vVU5AHsO3a/MUZnROXPq184AQGY8KgYUTBMevHwl28e/QTdoTIlWh8bau0yyzwNuOUl7UUezTPqubZAJUKIl3Agz8Ds5O3/KC5n0xibeF/y1ip29pwQ64xFGhNtqJN2tdMcCq0iO8rTAsT6S8ygiwqsy4h+tfmvFTzNcOSJLFPt6iHZ/SLzvYlIh9NlIDt/zSL58pIPGqxy+3AI7HLRmZbA9Z+IahSFAjE98SE1CXJUkFjlXEIaoygkmJBFMCcuO3FNyG+hsJpISz+/t21CiYl8kO1XciDsyUEDTJkbCOlba+pVgNOKHmcxIiWM1V6UaUBwvthx1ROAerW/JGIVQV0wnd4/V2fDC2GQ0nrbwxuh2RCfv+9OQVrCLOGJYLbFNs6FmN87ALr4FUOoi95BqU4SnTsJUynYridHoJZQTJ8YSlWABQtSyjEIUy/fuT9vn5d+FcgMORolARBcksIzj98e52+v5jmkmX54IVxIyTHA9BZoJC+eH5jWh/FUtFxDmmswGR/kwsCiBCm8/Z158Z9HguwPMSzGS1efZ4odv3Iw4qnIvpL9rboqkT1u+v4iYFOyGQvu4hjeCh9BLuB+1rp+O9U1zcpICjEGnXRsVxPVJHa6Z/Ku7xEKfff4qaFKxSbFLPy4M0Z/UPmP5rd/Vowo63F41O1KKWBzvR1czgjh+4+iK1Zz79dKIdNhXNh6bd72cxTECFK4Gksan2+J7F8gCBOXN3CJuVwuYECImMCubOEx7L9mH6rcJEDhBB40b/FcMEExIpFagL6o+mNa6Uv+yOOqwIDstU/1WExS32s1GgDrZRJaHOxZSa2iNZN03doIcP34uYEuwgcDZCgqIDd+Cl/BXCpKhow8XiDfTZ7wKmBHM3zFl2VbXB90jrmoOk2KMIa0KcsFMbMXeNROE1RX2TA8C4cvCtiLWhgtpIlPLiQfNfipIU0x+/mPf1WYhTDheWpHXFg3giWdiZVWX68/efP79/FhOoYZfYHB13TAco351J0pyexsugmzMAB72yUxsuVtlMigLBiMj+NriOnrQS0oVQY/ozcyIc56M8k6KWtSFxQMe5eS/mG4lq7xIhfRCW5jqfe0qSVEIS1ZYkFZ43Epn6zIuIigZ+WJzQrqj04eB8wRs6RdXIlQhWrplffPT4hZQ+K2FQsHQR61D4hOQiIxys0dnDEu114ZxaN0mhGofFsXO+NnMOF9SfEbwSlV7NqWGA9N3/ipwSYp/dKpu5QeXHAkJO0etDFKv1lnEo0bysVP4tLLPhXJGA9aQbZ84FE5r8A6SiaM+GPQ0Cao7ZqbOiMn/ihN1qUcDt00uwNFvHlS6grfZa8qGmhUlm7uk77WchNoVzyTAiqe5zOhMrVs8Kqp94qpvUB10ob+Kp7IEXnrBAEQF9UWmBiAipMZMLWJzerR0F1U0wVDfxVPhApGkN/Rmn/OPYtvJkBdqec792mqETfeMRxqbeXD8dJ97+zpcKscpui8HH1Zdyw1LnlXXCJtHN8Sa8zksl1yiVOyGIkeuNugF8OLOCXoIiHcqbNM3182rJX6I5Sk1bQjhplOf0WeA4WAAVeLHaWLP1em3tFqvVtv3SObE+36s5USG6heoyjliegR0okNjm7HsuYTungiMtVJdhMP9cPFIqTDmutsphVlC331mr+V0fGwENqJBwXAvmPWNZYbu7bqJ1d4EJQaHBAsEkrsrKlAqx6lQuxMRIeg1iBthQZYr1x5jCQstMmYpKlxVMtJV33v5WNNilkiaO+9vIxsQS1b5TONLUN8WqzmMMaYg3wQpNnxoWxUlLcMMfj0XaUhyMDMKk9ireEvlMlwuEAq8OD81ZEW7nGVgwy5uQbSwuUuxUFquTvuvs2W7/lfBg43VMGBd4G2ux/pfIshBFddBwC7ya+s7Hg3ZhaaF9Z4W9McGbOAv2Pfa0oNdz1fbldQlZ+Ow6bbPbWBeWGCOr6cawx9v305938asagwuYDfv760zd/AjMgNlwNO+MLy0855bObifG5GHNLTp6jG/ncWFPhnpf3t/fjYm5O6qN3t6MZh+7Ufqd2Wkxf9adjZaINGer5ZlL9v2PcoILykK3Jnho0EMLvG6Ho/XmScPZDisRRitTR86NCESXre3yrIXy/mfK40K0V0SvXzOQ54bLprEK9/qGq9HmdfMSo/JnjtDaM504ZGBEo1eL4edp5ar9IwbMC4ibq72ulwTo0Vhx5YA2fp1XhtYFvQ8/Ok8z073DgEY0if5Q262G844Wyciv31SnssyBok56Tpj8ECK2RSS2tpExgNFssZpxbuS5DF7edqZOsGcQhDSb8my3WT2156PR+3sIKdrnn0m9N+i3ag3DVwXcCY6uF+3Tkmc0urT7cQRtuVo/wPUOh+EgVsmZYKMxXq/XM8t6pKDXYq/X47FsCMifKKDfRCXOg7wYnip7fNXQllvL9hKJeRQHZ5dfsDgwXIsdchcGhpVlGtb29ep+z4kwel3t1gZcBX7mfQ82RfSycDKePW8jwuTlRGfU/vhOCaG3o9Pr0ekU8KwbmAB07cB16WNrs3qbl3o5nIKmvczbw6ft982jNRuPDXbfj2GM17PZ4/Ni9TRsL0fRKuai+D8H39zPahpNnQAAAABJRU5ErkJggg==" vertex="1" parent="1">
          <mxGeometry x="861.9999999999999" y="223.5" width="80" height="57.36" as="geometry" />
        </mxCell>
        <mxCell id="SPn83IJFLfhqAifAaKUE-23" value="DRP Checks(Copyright/Globalyzer &#xa;)" style="shape=image;verticalLabelPosition=bottom;verticalAlign=top;imageAspect=0;aspect=fixed;image=data:image/png,iVBORw0KGgoAAAANSUhEUgAAAQkAAAC+CAMAAAARDgovAAAAwFBMVEX///8klu0oVKEoUZ4kmfEoT5wnZLIlh9wnX60nU6EoW6kkk+okjeMAQZkAQ5r5+/0NR5wna7vBzOLo7fUoWKUmdcclgtUmcsMbTp8mesywvdjd4+46YagWS50li+AAkOxdf7pOb6/Q2Oiks9NYd7OBl8Nwibzn6/TI0uWLnsfDzeJGaqxyi72tutabrdBmgriVx/Xl8v1grvGGmsWfr9B0tvLN5fpLpe81ne6/3fmXx/W22fiq0fdpsvGCvvTE2fAATbrgAAAQNklEQVR4nO1dC3uiOBdWAmqACioqXqLVYqvV6nSn25nZ3Znv//+rj5yAAhKUq2J9n2emk8Gm5G1yrslJpXIJdFZjgQs8Xowu8lYXwKtJ+ETYMJtPl37FYvCi40gi7Gmhv176JQvBzjxBhCCg9aVfsghoJp0SSDDCYT+x8fAVRMWIMoFqqhIOtUWp+BLLA5gQFLHKg0yZaF/6NQsAMCHziRDppLgz8VWZUBQ2ePeL8lWZUA2hTofeF2re5ldkAqGeCEPfN+9M3Jm4M3FnonJn4oA7Ey7uTLi4M+HizoSLOxMu7ky4uDPhwsuE5GdC+rJMyMaEDr1rtLzNL8jEPVJzZ4LhzoQLFuVXeVSIJYtta8nBovxynZPvmNRQeZgY7fSH5HCyokjiAJ6Wg4lh0zyV4k2NUjAx1/OmoSxMWKdT3V+DiQ6BVLchh4Oluk9/AAmc5wYqCxOjJh1HS+EoQQVS3QIa8D6gNuB5TeV10C+L7gAmDK5dVBUNYIprOYkToIpHlI1GciY0LePRRgGYqEWYiNQeQF3+B6qUiJxszA0ZZjzcCFAm0JUy0W5ifTbPesQ8eJhwU90q++qkuj1MuA9U3+cOTAQesGZyJjpUqyF9UdASOTChIuTEE2pVT3PPhDhAMgzRQANvc8+EKiAnOd7wNxMy4WxlI0Yx0+LAxESS6mzowMSh6TLRRQYduuJvepjINno3dE0+XMx+Ti8TyMtEfd+8DBPaGDNDhe7nXOQw8iCulokt3fhrqDVw4fRdDkMP4FqZ0Kjta/dniyMQFlbucvNamVgR573ECayQ/Km4UiY08IbqoIZVGah4zGP4HlwpE09USjQce01pgO+Ss9i8UibW9pwALe6lIl9lep1MLHW/Ca/QBYJJribWdTKxMWkkwOPMqGBijfOUmlfJBMhLn6cv1kFq5ikqrpKJtn4UE2F2xUOO6yOO3yEFmBCCTGSVK4fF0av6AC+Cczw85PFFZZm60WJf7lc9zYNX3pNrMPSaDC9pN6s+JpSGzHLlcsvbTMAEdUKNYBhMhfXxlhMP1xmpCX8nOgnzFJrXyMQbCWgOB3KuRgWLY/LHKdKAbBQTSvZMgJiYHPfUg0mRKxMCP9WtgCvY4I4UXi8qV67Q4Hi8E3EQmQjrDCbFMs1wtZcOD2DNCUZPDUdPZomdWp3zgQHLqXI7qIOhTIbcF+h0jt6Wxz1oUjNFqGI4fmhy4YTIeKluJwUmoJMfiH5O+G/woG9efO9L9yGEZ1gUCGAllpnPzdxT4emATb9DQXPW4ZIJZA5Jmk/bFpELTwlseJcIWJghqsMGtbnNTTIiOvlvjsgAZOV5ZRqbCFqY7qRIYVK8wpRAciMchpPqNqKfJ+9APtUBxOaQ5XllGstF9XAmbOsGk2SH1Ic0+IMGVTEcCmyDQi2F97zv5Mp5HagnOqh2WQc9bgfUYPH9nikT0rE5AUx0kydZaf4kwoYUVbp40ufKIzponOpAOp8JEBRkW+nM20+rzc6yZjPr8Xnx0Z4f6eJwJqJMRGowpLa2+ZYXk/ccAcgQXPsf/NVRVVgmqKnrxDRNhDBGyDSJrjfN3VP0qjmHifz9jigmlCATbzpXYlbBYg2HSZrj7xHxCw8TE5bKVp2Jx5oeJlT2XJkwf5g1vUyEduBhwnmw72ASZML3wG0eMfHK16JsXwoX2NTXbzzNsmdCHEiIDV3yN48iNZIbqQnmyiUnSCUNfE3BE6mBoUuNYKSGZde7EpMnSPI2j5iY09XR5zBRY5rIBV0dDC4ZxOCEMDxMIAlCTgb8FLuJlHAmcsiVMyb6CLOhB5oBJl6otc1ZsPbrIFtjt7q9uj2jmHZS1PqgXzMEhw2sz15OMYECTATnRH5xTHfozpzwNY+YqBhUn3GY6Ld6E9DY/v+225NBDTMuTBzm+paRCYt+B28znxhOETxRBrLElsjHbTABRmYvQl1xIYo9MHrR7DaYmEdbg9FcgEzVQ/bslZGJCj0fcBTbPhMsRhZicpaSiaNk4Plgca3HYyLKyQSEFBtJiGCvE+qjlZIJiOnyXI9I0E5D5WVZmfjwbiSJQ8SEv1++nEx0aKdSPT4V1LM2rTAiSsqEswcxLg/ws3Az1Nj2eWCO3yEBE12nuWeifnauXPI2w3LlhtsMMsHIlyRfM4wJDeMIN4xHBMTH9BD70sdEtd5gSb9WA3x/p3lgQmnAcRWx2+hWPU1PrrzR8nbgNvdMKLUGeK+DRt9pqj4m9t9Ra9Q9HYQy4UQdY60P+3ctcDSonwlqfx3+dv/hiU8Efioz8H2RmrAOPPGJwAPnb2+kJvQNQplYQm3eOOYV22viTxjwmAjDFcas7LUxXLMsjXS+ecWWRkTgG5iIWG9gnEblyqkZfzJXbmTIRKe9ENzjuDHsTHZgLSJ/DGcDjODMP7znyVQ3y5Wf6mDC78Bgk4b7gYGHic5yaxm6c24TydxejzqZNFioNyIBwCRPo1cPB9sfLhi85z0WQeV30GVvbQx4HbjJdm4HMITxfDlcPRqEkH3K2Th7QrhJFUyOIjSjlUU7pXD55UE473neHWBdt0nAeP9hecCdhkc8sJiEYBpBGfGy021mMYNQPiBktOoxeGgwMnUrqDVezSLOR+cEhCSj34uo1OynQVS7bmL2YRtcGe1E2yWQ50+gGfEn+F8pCIB1YtQoC+fQADHteld2dqpgsj7Sni+YnRNv1EqFVn/Qq6tHMWs/Jiqrb66qk96g1RDcDTtYH4fkOJ7hkOWAl7q+ZpyaBz3JqXkvIMkrivXxU0jei22lS+DOXj/A2g0AY9KctUPzfx+cTZ03AFUKsIBMHc8+wl3wSuUxRVT4usH8CipYTdMkRNcN63ubR4MNes1MhDtUZkA4arezds+b1fZt+XJitxU1jhPE/64fbKtyjEMNNCh8m0xQeRmW2opi4iZXBz3dgY0Y+w9vVU5AHsO3a/MUZnROXPq184AQGY8KgYUTBMevHwl28e/QTdoTIlWh8bau0yyzwNuOUl7UUezTPqubZAJUKIl3Agz8Ds5O3/KC5n0xibeF/y1ip29pwQ64xFGhNtqJN2tdMcCq0iO8rTAsT6S8ygiwqsy4h+tfmvFTzNcOSJLFPt6iHZ/SLzvYlIh9NlIDt/zSL58pIPGqxy+3AI7HLRmZbA9Z+IahSFAjE98SE1CXJUkFjlXEIaoygkmJBFMCcuO3FNyG+hsJpISz+/t21CiYl8kO1XciDsyUEDTJkbCOlba+pVgNOKHmcxIiWM1V6UaUBwvthx1ROAerW/JGIVQV0wnd4/V2fDC2GQ0nrbwxuh2RCfv+9OQVrCLOGJYLbFNs6FmN87ALr4FUOoi95BqU4SnTsJUynYridHoJZQTJ8YSlWABQtSyjEIUy/fuT9vn5d+FcgMORolARBcksIzj98e52+v5jmkmX54IVxIyTHA9BZoJC+eH5jWh/FUtFxDmmswGR/kwsCiBCm8/Z158Z9HguwPMSzGS1efZ4odv3Iw4qnIvpL9rboqkT1u+v4iYFOyGQvu4hjeCh9BLuB+1rp+O9U1zcpICjEGnXRsVxPVJHa6Z/Ku7xEKfff4qaFKxSbFLPy4M0Z/UPmP5rd/Vowo63F41O1KKWBzvR1czgjh+4+iK1Zz79dKIdNhXNh6bd72cxTECFK4Gksan2+J7F8gCBOXN3CJuVwuYECImMCubOEx7L9mH6rcJEDhBB40b/FcMEExIpFagL6o+mNa6Uv+yOOqwIDstU/1WExS32s1GgDrZRJaHOxZSa2iNZN03doIcP34uYEuwgcDZCgqIDd+Cl/BXCpKhow8XiDfTZ7wKmBHM3zFl2VbXB90jrmoOk2KMIa0KcsFMbMXeNROE1RX2TA8C4cvCtiLWhgtpIlPLiQfNfipIU0x+/mPf1WYhTDheWpHXFg3giWdiZVWX68/efP79/FhOoYZfYHB13TAco351J0pyexsugmzMAB72yUxsuVtlMigLBiMj+NriOnrQS0oVQY/ozcyIc56M8k6KWtSFxQMe5eS/mG4lq7xIhfRCW5jqfe0qSVEIS1ZYkFZ43Epn6zIuIigZ+WJzQrqj04eB8wRs6RdXIlQhWrplffPT4hZQ+K2FQsHQR61D4hOQiIxys0dnDEu114ZxaN0mhGofFsXO+NnMOF9SfEbwSlV7NqWGA9N3/ipwSYp/dKpu5QeXHAkJO0etDFKv1lnEo0bysVP4tLLPhXJGA9aQbZ84FE5r8A6SiaM+GPQ0Cao7ZqbOiMn/ihN1qUcDt00uwNFvHlS6grfZa8qGmhUlm7uk77WchNoVzyTAiqe5zOhMrVs8Kqp94qpvUB10ob+Kp7IEXnrBAEQF9UWmBiAipMZMLWJzerR0F1U0wVDfxVPhApGkN/Rmn/OPYtvJkBdqec792mqETfeMRxqbeXD8dJ97+zpcKscpui8HH1Zdyw1LnlXXCJtHN8Sa8zksl1yiVOyGIkeuNugF8OLOCXoIiHcqbNM3182rJX6I5Sk1bQjhplOf0WeA4WAAVeLHaWLP1em3tFqvVtv3SObE+36s5USG6heoyjliegR0okNjm7HsuYTungiMtVJdhMP9cPFIqTDmutsphVlC331mr+V0fGwENqJBwXAvmPWNZYbu7bqJ1d4EJQaHBAsEkrsrKlAqx6lQuxMRIeg1iBthQZYr1x5jCQstMmYpKlxVMtJV33v5WNNilkiaO+9vIxsQS1b5TONLUN8WqzmMMaYg3wQpNnxoWxUlLcMMfj0XaUhyMDMKk9ireEvlMlwuEAq8OD81ZEW7nGVgwy5uQbSwuUuxUFquTvuvs2W7/lfBg43VMGBd4G2ux/pfIshBFddBwC7ya+s7Hg3ZhaaF9Z4W9McGbOAv2Pfa0oNdz1fbldQlZ+Ow6bbPbWBeWGCOr6cawx9v305938asagwuYDfv760zd/AjMgNlwNO+MLy0855bObifG5GHNLTp6jG/ncWFPhnpf3t/fjYm5O6qN3t6MZh+7Ufqd2Wkxf9adjZaINGer5ZlL9v2PcoILykK3Jnho0EMLvG6Ho/XmScPZDisRRitTR86NCESXre3yrIXy/mfK40K0V0SvXzOQ54bLprEK9/qGq9HmdfMSo/JnjtDaM504ZGBEo1eL4edp5ar9IwbMC4ibq72ulwTo0Vhx5YA2fp1XhtYFvQ8/Ok8z073DgEY0if5Q262G844Wyciv31SnssyBok56Tpj8ECK2RSS2tpExgNFssZpxbuS5DF7edqZOsGcQhDSb8my3WT2156PR+3sIKdrnn0m9N+i3ag3DVwXcCY6uF+3Tkmc0urT7cQRtuVo/wPUOh+EgVsmZYKMxXq/XM8t6pKDXYq/X47FsCMifKKDfRCXOg7wYnip7fNXQllvL9hKJeRQHZ5dfsDgwXIsdchcGhpVlGtb29ep+z4kwel3t1gZcBX7mfQ82RfSycDKePW8jwuTlRGfU/vhOCaG3o9Pr0ekU8KwbmAB07cB16WNrs3qbl3o5nIKmvczbw6ft982jNRuPDXbfj2GM17PZ4/Ni9TRsL0fRKuai+D8H39zPahpNnQAAAABJRU5ErkJggg==" vertex="1" parent="1">
          <mxGeometry x="911.9999999999999" y="223.5" width="80" height="57.36" as="geometry" />
        </mxCell>
        <mxCell id="SPn83IJFLfhqAifAaKUE-24" value="" style="shape=image;verticalLabelPosition=bottom;verticalAlign=top;imageAspect=0;aspect=fixed;image=data:image/png,iVBORw0KGgoAAAANSUhEUgAAAQkAAAC+CAMAAAARDgovAAAAwFBMVEX///8klu0oVKEoUZ4kmfEoT5wnZLIlh9wnX60nU6EoW6kkk+okjeMAQZkAQ5r5+/0NR5wna7vBzOLo7fUoWKUmdcclgtUmcsMbTp8mesywvdjd4+46YagWS50li+AAkOxdf7pOb6/Q2Oiks9NYd7OBl8Nwibzn6/TI0uWLnsfDzeJGaqxyi72tutabrdBmgriVx/Xl8v1grvGGmsWfr9B0tvLN5fpLpe81ne6/3fmXx/W22fiq0fdpsvGCvvTE2fAATbrgAAAQNklEQVR4nO1dC3uiOBdWAmqACioqXqLVYqvV6nSn25nZ3Znv//+rj5yAAhKUq2J9n2emk8Gm5G1yrslJpXIJdFZjgQs8Xowu8lYXwKtJ+ETYMJtPl37FYvCi40gi7Gmhv176JQvBzjxBhCCg9aVfsghoJp0SSDDCYT+x8fAVRMWIMoFqqhIOtUWp+BLLA5gQFLHKg0yZaF/6NQsAMCHziRDppLgz8VWZUBQ2ePeL8lWZUA2hTofeF2re5ldkAqGeCEPfN+9M3Jm4M3FnonJn4oA7Ey7uTLi4M+HizoSLOxMu7ky4uDPhwsuE5GdC+rJMyMaEDr1rtLzNL8jEPVJzZ4LhzoQLFuVXeVSIJYtta8nBovxynZPvmNRQeZgY7fSH5HCyokjiAJ6Wg4lh0zyV4k2NUjAx1/OmoSxMWKdT3V+DiQ6BVLchh4Oluk9/AAmc5wYqCxOjJh1HS+EoQQVS3QIa8D6gNuB5TeV10C+L7gAmDK5dVBUNYIprOYkToIpHlI1GciY0LePRRgGYqEWYiNQeQF3+B6qUiJxszA0ZZjzcCFAm0JUy0W5ifTbPesQ8eJhwU90q++qkuj1MuA9U3+cOTAQesGZyJjpUqyF9UdASOTChIuTEE2pVT3PPhDhAMgzRQANvc8+EKiAnOd7wNxMy4WxlI0Yx0+LAxESS6mzowMSh6TLRRQYduuJvepjINno3dE0+XMx+Ti8TyMtEfd+8DBPaGDNDhe7nXOQw8iCulokt3fhrqDVw4fRdDkMP4FqZ0Kjta/dniyMQFlbucvNamVgR573ECayQ/Km4UiY08IbqoIZVGah4zGP4HlwpE09USjQce01pgO+Ss9i8UibW9pwALe6lIl9lep1MLHW/Ca/QBYJJribWdTKxMWkkwOPMqGBijfOUmlfJBMhLn6cv1kFq5ikqrpKJtn4UE2F2xUOO6yOO3yEFmBCCTGSVK4fF0av6AC+Cczw85PFFZZm60WJf7lc9zYNX3pNrMPSaDC9pN6s+JpSGzHLlcsvbTMAEdUKNYBhMhfXxlhMP1xmpCX8nOgnzFJrXyMQbCWgOB3KuRgWLY/LHKdKAbBQTSvZMgJiYHPfUg0mRKxMCP9WtgCvY4I4UXi8qV67Q4Hi8E3EQmQjrDCbFMs1wtZcOD2DNCUZPDUdPZomdWp3zgQHLqXI7qIOhTIbcF+h0jt6Wxz1oUjNFqGI4fmhy4YTIeKluJwUmoJMfiH5O+G/woG9efO9L9yGEZ1gUCGAllpnPzdxT4emATb9DQXPW4ZIJZA5Jmk/bFpELTwlseJcIWJghqsMGtbnNTTIiOvlvjsgAZOV5ZRqbCFqY7qRIYVK8wpRAciMchpPqNqKfJ+9APtUBxOaQ5XllGstF9XAmbOsGk2SH1Ic0+IMGVTEcCmyDQi2F97zv5Mp5HagnOqh2WQc9bgfUYPH9nikT0rE5AUx0kydZaf4kwoYUVbp40ufKIzponOpAOp8JEBRkW+nM20+rzc6yZjPr8Xnx0Z4f6eJwJqJMRGowpLa2+ZYXk/ccAcgQXPsf/NVRVVgmqKnrxDRNhDBGyDSJrjfN3VP0qjmHifz9jigmlCATbzpXYlbBYg2HSZrj7xHxCw8TE5bKVp2Jx5oeJlT2XJkwf5g1vUyEduBhwnmw72ASZML3wG0eMfHK16JsXwoX2NTXbzzNsmdCHEiIDV3yN48iNZIbqQnmyiUnSCUNfE3BE6mBoUuNYKSGZde7EpMnSPI2j5iY09XR5zBRY5rIBV0dDC4ZxOCEMDxMIAlCTgb8FLuJlHAmcsiVMyb6CLOhB5oBJl6otc1ZsPbrIFtjt7q9uj2jmHZS1PqgXzMEhw2sz15OMYECTATnRH5xTHfozpzwNY+YqBhUn3GY6Ld6E9DY/v+225NBDTMuTBzm+paRCYt+B28znxhOETxRBrLElsjHbTABRmYvQl1xIYo9MHrR7DaYmEdbg9FcgEzVQ/bslZGJCj0fcBTbPhMsRhZicpaSiaNk4Plgca3HYyLKyQSEFBtJiGCvE+qjlZIJiOnyXI9I0E5D5WVZmfjwbiSJQ8SEv1++nEx0aKdSPT4V1LM2rTAiSsqEswcxLg/ws3Az1Nj2eWCO3yEBE12nuWeifnauXPI2w3LlhtsMMsHIlyRfM4wJDeMIN4xHBMTH9BD70sdEtd5gSb9WA3x/p3lgQmnAcRWx2+hWPU1PrrzR8nbgNvdMKLUGeK+DRt9pqj4m9t9Ra9Q9HYQy4UQdY60P+3ctcDSonwlqfx3+dv/hiU8Efioz8H2RmrAOPPGJwAPnb2+kJvQNQplYQm3eOOYV22viTxjwmAjDFcas7LUxXLMsjXS+ecWWRkTgG5iIWG9gnEblyqkZfzJXbmTIRKe9ENzjuDHsTHZgLSJ/DGcDjODMP7znyVQ3y5Wf6mDC78Bgk4b7gYGHic5yaxm6c24TydxejzqZNFioNyIBwCRPo1cPB9sfLhi85z0WQeV30GVvbQx4HbjJdm4HMITxfDlcPRqEkH3K2Th7QrhJFUyOIjSjlUU7pXD55UE473neHWBdt0nAeP9hecCdhkc8sJiEYBpBGfGy021mMYNQPiBktOoxeGgwMnUrqDVezSLOR+cEhCSj34uo1OynQVS7bmL2YRtcGe1E2yWQ50+gGfEn+F8pCIB1YtQoC+fQADHteld2dqpgsj7Sni+YnRNv1EqFVn/Qq6tHMWs/Jiqrb66qk96g1RDcDTtYH4fkOJ7hkOWAl7q+ZpyaBz3JqXkvIMkrivXxU0jei22lS+DOXj/A2g0AY9KctUPzfx+cTZ03AFUKsIBMHc8+wl3wSuUxRVT4usH8CipYTdMkRNcN63ubR4MNes1MhDtUZkA4arezds+b1fZt+XJitxU1jhPE/64fbKtyjEMNNCh8m0xQeRmW2opi4iZXBz3dgY0Y+w9vVU5AHsO3a/MUZnROXPq184AQGY8KgYUTBMevHwl28e/QTdoTIlWh8bau0yyzwNuOUl7UUezTPqubZAJUKIl3Agz8Ds5O3/KC5n0xibeF/y1ip29pwQ64xFGhNtqJN2tdMcCq0iO8rTAsT6S8ygiwqsy4h+tfmvFTzNcOSJLFPt6iHZ/SLzvYlIh9NlIDt/zSL58pIPGqxy+3AI7HLRmZbA9Z+IahSFAjE98SE1CXJUkFjlXEIaoygkmJBFMCcuO3FNyG+hsJpISz+/t21CiYl8kO1XciDsyUEDTJkbCOlba+pVgNOKHmcxIiWM1V6UaUBwvthx1ROAerW/JGIVQV0wnd4/V2fDC2GQ0nrbwxuh2RCfv+9OQVrCLOGJYLbFNs6FmN87ALr4FUOoi95BqU4SnTsJUynYridHoJZQTJ8YSlWABQtSyjEIUy/fuT9vn5d+FcgMORolARBcksIzj98e52+v5jmkmX54IVxIyTHA9BZoJC+eH5jWh/FUtFxDmmswGR/kwsCiBCm8/Z158Z9HguwPMSzGS1efZ4odv3Iw4qnIvpL9rboqkT1u+v4iYFOyGQvu4hjeCh9BLuB+1rp+O9U1zcpICjEGnXRsVxPVJHa6Z/Ku7xEKfff4qaFKxSbFLPy4M0Z/UPmP5rd/Vowo63F41O1KKWBzvR1czgjh+4+iK1Zz79dKIdNhXNh6bd72cxTECFK4Gksan2+J7F8gCBOXN3CJuVwuYECImMCubOEx7L9mH6rcJEDhBB40b/FcMEExIpFagL6o+mNa6Uv+yOOqwIDstU/1WExS32s1GgDrZRJaHOxZSa2iNZN03doIcP34uYEuwgcDZCgqIDd+Cl/BXCpKhow8XiDfTZ7wKmBHM3zFl2VbXB90jrmoOk2KMIa0KcsFMbMXeNROE1RX2TA8C4cvCtiLWhgtpIlPLiQfNfipIU0x+/mPf1WYhTDheWpHXFg3giWdiZVWX68/efP79/FhOoYZfYHB13TAco351J0pyexsugmzMAB72yUxsuVtlMigLBiMj+NriOnrQS0oVQY/ozcyIc56M8k6KWtSFxQMe5eS/mG4lq7xIhfRCW5jqfe0qSVEIS1ZYkFZ43Epn6zIuIigZ+WJzQrqj04eB8wRs6RdXIlQhWrplffPT4hZQ+K2FQsHQR61D4hOQiIxys0dnDEu114ZxaN0mhGofFsXO+NnMOF9SfEbwSlV7NqWGA9N3/ipwSYp/dKpu5QeXHAkJO0etDFKv1lnEo0bysVP4tLLPhXJGA9aQbZ84FE5r8A6SiaM+GPQ0Cao7ZqbOiMn/ihN1qUcDt00uwNFvHlS6grfZa8qGmhUlm7uk77WchNoVzyTAiqe5zOhMrVs8Kqp94qpvUB10ob+Kp7IEXnrBAEQF9UWmBiAipMZMLWJzerR0F1U0wVDfxVPhApGkN/Rmn/OPYtvJkBdqec792mqETfeMRxqbeXD8dJ97+zpcKscpui8HH1Zdyw1LnlXXCJtHN8Sa8zksl1yiVOyGIkeuNugF8OLOCXoIiHcqbNM3182rJX6I5Sk1bQjhplOf0WeA4WAAVeLHaWLP1em3tFqvVtv3SObE+36s5USG6heoyjliegR0okNjm7HsuYTungiMtVJdhMP9cPFIqTDmutsphVlC331mr+V0fGwENqJBwXAvmPWNZYbu7bqJ1d4EJQaHBAsEkrsrKlAqx6lQuxMRIeg1iBthQZYr1x5jCQstMmYpKlxVMtJV33v5WNNilkiaO+9vIxsQS1b5TONLUN8WqzmMMaYg3wQpNnxoWxUlLcMMfj0XaUhyMDMKk9ireEvlMlwuEAq8OD81ZEW7nGVgwy5uQbSwuUuxUFquTvuvs2W7/lfBg43VMGBd4G2ux/pfIshBFddBwC7ya+s7Hg3ZhaaF9Z4W9McGbOAv2Pfa0oNdz1fbldQlZ+Ow6bbPbWBeWGCOr6cawx9v305938asagwuYDfv760zd/AjMgNlwNO+MLy0855bObifG5GHNLTp6jG/ncWFPhnpf3t/fjYm5O6qN3t6MZh+7Ufqd2Wkxf9adjZaINGer5ZlL9v2PcoILykK3Jnho0EMLvG6Ho/XmScPZDisRRitTR86NCESXre3yrIXy/mfK40K0V0SvXzOQ54bLprEK9/qGq9HmdfMSo/JnjtDaM504ZGBEo1eL4edp5ar9IwbMC4ibq72ulwTo0Vhx5YA2fp1XhtYFvQ8/Ok8z073DgEY0if5Q262G844Wyciv31SnssyBok56Tpj8ECK2RSS2tpExgNFssZpxbuS5DF7edqZOsGcQhDSb8my3WT2156PR+3sIKdrnn0m9N+i3ag3DVwXcCY6uF+3Tkmc0urT7cQRtuVo/wPUOh+EgVsmZYKMxXq/XM8t6pKDXYq/X47FsCMifKKDfRCXOg7wYnip7fNXQllvL9hKJeRQHZ5dfsDgwXIsdchcGhpVlGtb29ep+z4kwel3t1gZcBX7mfQ82RfSycDKePW8jwuTlRGfU/vhOCaG3o9Pr0ekU8KwbmAB07cB16WNrs3qbl3o5nIKmvczbw6ft982jNRuPDXbfj2GM17PZ4/Ni9TRsL0fRKuai+D8H39zPahpNnQAAAABJRU5ErkJggg==" vertex="1" parent="1">
          <mxGeometry x="967" y="223.5" width="80" height="57.36" as="geometry" />
        </mxCell>
        <mxCell id="SPn83IJFLfhqAifAaKUE-25" value="DRP Multi-Repo Checker" style="shape=image;verticalLabelPosition=bottom;verticalAlign=top;imageAspect=0;aspect=fixed;image=data:image/png,iVBORw0KGgoAAAANSUhEUgAAAQkAAAC+CAMAAAARDgovAAAAwFBMVEX///8klu0oVKEoUZ4kmfEoT5wnZLIlh9wnX60nU6EoW6kkk+okjeMAQZkAQ5r5+/0NR5wna7vBzOLo7fUoWKUmdcclgtUmcsMbTp8mesywvdjd4+46YagWS50li+AAkOxdf7pOb6/Q2Oiks9NYd7OBl8Nwibzn6/TI0uWLnsfDzeJGaqxyi72tutabrdBmgriVx/Xl8v1grvGGmsWfr9B0tvLN5fpLpe81ne6/3fmXx/W22fiq0fdpsvGCvvTE2fAATbrgAAAQNklEQVR4nO1dC3uiOBdWAmqACioqXqLVYqvV6nSn25nZ3Znv//+rj5yAAhKUq2J9n2emk8Gm5G1yrslJpXIJdFZjgQs8Xowu8lYXwKtJ+ETYMJtPl37FYvCi40gi7Gmhv176JQvBzjxBhCCg9aVfsghoJp0SSDDCYT+x8fAVRMWIMoFqqhIOtUWp+BLLA5gQFLHKg0yZaF/6NQsAMCHziRDppLgz8VWZUBQ2ePeL8lWZUA2hTofeF2re5ldkAqGeCEPfN+9M3Jm4M3FnonJn4oA7Ey7uTLi4M+HizoSLOxMu7ky4uDPhwsuE5GdC+rJMyMaEDr1rtLzNL8jEPVJzZ4LhzoQLFuVXeVSIJYtta8nBovxynZPvmNRQeZgY7fSH5HCyokjiAJ6Wg4lh0zyV4k2NUjAx1/OmoSxMWKdT3V+DiQ6BVLchh4Oluk9/AAmc5wYqCxOjJh1HS+EoQQVS3QIa8D6gNuB5TeV10C+L7gAmDK5dVBUNYIprOYkToIpHlI1GciY0LePRRgGYqEWYiNQeQF3+B6qUiJxszA0ZZjzcCFAm0JUy0W5ifTbPesQ8eJhwU90q++qkuj1MuA9U3+cOTAQesGZyJjpUqyF9UdASOTChIuTEE2pVT3PPhDhAMgzRQANvc8+EKiAnOd7wNxMy4WxlI0Yx0+LAxESS6mzowMSh6TLRRQYduuJvepjINno3dE0+XMx+Ti8TyMtEfd+8DBPaGDNDhe7nXOQw8iCulokt3fhrqDVw4fRdDkMP4FqZ0Kjta/dniyMQFlbucvNamVgR573ECayQ/Km4UiY08IbqoIZVGah4zGP4HlwpE09USjQce01pgO+Ss9i8UibW9pwALe6lIl9lep1MLHW/Ca/QBYJJribWdTKxMWkkwOPMqGBijfOUmlfJBMhLn6cv1kFq5ikqrpKJtn4UE2F2xUOO6yOO3yEFmBCCTGSVK4fF0av6AC+Cczw85PFFZZm60WJf7lc9zYNX3pNrMPSaDC9pN6s+JpSGzHLlcsvbTMAEdUKNYBhMhfXxlhMP1xmpCX8nOgnzFJrXyMQbCWgOB3KuRgWLY/LHKdKAbBQTSvZMgJiYHPfUg0mRKxMCP9WtgCvY4I4UXi8qV67Q4Hi8E3EQmQjrDCbFMs1wtZcOD2DNCUZPDUdPZomdWp3zgQHLqXI7qIOhTIbcF+h0jt6Wxz1oUjNFqGI4fmhy4YTIeKluJwUmoJMfiH5O+G/woG9efO9L9yGEZ1gUCGAllpnPzdxT4emATb9DQXPW4ZIJZA5Jmk/bFpELTwlseJcIWJghqsMGtbnNTTIiOvlvjsgAZOV5ZRqbCFqY7qRIYVK8wpRAciMchpPqNqKfJ+9APtUBxOaQ5XllGstF9XAmbOsGk2SH1Ic0+IMGVTEcCmyDQi2F97zv5Mp5HagnOqh2WQc9bgfUYPH9nikT0rE5AUx0kydZaf4kwoYUVbp40ufKIzponOpAOp8JEBRkW+nM20+rzc6yZjPr8Xnx0Z4f6eJwJqJMRGowpLa2+ZYXk/ccAcgQXPsf/NVRVVgmqKnrxDRNhDBGyDSJrjfN3VP0qjmHifz9jigmlCATbzpXYlbBYg2HSZrj7xHxCw8TE5bKVp2Jx5oeJlT2XJkwf5g1vUyEduBhwnmw72ASZML3wG0eMfHK16JsXwoX2NTXbzzNsmdCHEiIDV3yN48iNZIbqQnmyiUnSCUNfE3BE6mBoUuNYKSGZde7EpMnSPI2j5iY09XR5zBRY5rIBV0dDC4ZxOCEMDxMIAlCTgb8FLuJlHAmcsiVMyb6CLOhB5oBJl6otc1ZsPbrIFtjt7q9uj2jmHZS1PqgXzMEhw2sz15OMYECTATnRH5xTHfozpzwNY+YqBhUn3GY6Ld6E9DY/v+225NBDTMuTBzm+paRCYt+B28znxhOETxRBrLElsjHbTABRmYvQl1xIYo9MHrR7DaYmEdbg9FcgEzVQ/bslZGJCj0fcBTbPhMsRhZicpaSiaNk4Plgca3HYyLKyQSEFBtJiGCvE+qjlZIJiOnyXI9I0E5D5WVZmfjwbiSJQ8SEv1++nEx0aKdSPT4V1LM2rTAiSsqEswcxLg/ws3Az1Nj2eWCO3yEBE12nuWeifnauXPI2w3LlhtsMMsHIlyRfM4wJDeMIN4xHBMTH9BD70sdEtd5gSb9WA3x/p3lgQmnAcRWx2+hWPU1PrrzR8nbgNvdMKLUGeK+DRt9pqj4m9t9Ra9Q9HYQy4UQdY60P+3ctcDSonwlqfx3+dv/hiU8Efioz8H2RmrAOPPGJwAPnb2+kJvQNQplYQm3eOOYV22viTxjwmAjDFcas7LUxXLMsjXS+ecWWRkTgG5iIWG9gnEblyqkZfzJXbmTIRKe9ENzjuDHsTHZgLSJ/DGcDjODMP7znyVQ3y5Wf6mDC78Bgk4b7gYGHic5yaxm6c24TydxejzqZNFioNyIBwCRPo1cPB9sfLhi85z0WQeV30GVvbQx4HbjJdm4HMITxfDlcPRqEkH3K2Th7QrhJFUyOIjSjlUU7pXD55UE473neHWBdt0nAeP9hecCdhkc8sJiEYBpBGfGy021mMYNQPiBktOoxeGgwMnUrqDVezSLOR+cEhCSj34uo1OynQVS7bmL2YRtcGe1E2yWQ50+gGfEn+F8pCIB1YtQoC+fQADHteld2dqpgsj7Sni+YnRNv1EqFVn/Qq6tHMWs/Jiqrb66qk96g1RDcDTtYH4fkOJ7hkOWAl7q+ZpyaBz3JqXkvIMkrivXxU0jei22lS+DOXj/A2g0AY9KctUPzfx+cTZ03AFUKsIBMHc8+wl3wSuUxRVT4usH8CipYTdMkRNcN63ubR4MNes1MhDtUZkA4arezds+b1fZt+XJitxU1jhPE/64fbKtyjEMNNCh8m0xQeRmW2opi4iZXBz3dgY0Y+w9vVU5AHsO3a/MUZnROXPq184AQGY8KgYUTBMevHwl28e/QTdoTIlWh8bau0yyzwNuOUl7UUezTPqubZAJUKIl3Agz8Ds5O3/KC5n0xibeF/y1ip29pwQ64xFGhNtqJN2tdMcCq0iO8rTAsT6S8ygiwqsy4h+tfmvFTzNcOSJLFPt6iHZ/SLzvYlIh9NlIDt/zSL58pIPGqxy+3AI7HLRmZbA9Z+IahSFAjE98SE1CXJUkFjlXEIaoygkmJBFMCcuO3FNyG+hsJpISz+/t21CiYl8kO1XciDsyUEDTJkbCOlba+pVgNOKHmcxIiWM1V6UaUBwvthx1ROAerW/JGIVQV0wnd4/V2fDC2GQ0nrbwxuh2RCfv+9OQVrCLOGJYLbFNs6FmN87ALr4FUOoi95BqU4SnTsJUynYridHoJZQTJ8YSlWABQtSyjEIUy/fuT9vn5d+FcgMORolARBcksIzj98e52+v5jmkmX54IVxIyTHA9BZoJC+eH5jWh/FUtFxDmmswGR/kwsCiBCm8/Z158Z9HguwPMSzGS1efZ4odv3Iw4qnIvpL9rboqkT1u+v4iYFOyGQvu4hjeCh9BLuB+1rp+O9U1zcpICjEGnXRsVxPVJHa6Z/Ku7xEKfff4qaFKxSbFLPy4M0Z/UPmP5rd/Vowo63F41O1KKWBzvR1czgjh+4+iK1Zz79dKIdNhXNh6bd72cxTECFK4Gksan2+J7F8gCBOXN3CJuVwuYECImMCubOEx7L9mH6rcJEDhBB40b/FcMEExIpFagL6o+mNa6Uv+yOOqwIDstU/1WExS32s1GgDrZRJaHOxZSa2iNZN03doIcP34uYEuwgcDZCgqIDd+Cl/BXCpKhow8XiDfTZ7wKmBHM3zFl2VbXB90jrmoOk2KMIa0KcsFMbMXeNROE1RX2TA8C4cvCtiLWhgtpIlPLiQfNfipIU0x+/mPf1WYhTDheWpHXFg3giWdiZVWX68/efP79/FhOoYZfYHB13TAco351J0pyexsugmzMAB72yUxsuVtlMigLBiMj+NriOnrQS0oVQY/ozcyIc56M8k6KWtSFxQMe5eS/mG4lq7xIhfRCW5jqfe0qSVEIS1ZYkFZ43Epn6zIuIigZ+WJzQrqj04eB8wRs6RdXIlQhWrplffPT4hZQ+K2FQsHQR61D4hOQiIxys0dnDEu114ZxaN0mhGofFsXO+NnMOF9SfEbwSlV7NqWGA9N3/ipwSYp/dKpu5QeXHAkJO0etDFKv1lnEo0bysVP4tLLPhXJGA9aQbZ84FE5r8A6SiaM+GPQ0Cao7ZqbOiMn/ihN1qUcDt00uwNFvHlS6grfZa8qGmhUlm7uk77WchNoVzyTAiqe5zOhMrVs8Kqp94qpvUB10ob+Kp7IEXnrBAEQF9UWmBiAipMZMLWJzerR0F1U0wVDfxVPhApGkN/Rmn/OPYtvJkBdqec792mqETfeMRxqbeXD8dJ97+zpcKscpui8HH1Zdyw1LnlXXCJtHN8Sa8zksl1yiVOyGIkeuNugF8OLOCXoIiHcqbNM3182rJX6I5Sk1bQjhplOf0WeA4WAAVeLHaWLP1em3tFqvVtv3SObE+36s5USG6heoyjliegR0okNjm7HsuYTungiMtVJdhMP9cPFIqTDmutsphVlC331mr+V0fGwENqJBwXAvmPWNZYbu7bqJ1d4EJQaHBAsEkrsrKlAqx6lQuxMRIeg1iBthQZYr1x5jCQstMmYpKlxVMtJV33v5WNNilkiaO+9vIxsQS1b5TONLUN8WqzmMMaYg3wQpNnxoWxUlLcMMfj0XaUhyMDMKk9ireEvlMlwuEAq8OD81ZEW7nGVgwy5uQbSwuUuxUFquTvuvs2W7/lfBg43VMGBd4G2ux/pfIshBFddBwC7ya+s7Hg3ZhaaF9Z4W9McGbOAv2Pfa0oNdz1fbldQlZ+Ow6bbPbWBeWGCOr6cawx9v305938asagwuYDfv760zd/AjMgNlwNO+MLy0855bObifG5GHNLTp6jG/ncWFPhnpf3t/fjYm5O6qN3t6MZh+7Ufqd2Wkxf9adjZaINGer5ZlL9v2PcoILykK3Jnho0EMLvG6Ho/XmScPZDisRRitTR86NCESXre3yrIXy/mfK40K0V0SvXzOQ54bLprEK9/qGq9HmdfMSo/JnjtDaM504ZGBEo1eL4edp5ar9IwbMC4ibq72ulwTo0Vhx5YA2fp1XhtYFvQ8/Ok8z073DgEY0if5Q262G844Wyciv31SnssyBok56Tpj8ECK2RSS2tpExgNFssZpxbuS5DF7edqZOsGcQhDSb8my3WT2156PR+3sIKdrnn0m9N+i3ag3DVwXcCY6uF+3Tkmc0urT7cQRtuVo/wPUOh+EgVsmZYKMxXq/XM8t6pKDXYq/X47FsCMifKKDfRCXOg7wYnip7fNXQllvL9hKJeRQHZ5dfsDgwXIsdchcGhpVlGtb29ep+z4kwel3t1gZcBX7mfQ82RfSycDKePW8jwuTlRGfU/vhOCaG3o9Pr0ekU8KwbmAB07cB16WNrs3qbl3o5nIKmvczbw6ft982jNRuPDXbfj2GM17PZ4/Ni9TRsL0fRKuai+D8H39zPahpNnQAAAABJRU5ErkJggg==" vertex="1" parent="1">
          <mxGeometry x="916.9999999999998" y="400" width="80" height="57.36" as="geometry" />
        </mxCell>
        <mxCell id="SPn83IJFLfhqAifAaKUE-26" value="" style="rounded=1;whiteSpace=wrap;html=1;" vertex="1" parent="1">
          <mxGeometry x="1127" y="80" width="255" height="455" as="geometry" />
        </mxCell>
        <mxCell id="SPn83IJFLfhqAifAaKUE-27" value="" style="shape=image;verticalLabelPosition=bottom;verticalAlign=top;imageAspect=0;aspect=fixed;image=data:image/png,iVBORw0KGgoAAAANSUhEUgAAAOEAAADhCAMAAAAJbSJIAAAAk1BMVEX///8ybeYhZeXS3vkua+YqaeUkZuUoaOUcY+X8/f/u8/31+P4XYeTx9f3p7/z2+f7c5fo2cefH1fdRgeltk+yguPLg6PvO2vi+zvZ1me2WsPGCou6nvfOxxfRciOrI1vd6nO1GeuhkjeuIp++uwvSQrPBVg+lBd+edtfFIfelpkOuOqvDAz/YFXeQAVOOmu/MAWeO1iXdRAAASkUlEQVR4nO1d65biKBDuIARUjEbteL/bXlrd3vd/ujVqFAiQIontzB6/M7+mFSkoirrz8fHGG2+88cYbb7zxxhtv/K8Q9YejwRmjXe/VU3kKWl3GfErOoD7arquvnk/ZqHxz4j2AmTeuv3pOZaIn03cBC3eNV8+rLLSnKEVfDBQO/xf7eNyn9y+Bj1a1V8+vIKr9Dscm+uLzSP1V9OpJFkB1smc2+q400vlfS+M6RFn03Wgc/I001sde5v7daSSnbuvVE3ZE4zNkQPKuIKz7Nyk69WGInOi70IiWs1dPHIjal+870xeDsk771ZMHIFghCj1/6X3kneMfrrBGI5qfvguNrNN/NREWRIOC9MXAaDF5NSEGtLqcFKbvQiPDf6JxVema1U93oPDnD1PKZ0u9+ZAb+Gxc/UE0zjYl03eBj7/+EBqPnTL5U6IRHYJXU3c2jzZW86gYsE9XL6ZxsmBP2r+ExpcaV9V1CDYfitDIX2Rc1ceO5sNtvjnuzDONlV+nr7HLQ59HSXewzbHxv25c1Yeeu3l0Bpo3Yt8GyPRXaUTT36OxdmA5zaPRdYBjnu2PDY/fMSCjVX71unkbY5pPABO+OT6fvjnJTR8ZJKNMcvG4dzGunmt4RAO/gHlEV8k4x7wUxudx+zwaWwXNh1IovCjl66ZtnnlR6RZVrxNBU4BLb0Db8o2rXgnmEVkmo33RgkNhFO5K3cdZKeYD9pNJLUsYzUfD0qJzvU1J5hFLdK88V34K2Pe/yolcrUozb9nNjdbg5YyHfa8EuVqd5lJAtPB/rmNG5Q2JukV9VtVNUaEggB6ug/YKilJpzEVBTh2VOBmPdK+DFroOVdBOoYujV9KJuYJsrqMWvQ5l+N0iFO5L9VHgxXXUcT7TxAReIA4QlbqFHt5eh92VS6Hn5aewXHby8P467GfJFPL8QblRiYL0DHRTTPvlsoag8DpjUaorDe8TqVeG1iYOvMhLYOCVSiG7O1qaxYNwIrCX1208K+sYYkIR4v/c8y2qmCO/zFBVXgfOsIxjiM/E0elqfWwJpkCrvT5MCWI+LmUz6TAnhcWPC/HpYt43uayD46FDWAlh1Yfl6YZGWPCHfTT9bGVoxtFkQIrHPsJ8pmKrkFAn3NvB4g2NyZQXPA88X0rV2ChoMMladYKmLq7NaEX8bGY1f8If56JwbiID7b+noU0vIejbNZTS2GXkUSEaUuMnHq5YJ2wNa0bjrJ7a0BhgwXyZJ1RU//TMq0a8cdAIfoysE+YhMDAcQ367fI76v2MU5lUTGyuTQ8i/2bkVk2jgee78vt7X8JDMPd2Sk9x3U4xoqmVEOk0+YNKUWR4L6qDnGfr1WIO0z4x1CiaKrnF6G8nm7httG47iw5/ugL3+nAkUfkzUbeZfhZOZgo06KAkfLNgzOLES09MFdYN2TKbCh8bSuSC0lODXl0wFCQVfk9Fi9d0dUkaHGBcF5afAqHRhPO6N1uTQEb7X6u76kdEtfxQXl2zFUTsmAc7clW+jIY634nL93C8N9G1werU+v0OOKBMpPFHEt4O1QempePfDKC/b2uhp9d0F3Lfx7iGhuF6TG6OyuXaYaLj3r4YSFWRQFDMIJoh2xlruCrY3menvRY1zYlZ83JXvpum+j6fG58K8ZjgmAWk9Ce0NTyaFibAZwY0Pz0Syrk49qHdofK6lZWsMbOlXW1flu2X1FlFfKFkKDl/dk05aT/aC1YA9YVVqgo5J+FRzhpodFnanQliiOiZW9Ry5XlOpi0DZRrSV7liNGtNWCoJCQbLIhhlh0/Q+NkaS3OovMoIdaO1IYaabDbOujS9q32rISlQd68oZIGhkDXjWuplpRmTuRmDVKJYfoL5ZVZqkNUyRwmpKnaDEcpeuUbb9iBduykYN5ITic/23G5olT9zBV2zSC8hXhik2uqAET+amfLdhIT601M2qFWqWXNKFtDlDaKOdY7SFOQCQm/INdbPpoiIahTym8Fv8zLdufEI0F0e1A5xKEp0EApqX5X+mvjrW23CyJBhox8c8fRhrUG+RfAwyAXZCheqy7wyHRrZvTKI6zRPwUBx3yT+pgCPtvuohae31Qkq2jPUZNZgv1aM4gTv8mEt6JnzhSFqv/NKeQ9kdpg0hEo3LrAbPTPF3DhR2oT5a9KP5dlvniENSYohuCZHWP2A2J1Q4Kd9Qb7fhmq1107wle1I0liw/aMeqdsAe8RB+50dQF7TRAbRO6TRMUl1T9y3FJg+dyTWTBoUr333goKRjXqSOwoeyHFA8CBhZlNwldL0dlO8V9L63eEarB5lTmbTAFYl+nYgRVgN6Eh2U7w2M9S1bGKNNxYWSfbYt8U9ob2cv4HQ83IEexBpwzeRTmGazxlIQ9Vz6e/RwNmGmsZ6lD8+gdyKFKt/ATCi8FZWIfqgZfkzvy3+S/hDcg7++LghQoZKqZHDdpsCg3kxgRo/k3qqGNNTwWmWRjMWk/2/cJ9XVuKJm1JcskTHwJIreaitg9z2moi9wjM7/oVGbqqMrQ6jX8fbyG+SkE3/986pwcSzosZEtNDOqOYZrhjEjaTPMjoRiTJiywbPzhYlRR+cwvRgnshSbA4U7ginfwGw26fa56iiY6ZS4oEv9Tcqd1luGi6FO9g2vPy86kMG3Pocp38BsNi4eoJtbBzOtGVoLdKQ0tLL9xtUeFY2WJlCN9HUrnAaMJSSD8yF9Da5vMLrJ8mIsymZjxF0GUPkGLpdoqwiLgpYFCiGam4cYR6KeA0wrxj7kV4BuA/GcVMWv0E7uOohgL7CPLMmAl74q0LSAnWpMhK2SLQW6zZlIF20lXpT0POCljyDlCbCSHYnjlVNCcK6y3QqVh5HYFOj8o3PAD8H0XNF3V1UlHc4TDG6rLixpEYF1p5BU0xpMMIvs0EqvL3MuZtFZ/eK0gLoyzj4hFZjUEo+0ZnKYubiFPuJwueY3RGFmiWdK38lO5oGlmUtpudoLlDslX690WyRpTeaYtASA8q33RqcoXAiiVH9ymUOu2Uh7yiSbHeh3yL7zm7Ds9aT8JYYpDzXt41jFLWgH3VRSgSEcK6lNP1AXbtZtHMBkFhXiLIHh5Poqnw45ueCkiqGBYX/EsLEhCS0FnnVTZUS37xTOH18xpdP5infiLvCxGnM3UIixYFxB83kzlW8gu4txFtPqKlwaPE4rWcisZFpWX9iPCOrhzDr+QO1IjLNogxyYcOXMLwR5RKVg4kd1ow/Ti4lOATit305gHcoLwnWXdutggvBG4ZaB9CmmSJvhlmqKcUVnXgCkz+P27HJgdFuiUFEZMeXbeT+lWshXCk3xUmu89JhyRETFCahrZSrf0MI5MfZ7eMzrvHl8M6zoEtxkhV7rgK8dR1suJnaJnwJTmFHnBY1ui+cwoRD7yP+emPRC2SgzyvTWT4exxF2ci0J7qmkVGskSlaOYSzFFdL+aWbzqUv4KppZPNvrz7bUsKheXYqvnuwJVHERW2CHK8Pc4q3xEVJ2zHJvVym7qMyJLGqgstSrfa2isjgjlxZ90dAQ4LsTkBEhmSK0/PwlzBcc07XVeMLXbkzcB6HlqozuD+AhoIQtDQ298O4Ok081MwHv3lPXGrb0wCvP07ABHEa11XgG4tpPnqhaLW0Sz8DOXL84h7QSZlW9oEy7Mjzmdos3xOOc3owOcQnNE+QBzs1GezvX6BVROQClhUb6t9z0mhFLEeLhZ/X6PvwsmHT9+5iSTQrw1CQlTEckZPmfb6Xw1XLejF767UQ2Ou/l0izg76z0WSo11XsbKMBr+RK6ys1mZHL4hHVYn08Xg8+jU3jJo9fq7jjlx2JjmY3KzpbLzrKg2WpNhN+RxQTrlmaUscQdp4p+3ZT//aQcunViCgemKNNZ5GRx28MTNWus4HHQwf7AQ3mbM+VHFiKl/PuTT0bhnrhdS8GUg0ej5NhxDUG1f1N4NOqGPKJFt8axNVBNNyZlOst2M1j1IeMeUb29INQ1Oho+nsyWqyqlccXTmSd3PZS2PzpuMvbgHw0lVL4P0PEwXuME4M3mzFArrs68NpV+RaMabM3D8DBFidhJKDrlg11+eTuFAMT9NlbwG88IkSsVtqLbnIY875VJ+Eu0Dk0Kbmf9hjNCLPuePj/HpUmBEGF1OhAU3uSQMtXpGj+TdMRuswoeIlmxpk9mVfYaHhknKfo67lwcT5g2S3YXVSD5g2nKPhO24Pv3YPcm+FoEVTKVu2UmtkUnNEL8px+/IqTOuNJvBl7HSxHTlGw8TZuF0g1R3n6T+/eiLsFVp0YxSv63PwGKS6qsqzMRnXmhuNYGRYTlt0V+NoJQcItVQt57qWva3iHaVG1KbN4ClLaxrDqvNzjMGoMyNMPSQUvd0QpEordRmJ+xhXzWedQwuZxm6duRipmThmmtzIypuh8YwUa/7a+SOKUFMzcIqDmPHflWYGq0DQ5MBI5B4WNIiQ3V1JFvBlAtWs/tydaVjGxmLT7ihPUy2sUQSdupMlWKMu7xVU0JSeg2XuQwYwn/AovC1HHunyjXiKT6V92p350YlfqiqGlQ+vs6n0OrIc/D3XCAWaH80ZKVb2SrhlMuVeurSECm7+ixI3VZdDWupWLl1T5VFwky6gpmsWIhWhNJ+TN4lIu+wSekxzSizFebUrWWTLC7XAgsoRpqUl6vUMYj3HVYSjSNAeyVx5EWmcekobeSr+WP4YAEljierLlz+o6CzKFLmA172dAXAHdJye39CEc2P1B8sLaaqJMttjx4bzBRH5afbqYG1wXSUNkoMIkn+UYIvqpxFn7o/Y9UT23JTQjiw/8fBSTyrfRlvLbKQxC6aplLSVdK+pa8rLFp1a4KbLWUSgKvFLiAbWXVZx5eqciGkL20l2yb+QLqDz9xJjpIOOGLQcNMi0Fz+etsjSnW8RvWUC1Li3EQ/VeD14/jUp4PTteX2TBVXMkuCDZNM36buS/JVGlA+UHcAXNF1xcmpi5qjssvVDI+hlF76pWW2k6QRzFNJIvYGMimoUjgLJmerAb5NFwwMPbU2lu+cbxC3i9nNMR/DTdp4vsXza2ovYO1kEYROYpTsneOSTUeFFxlPgdGHZwuVOxIIL64UEDmaw8bk9alxqZgxWNtyJDA7AqQDtKL7Boz0R739j4nfsY8M7oaZ50agq5RJ4ChtPKb1HjQmc4/LAU3sYeIzvh8akqjWroZ4vvalH4YuMrZf6hhOQ9D/WoYe9RFD538+9bbfu6OpD2B15PhoZJ7Ul+S3XP02hFrEYyOq9NrH46xXCWxyL+q4thGnBR7x0FTDZEBqVpcHa0AqggxAEYkF7k3+i71uE7k/a6OqjK4YOv+i92/+Hp/Rv86tvf15MQLP0sb1MYr8LxV8WLp3mkDAnSKMaDrevR62q5t2ODe6z6PLqIAndt5wKvCjjm+UYqfeUEa4Pqr5iPu3gPlTjyVx+yVbjp4Thk4X1COkVvPD0SwzByhaL0/3nYB2xrmiuJRJ4GRJ3WPo9bnvURR21+b66lp7taeI4G0ifuGZwPFauvWgs6G6hQuAu7+rf4tCxw91TIf9VlMSetVabz0PzxrcJdaBeaJZOjzeg71yns67IIL/bNKOKhDi4phQxrnXWQ5Go8NqNO9OF+TEpMy7xPyBtjGJLZNSHwgGP5XmJ45gzYm6ZKjGICRVpnUPvUN70ZQmZRKAdZsbLzbcAirCIxzAQEV5UiZBF3RA7s0r9dknFtzjH7DmMRlduPKgCXGwP3ygzpFpjBJJBLmccFiilEkQQRKsk9svxxs1jwSxbNUNo6c8Q56t2zxCuzmeinqk+dQyKTQmzBTELmNjhFBirhfb7spbVuqSvgF8GRjYLalHjhe4Bk6EkMdof+Uqw1leBM2FjX8EwzDXG45CCwVrhdlTpEwCa7mxEDJ0NmQvCO9auk0Bx/SpBS1ty1F85PTDW45KeLjAbW0+1FSGspFK7RJ/OzmHeV+GxLdNrFqi98+TMgks0iZJ6s4QSGYkA1j6qdHnSZkEtr6+tDOrN9pq91kH0MWxUa8szUz+VCmTwCZtCMPU0dWiUHA2qSwvuWP/V8rmZobKk+scCr/XaBsg1fflSXDMUyoPz5cyCdzSXEoDzfkYZw44dBEvEfJDU09G8IJNxJn9kUpFuc/Kg5DK2XkyHBOyikPXE/u5+GVpQ7Uv2jwV4PdfSgHO+eJvIdR+kUIM6rxaOnqOOSEF8NtSJoHhVaDygdweOioRo9+RNr+oy6QAfZehEDJr+p+JWjnv29sJfI2USdDTdMorGa+SMgla2yefxaxCreejPrfY5IWBuWM/4qegN+X0GecxbmuwyJUZWz5ahy31UbnwKQnnfwh9FwSVstH6RXv3jTfeeOONN95444033iiK/wDpWyMpdIpCEgAAAABJRU5ErkJggg==" vertex="1" parent="1">
          <mxGeometry x="1180" y="100" width="70" height="70" as="geometry" />
        </mxCell>
        <mxCell id="SPn83IJFLfhqAifAaKUE-28" value="&lt;b&gt;Staging Cluster&lt;/b&gt;" style="text;html=1;align=center;verticalAlign=middle;resizable=0;points=[];autosize=1;strokeColor=none;fillColor=none;" vertex="1" parent="1">
          <mxGeometry x="1250" y="125" width="100" height="20" as="geometry" />
        </mxCell>
        <mxCell id="SPn83IJFLfhqAifAaKUE-35" value="" style="shape=image;verticalLabelPosition=bottom;verticalAlign=top;imageAspect=0;aspect=fixed;image=data:image/png,iVBORw0KGgoAAAANSUhEUgAAAQkAAAC+CAMAAAARDgovAAAAwFBMVEX///8klu0oVKEoUZ4kmfEoT5wnZLIlh9wnX60nU6EoW6kkk+okjeMAQZkAQ5r5+/0NR5wna7vBzOLo7fUoWKUmdcclgtUmcsMbTp8mesywvdjd4+46YagWS50li+AAkOxdf7pOb6/Q2Oiks9NYd7OBl8Nwibzn6/TI0uWLnsfDzeJGaqxyi72tutabrdBmgriVx/Xl8v1grvGGmsWfr9B0tvLN5fpLpe81ne6/3fmXx/W22fiq0fdpsvGCvvTE2fAATbrgAAAQNklEQVR4nO1dC3uiOBdWAmqACioqXqLVYqvV6nSn25nZ3Znv//+rj5yAAhKUq2J9n2emk8Gm5G1yrslJpXIJdFZjgQs8Xowu8lYXwKtJ+ETYMJtPl37FYvCi40gi7Gmhv176JQvBzjxBhCCg9aVfsghoJp0SSDDCYT+x8fAVRMWIMoFqqhIOtUWp+BLLA5gQFLHKg0yZaF/6NQsAMCHziRDppLgz8VWZUBQ2ePeL8lWZUA2hTofeF2re5ldkAqGeCEPfN+9M3Jm4M3FnonJn4oA7Ey7uTLi4M+HizoSLOxMu7ky4uDPhwsuE5GdC+rJMyMaEDr1rtLzNL8jEPVJzZ4LhzoQLFuVXeVSIJYtta8nBovxynZPvmNRQeZgY7fSH5HCyokjiAJ6Wg4lh0zyV4k2NUjAx1/OmoSxMWKdT3V+DiQ6BVLchh4Oluk9/AAmc5wYqCxOjJh1HS+EoQQVS3QIa8D6gNuB5TeV10C+L7gAmDK5dVBUNYIprOYkToIpHlI1GciY0LePRRgGYqEWYiNQeQF3+B6qUiJxszA0ZZjzcCFAm0JUy0W5ifTbPesQ8eJhwU90q++qkuj1MuA9U3+cOTAQesGZyJjpUqyF9UdASOTChIuTEE2pVT3PPhDhAMgzRQANvc8+EKiAnOd7wNxMy4WxlI0Yx0+LAxESS6mzowMSh6TLRRQYduuJvepjINno3dE0+XMx+Ti8TyMtEfd+8DBPaGDNDhe7nXOQw8iCulokt3fhrqDVw4fRdDkMP4FqZ0Kjta/dniyMQFlbucvNamVgR573ECayQ/Km4UiY08IbqoIZVGah4zGP4HlwpE09USjQce01pgO+Ss9i8UibW9pwALe6lIl9lep1MLHW/Ca/QBYJJribWdTKxMWkkwOPMqGBijfOUmlfJBMhLn6cv1kFq5ikqrpKJtn4UE2F2xUOO6yOO3yEFmBCCTGSVK4fF0av6AC+Cczw85PFFZZm60WJf7lc9zYNX3pNrMPSaDC9pN6s+JpSGzHLlcsvbTMAEdUKNYBhMhfXxlhMP1xmpCX8nOgnzFJrXyMQbCWgOB3KuRgWLY/LHKdKAbBQTSvZMgJiYHPfUg0mRKxMCP9WtgCvY4I4UXi8qV67Q4Hi8E3EQmQjrDCbFMs1wtZcOD2DNCUZPDUdPZomdWp3zgQHLqXI7qIOhTIbcF+h0jt6Wxz1oUjNFqGI4fmhy4YTIeKluJwUmoJMfiH5O+G/woG9efO9L9yGEZ1gUCGAllpnPzdxT4emATb9DQXPW4ZIJZA5Jmk/bFpELTwlseJcIWJghqsMGtbnNTTIiOvlvjsgAZOV5ZRqbCFqY7qRIYVK8wpRAciMchpPqNqKfJ+9APtUBxOaQ5XllGstF9XAmbOsGk2SH1Ic0+IMGVTEcCmyDQi2F97zv5Mp5HagnOqh2WQc9bgfUYPH9nikT0rE5AUx0kydZaf4kwoYUVbp40ufKIzponOpAOp8JEBRkW+nM20+rzc6yZjPr8Xnx0Z4f6eJwJqJMRGowpLa2+ZYXk/ccAcgQXPsf/NVRVVgmqKnrxDRNhDBGyDSJrjfN3VP0qjmHifz9jigmlCATbzpXYlbBYg2HSZrj7xHxCw8TE5bKVp2Jx5oeJlT2XJkwf5g1vUyEduBhwnmw72ASZML3wG0eMfHK16JsXwoX2NTXbzzNsmdCHEiIDV3yN48iNZIbqQnmyiUnSCUNfE3BE6mBoUuNYKSGZde7EpMnSPI2j5iY09XR5zBRY5rIBV0dDC4ZxOCEMDxMIAlCTgb8FLuJlHAmcsiVMyb6CLOhB5oBJl6otc1ZsPbrIFtjt7q9uj2jmHZS1PqgXzMEhw2sz15OMYECTATnRH5xTHfozpzwNY+YqBhUn3GY6Ld6E9DY/v+225NBDTMuTBzm+paRCYt+B28znxhOETxRBrLElsjHbTABRmYvQl1xIYo9MHrR7DaYmEdbg9FcgEzVQ/bslZGJCj0fcBTbPhMsRhZicpaSiaNk4Plgca3HYyLKyQSEFBtJiGCvE+qjlZIJiOnyXI9I0E5D5WVZmfjwbiSJQ8SEv1++nEx0aKdSPT4V1LM2rTAiSsqEswcxLg/ws3Az1Nj2eWCO3yEBE12nuWeifnauXPI2w3LlhtsMMsHIlyRfM4wJDeMIN4xHBMTH9BD70sdEtd5gSb9WA3x/p3lgQmnAcRWx2+hWPU1PrrzR8nbgNvdMKLUGeK+DRt9pqj4m9t9Ra9Q9HYQy4UQdY60P+3ctcDSonwlqfx3+dv/hiU8Efioz8H2RmrAOPPGJwAPnb2+kJvQNQplYQm3eOOYV22viTxjwmAjDFcas7LUxXLMsjXS+ecWWRkTgG5iIWG9gnEblyqkZfzJXbmTIRKe9ENzjuDHsTHZgLSJ/DGcDjODMP7znyVQ3y5Wf6mDC78Bgk4b7gYGHic5yaxm6c24TydxejzqZNFioNyIBwCRPo1cPB9sfLhi85z0WQeV30GVvbQx4HbjJdm4HMITxfDlcPRqEkH3K2Th7QrhJFUyOIjSjlUU7pXD55UE473neHWBdt0nAeP9hecCdhkc8sJiEYBpBGfGy021mMYNQPiBktOoxeGgwMnUrqDVezSLOR+cEhCSj34uo1OynQVS7bmL2YRtcGe1E2yWQ50+gGfEn+F8pCIB1YtQoC+fQADHteld2dqpgsj7Sni+YnRNv1EqFVn/Qq6tHMWs/Jiqrb66qk96g1RDcDTtYH4fkOJ7hkOWAl7q+ZpyaBz3JqXkvIMkrivXxU0jei22lS+DOXj/A2g0AY9KctUPzfx+cTZ03AFUKsIBMHc8+wl3wSuUxRVT4usH8CipYTdMkRNcN63ubR4MNes1MhDtUZkA4arezds+b1fZt+XJitxU1jhPE/64fbKtyjEMNNCh8m0xQeRmW2opi4iZXBz3dgY0Y+w9vVU5AHsO3a/MUZnROXPq184AQGY8KgYUTBMevHwl28e/QTdoTIlWh8bau0yyzwNuOUl7UUezTPqubZAJUKIl3Agz8Ds5O3/KC5n0xibeF/y1ip29pwQ64xFGhNtqJN2tdMcCq0iO8rTAsT6S8ygiwqsy4h+tfmvFTzNcOSJLFPt6iHZ/SLzvYlIh9NlIDt/zSL58pIPGqxy+3AI7HLRmZbA9Z+IahSFAjE98SE1CXJUkFjlXEIaoygkmJBFMCcuO3FNyG+hsJpISz+/t21CiYl8kO1XciDsyUEDTJkbCOlba+pVgNOKHmcxIiWM1V6UaUBwvthx1ROAerW/JGIVQV0wnd4/V2fDC2GQ0nrbwxuh2RCfv+9OQVrCLOGJYLbFNs6FmN87ALr4FUOoi95BqU4SnTsJUynYridHoJZQTJ8YSlWABQtSyjEIUy/fuT9vn5d+FcgMORolARBcksIzj98e52+v5jmkmX54IVxIyTHA9BZoJC+eH5jWh/FUtFxDmmswGR/kwsCiBCm8/Z158Z9HguwPMSzGS1efZ4odv3Iw4qnIvpL9rboqkT1u+v4iYFOyGQvu4hjeCh9BLuB+1rp+O9U1zcpICjEGnXRsVxPVJHa6Z/Ku7xEKfff4qaFKxSbFLPy4M0Z/UPmP5rd/Vowo63F41O1KKWBzvR1czgjh+4+iK1Zz79dKIdNhXNh6bd72cxTECFK4Gksan2+J7F8gCBOXN3CJuVwuYECImMCubOEx7L9mH6rcJEDhBB40b/FcMEExIpFagL6o+mNa6Uv+yOOqwIDstU/1WExS32s1GgDrZRJaHOxZSa2iNZN03doIcP34uYEuwgcDZCgqIDd+Cl/BXCpKhow8XiDfTZ7wKmBHM3zFl2VbXB90jrmoOk2KMIa0KcsFMbMXeNROE1RX2TA8C4cvCtiLWhgtpIlPLiQfNfipIU0x+/mPf1WYhTDheWpHXFg3giWdiZVWX68/efP79/FhOoYZfYHB13TAco351J0pyexsugmzMAB72yUxsuVtlMigLBiMj+NriOnrQS0oVQY/ozcyIc56M8k6KWtSFxQMe5eS/mG4lq7xIhfRCW5jqfe0qSVEIS1ZYkFZ43Epn6zIuIigZ+WJzQrqj04eB8wRs6RdXIlQhWrplffPT4hZQ+K2FQsHQR61D4hOQiIxys0dnDEu114ZxaN0mhGofFsXO+NnMOF9SfEbwSlV7NqWGA9N3/ipwSYp/dKpu5QeXHAkJO0etDFKv1lnEo0bysVP4tLLPhXJGA9aQbZ84FE5r8A6SiaM+GPQ0Cao7ZqbOiMn/ihN1qUcDt00uwNFvHlS6grfZa8qGmhUlm7uk77WchNoVzyTAiqe5zOhMrVs8Kqp94qpvUB10ob+Kp7IEXnrBAEQF9UWmBiAipMZMLWJzerR0F1U0wVDfxVPhApGkN/Rmn/OPYtvJkBdqec792mqETfeMRxqbeXD8dJ97+zpcKscpui8HH1Zdyw1LnlXXCJtHN8Sa8zksl1yiVOyGIkeuNugF8OLOCXoIiHcqbNM3182rJX6I5Sk1bQjhplOf0WeA4WAAVeLHaWLP1em3tFqvVtv3SObE+36s5USG6heoyjliegR0okNjm7HsuYTungiMtVJdhMP9cPFIqTDmutsphVlC331mr+V0fGwENqJBwXAvmPWNZYbu7bqJ1d4EJQaHBAsEkrsrKlAqx6lQuxMRIeg1iBthQZYr1x5jCQstMmYpKlxVMtJV33v5WNNilkiaO+9vIxsQS1b5TONLUN8WqzmMMaYg3wQpNnxoWxUlLcMMfj0XaUhyMDMKk9ireEvlMlwuEAq8OD81ZEW7nGVgwy5uQbSwuUuxUFquTvuvs2W7/lfBg43VMGBd4G2ux/pfIshBFddBwC7ya+s7Hg3ZhaaF9Z4W9McGbOAv2Pfa0oNdz1fbldQlZ+Ow6bbPbWBeWGCOr6cawx9v305938asagwuYDfv760zd/AjMgNlwNO+MLy0855bObifG5GHNLTp6jG/ncWFPhnpf3t/fjYm5O6qN3t6MZh+7Ufqd2Wkxf9adjZaINGer5ZlL9v2PcoILykK3Jnho0EMLvG6Ho/XmScPZDisRRitTR86NCESXre3yrIXy/mfK40K0V0SvXzOQ54bLprEK9/qGq9HmdfMSo/JnjtDaM504ZGBEo1eL4edp5ar9IwbMC4ibq72ulwTo0Vhx5YA2fp1XhtYFvQ8/Ok8z073DgEY0if5Q262G844Wyciv31SnssyBok56Tpj8ECK2RSS2tpExgNFssZpxbuS5DF7edqZOsGcQhDSb8my3WT2156PR+3sIKdrnn0m9N+i3ag3DVwXcCY6uF+3Tkmc0urT7cQRtuVo/wPUOh+EgVsmZYKMxXq/XM8t6pKDXYq/X47FsCMifKKDfRCXOg7wYnip7fNXQllvL9hKJeRQHZ5dfsDgwXIsdchcGhpVlGtb29ep+z4kwel3t1gZcBX7mfQ82RfSycDKePW8jwuTlRGfU/vhOCaG3o9Pr0ekU8KwbmAB07cB16WNrs3qbl3o5nIKmvczbw6ft982jNRuPDXbfj2GM17PZ4/Ni9TRsL0fRKuai+D8H39zPahpNnQAAAABJRU5ErkJggg==" vertex="1" parent="1">
          <mxGeometry x="1165" y="218.07" width="80" height="57.36" as="geometry" />
        </mxCell>
        <mxCell id="SPn83IJFLfhqAifAaKUE-36" value="DRP Checks(Copyright/Globalyzer &#xa;)" style="shape=image;verticalLabelPosition=bottom;verticalAlign=top;imageAspect=0;aspect=fixed;image=data:image/png,iVBORw0KGgoAAAANSUhEUgAAAQkAAAC+CAMAAAARDgovAAAAwFBMVEX///8klu0oVKEoUZ4kmfEoT5wnZLIlh9wnX60nU6EoW6kkk+okjeMAQZkAQ5r5+/0NR5wna7vBzOLo7fUoWKUmdcclgtUmcsMbTp8mesywvdjd4+46YagWS50li+AAkOxdf7pOb6/Q2Oiks9NYd7OBl8Nwibzn6/TI0uWLnsfDzeJGaqxyi72tutabrdBmgriVx/Xl8v1grvGGmsWfr9B0tvLN5fpLpe81ne6/3fmXx/W22fiq0fdpsvGCvvTE2fAATbrgAAAQNklEQVR4nO1dC3uiOBdWAmqACioqXqLVYqvV6nSn25nZ3Znv//+rj5yAAhKUq2J9n2emk8Gm5G1yrslJpXIJdFZjgQs8Xowu8lYXwKtJ+ETYMJtPl37FYvCi40gi7Gmhv176JQvBzjxBhCCg9aVfsghoJp0SSDDCYT+x8fAVRMWIMoFqqhIOtUWp+BLLA5gQFLHKg0yZaF/6NQsAMCHziRDppLgz8VWZUBQ2ePeL8lWZUA2hTofeF2re5ldkAqGeCEPfN+9M3Jm4M3FnonJn4oA7Ey7uTLi4M+HizoSLOxMu7ky4uDPhwsuE5GdC+rJMyMaEDr1rtLzNL8jEPVJzZ4LhzoQLFuVXeVSIJYtta8nBovxynZPvmNRQeZgY7fSH5HCyokjiAJ6Wg4lh0zyV4k2NUjAx1/OmoSxMWKdT3V+DiQ6BVLchh4Oluk9/AAmc5wYqCxOjJh1HS+EoQQVS3QIa8D6gNuB5TeV10C+L7gAmDK5dVBUNYIprOYkToIpHlI1GciY0LePRRgGYqEWYiNQeQF3+B6qUiJxszA0ZZjzcCFAm0JUy0W5ifTbPesQ8eJhwU90q++qkuj1MuA9U3+cOTAQesGZyJjpUqyF9UdASOTChIuTEE2pVT3PPhDhAMgzRQANvc8+EKiAnOd7wNxMy4WxlI0Yx0+LAxESS6mzowMSh6TLRRQYduuJvepjINno3dE0+XMx+Ti8TyMtEfd+8DBPaGDNDhe7nXOQw8iCulokt3fhrqDVw4fRdDkMP4FqZ0Kjta/dniyMQFlbucvNamVgR573ECayQ/Km4UiY08IbqoIZVGah4zGP4HlwpE09USjQce01pgO+Ss9i8UibW9pwALe6lIl9lep1MLHW/Ca/QBYJJribWdTKxMWkkwOPMqGBijfOUmlfJBMhLn6cv1kFq5ikqrpKJtn4UE2F2xUOO6yOO3yEFmBCCTGSVK4fF0av6AC+Cczw85PFFZZm60WJf7lc9zYNX3pNrMPSaDC9pN6s+JpSGzHLlcsvbTMAEdUKNYBhMhfXxlhMP1xmpCX8nOgnzFJrXyMQbCWgOB3KuRgWLY/LHKdKAbBQTSvZMgJiYHPfUg0mRKxMCP9WtgCvY4I4UXi8qV67Q4Hi8E3EQmQjrDCbFMs1wtZcOD2DNCUZPDUdPZomdWp3zgQHLqXI7qIOhTIbcF+h0jt6Wxz1oUjNFqGI4fmhy4YTIeKluJwUmoJMfiH5O+G/woG9efO9L9yGEZ1gUCGAllpnPzdxT4emATb9DQXPW4ZIJZA5Jmk/bFpELTwlseJcIWJghqsMGtbnNTTIiOvlvjsgAZOV5ZRqbCFqY7qRIYVK8wpRAciMchpPqNqKfJ+9APtUBxOaQ5XllGstF9XAmbOsGk2SH1Ic0+IMGVTEcCmyDQi2F97zv5Mp5HagnOqh2WQc9bgfUYPH9nikT0rE5AUx0kydZaf4kwoYUVbp40ufKIzponOpAOp8JEBRkW+nM20+rzc6yZjPr8Xnx0Z4f6eJwJqJMRGowpLa2+ZYXk/ccAcgQXPsf/NVRVVgmqKnrxDRNhDBGyDSJrjfN3VP0qjmHifz9jigmlCATbzpXYlbBYg2HSZrj7xHxCw8TE5bKVp2Jx5oeJlT2XJkwf5g1vUyEduBhwnmw72ASZML3wG0eMfHK16JsXwoX2NTXbzzNsmdCHEiIDV3yN48iNZIbqQnmyiUnSCUNfE3BE6mBoUuNYKSGZde7EpMnSPI2j5iY09XR5zBRY5rIBV0dDC4ZxOCEMDxMIAlCTgb8FLuJlHAmcsiVMyb6CLOhB5oBJl6otc1ZsPbrIFtjt7q9uj2jmHZS1PqgXzMEhw2sz15OMYECTATnRH5xTHfozpzwNY+YqBhUn3GY6Ld6E9DY/v+225NBDTMuTBzm+paRCYt+B28znxhOETxRBrLElsjHbTABRmYvQl1xIYo9MHrR7DaYmEdbg9FcgEzVQ/bslZGJCj0fcBTbPhMsRhZicpaSiaNk4Plgca3HYyLKyQSEFBtJiGCvE+qjlZIJiOnyXI9I0E5D5WVZmfjwbiSJQ8SEv1++nEx0aKdSPT4V1LM2rTAiSsqEswcxLg/ws3Az1Nj2eWCO3yEBE12nuWeifnauXPI2w3LlhtsMMsHIlyRfM4wJDeMIN4xHBMTH9BD70sdEtd5gSb9WA3x/p3lgQmnAcRWx2+hWPU1PrrzR8nbgNvdMKLUGeK+DRt9pqj4m9t9Ra9Q9HYQy4UQdY60P+3ctcDSonwlqfx3+dv/hiU8Efioz8H2RmrAOPPGJwAPnb2+kJvQNQplYQm3eOOYV22viTxjwmAjDFcas7LUxXLMsjXS+ecWWRkTgG5iIWG9gnEblyqkZfzJXbmTIRKe9ENzjuDHsTHZgLSJ/DGcDjODMP7znyVQ3y5Wf6mDC78Bgk4b7gYGHic5yaxm6c24TydxejzqZNFioNyIBwCRPo1cPB9sfLhi85z0WQeV30GVvbQx4HbjJdm4HMITxfDlcPRqEkH3K2Th7QrhJFUyOIjSjlUU7pXD55UE473neHWBdt0nAeP9hecCdhkc8sJiEYBpBGfGy021mMYNQPiBktOoxeGgwMnUrqDVezSLOR+cEhCSj34uo1OynQVS7bmL2YRtcGe1E2yWQ50+gGfEn+F8pCIB1YtQoC+fQADHteld2dqpgsj7Sni+YnRNv1EqFVn/Qq6tHMWs/Jiqrb66qk96g1RDcDTtYH4fkOJ7hkOWAl7q+ZpyaBz3JqXkvIMkrivXxU0jei22lS+DOXj/A2g0AY9KctUPzfx+cTZ03AFUKsIBMHc8+wl3wSuUxRVT4usH8CipYTdMkRNcN63ubR4MNes1MhDtUZkA4arezds+b1fZt+XJitxU1jhPE/64fbKtyjEMNNCh8m0xQeRmW2opi4iZXBz3dgY0Y+w9vVU5AHsO3a/MUZnROXPq184AQGY8KgYUTBMevHwl28e/QTdoTIlWh8bau0yyzwNuOUl7UUezTPqubZAJUKIl3Agz8Ds5O3/KC5n0xibeF/y1ip29pwQ64xFGhNtqJN2tdMcCq0iO8rTAsT6S8ygiwqsy4h+tfmvFTzNcOSJLFPt6iHZ/SLzvYlIh9NlIDt/zSL58pIPGqxy+3AI7HLRmZbA9Z+IahSFAjE98SE1CXJUkFjlXEIaoygkmJBFMCcuO3FNyG+hsJpISz+/t21CiYl8kO1XciDsyUEDTJkbCOlba+pVgNOKHmcxIiWM1V6UaUBwvthx1ROAerW/JGIVQV0wnd4/V2fDC2GQ0nrbwxuh2RCfv+9OQVrCLOGJYLbFNs6FmN87ALr4FUOoi95BqU4SnTsJUynYridHoJZQTJ8YSlWABQtSyjEIUy/fuT9vn5d+FcgMORolARBcksIzj98e52+v5jmkmX54IVxIyTHA9BZoJC+eH5jWh/FUtFxDmmswGR/kwsCiBCm8/Z158Z9HguwPMSzGS1efZ4odv3Iw4qnIvpL9rboqkT1u+v4iYFOyGQvu4hjeCh9BLuB+1rp+O9U1zcpICjEGnXRsVxPVJHa6Z/Ku7xEKfff4qaFKxSbFLPy4M0Z/UPmP5rd/Vowo63F41O1KKWBzvR1czgjh+4+iK1Zz79dKIdNhXNh6bd72cxTECFK4Gksan2+J7F8gCBOXN3CJuVwuYECImMCubOEx7L9mH6rcJEDhBB40b/FcMEExIpFagL6o+mNa6Uv+yOOqwIDstU/1WExS32s1GgDrZRJaHOxZSa2iNZN03doIcP34uYEuwgcDZCgqIDd+Cl/BXCpKhow8XiDfTZ7wKmBHM3zFl2VbXB90jrmoOk2KMIa0KcsFMbMXeNROE1RX2TA8C4cvCtiLWhgtpIlPLiQfNfipIU0x+/mPf1WYhTDheWpHXFg3giWdiZVWX68/efP79/FhOoYZfYHB13TAco351J0pyexsugmzMAB72yUxsuVtlMigLBiMj+NriOnrQS0oVQY/ozcyIc56M8k6KWtSFxQMe5eS/mG4lq7xIhfRCW5jqfe0qSVEIS1ZYkFZ43Epn6zIuIigZ+WJzQrqj04eB8wRs6RdXIlQhWrplffPT4hZQ+K2FQsHQR61D4hOQiIxys0dnDEu114ZxaN0mhGofFsXO+NnMOF9SfEbwSlV7NqWGA9N3/ipwSYp/dKpu5QeXHAkJO0etDFKv1lnEo0bysVP4tLLPhXJGA9aQbZ84FE5r8A6SiaM+GPQ0Cao7ZqbOiMn/ihN1qUcDt00uwNFvHlS6grfZa8qGmhUlm7uk77WchNoVzyTAiqe5zOhMrVs8Kqp94qpvUB10ob+Kp7IEXnrBAEQF9UWmBiAipMZMLWJzerR0F1U0wVDfxVPhApGkN/Rmn/OPYtvJkBdqec792mqETfeMRxqbeXD8dJ97+zpcKscpui8HH1Zdyw1LnlXXCJtHN8Sa8zksl1yiVOyGIkeuNugF8OLOCXoIiHcqbNM3182rJX6I5Sk1bQjhplOf0WeA4WAAVeLHaWLP1em3tFqvVtv3SObE+36s5USG6heoyjliegR0okNjm7HsuYTungiMtVJdhMP9cPFIqTDmutsphVlC331mr+V0fGwENqJBwXAvmPWNZYbu7bqJ1d4EJQaHBAsEkrsrKlAqx6lQuxMRIeg1iBthQZYr1x5jCQstMmYpKlxVMtJV33v5WNNilkiaO+9vIxsQS1b5TONLUN8WqzmMMaYg3wQpNnxoWxUlLcMMfj0XaUhyMDMKk9ireEvlMlwuEAq8OD81ZEW7nGVgwy5uQbSwuUuxUFquTvuvs2W7/lfBg43VMGBd4G2ux/pfIshBFddBwC7ya+s7Hg3ZhaaF9Z4W9McGbOAv2Pfa0oNdz1fbldQlZ+Ow6bbPbWBeWGCOr6cawx9v305938asagwuYDfv760zd/AjMgNlwNO+MLy0855bObifG5GHNLTp6jG/ncWFPhnpf3t/fjYm5O6qN3t6MZh+7Ufqd2Wkxf9adjZaINGer5ZlL9v2PcoILykK3Jnho0EMLvG6Ho/XmScPZDisRRitTR86NCESXre3yrIXy/mfK40K0V0SvXzOQ54bLprEK9/qGq9HmdfMSo/JnjtDaM504ZGBEo1eL4edp5ar9IwbMC4ibq72ulwTo0Vhx5YA2fp1XhtYFvQ8/Ok8z073DgEY0if5Q262G844Wyciv31SnssyBok56Tpj8ECK2RSS2tpExgNFssZpxbuS5DF7edqZOsGcQhDSb8my3WT2156PR+3sIKdrnn0m9N+i3ag3DVwXcCY6uF+3Tkmc0urT7cQRtuVo/wPUOh+EgVsmZYKMxXq/XM8t6pKDXYq/X47FsCMifKKDfRCXOg7wYnip7fNXQllvL9hKJeRQHZ5dfsDgwXIsdchcGhpVlGtb29ep+z4kwel3t1gZcBX7mfQ82RfSycDKePW8jwuTlRGfU/vhOCaG3o9Pr0ekU8KwbmAB07cB16WNrs3qbl3o5nIKmvczbw6ft982jNRuPDXbfj2GM17PZ4/Ni9TRsL0fRKuai+D8H39zPahpNnQAAAABJRU5ErkJggg==" vertex="1" parent="1">
          <mxGeometry x="1215" y="218.07" width="80" height="57.36" as="geometry" />
        </mxCell>
        <mxCell id="SPn83IJFLfhqAifAaKUE-37" value="" style="shape=image;verticalLabelPosition=bottom;verticalAlign=top;imageAspect=0;aspect=fixed;image=data:image/png,iVBORw0KGgoAAAANSUhEUgAAAQkAAAC+CAMAAAARDgovAAAAwFBMVEX///8klu0oVKEoUZ4kmfEoT5wnZLIlh9wnX60nU6EoW6kkk+okjeMAQZkAQ5r5+/0NR5wna7vBzOLo7fUoWKUmdcclgtUmcsMbTp8mesywvdjd4+46YagWS50li+AAkOxdf7pOb6/Q2Oiks9NYd7OBl8Nwibzn6/TI0uWLnsfDzeJGaqxyi72tutabrdBmgriVx/Xl8v1grvGGmsWfr9B0tvLN5fpLpe81ne6/3fmXx/W22fiq0fdpsvGCvvTE2fAATbrgAAAQNklEQVR4nO1dC3uiOBdWAmqACioqXqLVYqvV6nSn25nZ3Znv//+rj5yAAhKUq2J9n2emk8Gm5G1yrslJpXIJdFZjgQs8Xowu8lYXwKtJ+ETYMJtPl37FYvCi40gi7Gmhv176JQvBzjxBhCCg9aVfsghoJp0SSDDCYT+x8fAVRMWIMoFqqhIOtUWp+BLLA5gQFLHKg0yZaF/6NQsAMCHziRDppLgz8VWZUBQ2ePeL8lWZUA2hTofeF2re5ldkAqGeCEPfN+9M3Jm4M3FnonJn4oA7Ey7uTLi4M+HizoSLOxMu7ky4uDPhwsuE5GdC+rJMyMaEDr1rtLzNL8jEPVJzZ4LhzoQLFuVXeVSIJYtta8nBovxynZPvmNRQeZgY7fSH5HCyokjiAJ6Wg4lh0zyV4k2NUjAx1/OmoSxMWKdT3V+DiQ6BVLchh4Oluk9/AAmc5wYqCxOjJh1HS+EoQQVS3QIa8D6gNuB5TeV10C+L7gAmDK5dVBUNYIprOYkToIpHlI1GciY0LePRRgGYqEWYiNQeQF3+B6qUiJxszA0ZZjzcCFAm0JUy0W5ifTbPesQ8eJhwU90q++qkuj1MuA9U3+cOTAQesGZyJjpUqyF9UdASOTChIuTEE2pVT3PPhDhAMgzRQANvc8+EKiAnOd7wNxMy4WxlI0Yx0+LAxESS6mzowMSh6TLRRQYduuJvepjINno3dE0+XMx+Ti8TyMtEfd+8DBPaGDNDhe7nXOQw8iCulokt3fhrqDVw4fRdDkMP4FqZ0Kjta/dniyMQFlbucvNamVgR573ECayQ/Km4UiY08IbqoIZVGah4zGP4HlwpE09USjQce01pgO+Ss9i8UibW9pwALe6lIl9lep1MLHW/Ca/QBYJJribWdTKxMWkkwOPMqGBijfOUmlfJBMhLn6cv1kFq5ikqrpKJtn4UE2F2xUOO6yOO3yEFmBCCTGSVK4fF0av6AC+Cczw85PFFZZm60WJf7lc9zYNX3pNrMPSaDC9pN6s+JpSGzHLlcsvbTMAEdUKNYBhMhfXxlhMP1xmpCX8nOgnzFJrXyMQbCWgOB3KuRgWLY/LHKdKAbBQTSvZMgJiYHPfUg0mRKxMCP9WtgCvY4I4UXi8qV67Q4Hi8E3EQmQjrDCbFMs1wtZcOD2DNCUZPDUdPZomdWp3zgQHLqXI7qIOhTIbcF+h0jt6Wxz1oUjNFqGI4fmhy4YTIeKluJwUmoJMfiH5O+G/woG9efO9L9yGEZ1gUCGAllpnPzdxT4emATb9DQXPW4ZIJZA5Jmk/bFpELTwlseJcIWJghqsMGtbnNTTIiOvlvjsgAZOV5ZRqbCFqY7qRIYVK8wpRAciMchpPqNqKfJ+9APtUBxOaQ5XllGstF9XAmbOsGk2SH1Ic0+IMGVTEcCmyDQi2F97zv5Mp5HagnOqh2WQc9bgfUYPH9nikT0rE5AUx0kydZaf4kwoYUVbp40ufKIzponOpAOp8JEBRkW+nM20+rzc6yZjPr8Xnx0Z4f6eJwJqJMRGowpLa2+ZYXk/ccAcgQXPsf/NVRVVgmqKnrxDRNhDBGyDSJrjfN3VP0qjmHifz9jigmlCATbzpXYlbBYg2HSZrj7xHxCw8TE5bKVp2Jx5oeJlT2XJkwf5g1vUyEduBhwnmw72ASZML3wG0eMfHK16JsXwoX2NTXbzzNsmdCHEiIDV3yN48iNZIbqQnmyiUnSCUNfE3BE6mBoUuNYKSGZde7EpMnSPI2j5iY09XR5zBRY5rIBV0dDC4ZxOCEMDxMIAlCTgb8FLuJlHAmcsiVMyb6CLOhB5oBJl6otc1ZsPbrIFtjt7q9uj2jmHZS1PqgXzMEhw2sz15OMYECTATnRH5xTHfozpzwNY+YqBhUn3GY6Ld6E9DY/v+225NBDTMuTBzm+paRCYt+B28znxhOETxRBrLElsjHbTABRmYvQl1xIYo9MHrR7DaYmEdbg9FcgEzVQ/bslZGJCj0fcBTbPhMsRhZicpaSiaNk4Plgca3HYyLKyQSEFBtJiGCvE+qjlZIJiOnyXI9I0E5D5WVZmfjwbiSJQ8SEv1++nEx0aKdSPT4V1LM2rTAiSsqEswcxLg/ws3Az1Nj2eWCO3yEBE12nuWeifnauXPI2w3LlhtsMMsHIlyRfM4wJDeMIN4xHBMTH9BD70sdEtd5gSb9WA3x/p3lgQmnAcRWx2+hWPU1PrrzR8nbgNvdMKLUGeK+DRt9pqj4m9t9Ra9Q9HYQy4UQdY60P+3ctcDSonwlqfx3+dv/hiU8Efioz8H2RmrAOPPGJwAPnb2+kJvQNQplYQm3eOOYV22viTxjwmAjDFcas7LUxXLMsjXS+ecWWRkTgG5iIWG9gnEblyqkZfzJXbmTIRKe9ENzjuDHsTHZgLSJ/DGcDjODMP7znyVQ3y5Wf6mDC78Bgk4b7gYGHic5yaxm6c24TydxejzqZNFioNyIBwCRPo1cPB9sfLhi85z0WQeV30GVvbQx4HbjJdm4HMITxfDlcPRqEkH3K2Th7QrhJFUyOIjSjlUU7pXD55UE473neHWBdt0nAeP9hecCdhkc8sJiEYBpBGfGy021mMYNQPiBktOoxeGgwMnUrqDVezSLOR+cEhCSj34uo1OynQVS7bmL2YRtcGe1E2yWQ50+gGfEn+F8pCIB1YtQoC+fQADHteld2dqpgsj7Sni+YnRNv1EqFVn/Qq6tHMWs/Jiqrb66qk96g1RDcDTtYH4fkOJ7hkOWAl7q+ZpyaBz3JqXkvIMkrivXxU0jei22lS+DOXj/A2g0AY9KctUPzfx+cTZ03AFUKsIBMHc8+wl3wSuUxRVT4usH8CipYTdMkRNcN63ubR4MNes1MhDtUZkA4arezds+b1fZt+XJitxU1jhPE/64fbKtyjEMNNCh8m0xQeRmW2opi4iZXBz3dgY0Y+w9vVU5AHsO3a/MUZnROXPq184AQGY8KgYUTBMevHwl28e/QTdoTIlWh8bau0yyzwNuOUl7UUezTPqubZAJUKIl3Agz8Ds5O3/KC5n0xibeF/y1ip29pwQ64xFGhNtqJN2tdMcCq0iO8rTAsT6S8ygiwqsy4h+tfmvFTzNcOSJLFPt6iHZ/SLzvYlIh9NlIDt/zSL58pIPGqxy+3AI7HLRmZbA9Z+IahSFAjE98SE1CXJUkFjlXEIaoygkmJBFMCcuO3FNyG+hsJpISz+/t21CiYl8kO1XciDsyUEDTJkbCOlba+pVgNOKHmcxIiWM1V6UaUBwvthx1ROAerW/JGIVQV0wnd4/V2fDC2GQ0nrbwxuh2RCfv+9OQVrCLOGJYLbFNs6FmN87ALr4FUOoi95BqU4SnTsJUynYridHoJZQTJ8YSlWABQtSyjEIUy/fuT9vn5d+FcgMORolARBcksIzj98e52+v5jmkmX54IVxIyTHA9BZoJC+eH5jWh/FUtFxDmmswGR/kwsCiBCm8/Z158Z9HguwPMSzGS1efZ4odv3Iw4qnIvpL9rboqkT1u+v4iYFOyGQvu4hjeCh9BLuB+1rp+O9U1zcpICjEGnXRsVxPVJHa6Z/Ku7xEKfff4qaFKxSbFLPy4M0Z/UPmP5rd/Vowo63F41O1KKWBzvR1czgjh+4+iK1Zz79dKIdNhXNh6bd72cxTECFK4Gksan2+J7F8gCBOXN3CJuVwuYECImMCubOEx7L9mH6rcJEDhBB40b/FcMEExIpFagL6o+mNa6Uv+yOOqwIDstU/1WExS32s1GgDrZRJaHOxZSa2iNZN03doIcP34uYEuwgcDZCgqIDd+Cl/BXCpKhow8XiDfTZ7wKmBHM3zFl2VbXB90jrmoOk2KMIa0KcsFMbMXeNROE1RX2TA8C4cvCtiLWhgtpIlPLiQfNfipIU0x+/mPf1WYhTDheWpHXFg3giWdiZVWX68/efP79/FhOoYZfYHB13TAco351J0pyexsugmzMAB72yUxsuVtlMigLBiMj+NriOnrQS0oVQY/ozcyIc56M8k6KWtSFxQMe5eS/mG4lq7xIhfRCW5jqfe0qSVEIS1ZYkFZ43Epn6zIuIigZ+WJzQrqj04eB8wRs6RdXIlQhWrplffPT4hZQ+K2FQsHQR61D4hOQiIxys0dnDEu114ZxaN0mhGofFsXO+NnMOF9SfEbwSlV7NqWGA9N3/ipwSYp/dKpu5QeXHAkJO0etDFKv1lnEo0bysVP4tLLPhXJGA9aQbZ84FE5r8A6SiaM+GPQ0Cao7ZqbOiMn/ihN1qUcDt00uwNFvHlS6grfZa8qGmhUlm7uk77WchNoVzyTAiqe5zOhMrVs8Kqp94qpvUB10ob+Kp7IEXnrBAEQF9UWmBiAipMZMLWJzerR0F1U0wVDfxVPhApGkN/Rmn/OPYtvJkBdqec792mqETfeMRxqbeXD8dJ97+zpcKscpui8HH1Zdyw1LnlXXCJtHN8Sa8zksl1yiVOyGIkeuNugF8OLOCXoIiHcqbNM3182rJX6I5Sk1bQjhplOf0WeA4WAAVeLHaWLP1em3tFqvVtv3SObE+36s5USG6heoyjliegR0okNjm7HsuYTungiMtVJdhMP9cPFIqTDmutsphVlC331mr+V0fGwENqJBwXAvmPWNZYbu7bqJ1d4EJQaHBAsEkrsrKlAqx6lQuxMRIeg1iBthQZYr1x5jCQstMmYpKlxVMtJV33v5WNNilkiaO+9vIxsQS1b5TONLUN8WqzmMMaYg3wQpNnxoWxUlLcMMfj0XaUhyMDMKk9ireEvlMlwuEAq8OD81ZEW7nGVgwy5uQbSwuUuxUFquTvuvs2W7/lfBg43VMGBd4G2ux/pfIshBFddBwC7ya+s7Hg3ZhaaF9Z4W9McGbOAv2Pfa0oNdz1fbldQlZ+Ow6bbPbWBeWGCOr6cawx9v305938asagwuYDfv760zd/AjMgNlwNO+MLy0855bObifG5GHNLTp6jG/ncWFPhnpf3t/fjYm5O6qN3t6MZh+7Ufqd2Wkxf9adjZaINGer5ZlL9v2PcoILykK3Jnho0EMLvG6Ho/XmScPZDisRRitTR86NCESXre3yrIXy/mfK40K0V0SvXzOQ54bLprEK9/qGq9HmdfMSo/JnjtDaM504ZGBEo1eL4edp5ar9IwbMC4ibq72ulwTo0Vhx5YA2fp1XhtYFvQ8/Ok8z073DgEY0if5Q262G844Wyciv31SnssyBok56Tpj8ECK2RSS2tpExgNFssZpxbuS5DF7edqZOsGcQhDSb8my3WT2156PR+3sIKdrnn0m9N+i3ag3DVwXcCY6uF+3Tkmc0urT7cQRtuVo/wPUOh+EgVsmZYKMxXq/XM8t6pKDXYq/X47FsCMifKKDfRCXOg7wYnip7fNXQllvL9hKJeRQHZ5dfsDgwXIsdchcGhpVlGtb29ep+z4kwel3t1gZcBX7mfQ82RfSycDKePW8jwuTlRGfU/vhOCaG3o9Pr0ekU8KwbmAB07cB16WNrs3qbl3o5nIKmvczbw6ft982jNRuPDXbfj2GM17PZ4/Ni9TRsL0fRKuai+D8H39zPahpNnQAAAABJRU5ErkJggg==" vertex="1" parent="1">
          <mxGeometry x="1270" y="218.07" width="80" height="57.36" as="geometry" />
        </mxCell>
        <mxCell id="SPn83IJFLfhqAifAaKUE-38" value="DRP Multi-Repo Checker" style="shape=image;verticalLabelPosition=bottom;verticalAlign=top;imageAspect=0;aspect=fixed;image=data:image/png,iVBORw0KGgoAAAANSUhEUgAAAQkAAAC+CAMAAAARDgovAAAAwFBMVEX///8klu0oVKEoUZ4kmfEoT5wnZLIlh9wnX60nU6EoW6kkk+okjeMAQZkAQ5r5+/0NR5wna7vBzOLo7fUoWKUmdcclgtUmcsMbTp8mesywvdjd4+46YagWS50li+AAkOxdf7pOb6/Q2Oiks9NYd7OBl8Nwibzn6/TI0uWLnsfDzeJGaqxyi72tutabrdBmgriVx/Xl8v1grvGGmsWfr9B0tvLN5fpLpe81ne6/3fmXx/W22fiq0fdpsvGCvvTE2fAATbrgAAAQNklEQVR4nO1dC3uiOBdWAmqACioqXqLVYqvV6nSn25nZ3Znv//+rj5yAAhKUq2J9n2emk8Gm5G1yrslJpXIJdFZjgQs8Xowu8lYXwKtJ+ETYMJtPl37FYvCi40gi7Gmhv176JQvBzjxBhCCg9aVfsghoJp0SSDDCYT+x8fAVRMWIMoFqqhIOtUWp+BLLA5gQFLHKg0yZaF/6NQsAMCHziRDppLgz8VWZUBQ2ePeL8lWZUA2hTofeF2re5ldkAqGeCEPfN+9M3Jm4M3FnonJn4oA7Ey7uTLi4M+HizoSLOxMu7ky4uDPhwsuE5GdC+rJMyMaEDr1rtLzNL8jEPVJzZ4LhzoQLFuVXeVSIJYtta8nBovxynZPvmNRQeZgY7fSH5HCyokjiAJ6Wg4lh0zyV4k2NUjAx1/OmoSxMWKdT3V+DiQ6BVLchh4Oluk9/AAmc5wYqCxOjJh1HS+EoQQVS3QIa8D6gNuB5TeV10C+L7gAmDK5dVBUNYIprOYkToIpHlI1GciY0LePRRgGYqEWYiNQeQF3+B6qUiJxszA0ZZjzcCFAm0JUy0W5ifTbPesQ8eJhwU90q++qkuj1MuA9U3+cOTAQesGZyJjpUqyF9UdASOTChIuTEE2pVT3PPhDhAMgzRQANvc8+EKiAnOd7wNxMy4WxlI0Yx0+LAxESS6mzowMSh6TLRRQYduuJvepjINno3dE0+XMx+Ti8TyMtEfd+8DBPaGDNDhe7nXOQw8iCulokt3fhrqDVw4fRdDkMP4FqZ0Kjta/dniyMQFlbucvNamVgR573ECayQ/Km4UiY08IbqoIZVGah4zGP4HlwpE09USjQce01pgO+Ss9i8UibW9pwALe6lIl9lep1MLHW/Ca/QBYJJribWdTKxMWkkwOPMqGBijfOUmlfJBMhLn6cv1kFq5ikqrpKJtn4UE2F2xUOO6yOO3yEFmBCCTGSVK4fF0av6AC+Cczw85PFFZZm60WJf7lc9zYNX3pNrMPSaDC9pN6s+JpSGzHLlcsvbTMAEdUKNYBhMhfXxlhMP1xmpCX8nOgnzFJrXyMQbCWgOB3KuRgWLY/LHKdKAbBQTSvZMgJiYHPfUg0mRKxMCP9WtgCvY4I4UXi8qV67Q4Hi8E3EQmQjrDCbFMs1wtZcOD2DNCUZPDUdPZomdWp3zgQHLqXI7qIOhTIbcF+h0jt6Wxz1oUjNFqGI4fmhy4YTIeKluJwUmoJMfiH5O+G/woG9efO9L9yGEZ1gUCGAllpnPzdxT4emATb9DQXPW4ZIJZA5Jmk/bFpELTwlseJcIWJghqsMGtbnNTTIiOvlvjsgAZOV5ZRqbCFqY7qRIYVK8wpRAciMchpPqNqKfJ+9APtUBxOaQ5XllGstF9XAmbOsGk2SH1Ic0+IMGVTEcCmyDQi2F97zv5Mp5HagnOqh2WQc9bgfUYPH9nikT0rE5AUx0kydZaf4kwoYUVbp40ufKIzponOpAOp8JEBRkW+nM20+rzc6yZjPr8Xnx0Z4f6eJwJqJMRGowpLa2+ZYXk/ccAcgQXPsf/NVRVVgmqKnrxDRNhDBGyDSJrjfN3VP0qjmHifz9jigmlCATbzpXYlbBYg2HSZrj7xHxCw8TE5bKVp2Jx5oeJlT2XJkwf5g1vUyEduBhwnmw72ASZML3wG0eMfHK16JsXwoX2NTXbzzNsmdCHEiIDV3yN48iNZIbqQnmyiUnSCUNfE3BE6mBoUuNYKSGZde7EpMnSPI2j5iY09XR5zBRY5rIBV0dDC4ZxOCEMDxMIAlCTgb8FLuJlHAmcsiVMyb6CLOhB5oBJl6otc1ZsPbrIFtjt7q9uj2jmHZS1PqgXzMEhw2sz15OMYECTATnRH5xTHfozpzwNY+YqBhUn3GY6Ld6E9DY/v+225NBDTMuTBzm+paRCYt+B28znxhOETxRBrLElsjHbTABRmYvQl1xIYo9MHrR7DaYmEdbg9FcgEzVQ/bslZGJCj0fcBTbPhMsRhZicpaSiaNk4Plgca3HYyLKyQSEFBtJiGCvE+qjlZIJiOnyXI9I0E5D5WVZmfjwbiSJQ8SEv1++nEx0aKdSPT4V1LM2rTAiSsqEswcxLg/ws3Az1Nj2eWCO3yEBE12nuWeifnauXPI2w3LlhtsMMsHIlyRfM4wJDeMIN4xHBMTH9BD70sdEtd5gSb9WA3x/p3lgQmnAcRWx2+hWPU1PrrzR8nbgNvdMKLUGeK+DRt9pqj4m9t9Ra9Q9HYQy4UQdY60P+3ctcDSonwlqfx3+dv/hiU8Efioz8H2RmrAOPPGJwAPnb2+kJvQNQplYQm3eOOYV22viTxjwmAjDFcas7LUxXLMsjXS+ecWWRkTgG5iIWG9gnEblyqkZfzJXbmTIRKe9ENzjuDHsTHZgLSJ/DGcDjODMP7znyVQ3y5Wf6mDC78Bgk4b7gYGHic5yaxm6c24TydxejzqZNFioNyIBwCRPo1cPB9sfLhi85z0WQeV30GVvbQx4HbjJdm4HMITxfDlcPRqEkH3K2Th7QrhJFUyOIjSjlUU7pXD55UE473neHWBdt0nAeP9hecCdhkc8sJiEYBpBGfGy021mMYNQPiBktOoxeGgwMnUrqDVezSLOR+cEhCSj34uo1OynQVS7bmL2YRtcGe1E2yWQ50+gGfEn+F8pCIB1YtQoC+fQADHteld2dqpgsj7Sni+YnRNv1EqFVn/Qq6tHMWs/Jiqrb66qk96g1RDcDTtYH4fkOJ7hkOWAl7q+ZpyaBz3JqXkvIMkrivXxU0jei22lS+DOXj/A2g0AY9KctUPzfx+cTZ03AFUKsIBMHc8+wl3wSuUxRVT4usH8CipYTdMkRNcN63ubR4MNes1MhDtUZkA4arezds+b1fZt+XJitxU1jhPE/64fbKtyjEMNNCh8m0xQeRmW2opi4iZXBz3dgY0Y+w9vVU5AHsO3a/MUZnROXPq184AQGY8KgYUTBMevHwl28e/QTdoTIlWh8bau0yyzwNuOUl7UUezTPqubZAJUKIl3Agz8Ds5O3/KC5n0xibeF/y1ip29pwQ64xFGhNtqJN2tdMcCq0iO8rTAsT6S8ygiwqsy4h+tfmvFTzNcOSJLFPt6iHZ/SLzvYlIh9NlIDt/zSL58pIPGqxy+3AI7HLRmZbA9Z+IahSFAjE98SE1CXJUkFjlXEIaoygkmJBFMCcuO3FNyG+hsJpISz+/t21CiYl8kO1XciDsyUEDTJkbCOlba+pVgNOKHmcxIiWM1V6UaUBwvthx1ROAerW/JGIVQV0wnd4/V2fDC2GQ0nrbwxuh2RCfv+9OQVrCLOGJYLbFNs6FmN87ALr4FUOoi95BqU4SnTsJUynYridHoJZQTJ8YSlWABQtSyjEIUy/fuT9vn5d+FcgMORolARBcksIzj98e52+v5jmkmX54IVxIyTHA9BZoJC+eH5jWh/FUtFxDmmswGR/kwsCiBCm8/Z158Z9HguwPMSzGS1efZ4odv3Iw4qnIvpL9rboqkT1u+v4iYFOyGQvu4hjeCh9BLuB+1rp+O9U1zcpICjEGnXRsVxPVJHa6Z/Ku7xEKfff4qaFKxSbFLPy4M0Z/UPmP5rd/Vowo63F41O1KKWBzvR1czgjh+4+iK1Zz79dKIdNhXNh6bd72cxTECFK4Gksan2+J7F8gCBOXN3CJuVwuYECImMCubOEx7L9mH6rcJEDhBB40b/FcMEExIpFagL6o+mNa6Uv+yOOqwIDstU/1WExS32s1GgDrZRJaHOxZSa2iNZN03doIcP34uYEuwgcDZCgqIDd+Cl/BXCpKhow8XiDfTZ7wKmBHM3zFl2VbXB90jrmoOk2KMIa0KcsFMbMXeNROE1RX2TA8C4cvCtiLWhgtpIlPLiQfNfipIU0x+/mPf1WYhTDheWpHXFg3giWdiZVWX68/efP79/FhOoYZfYHB13TAco351J0pyexsugmzMAB72yUxsuVtlMigLBiMj+NriOnrQS0oVQY/ozcyIc56M8k6KWtSFxQMe5eS/mG4lq7xIhfRCW5jqfe0qSVEIS1ZYkFZ43Epn6zIuIigZ+WJzQrqj04eB8wRs6RdXIlQhWrplffPT4hZQ+K2FQsHQR61D4hOQiIxys0dnDEu114ZxaN0mhGofFsXO+NnMOF9SfEbwSlV7NqWGA9N3/ipwSYp/dKpu5QeXHAkJO0etDFKv1lnEo0bysVP4tLLPhXJGA9aQbZ84FE5r8A6SiaM+GPQ0Cao7ZqbOiMn/ihN1qUcDt00uwNFvHlS6grfZa8qGmhUlm7uk77WchNoVzyTAiqe5zOhMrVs8Kqp94qpvUB10ob+Kp7IEXnrBAEQF9UWmBiAipMZMLWJzerR0F1U0wVDfxVPhApGkN/Rmn/OPYtvJkBdqec792mqETfeMRxqbeXD8dJ97+zpcKscpui8HH1Zdyw1LnlXXCJtHN8Sa8zksl1yiVOyGIkeuNugF8OLOCXoIiHcqbNM3182rJX6I5Sk1bQjhplOf0WeA4WAAVeLHaWLP1em3tFqvVtv3SObE+36s5USG6heoyjliegR0okNjm7HsuYTungiMtVJdhMP9cPFIqTDmutsphVlC331mr+V0fGwENqJBwXAvmPWNZYbu7bqJ1d4EJQaHBAsEkrsrKlAqx6lQuxMRIeg1iBthQZYr1x5jCQstMmYpKlxVMtJV33v5WNNilkiaO+9vIxsQS1b5TONLUN8WqzmMMaYg3wQpNnxoWxUlLcMMfj0XaUhyMDMKk9ireEvlMlwuEAq8OD81ZEW7nGVgwy5uQbSwuUuxUFquTvuvs2W7/lfBg43VMGBd4G2ux/pfIshBFddBwC7ya+s7Hg3ZhaaF9Z4W9McGbOAv2Pfa0oNdz1fbldQlZ+Ow6bbPbWBeWGCOr6cawx9v305938asagwuYDfv760zd/AjMgNlwNO+MLy0855bObifG5GHNLTp6jG/ncWFPhnpf3t/fjYm5O6qN3t6MZh+7Ufqd2Wkxf9adjZaINGer5ZlL9v2PcoILykK3Jnho0EMLvG6Ho/XmScPZDisRRitTR86NCESXre3yrIXy/mfK40K0V0SvXzOQ54bLprEK9/qGq9HmdfMSo/JnjtDaM504ZGBEo1eL4edp5ar9IwbMC4ibq72ulwTo0Vhx5YA2fp1XhtYFvQ8/Ok8z073DgEY0if5Q262G844Wyciv31SnssyBok56Tpj8ECK2RSS2tpExgNFssZpxbuS5DF7edqZOsGcQhDSb8my3WT2156PR+3sIKdrnn0m9N+i3ag3DVwXcCY6uF+3Tkmc0urT7cQRtuVo/wPUOh+EgVsmZYKMxXq/XM8t6pKDXYq/X47FsCMifKKDfRCXOg7wYnip7fNXQllvL9hKJeRQHZ5dfsDgwXIsdchcGhpVlGtb29ep+z4kwel3t1gZcBX7mfQ82RfSycDKePW8jwuTlRGfU/vhOCaG3o9Pr0ekU8KwbmAB07cB16WNrs3qbl3o5nIKmvczbw6ft982jNRuPDXbfj2GM17PZ4/Ni9TRsL0fRKuai+D8H39zPahpNnQAAAABJRU5ErkJggg==" vertex="1" parent="1">
          <mxGeometry x="1219.9999999999998" y="394.57" width="80" height="57.36" as="geometry" />
        </mxCell>
        <mxCell id="SPn83IJFLfhqAifAaKUE-49" value="Code Change" style="text;html=1;align=center;verticalAlign=middle;resizable=0;points=[];autosize=1;strokeColor=none;fillColor=none;" vertex="1" parent="1">
          <mxGeometry x="125" y="230" width="90" height="20" as="geometry" />
        </mxCell>
        <mxCell id="SPn83IJFLfhqAifAaKUE-51" value="WebHook" style="text;html=1;align=center;verticalAlign=middle;resizable=0;points=[];autosize=1;strokeColor=none;fillColor=none;" vertex="1" parent="1">
          <mxGeometry x="335" y="240" width="70" height="20" as="geometry" />
        </mxCell>
        <mxCell id="SPn83IJFLfhqAifAaKUE-54" value="Update Config Values" style="text;html=1;align=center;verticalAlign=middle;resizable=0;points=[];autosize=1;strokeColor=none;fillColor=none;" vertex="1" parent="1">
          <mxGeometry x="349" y="380" width="130" height="20" as="geometry" />
        </mxCell>
        <mxCell id="SPn83IJFLfhqAifAaKUE-58" value="Webhook Sync" style="text;html=1;align=center;verticalAlign=middle;resizable=0;points=[];autosize=1;strokeColor=none;fillColor=none;" vertex="1" parent="1">
          <mxGeometry x="540" y="430" width="100" height="20" as="geometry" />
        </mxCell>
        <mxCell id="SPn83IJFLfhqAifAaKUE-63" value="" style="edgeStyle=orthogonalEdgeStyle;rounded=0;jumpSize=6;orthogonalLoop=1;jettySize=auto;html=1;dashed=1;targetPerimeterSpacing=0;strokeWidth=2;entryX=1;entryY=0.75;entryDx=0;entryDy=0;exitX=0;exitY=0.5;exitDx=0;exitDy=0;" edge="1" parent="1" source="SPn83IJFLfhqAifAaKUE-7">
          <mxGeometry relative="1" as="geometry">
            <mxPoint x="638.8299999999999" y="488.96000000000004" as="sourcePoint" />
            <mxPoint x="533.9000000000001" y="491.05500000000006" as="targetPoint" />
            <Array as="points">
              <mxPoint x="660" y="491" />
            </Array>
          </mxGeometry>
        </mxCell>
        <mxCell id="SPn83IJFLfhqAifAaKUE-64" value="Pull" style="text;html=1;align=center;verticalAlign=middle;resizable=0;points=[];autosize=1;strokeColor=none;fillColor=none;" vertex="1" parent="1">
          <mxGeometry x="560" y="490" width="40" height="20" as="geometry" />
        </mxCell>
        <mxCell id="SPn83IJFLfhqAifAaKUE-65" value="" style="edgeStyle=orthogonalEdgeStyle;rounded=0;jumpSize=6;orthogonalLoop=1;jettySize=auto;html=1;dashed=1;targetPerimeterSpacing=0;strokeWidth=2;" edge="1" parent="1">
          <mxGeometry relative="1" as="geometry">
            <mxPoint x="540.0000000000001" y="268.07" as="sourcePoint" />
            <mxPoint x="660" y="268" as="targetPoint" />
            <Array as="points">
              <mxPoint x="576.1" y="268.07" />
              <mxPoint x="576.1" y="268.07" />
            </Array>
          </mxGeometry>
        </mxCell>
        <mxCell id="SPn83IJFLfhqAifAaKUE-66" value="Push&amp;nbsp; Docker Image" style="edgeLabel;html=1;align=center;verticalAlign=middle;resizable=0;points=[];" vertex="1" connectable="0" parent="SPn83IJFLfhqAifAaKUE-65">
          <mxGeometry x="-0.17" y="-2" relative="1" as="geometry">
            <mxPoint x="1" y="-22" as="offset" />
          </mxGeometry>
        </mxCell>
        <mxCell id="SPn83IJFLfhqAifAaKUE-71" value="" style="edgeStyle=orthogonalEdgeStyle;rounded=0;jumpSize=6;orthogonalLoop=1;jettySize=auto;html=1;dashed=1;targetPerimeterSpacing=0;strokeWidth=2;exitX=0.5;exitY=1;exitDx=0;exitDy=0;entryX=0.5;entryY=1;entryDx=0;entryDy=0;" edge="1" parent="1" source="SPn83IJFLfhqAifAaKUE-7" target="SPn83IJFLfhqAifAaKUE-19">
          <mxGeometry relative="1" as="geometry">
            <mxPoint x="770" y="670" as="sourcePoint" />
            <mxPoint x="950" y="720" as="targetPoint" />
            <Array as="points">
              <mxPoint x="725" y="610" />
              <mxPoint x="955" y="610" />
            </Array>
          </mxGeometry>
        </mxCell>
        <mxCell id="SPn83IJFLfhqAifAaKUE-72" value="" style="edgeStyle=orthogonalEdgeStyle;rounded=0;jumpSize=6;orthogonalLoop=1;jettySize=auto;html=1;dashed=1;targetPerimeterSpacing=0;strokeWidth=2;entryX=0.5;entryY=1;entryDx=0;entryDy=0;exitX=0.5;exitY=1;exitDx=0;exitDy=0;" edge="1" parent="1" source="SPn83IJFLfhqAifAaKUE-7" target="SPn83IJFLfhqAifAaKUE-26">
          <mxGeometry relative="1" as="geometry">
            <mxPoint x="735" y="560" as="sourcePoint" />
            <mxPoint x="1230" y="570" as="targetPoint" />
            <Array as="points">
              <mxPoint x="725" y="610" />
              <mxPoint x="1255" y="610" />
            </Array>
          </mxGeometry>
        </mxCell>
      </root>
    </mxGraphModel>
  </diagram>
</mxfile>
